<svg width="53" height="53" fill="none" xmlns="http://www.w3.org/2000/svg"><path fill-rule="evenodd" clip-rule="evenodd" d="M5.686 37.024c.052.57-.26 1.236-.756 1.553-.34.19-.73.317-1.122.19-.652-.253-1.121-1.014-1.174-1.838.079-.19-.052-.539.183-.634l2.87.73zM50.157 34.9c.078.793-.157 1.553-.73 1.997-.34.19-.757.349-1.148.222-.496-.222-1.07-.792-1.095-1.458v-.158c1.017-.127 1.956-.444 2.973-.603zM35.864 11.665l1.252-.349v1.427l-1.226.412v3.55l-1.148.349v-6.435l1.122-.349v1.395zM0 53V0h53v53H0zM28.091 7.861c-1.774-.443-3.26.73-4.408 2.314-.782 1.141-1.07 2.917-.574 4.312.391.918 1.148 1.457 1.904 1.743 1.904.38 3.626-.793 4.67-2.726.651-1.205.73-3.138 0-4.343-.418-.697-.992-1.078-1.592-1.3zM5.008 48.721l2.556-.412s-.287-.254-.782-.983c-.496-.76-.861-2.187-.261-3.614.574-1.426 1.539-2.25 2.92-2.504l32.656-4.691 5.713 2.6v-.73c.026-.254.26-.222.39-.349.679-.063 1.879-.253 1.93.413v7.29l2.244.317V.729h-6.208l.705 8.337 2.112 24.978c.026.413-.104.603-.391.666-.287.063-.522-.032-.626-.285l-1.122-5.801-4.955-2.346-5.19 5.991v.064a337.644 337.644 0 014.147 3.138l-3.991.634-2.27-1.522-1.93 2.156s-2.66.475-3.99.57c1.147-1.394 2.452-2.852 3.651-4.216-1.8-1.3-3.625-2.504-5.425-3.772-.808.159-1.67.254-2.425.476.912.063 1.695.475 2.451.95 1.122.793 2.243 2.156 2.035 3.9-.157 1.14-.835 2.282-1.722 2.884-2.869.412-5.738 1.014-8.633 1.236-.756-.348-1.617-1.014-1.93-2.028-.496-1.744.287-3.36 1.33-4.533-.704-.285-1.46-.539-2.165-.856v2.124l-3.938.824v1.775l3.625-.697v2.123l-3.625.634v1.617l-2.504.38v-6.75L8.581 33l.026-1.332 33.36-7.069 4.538 2.22-1.434-7.577c-1.044-.665-1.852-1.078-2.974-1.648l-2.243 4.247v2.346l-1.721.412v-2.504l-.991-1.363c-.652-.19-1.67-.76-2.27-.92.418.191 1.044.825 1.174 1.49a2.175 2.175 0 01-.756 2.03c.574.475 1.774 1.457 1.774 1.457l-2.035.413-1.643-1.364v1.776l-1.617.317v-4.28l-1.33-.665s.052 2.662 0 3.898c-.105.73-.314 1.237-.679 1.49l-2.19.476c-.47-.032-.731-.602-.861-1.363-.13-1.141-.052-2.631-.079-3.392l-.73-.254v1.522l-1.121.285v3.804l-1.33.285v-3.772l-1.174.317.026-1.078-.704-.285-.027 5.23-1.434.317-1.748-2.123v2.536l-1.33.253.026-4.565-.965-.412v1.205l-1.67.475v.983l1.54-.38v.982l-1.513.412.026.92 1.67-.38v.95l-3.053.698v-3.582c-.417-.159-.625-.349-1.747-.57.522.158.835.316 1.017.982-.339.285-.6.444-.939.729-.182-.285-.47-.349-.782-.317a1.38 1.38 0 00-.574.697c-.13.349-.078.825.026 1.173.13.38.47.57.809.57.365-.063.6-.57.756-.887.365.159.678.349 1.017.539-.182.507-.417.76-.73.92-.652.19-1.565.38-2.243.506-.47-.317-.783-.95-.913-1.553-.13-.95-.026-1.997.626-2.662-.313-.19-.522-.286-.86-.444V24.98l26.082-7.069a2446.32 2446.32 0 007.381-2.029l2.608 1.395-1.017-5.262s-1.773-.92-2.556-1.331c.444.285.287 3.106.313 4.533l-1.148.348v-3.487s.079-.285-.208-.444c-.313-.158-.574.223-.73.476v3.709l-1.174.317V9.383c-2.217-1.173-4.434-2.377-6.677-3.519.782.856 1.382 1.902 1.643 3.075.73 3.836-.913 7.29-3.495 9.51L24.7 19.843c-1.434-.031-2.817-.697-3.782-2.123-1.2-1.807-1.356-4.85-.6-7.006-.521-.317-1.069-.729-1.565-.95 2.191 4.247-1.93 7.163-3.73 10.302 1.461-.444 4.435-1.205 4.435-1.205l-.026 2.44-9.834 2.663v-1.426l3.991-5.484c.939-1.332 2.008-2.536 2.739-3.994.078-.444.052-.95-.313-1.236-.34-.349-.913-.285-1.357-.222-.86.317-1.773 1.236-1.8 2.409l-3.207.888c.313-2.726 2.112-5.675 4.33-6.53 2.503-1.268 5.294 1.267 6.546 1.87l.678-1.395c1.774-3.011 4.408-4.913 7.538-4.438 1.774.286 6.677 3.17 9.416 4.565V6.276l1.148-.253 3.547 1.965L41.524.73H10.328L5.947 29.195l-.94 6.086-.182.38a.456.456 0 01-.547.127c-.183-.095-.392-.349-.366-.634L4.982.634H.626L.6 49.544l2.19-.411v-8.749c-.025-.539.705-.602 1.096-.634.392-.032 1.096.032 1.122.634v8.337zM39.307 6.37V11s-.053-.127.339-.57c.417-.413.547-.381.887-.413l3.025 1.616-.652-3.296-3.6-1.965zm2.764 31.54l-26.5 3.456 32.239 4.089v-4.977l-5.739-2.567zm-4.486-18.987l1.382 1.839.522-.983-1.904-.856zM29.03 22.03l-1.043-.412s-.026 3.233.026 3.518c.078.285.313.476.573.412.236-.095.392-.38.444-.634V22.03zm4.8-.73a7.663 7.663 0 00-.496.064V22.6s.417-.032.756-.19c.34-.159.34-.475.313-.666 0-.158-.105-.507-.574-.443zm-15.52 2.473l2.008 2.694V24.47l-2.008-.697zm12.99 4.533l3.207 2.377 1.696-1.838-4.904-.54zM22.404 32.3c-1.252.285-2.79.95-3.104 2.694 0 .444.235.793.522 1.015 1.513 1.014 3.651.729 5.034-.444.495-.476.965-1.141.834-1.934-.678-1.394-2.06-1.3-3.286-1.331zm-9.181 9.636c-1.409-.095-3.6-.095-4.747.825-.913.792-1.46 1.838-1.2 3.233.183.824.86 1.616 1.487 2.029.521.316 1.095.538 1.67.792-3.418.57-6.391 1.204-9.834 1.712v1.743l51.774.032v-5.104l-39.15-5.262z" fill="#212529"/></svg>