<svg width="53" height="53" fill="none" xmlns="http://www.w3.org/2000/svg"><path d="M48.713 9.89l-3.676-1.277V6.166L26.502 0 7.96 6.166v2.447L4.282 9.89v2.64L0 14.04c.044 1.671.161 3.297.376 4.888C2.28 33.438 10.991 44.798 26.502 53 42.01 44.797 50.71 33.438 52.614 18.928A45.44 45.44 0 0053 14.04l-4.287-1.51V9.89zm-7.158-1.591v2.569l3.858 1.464v2.482l3.988 1.51a56.446 56.446 0 01-.346 2.604c-2.154 13.097-9.673 23.24-22.553 30.434C13.608 42.168 6.09 32.025 3.935 18.928a56.488 56.488 0 01-.346-2.604l3.979-1.51v-2.482l3.877-1.465V8.3l15.057-4.925L41.555 8.3z" fill="#212529"/><path fill-rule="evenodd" clip-rule="evenodd" d="M17.304 11.126c-1.856.4-3.31.846-4.36 1.348.61 7.067 1.747 12.752 3.412 17.068l-.981 1.12c-2.612-4.925-4.34-9.93-5.185-15.007-1.646.42-2.837.902-3.57 1.45 1.236 7.7 4.048 14.565 8.467 20.579l2.734-2.432c2.246 5.31 4.673 8.947 7.295 10.923V7.407c-1.475.071-2.954.481-4.439 1.241v21.715c-1.987-6.55-3.115-12.955-3.373-19.237zM42.85 29.238c.326-2.513-.923-4.387-3.75-5.618 2.333-1.475 3.47-3.486 3.422-6.014-.371-5.016-5.249-8.456-14.608-10.325v39.006c9.242-6.12 14.217-11.805 14.935-17.049zM32.546 37.32v-8.126c2.969-2.503 4.722-2.508 5.244-.015.527 2.482-1.22 5.198-5.244 8.141zm0-24.298c4.023 1.292 5.781 3.03 5.268 5.198-.508 2.173-2.26 4.114-5.268 5.826V13.021z" fill="#212529"/></svg>