<svg width="28" height="28" fill="none" xmlns="http://www.w3.org/2000/svg"><g clip-path="url(#clip0)" fill="#212529"><path d="M13.978 0C9.437 0 5.742 3.695 5.742 8.236v11.528c0 4.541 3.695 8.236 8.236 8.236 4.542 0 8.236-3.695 8.236-8.236V8.236C22.214 3.695 18.52 0 13.978 0zm6.556 19.764a6.564 6.564 0 01-6.556 6.556 6.564 6.564 0 01-6.556-6.556V8.236a6.564 6.564 0 016.556-6.556 6.564 6.564 0 016.556 6.556v11.528z"/><path d="M13.979 5.57a.84.84 0 00-.84.84v3.866a.84.84 0 101.68 0V6.41a.84.84 0 00-.84-.84z"/></g><defs><clipPath id="clip0"><path fill="#fff" d="M0 0h28v28H0z"/></clipPath></defs></svg>