<svg width="820" height="564" fill="none" xmlns="http://www.w3.org/2000/svg"><g clip-path="url(#clip0)"><path d="M467.79 171.56l-.4-.7 88.69-51.59.2.11 91.64 50.28-.39.71-91.44-50.18-88.3 51.37z" fill="#fff"/><g opacity=".1"><path opacity=".1" d="M376.18 416.81l-38.35-22.14 38.35-22.14 38.35 22.14-38.35 22.14z" fill="#42E8E0"/><path opacity=".1" d="M376.18 416.81l-36.68-21.18-1.67.96 38.35 22.14 38.35-22.14-1.66-.96-36.69 21.18z" fill="#fff"/><path opacity=".1" d="M376.18 358.05l-38.35-22.15v44.29l38.35 22.14 38.35-22.14V335.9l-38.35 22.15z" fill="#42E8E0"/><path opacity=".1" d="M376.18 402.33l-38.35-22.14V335.9l38.35 22.15v44.28z" fill="#42E8E0"/><path opacity=".1" d="M414.53 380.19l-38.35 22.14v-44.28l38.35-22.15v44.29z" fill="#2FD3C7"/><path opacity=".1" d="M376.18 358.05l-38.35-22.15 38.35-22.14 38.35 22.15-38.35 22.14z" fill="#42E8E0"/><path opacity=".1" d="M376.18 358.05l-36.68-21.18-1.67.95 38.35 22.15 38.35-22.14-1.66-.96-36.69 21.18z" fill="#fff"/><path opacity=".7" d="M376.18 527.13l-26.16-15.1 26.16-15.1 26.16 15.1-26.16 15.1z" fill="#18B2A3"/><path opacity=".1" d="M426 386.47l-38.35-22.14L426 342.19l38.35 22.14L426 386.47z" fill="#42E8E0"/><path opacity=".1" d="M426 386.47l-36.69-21.18-1.66.96L426 388.39l38.35-22.14-1.67-.96L426 386.47z" fill="#fff"/><path opacity=".1" d="M326.37 388.39l-38.35-22.14 38.35-22.14 38.35 22.14-38.35 22.14z" fill="#42E8E0"/><path opacity=".1" d="M326.37 388.39l-36.69-21.18-1.66.96 38.35 22.14 38.35-22.14-1.67-.96-36.68 21.18z" fill="#fff"/><path opacity=".1" d="M376.18 416.81l-38.35-22.14 38.35-22.14 38.35 22.14-38.35 22.14z" fill="#42E8E0"/><path opacity=".1" d="M376.18 416.81l-36.68-21.18-1.67.96 38.35 22.14 38.35-22.14-1.66-.96-36.69 21.18z" fill="#fff"/><path opacity=".1" d="M376.18 299.28l-38.35-22.14v44.28l38.35 22.14 38.35-22.14v-44.28l-38.35 22.14z" fill="#42E8E0"/><path opacity=".1" d="M376.18 343.56l-38.35-22.14v-44.28l38.35 22.14v44.28z" fill="#42E8E0"/><path opacity=".1" d="M414.53 321.42l-38.35 22.14v-44.28l38.35-22.14v44.28z" fill="#2FD3C7"/><path opacity=".1" d="M376.18 299.28l-38.35-22.14L376.18 255l38.35 22.14-38.35 22.14z" fill="#42E8E0"/><path opacity=".1" d="M376.18 299.28l-38.35-22.14v1.92l38.35 22.14 38.35-22.14v-1.92l-38.35 22.14z" fill="#fff"/><path opacity=".1" d="M426 327.7l-38.35-22.14v44.28L426 371.98l38.35-22.14v-44.28L426 327.7z" fill="#42E8E0"/><path opacity=".1" d="M426 371.98l-38.35-22.14v-44.28L426 327.7v44.28z" fill="#42E8E0"/><path opacity=".1" d="M464.35 349.84L426 371.98V327.7l38.35-22.14v44.28z" fill="#2FD3C7"/><path opacity=".1" d="M426 327.7l-38.35-22.14L426 283.42l38.35 22.14L426 327.7z" fill="#42E8E0"/><path opacity=".1" d="M426 327.7l-38.35-22.14v1.92L426 329.62l38.35-22.14v-1.92L426 327.7z" fill="#fff"/><path opacity=".1" d="M475.81 356.13l-38.35-22.15 38.35-22.14 38.35 22.15-38.35 22.14z" fill="#42E8E0"/><path opacity=".1" d="M475.81 356.13l-38.35-22.15v1.92l38.35 22.15 38.35-22.15v-1.92l-38.35 22.15z" fill="#fff"/><path opacity=".1" d="M326.37 329.62l-38.35-22.14v44.28l38.35 22.14 38.35-22.14v-44.28l-38.35 22.14z" fill="#42E8E0"/><path opacity=".1" d="M326.37 373.9l-38.35-22.14v-44.28l38.35 22.14v44.28z" fill="#42E8E0"/><path opacity=".1" d="M364.72 351.76l-38.35 22.14v-44.28l38.35-22.14v44.28z" fill="#2FD3C7"/><path opacity=".1" d="M326.37 329.62l-38.35-22.14 38.35-22.14 38.35 22.14-38.35 22.14z" fill="#42E8E0"/><path opacity=".1" d="M326.37 329.62l-38.35-22.14v1.92l38.35 22.14 38.35-22.14v-1.92l-38.35 22.14z" fill="#fff"/><path opacity=".1" d="M276.55 359.97l-38.35-22.14 38.35-22.14 38.35 22.14-38.35 22.14z" fill="#42E8E0"/><path opacity=".1" d="M276.55 359.97l-38.35-22.14v1.92l38.35 22.14 38.35-22.14v-1.92l-38.35 22.14z" fill="#fff"/></g><g opacity=".2"><path d="M392.51 436.62a17.553 17.553 0 00-7.92-13.73l-5.59-3.22.4-.7 5.6 3.23c4.59 2.65 8.33 9.12 8.33 14.42v6.45c0 5.05 3.55 11.21 7.92 13.73L428 472.25l-.41.69-26.75-15.44" fill="#fff" opacity=".2"/><path d="M438 467l-26.75-15.5c-4.6-2.65-8.33-9.12-8.33-14.42v-6.46c0-5-3.56-11.2-7.93-13.72l-5.59-3.23.41-.69 5.59 3.22c4.59 2.65 8.32 9.12 8.32 14.42v6.46a17.522 17.522 0 007.93 13.72l26.75 15.45-.4.75zm10.4-6l-26.75-15.44c-4.59-2.66-8.33-9.13-8.33-14.43v-6.45c0-5.05-3.55-11.21-7.92-13.73l-5.59-3.22.4-.7 5.59 3.23c4.59 2.65 8.33 9.12 8.33 14.42v6.45a17.556 17.556 0 007.92 13.73l26.76 15.44-.41.7zm10.41-6l-26.75-15.44c-4.6-2.65-8.33-9.12-8.33-14.43v-6.45c0-5-3.56-11.2-7.93-13.73l-5.59-3.22.41-.7 5.59 3.23c4.59 2.65 8.32 9.12 8.32 14.42v6.45a17.535 17.535 0 007.93 13.73l26.75 15.45-.4.69zm10.4-6l-26.75-15.45c-4.59-2.65-8.33-9.12-8.33-14.42v-6.45c0-5.05-3.55-11.21-7.92-13.73l-5.59-3.23.4-.69 5.59 3.22c4.59 2.66 8.33 9.13 8.33 14.43v6.45a17.529 17.529 0 007.93 13.73l26.75 15.44-.41.7z" fill="#fff" opacity=".2"/><path d="M479.62 443l-26.75-15.44c-4.6-2.65-8.33-9.12-8.33-14.43v-6.45c0-5.05-3.56-11.2-7.93-13.73l-5.61-3.26.4-.7 5.59 3.23c4.59 2.65 8.32 9.12 8.32 14.42v6.45a17.535 17.535 0 007.93 13.73L480 442.27l-.38.73z" fill="#fff" opacity=".2"/><path d="M490 437l-26.75-15.45c-4.59-2.65-8.33-9.12-8.33-14.42v-6.45c0-5-3.55-11.21-7.92-13.73l-5.59-3.23.4-.7 5.59 3.23c4.59 2.65 8.33 9.13 8.33 14.43v6.45c0 5 3.55 11.2 7.93 13.72l26.75 15.45-.41.7z" fill="#fff" opacity=".2"/><path d="M500.43 431l-26.75-15.44c-4.6-2.65-8.33-9.12-8.33-14.43v-6.45c0-5-3.56-11.2-7.93-13.73l-5.58-3.22.4-.7 5.59 3.23c4.59 2.65 8.32 9.12 8.32 14.42v6.45a17.535 17.535 0 007.93 13.73l26.75 15.44-.4.7zm10.4-6l-26.75-15.45c-4.59-2.65-8.33-9.12-8.33-14.42v-6.46c0-5-3.55-11.2-7.92-13.72l-5.59-3.23.4-.7 5.59 3.23c4.59 2.65 8.33 9.12 8.33 14.42v6.46c0 5 3.55 11.2 7.93 13.72l26.75 15.45-.41.7z" fill="#fff" opacity=".2"/><path d="M521.24 419l-26.75-15.45c-4.59-2.65-8.33-9.12-8.33-14.42v-6.45a17.538 17.538 0 00-7.93-13.73l-5.58-3.23.4-.69 5.59 3.22c4.59 2.65 8.32 9.13 8.32 14.43v6.45c0 5.05 3.56 11.2 7.93 13.73l26.75 15.44-.4.7z" fill="#fff" opacity=".2"/><path d="M531.64 413l-26.75-15.44c-4.59-2.65-8.33-9.12-8.33-14.43v-6.45a17.553 17.553 0 00-7.92-13.73l-5.59-3.22.4-.7 5.59 3.23c4.59 2.65 8.33 9.12 8.33 14.42v6.45c0 5.05 3.55 11.21 7.93 13.73l26.75 15.45-.41.69z" fill="#fff" opacity=".2"/><path d="M542.05 407l-26.75-15.46c-4.59-2.65-8.33-9.12-8.33-14.42v-6.45a17.547 17.547 0 00-7.97-13.73l-5.58-3.23.4-.69 5.59 3.22c4.59 2.65 8.32 9.12 8.32 14.43v6.45c0 5 3.56 11.2 7.93 13.73l26.75 15.44-.36.71z" fill="#fff" opacity=".2"/><path d="M552.45 401l-26.75-15.46c-4.59-2.64-8.33-9.11-8.33-14.42v-6.45a17.553 17.553 0 00-7.92-13.73l-5.59-3.23.4-.69 5.59 3.23c4.59 2.65 8.33 9.12 8.33 14.42v6.45c0 5.05 3.55 11.21 7.93 13.73l26.75 15.44-.41.71z" fill="#fff" opacity=".2"/><path d="M562.86 395l-26.75-15.44c-4.59-2.65-8.33-9.12-8.33-14.42v-6.46c0-5-3.56-11.2-7.93-13.72l-5.58-3.23.4-.7 5.59 3.23c4.59 2.65 8.32 9.12 8.32 14.42v6.46c0 5 3.56 11.2 7.93 13.72l26.75 15.45-.4.69z" fill="#fff" opacity=".2"/><path d="M573.26 389l-26.75-15.45c-4.59-2.65-8.33-9.12-8.33-14.42v-6.45c0-5.05-3.55-11.21-7.92-13.73l-5.59-3.23.4-.69 5.59 3.22c4.59 2.65 8.33 9.12 8.33 14.43v6.45a17.556 17.556 0 007.93 13.73l26.75 15.44-.41.7z" fill="#fff" opacity=".2"/><path d="M583.67 383l-26.75-15.44c-4.59-2.65-8.33-9.12-8.33-14.43v-6.45c0-5-3.56-11.2-7.93-13.73l-5.58-3.22.4-.7 5.59 3.23c4.59 2.65 8.32 9.12 8.32 14.42v6.45a17.535 17.535 0 007.93 13.73l26.75 15.45-.4.69z" fill="#fff" opacity=".2"/><path d="M594.07 377l-26.75-15.45c-4.59-2.65-8.33-9.12-8.33-14.42v-6.45c0-5.05-3.55-11.21-7.92-13.73l-5.59-3.23.4-.69 5.59 3.22c4.59 2.65 8.33 9.12 8.33 14.43v6.45a17.556 17.556 0 007.93 13.73l26.75 15.44-.41.7z" fill="#fff" opacity=".2"/><path d="M604.48 371l-26.75-15.44c-4.59-2.66-8.33-9.13-8.33-14.43v-6.45c0-5.05-3.56-11.2-7.93-13.73l-5.58-3.22.4-.7 5.59 3.23c4.59 2.65 8.33 9.12 8.33 14.42v6.45c0 5.05 3.55 11.21 7.92 13.73l26.75 15.45-.4.69z" fill="#fff" opacity=".2"/><path d="M614.88 365l-26.75-15.44c-4.59-2.65-8.33-9.12-8.33-14.42v-6.46c0-5-3.55-11.2-7.92-13.72l-5.59-3.23.4-.7 5.59 3.23c4.59 2.65 8.33 9.12 8.33 14.42v6.46c0 5 3.56 11.2 7.93 13.72l26.75 15.45-.41.69z" fill="#fff" opacity=".2"/><path d="M625.29 359l-26.75-15.45c-4.59-2.65-8.33-9.12-8.33-14.42v-6.43a17.537 17.537 0 00-7.93-13.7l-5.58-3.23.4-.69 5.59 3.22c4.59 2.65 8.33 9.12 8.33 14.43v6.45a17.556 17.556 0 007.92 13.73l26.75 15.44-.4.65zM324 472.94l-.4-.69 26.75-15.45c4.37-2.52 7.92-8.68 7.92-13.73v-6.45c0-5.3 3.74-11.77 8.33-14.42l5.59-3.23.4.7-5.59 3.22a17.553 17.553 0 00-7.92 13.73v6.45c0 5.31-3.74 11.78-8.33 14.43L324 472.94z" fill="#fff" opacity=".2"/><path d="M313.63 467l-.4-.7L340 450.8a17.52 17.52 0 007.93-13.72v-6.46c0-5.3 3.73-11.77 8.33-14.42l5.58-3.22.41.69-5.59 3.23c-4.37 2.52-7.93 8.68-7.93 13.72v6.46c0 5.3-3.73 11.77-8.32 14.42L313.63 467z" fill="#fff" opacity=".2"/><path d="M303.23 461l-.4-.7 26.75-15.44a17.541 17.541 0 007.92-13.73v-6.45c0-5.3 3.74-11.77 8.33-14.42l5.59-3.23.4.7-5.59 3.22c-4.37 2.52-7.92 8.68-7.92 13.73v6.45c0 5.3-3.74 11.77-8.33 14.43L303.23 461z" fill="#fff" opacity=".2"/><path d="M292.82 455l-.4-.69 26.75-15.45a17.538 17.538 0 007.93-13.73v-6.45c0-5.3 3.73-11.77 8.33-14.42L341 401l.41.7-5.59 3.22c-4.37 2.53-7.93 8.69-7.93 13.73v6.45c0 5.31-3.73 11.78-8.33 14.43L292.82 455z" fill="#fff" opacity=".2"/><path d="M282.42 449l-.41-.7 26.76-15.44a17.56 17.56 0 007.92-13.73v-6.45c0-5.3 3.74-11.77 8.33-14.43l5.59-3.22.4.69-5.59 3.23c-4.37 2.52-7.92 8.68-7.92 13.73v6.45c0 5.3-3.74 11.77-8.33 14.42L282.42 449z" fill="#fff" opacity=".2"/><path d="M272 443l-.4-.69 26.75-15.45a17.538 17.538 0 007.93-13.73v-6.45c0-5.3 3.73-11.77 8.33-14.42l5.59-3.26.41.7-5.61 3.21c-4.37 2.53-7.93 8.68-7.93 13.73v6.45c0 5.31-3.73 11.78-8.33 14.43L272 443z" fill="#fff" opacity=".2"/><path d="M261.61 437l-.41-.7 26.8-15.48c4.37-2.52 7.92-8.68 7.92-13.72v-6.45c0-5.31 3.74-11.78 8.33-14.43l5.55-3.22.4.7-5.59 3.23c-4.37 2.52-7.92 8.68-7.92 13.73v6.45c0 5.3-3.74 11.77-8.33 14.42L261.61 437z" fill="#fff" opacity=".2"/><path d="M251.2 431l-.4-.7 26.75-15.44a17.538 17.538 0 007.93-13.73v-6.45c0-5.3 3.73-11.77 8.33-14.42l5.58-3.23.41.7-5.59 3.22c-4.37 2.53-7.93 8.68-7.93 13.73v6.45c0 5.31-3.73 11.78-8.33 14.43L251.2 431z" fill="#fff" opacity=".2"/><path d="M240.8 425l-.41-.7 26.76-15.45c4.37-2.52 7.92-8.68 7.92-13.72v-6.46c0-5.3 3.74-11.77 8.33-14.42L289 371l.4.7-5.59 3.23c-4.37 2.52-7.92 8.68-7.92 13.72v6.46c0 5.3-3.74 11.77-8.33 14.42L240.8 425z" fill="#fff" opacity=".2"/><path d="M230.39 419l-.4-.7 26.75-15.44c4.37-2.53 7.93-8.68 7.93-13.73v-6.45c0-5.3 3.73-11.78 8.33-14.43l5.58-3.22.41.69-5.59 3.23a17.538 17.538 0 00-7.93 13.73v6.45c0 5.3-3.73 11.77-8.33 14.42L230.39 419z" fill="#fff" opacity=".2"/><path d="M220 413l-.41-.69 26.76-15.45c4.37-2.52 7.92-8.68 7.92-13.73v-6.45c0-5.3 3.74-11.77 8.33-14.42l5.59-3.23.4.7-5.59 3.2a17.553 17.553 0 00-7.92 13.73v6.45c0 5.31-3.74 11.78-8.33 14.43L220 413z" fill="#fff" opacity=".2"/><path d="M209.58 407l-.4-.7 26.75-15.44c4.37-2.53 7.93-8.69 7.93-13.73v-6.45c0-5.31 3.73-11.78 8.33-14.43l5.58-3.22.41.69-5.59 3.23a17.538 17.538 0 00-7.93 13.73v6.45c0 5.3-3.73 11.77-8.33 14.42L209.58 407z" fill="#fff" opacity=".2"/><path d="M199.18 401l-.41-.7 26.76-15.44c4.37-2.52 7.92-8.68 7.92-13.73v-6.45c0-5.3 3.74-11.77 8.33-14.42l5.59-3.23.4.69-5.59 3.23a17.56 17.56 0 00-7.92 13.73v6.45c0 5.31-3.74 11.78-8.33 14.42L199.18 401z" fill="#fff" opacity=".2"/><path d="M188.77 395l-.4-.69 26.75-15.45c4.37-2.52 7.93-8.68 7.93-13.72v-6.46c0-5.3 3.73-11.77 8.33-14.42L237 341l.41.7-5.63 3.3c-4.37 2.52-7.93 8.68-7.93 13.72v6.46c0 5.3-3.73 11.77-8.33 14.42L188.77 395z" fill="#fff" opacity=".2"/><path d="M178.37 389l-.41-.7 26.76-15.44a17.553 17.553 0 007.92-13.73v-6.45c0-5.31 3.74-11.78 8.33-14.43l5.59-3.22.4.69-5.59 3.28c-4.37 2.52-7.92 8.68-7.92 13.73v6.45c0 5.3-3.74 11.77-8.33 14.42L178.37 389z" fill="#fff" opacity=".2"/><path d="M168 383l-.4-.69 26.75-15.45a17.538 17.538 0 007.93-13.73v-6.45c0-5.3 3.73-11.77 8.33-14.42l5.58-3.23.41.7L211 333c-4.37 2.53-7.93 8.69-7.93 13.73v6.45c0 5.31-3.73 11.78-8.33 14.43L168 383z" fill="#fff" opacity=".2"/><path d="M157.56 377l-.41-.7 26.76-15.44a17.553 17.553 0 007.92-13.73v-6.45c0-5.31 3.74-11.78 8.33-14.43l5.59-3.22.4.69-5.59 3.28c-4.37 2.52-7.92 8.68-7.92 13.73v6.45c0 5.3-3.74 11.77-8.33 14.42L157.56 377z" fill="#fff" opacity=".2"/><path d="M147.15 371l-.4-.69 26.75-15.45a17.538 17.538 0 007.93-13.73v-6.45c0-5.3 3.73-11.77 8.33-14.42l5.58-3.23.41.7-5.59 3.27c-4.37 2.53-7.93 8.68-7.93 13.73v6.45c0 5.3-3.73 11.77-8.33 14.43L147.15 371z" fill="#fff" opacity=".2"/><path d="M136.75 365l-.41-.69 26.76-15.45c4.37-2.52 7.92-8.68 7.92-13.72v-6.46c0-5.3 3.74-11.77 8.33-14.42l5.59-3.23.4.7-5.59 3.27c-4.37 2.52-7.92 8.68-7.92 13.72v6.46c0 5.3-3.74 11.77-8.33 14.42L136.75 365z" fill="#fff" opacity=".2"/><path d="M126.34 359l-.4-.7 26.75-15.44c4.37-2.53 7.93-8.68 7.93-13.73v-6.43c0-5.31 3.73-11.78 8.33-14.43l5.58-3.22.41.69-5.59 3.26a17.538 17.538 0 00-7.93 13.73v6.45c0 5.3-3.73 11.77-8.33 14.42L126.34 359z" fill="#fff" opacity=".2"/><path opacity=".2" d="M376.18 433.97L170.61 315.28 376.18 196.6l205.57 118.69-205.57 118.68z" fill="#BCBEFF"/><path opacity=".2" d="M376.18 431.19l-203.17-117.3-2.4 1.39 205.57 118.69 205.57-118.68-2.4-1.39-203.17 117.29z" fill="#fff"/></g><path d="M354.78 162.69a7.767 7.767 0 01-3.84-1.17l-26.75-15.45.4-.69 26.76 15.44c2 1.18 3.94 1.38 5.34.57 1.4-.81 2.18-2.56 2.18-4.91V150c0-2.66.92-4.65 2.58-5.61 1.66-.96 3.85-.77 6.15.57l5.59 3.22-.4.7-5.59-3.23c-2-1.17-3.94-1.37-5.34-.57-1.4.8-2.18 2.56-2.18 4.92v6.45c0 2.66-.92 4.65-2.59 5.61-.7.412-1.498.63-2.31.63z" fill="#42E8E0"/><path d="M344.37 168.67a7.74 7.74 0 01-3.83-1.17l-26.75-15.44.4-.7 26.75 15.45c2 1.17 3.94 1.38 5.34.57 1.4-.81 2.18-2.56 2.18-4.92V156c0-2.65.92-4.64 2.59-5.61 1.67-.97 3.84-.76 6.15.57l5.58 3.23-.4.69-5.59-3.22c-2-1.18-3.93-1.38-5.34-.57-1.41.81-2.18 2.56-2.18 4.91v6.45c0 2.66-.92 4.65-2.58 5.62a4.587 4.587 0 01-2.32.6z" fill="#42E8E0"/><path d="M334 174.66a7.764 7.764 0 01-3.84-1.17L303.38 158l.41-.69 26.75 15.44c2 1.18 3.94 1.38 5.34.57 1.4-.81 2.18-2.55 2.18-4.91V162c0-2.66.92-4.65 2.58-5.61 1.66-.96 3.85-.76 6.15.57l5.59 3.22-.4.7-5.59-3.23c-2-1.17-3.94-1.38-5.35-.56-1.41.82-2.17 2.55-2.17 4.91v6.45c0 2.66-.92 4.65-2.59 5.61a4.547 4.547 0 01-2.28.6z" fill="#42E8E0"/><path d="M323.56 180.64a7.74 7.74 0 01-3.83-1.17L293 164l.4-.7 26.75 15.45c2 1.18 3.94 1.38 5.35.57 1.41-.81 2.17-2.56 2.17-4.91V168c0-2.65.92-4.64 2.59-5.61 1.67-.97 3.84-.76 6.15.57l5.58 3.23-.4.7-5.59-3.25c-2-1.17-3.94-1.38-5.34-.57-1.4.81-2.18 2.56-2.18 4.91v6.46c0 2.65-.92 4.64-2.58 5.61a4.582 4.582 0 01-2.34.59z" fill="#42E8E0"/><path d="M313.16 186.63a7.764 7.764 0 01-3.84-1.17L282.57 170l.41-.7 26.75 15.44c2 1.18 3.94 1.39 5.34.57s2.18-2.55 2.18-4.91V174c0-2.66.92-4.65 2.58-5.61 1.66-.96 3.85-.76 6.15.57l5.59 3.22-.4.7-5.59-3.23c-2-1.17-3.94-1.38-5.35-.56-1.41.82-2.17 2.55-2.17 4.91v6.45c0 2.66-.92 4.65-2.59 5.61a4.548 4.548 0 01-2.31.57z" fill="#42E8E0"/><path d="M302.75 192.62a7.84 7.84 0 01-3.83-1.17L272.17 176l.4-.69 26.75 15.44c2 1.18 3.94 1.38 5.35.57 1.41-.81 2.17-2.56 2.17-4.91V180c0-2.65.92-4.64 2.59-5.61 1.67-.97 3.84-.76 6.15.58l5.58 3.22-.4.7-5.59-3.23c-2-1.18-3.94-1.38-5.34-.57-1.4.81-2.18 2.56-2.18 4.91v6.46c0 2.65-.92 4.64-2.58 5.61a4.577 4.577 0 01-2.32.55z" fill="#42E8E0"/><path d="M292.34 198.6a7.771 7.771 0 01-3.83-1.17L261.76 182l.41-.7 26.75 15.45c2 1.17 3.94 1.38 5.34.56 1.4-.82 2.18-2.55 2.18-4.91v-6.45c0-2.66.92-4.65 2.58-5.61 1.66-.96 3.85-.76 6.15.57l5.59 3.23-.4.69-5.59-3.22c-2-1.18-3.94-1.39-5.35-.57-1.41.82-2.17 2.55-2.17 4.91v6.45c0 2.66-.92 4.65-2.59 5.61-.707.4-1.508.603-2.32.59z" fill="#42E8E0"/><path d="M281.94 204.59a7.84 7.84 0 01-3.83-1.17L251.36 188l.4-.69 26.75 15.44c2 1.18 3.94 1.38 5.35.57 1.41-.81 2.17-2.56 2.17-4.91v-6.45c0-2.66.92-4.65 2.59-5.62 1.67-.97 3.85-.76 6.15.58l5.58 3.22-.4.7-5.59-3.23c-2-1.18-3.94-1.38-5.34-.57-1.4.81-2.18 2.56-2.18 4.92v6.45c0 2.65-.92 4.64-2.58 5.61a4.574 4.574 0 01-2.32.57z" fill="#42E8E0"/><path d="M271.53 210.57a7.775 7.775 0 01-3.83-1.17L241 194l.41-.7 26.75 15.45c2 1.18 3.94 1.37 5.34.57 1.4-.8 2.18-2.56 2.18-4.92v-6.45c0-2.66.92-4.65 2.58-5.61 1.66-.96 3.85-.76 6.15.57l5.59 3.19-.41.69-5.59-3.22c-2-1.18-3.94-1.38-5.35-.57-1.41.81-2.18 2.56-2.18 4.91v6.45c0 2.66-.91 4.65-2.58 5.61a4.558 4.558 0 01-2.36.6z" fill="#fff"/><path d="M261.13 216.56a7.74 7.74 0 01-3.83-1.17l-26.75-15.45.4-.69 26.75 15.44c2 1.18 3.94 1.39 5.34.57s2.18-2.55 2.18-4.91v-6.45c0-2.66.92-4.65 2.59-5.61s3.84-.76 6.15.57l5.58 3.22-.4.7-5.59-3.23c-2-1.17-3.94-1.37-5.34-.56s-2.21 2.55-2.21 4.91v6.45c0 2.65-.92 4.65-2.58 5.61a4.584 4.584 0 01-2.29.6z" fill="#fff"/><path d="M250.73 222.54a7.77 7.77 0 01-3.84-1.17l-26.75-15.44.41-.7 26.75 15.45c2 1.18 3.94 1.38 5.34.57 1.4-.81 2.18-2.56 2.18-4.92v-6.45c0-2.65.92-4.65 2.58-5.61 1.66-.96 3.85-.76 6.15.57l5.59 3.23-.41.69-5.58-3.22c-2-1.18-3.94-1.38-5.35-.57-1.41.81-2.18 2.56-2.18 4.91v6.45c0 2.66-.91 4.65-2.58 5.61a4.55 4.55 0 01-2.31.6z" fill="#fff"/><path d="M240.32 228.53a7.74 7.74 0 01-3.83-1.17l-26.75-15.45.4-.69 26.75 15.44c2 1.18 3.94 1.39 5.35.57 1.41-.82 2.17-2.55 2.17-4.91v-6.45c0-2.66.92-4.65 2.58-5.61 1.66-.96 3.85-.76 6.16.57l5.58 3.22-.4.7-5.59-3.23c-2-1.17-3.94-1.37-5.34-.56s-2.18 2.55-2.18 4.91v6.45c0 2.66-.92 4.65-2.58 5.61a4.587 4.587 0 01-2.32.6z" fill="#fff"/><path d="M229.91 234.51a7.849 7.849 0 01-3.83-1.16l-26.75-15.45.41-.7 26.75 15.45c2 1.18 3.94 1.38 5.34.57 1.4-.81 2.18-2.56 2.18-4.92v-6.45c0-2.65.92-4.65 2.58-5.61 1.66-.96 3.85-.76 6.15.57l5.59 3.23-.41.69-5.58-3.22c-2-1.18-3.94-1.38-5.35-.57-1.41.81-2.18 2.56-2.18 4.91v6.45c0 2.66-.91 4.65-2.58 5.61a4.567 4.567 0 01-2.32.6z" fill="#fff"/><path d="M219.51 240.5a7.74 7.74 0 01-3.83-1.17l-26.75-15.44.4-.7 26.75 15.44c2 1.18 3.94 1.39 5.35.57 1.41-.82 2.17-2.55 2.17-4.91v-6.45c0-2.66.92-4.65 2.58-5.61 1.66-.96 3.86-.76 6.16.57l5.58 3.23-.4.69-5.59-3.22c-2-1.19-3.94-1.39-5.34-.57s-2.18 2.55-2.18 4.91v6.45c0 2.66-.92 4.65-2.58 5.61a4.587 4.587 0 01-2.32.6z" fill="#fff"/><path d="M209.1 246.48a7.849 7.849 0 01-3.83-1.16l-26.75-15.45.4-.7 26.76 15.45c2 1.18 3.94 1.38 5.34.57 1.4-.81 2.18-2.56 2.18-4.91v-6.46c0-2.65.92-4.65 2.58-5.61 1.66-.96 3.85-.76 6.15.57l5.59 3.23-.41.7-5.58-3.23c-2-1.18-3.94-1.38-5.35-.57-1.41.81-2.18 2.56-2.18 4.91v6.46c0 2.65-.91 4.64-2.58 5.6a4.461 4.461 0 01-2.32.6z" fill="#fff"/><path d="M198.7 252.47a7.74 7.74 0 01-3.83-1.17l-26.75-15.44.4-.7 26.75 15.44c2 1.18 3.94 1.38 5.34.57 1.4-.81 2.18-2.55 2.18-4.91v-6.45c0-2.66.92-4.65 2.59-5.61s3.84-.76 6.15.57l5.58 3.23-.4.69-5.59-3.22c-2-1.18-3.94-1.39-5.34-.57s-2.18 2.55-2.18 4.91v6.45c0 2.66-.92 4.65-2.58 5.61a4.61 4.61 0 01-2.32.6z" fill="#fff"/><path d="M188.29 258.45a7.849 7.849 0 01-3.83-1.16l-26.75-15.45.4-.69 26.76 15.44c2 1.18 3.93 1.38 5.34.57 1.41-.81 2.18-2.56 2.18-4.91v-6.45c0-2.66.92-4.65 2.58-5.62 1.66-.97 3.85-.76 6.15.57l5.59 3.23-.41.7-5.58-3.23c-2-1.18-3.94-1.38-5.35-.57-1.41.81-2.18 2.56-2.18 4.92v6.45c0 2.65-.91 4.65-2.58 5.61-.707.4-1.508.604-2.32.59z" fill="#fff"/><path d="M177.89 264.44a7.74 7.74 0 01-3.83-1.17l-26.75-15.44.4-.7 26.75 15.45c2 1.18 3.94 1.38 5.34.56 1.4-.82 2.18-2.55 2.18-4.91v-6.45c0-2.66.92-4.65 2.58-5.61 1.66-.96 3.85-.76 6.15.57l5.59 3.26-.4.69-5.59-3.22c-2-1.18-3.94-1.38-5.34-.57-1.4.81-2.18 2.55-2.18 4.91v6.45c0 2.66-.92 4.65-2.58 5.61a4.574 4.574 0 01-2.32.57z" fill="#fff"/><path d="M167.49 270.42a7.862 7.862 0 01-3.84-1.16l-26.75-15.45.4-.69 26.76 15.44c2 1.18 3.94 1.39 5.34.57s2.18-2.56 2.18-4.91v-6.45c0-2.66.92-4.65 2.58-5.61 1.66-.96 3.85-.76 6.15.57l5.59 3.27-.41.7-5.58-3.23c-2-1.17-3.94-1.38-5.35-.57-1.41.81-2.18 2.56-2.18 4.92v6.45c0 2.66-.91 4.65-2.58 5.61a4.536 4.536 0 01-2.31.54z" fill="#fff"/><path d="M157.08 276.41a7.74 7.74 0 01-3.83-1.17L126.5 259.8l.4-.7 26.75 15.45c2 1.17 3.94 1.38 5.34.56 1.4-.82 2.18-2.55 2.18-4.91v-6.45c0-2.66.92-4.65 2.58-5.61 1.66-.96 3.85-.76 6.15.57l5.59 3.23-.4.69-5.59-3.22c-2-1.18-3.94-1.38-5.34-.57-1.4.81-2.18 2.55-2.18 4.91v6.45c0 2.66-.92 4.65-2.58 5.61a4.587 4.587 0 01-2.32.6z" fill="#fff"/><path d="M397.41 163.18a4.61 4.61 0 01-2.32-.6c-1.66-1-2.58-3-2.58-5.61v-6.46c0-2.35-.77-4.1-2.18-4.91-1.41-.81-3.3-.61-5.34.57l-5.59 3.23-.4-.7 5.59-3.22c2.3-1.34 4.48-1.53 6.15-.57 1.67.96 2.58 3 2.58 5.6V157c0 2.35.77 4.1 2.18 4.91 1.41.81 3.3.61 5.34-.57l26.75-15.44.41.69L401.24 162a7.81 7.81 0 01-3.83 1.18z" fill="#42E8E0"/><path d="M407.82 169.16a4.567 4.567 0 01-2.32-.6c-1.67-1-2.58-2.95-2.58-5.61v-6.45c0-2.36-.78-4.1-2.18-4.91-1.4-.81-3.3-.61-5.34.57l-5.59 3.22-.41-.69 5.59-3.23c2.31-1.33 4.49-1.53 6.15-.57 1.66.96 2.58 3 2.58 5.61v6.5c0 2.36.78 4.1 2.18 4.91 1.4.81 3.31.61 5.35-.56l26.75-15.5.4.7L411.65 168a7.736 7.736 0 01-3.83 1.16z" fill="#42E8E0"/><path d="M418.22 175.15a4.61 4.61 0 01-2.32-.6c-1.66-1-2.58-3-2.58-5.61v-6.45c0-2.36-.77-4.11-2.18-4.92-1.41-.81-3.3-.61-5.34.57l-5.59 3.23-.4-.7 5.59-3.22c2.3-1.34 4.48-1.53 6.15-.57 1.67.96 2.58 3 2.58 5.61v6.45c0 2.35.77 4.1 2.18 4.91 1.41.81 3.3.61 5.34-.57l26.75-15.44.41.69L422.05 174a7.806 7.806 0 01-3.83 1.15z" fill="#42E8E0"/><path d="M428.63 181.13a4.683 4.683 0 01-2.32-.59c-1.66-1-2.58-3-2.58-5.62v-6.45c0-2.35-.78-4.1-2.18-4.91-1.4-.81-3.3-.61-5.34.57l-5.59 3.22-.41-.69 5.59-3.23c2.3-1.33 4.49-1.52 6.15-.57 1.66.95 2.58 3 2.58 5.61v6.45c0 2.36.78 4.1 2.18 4.92 1.4.82 3.31.61 5.35-.57l26.75-15.45.4.7L432.46 180a7.739 7.739 0 01-3.83 1.13z" fill="#42E8E0"/><path d="M439 187.12a4.55 4.55 0 01-2.31-.6c-1.67-1-2.59-3-2.59-5.61v-6.45c0-2.36-.77-4.1-2.18-4.91-1.41-.81-3.3-.61-5.34.56l-5.58 3.23-.4-.7 5.59-3.22c2.3-1.33 4.48-1.53 6.15-.57 1.67.96 2.58 3 2.58 5.61v6.45c0 2.36.77 4.1 2.18 4.91 1.41.81 3.3.61 5.34-.57l26.75-15.44.41.69-26.73 15.5a7.775 7.775 0 01-3.87 1.12z" fill="#42E8E0"/><path d="M449.44 193.1a4.552 4.552 0 01-2.32-.59c-1.66-1-2.58-3-2.58-5.61v-6.46c0-2.35-.78-4.1-2.18-4.91-1.4-.81-3.3-.6-5.34.57l-5.59 3.22-.4-.69 5.58-3.23c2.3-1.33 4.49-1.53 6.15-.57 1.66.96 2.58 3 2.58 5.61v6.46c0 2.35.78 4.1 2.18 4.91 1.4.81 3.3.61 5.35-.57l26.75-15.45.4.7-26.75 15.44a7.775 7.775 0 01-3.83 1.17z" fill="#42E8E0"/><path d="M459.84 199.09a4.61 4.61 0 01-2.32-.6c-1.66-1-2.58-3-2.58-5.61v-6.45c0-2.36-.77-4.1-2.18-4.91-1.41-.81-3.3-.61-5.34.56l-5.59 3.23-.4-.7 5.59-3.22c2.3-1.33 4.48-1.53 6.15-.57 1.67.96 2.58 3 2.58 5.61v6.45c0 2.36.77 4.1 2.18 4.91 1.41.81 3.3.61 5.34-.57L490 181.78l.41.69-26.75 15.45a7.766 7.766 0 01-3.82 1.17z" fill="#42E8E0"/><path d="M470.25 205.08a4.567 4.567 0 01-2.32-.6c-1.66-1-2.58-3-2.58-5.61v-6.46c0-2.35-.77-4.1-2.18-4.91-1.41-.81-3.3-.61-5.34.57l-5.59 3.23-.4-.7 5.58-3.22c2.31-1.33 4.49-1.54 6.15-.58 1.66.96 2.58 3 2.58 5.61v6.46c0 2.35.78 4.1 2.18 4.91 1.4.81 3.31.6 5.35-.57l26.75-15.44.4.69-26.75 15.45a7.843 7.843 0 01-3.83 1.17z" fill="#42E8E0"/><path d="M480.65 211.06a4.612 4.612 0 01-2.32-.6c-1.66-1-2.58-3-2.58-5.61v-6.45c0-2.36-.77-4.1-2.17-4.91-1.4-.81-3.31-.61-5.35.57l-5.59 3.22-.4-.69 5.59-3.23c2.3-1.33 4.48-1.53 6.15-.57 1.67.96 2.58 3 2.58 5.61v6.45c0 2.36.77 4.1 2.18 4.91 1.41.81 3.3.61 5.34-.56l26.75-15.45.41.7-26.75 15.44a7.764 7.764 0 01-3.84 1.17z" fill="#42E8E0"/><path d="M491.06 217.05a4.567 4.567 0 01-2.32-.6c-1.66-1-2.58-3-2.58-5.61v-6.46c0-2.35-.78-4.1-2.18-4.91-1.4-.81-3.3-.61-5.34.57l-5.59 3.23-.4-.7 5.58-3.22c2.31-1.33 4.49-1.54 6.15-.58 1.66.96 2.58 3 2.58 5.61v6.46c0 2.35.78 4.1 2.18 4.91 1.4.81 3.31.6 5.35-.57l26.75-15.44.4.69-26.75 15.45a7.843 7.843 0 01-3.83 1.17z" fill="#fff"/><path d="M501.46 223a4.55 4.55 0 01-2.31-.6c-1.67-1-2.59-3-2.59-5.61v-6.45c0-2.36-.77-4.1-2.18-4.91-1.41-.81-3.3-.61-5.34.57l-5.59 3.22-.4-.69 5.59-3.23c2.3-1.33 4.48-1.53 6.15-.57 1.67.96 2.58 3 2.58 5.61v6.45c0 2.36.77 4.1 2.18 4.91 1.41.81 3.3.61 5.34-.56l26.75-15.45.41.7-26.75 15.47a7.776 7.776 0 01-3.84 1.14z" fill="#fff"/><path d="M511.87 229a4.587 4.587 0 01-2.32-.6c-1.66-1-2.58-3-2.58-5.61v-6.45c0-2.36-.77-4.1-2.18-4.92-1.41-.82-3.3-.61-5.34.57l-5.59 3.23-.4-.7 5.58-3.22c2.3-1.34 4.49-1.53 6.15-.58 1.66.95 2.58 3 2.58 5.62v6.45c0 2.35.78 4.1 2.18 4.91 1.4.81 3.31.61 5.35-.57l26.75-15.44.4.69-26.75 15.47a7.741 7.741 0 01-3.83 1.15z" fill="#fff"/><path d="M522.27 235a4.55 4.55 0 01-2.31-.6c-1.67-1-2.59-3-2.59-5.61v-6.45c0-2.35-.77-4.1-2.17-4.91-1.4-.81-3.31-.61-5.35.57l-5.59 3.22-.4-.69 5.59-3.23c2.3-1.33 4.49-1.53 6.15-.57 1.66.96 2.58 3 2.58 5.61v6.45c0 2.36.77 4.11 2.18 4.92 1.41.81 3.3.6 5.34-.57l26.75-15.45.41.7-26.75 15.44a7.77 7.77 0 01-3.84 1.17z" fill="#fff"/><path d="M532.68 241a4.567 4.567 0 01-2.32-.6c-1.66-1-2.58-2.95-2.58-5.61v-6.45c0-2.36-.77-4.1-2.18-4.91-1.41-.81-3.3-.61-5.34.56l-5.59 3.23-.4-.7 5.58-3.22c2.3-1.33 4.49-1.53 6.15-.57 1.66.96 2.58 2.95 2.58 5.61v6.45c0 2.36.78 4.1 2.18 4.91 1.4.81 3.3.61 5.35-.57l26.75-15.44.4.69-26.75 15.45a7.74 7.74 0 01-3.83 1.17z" fill="#fff"/><path d="M543.08 247a4.55 4.55 0 01-2.31-.6c-1.67-1-2.59-3-2.59-5.61v-6.45c0-2.35-.77-4.1-2.17-4.91-1.4-.81-3.31-.61-5.35.57l-5.59 3.22-.4-.69 5.59-3.23c2.3-1.33 4.49-1.53 6.15-.57 1.66.96 2.58 3 2.58 5.61v6.45c0 2.36.77 4.11 2.18 4.92 1.41.81 3.3.61 5.34-.57l26.75-15.45.41.7-26.75 15.41a7.775 7.775 0 01-3.84 1.2z" fill="#fff"/><path d="M553.49 253a4.567 4.567 0 01-2.32-.6c-1.66-1-2.58-3-2.58-5.61v-6.49c0-2.36-.77-4.1-2.18-4.91-1.41-.81-3.3-.61-5.34.57l-5.59 3.22-.4-.7 5.58-3.22c2.31-1.33 4.49-1.53 6.15-.57 1.66.96 2.58 2.95 2.58 5.61v6.45c0 2.36.78 4.1 2.18 4.91 1.4.81 3.31.61 5.35-.57l26.75-15.44.4.7-26.75 15.44a7.74 7.74 0 01-3.83 1.21z" fill="#fff"/><path d="M563.89 258.94a4.448 4.448 0 01-2.31-.6c-1.67-1-2.59-2.95-2.59-5.6v-6.46c0-2.35-.77-4.1-2.17-4.91-1.4-.81-3.31-.61-5.35.57l-5.59 3.23-.4-.7 5.59-3.23c2.3-1.33 4.48-1.53 6.15-.57 1.67.96 2.58 3 2.58 5.61v6.46c0 2.35.77 4.1 2.18 4.91 1.41.81 3.3.61 5.34-.57l26.75-15.45.41.7-26.75 15.45a7.862 7.862 0 01-3.84 1.16z" fill="#fff"/><path d="M574.3 264.93a4.587 4.587 0 01-2.32-.6c-1.66-1-2.58-2.95-2.58-5.61v-6.45c0-2.36-.77-4.1-2.18-4.91-1.41-.81-3.3-.62-5.34.57l-5.59 3.22-.4-.69 5.58-3.23c2.3-1.33 4.49-1.53 6.15-.57 1.66.96 2.59 3 2.59 5.61v6.45c0 2.36.77 4.1 2.17 4.91 1.4.81 3.31.61 5.35-.57l26.75-15.44.4.7-26.75 15.44a7.74 7.74 0 01-3.83 1.17z" fill="#fff"/><path d="M584.7 270.91a4.536 4.536 0 01-2.31-.59c-1.67-1-2.59-3-2.59-5.61v-6.45c0-2.36-.77-4.11-2.18-4.92-1.41-.81-3.3-.61-5.34.57l-5.59 3.23-.4-.7 5.59-3.23c2.3-1.32 4.48-1.52 6.15-.57 1.67.95 2.58 3 2.58 5.62v6.45c0 2.35.77 4.1 2.18 4.91 1.41.81 3.3.61 5.34-.57l26.75-15.45.41.7-26.75 15.45a7.862 7.862 0 01-3.84 1.16z" fill="#fff"/><path d="M595.11 276.9a4.59 4.59 0 01-2.32-.6c-1.66-1-2.58-2.95-2.58-5.61v-6.45c0-2.36-.77-4.1-2.18-4.91-1.41-.81-3.3-.61-5.34.57l-5.59 3.22-.4-.69 5.58-3.23c2.31-1.32 4.49-1.53 6.15-.57 1.66.96 2.59 2.95 2.59 5.61v6.45c0 2.36.77 4.1 2.17 4.91 1.4.81 3.3.61 5.35-.56l26.75-15.45.4.7-26.75 15.44a7.74 7.74 0 01-3.83 1.17z" fill="#fff"/><path d="M581.75 265.09v23.76L376.18 407.53 170.61 288.84v-23.75h411.14z" fill="url(#paint0_linear)"/><path d="M376.18 383.77L170.61 265.09 376.18 146.4l205.57 118.69-205.57 118.68z" fill="#FF5985"/><path d="M376.18 381L173.01 263.7l-2.4 1.39 205.57 118.68 205.57-118.68-2.4-1.39L376.18 381z" fill="#fff"/><path opacity=".5" d="M376.18 278.57L313 242.1l63.18-36.48 63.18 36.48-63.18 36.47z" fill="#42E8E0"/><path opacity=".5" d="M376.18 208.98l60.27 34.8 2.91-1.68-63.18-36.48L313 242.1l2.91 1.68 60.27-34.8z" fill="#42E8E0"/><path opacity=".8" d="M376.18 330.87l-155.94-90.03-2.17 1.26 158.11 91.28 158.11-91.28-2.17-1.26-155.94 90.03z" fill="#fff"/><path d="M427.59 435.44L400.84 420c-4.59-2.65-8.33-9.12-8.33-14.42v-6.45c0-5.05-3.55-11.21-7.92-13.73l-5.59-3.24.4-.69 5.59 3.22c4.59 2.65 8.33 9.12 8.33 14.43v6.45a17.543 17.543 0 007.92 13.73L428 434.74l-.41.7z" fill="#fff"/><path d="M438 429.44L411.25 414c-4.6-2.66-8.33-9.13-8.33-14.43v-6.45c0-5.05-3.56-11.2-7.93-13.73l-5.59-3.22.41-.7 5.59 3.23c4.59 2.65 8.32 9.12 8.32 14.42v6.45a17.538 17.538 0 007.93 13.73l26.75 15.45-.4.69z" fill="#fff"/><path d="M448.4 423.45L421.65 408c-4.59-2.65-8.33-9.12-8.33-14.42v-6.45c0-5.05-3.55-11.21-7.92-13.73l-5.59-3.23.4-.69 5.59 3.22c4.59 2.65 8.33 9.12 8.33 14.43v6.45a17.553 17.553 0 007.92 13.73l26.76 15.44-.41.7zm10.41-6L432.06 402c-4.6-2.65-8.33-9.12-8.33-14.42v-6.45c0-5.05-3.56-11.2-7.93-13.73l-5.59-3.23.41-.69 5.59 3.22c4.59 2.66 8.32 9.13 8.32 14.43v6.45a17.538 17.538 0 007.93 13.73l26.75 15.44-.4.7zm10.4-6L442.46 396c-4.59-2.65-8.33-9.12-8.33-14.42v-6.46a17.503 17.503 0 00-7.92-13.72l-5.59-3.23.4-.7 5.59 3.23c4.59 2.65 8.33 9.12 8.33 14.42v6.46c0 5 3.55 11.2 7.93 13.72l26.75 15.45-.41.7z" fill="#fff"/><path d="M479.62 405.46L452.87 390c-4.6-2.65-8.33-9.12-8.33-14.42v-6.45a17.535 17.535 0 00-7.93-13.73l-5.61-3.22.4-.69 5.59 3.22c4.59 2.65 8.32 9.13 8.32 14.43v6.45c0 5 3.56 11.2 7.93 13.73L480 404.76l-.38.7z" fill="#fff"/><path d="M490 399.46L463.27 384c-4.59-2.65-8.33-9.12-8.33-14.43v-6.45a17.544 17.544 0 00-7.94-13.71l-5.59-3.22.4-.7 5.59 3.23c4.59 2.65 8.33 9.12 8.33 14.42v6.45c0 5.05 3.55 11.21 7.93 13.73l26.75 15.45-.41.69z" fill="#fff"/><path d="M500.43 393.47L473.68 378c-4.6-2.65-8.33-9.12-8.33-14.42v-6.46c0-5-3.56-11.2-7.93-13.72l-5.58-3.23.4-.69 5.59 3.22c4.59 2.65 8.32 9.12 8.32 14.42v6.46c0 5 3.56 11.2 7.93 13.72l26.75 15.45-.4.72zm10.4-6L484.08 372c-4.59-2.66-8.33-9.13-8.33-14.43v-6.45a17.555 17.555 0 00-7.92-13.73l-5.59-3.22.4-.7 5.59 3.22c4.59 2.66 8.33 9.13 8.33 14.43v6.45a17.529 17.529 0 007.93 13.73l26.75 15.44-.41.73z" fill="#fff"/><path d="M521.24 381.47L494.49 366c-4.59-2.65-8.33-9.12-8.33-14.43v-6.45c0-5-3.56-11.2-7.93-13.73l-5.58-3.22.4-.7 5.59 3.23c4.59 2.65 8.32 9.12 8.32 14.42v6.45a17.538 17.538 0 007.93 13.73l26.75 15.45-.4.72z" fill="#fff"/><path d="M531.64 375.48L504.89 360c-4.59-2.65-8.33-9.12-8.33-14.42v-6.45c0-5.05-3.55-11.21-7.92-13.73l-5.59-3.23.4-.69 5.59 3.22c4.59 2.65 8.33 9.12 8.33 14.43v6.45a17.529 17.529 0 007.93 13.73l26.75 15.44-.41.73z" fill="#fff"/><path d="M542.05 369.48L515.3 354c-4.59-2.65-8.33-9.12-8.33-14.43v-6.45c0-5-3.56-11.2-7.93-13.73l-5.58-3.22.4-.7 5.59 3.23c4.59 2.65 8.32 9.12 8.32 14.42v6.45a17.538 17.538 0 007.93 13.73l26.75 15.44-.4.74z" fill="#fff"/><path d="M552.45 363.49L525.7 348c-4.59-2.65-8.33-9.12-8.33-14.42v-6.46c0-5-3.55-11.2-7.92-13.72l-5.59-3.23.4-.7 5.59 3.23c4.59 2.65 8.33 9.12 8.33 14.42v6.46a17.498 17.498 0 007.93 13.72l26.75 15.45-.41.74z" fill="#fff"/><path d="M562.86 357.49l-26.75-15.44c-4.59-2.66-8.33-9.13-8.33-14.43v-6.45a17.538 17.538 0 00-7.93-13.73l-5.58-3.22.4-.7 5.59 3.23c4.59 2.65 8.32 9.12 8.32 14.42v6.45c0 5.05 3.56 11.2 7.93 13.73l26.75 15.44-.4.7z" fill="#fff"/><path d="M573.26 351.49l-26.75-15.44c-4.59-2.65-8.33-9.12-8.33-14.43v-6.45a17.553 17.553 0 00-7.92-13.73l-5.59-3.22.4-.7 5.59 3.23c4.59 2.65 8.33 9.12 8.33 14.42v6.45c0 5.05 3.55 11.21 7.93 13.73l26.75 15.45-.41.69z" fill="#fff"/><path d="M583.67 345.5l-26.75-15.45c-4.59-2.65-8.33-9.12-8.33-14.42v-6.45a17.538 17.538 0 00-7.93-13.73l-5.58-3.23.4-.69 5.59 3.22c4.59 2.66 8.32 9.12 8.32 14.43v6.45c0 5.05 3.56 11.2 7.93 13.73l26.75 15.44-.4.7z" fill="#fff"/><path d="M594.07 339.5l-26.75-15.44c-4.59-2.65-8.33-9.12-8.33-14.43v-6.45a17.543 17.543 0 00-7.92-13.73l-5.59-3.22.4-.7 5.59 3.23c4.59 2.65 8.33 9.12 8.33 14.42v6.45c0 5.05 3.55 11.21 7.93 13.73l26.75 15.45-.41.69z" fill="#fff"/><path d="M604.48 333.51l-26.75-15.45c-4.59-2.65-8.33-9.12-8.33-14.42v-6.45a17.538 17.538 0 00-7.93-13.73l-5.58-3.23.4-.7 5.59 3.23c4.59 2.65 8.33 9.12 8.33 14.43v6.45c0 5 3.55 11.2 7.92 13.72l26.75 15.45-.4.7z" fill="#fff"/><path d="M614.88 327.51l-26.75-15.45c-4.59-2.65-8.33-9.12-8.33-14.42v-6.45a17.543 17.543 0 00-7.92-13.73l-5.59-3.23.4-.69 5.59 3.23c4.59 2.65 8.33 9.12 8.33 14.42v6.45c0 5.05 3.56 11.2 7.93 13.73l26.75 15.44-.41.7z" fill="#fff"/><path d="M625.29 321.51l-26.75-15.44c-4.59-2.65-8.33-9.12-8.33-14.42v-6.46c0-5-3.56-11.2-7.93-13.72l-5.58-3.23.4-.7 5.59 3.23c4.59 2.65 8.33 9.12 8.33 14.42v6.46c0 5 3.55 11.2 7.92 13.72l26.75 15.45-.4.69zM324 435.44l-.4-.7 26.75-15.44a17.541 17.541 0 007.92-13.73v-6.45c0-5.31 3.74-11.78 8.33-14.43l5.59-3.22.4.69-5.59 3.23c-4.37 2.52-7.92 8.68-7.92 13.73v6.45c0 5.3-3.74 11.77-8.33 14.42L324 435.44z" fill="#fff"/><path d="M313.63 429.44l-.4-.69L340 413.3a17.538 17.538 0 007.93-13.73v-6.45c0-5.3 3.73-11.77 8.33-14.42l5.58-3.23.41.7-5.59 3.22c-4.37 2.53-7.93 8.68-7.93 13.73v6.45c0 5.3-3.73 11.77-8.32 14.43l-26.78 15.44z" fill="#fff"/><path d="M303.23 423.45l-.4-.7 26.75-15.44a17.553 17.553 0 007.92-13.73v-6.45c0-5.31 3.74-11.78 8.33-14.43l5.59-3.22.4.69-5.59 3.23c-4.37 2.52-7.92 8.68-7.92 13.73v6.45c0 5.3-3.74 11.77-8.33 14.42l-26.75 15.45z" fill="#fff"/><path d="M292.82 417.45l-.4-.7 26.75-15.44a17.538 17.538 0 007.93-13.73v-6.45c0-5.3 3.73-11.77 8.33-14.43l5.58-3.22.41.69-5.59 3.23c-4.37 2.53-7.93 8.68-7.93 13.73v6.45c0 5.3-3.73 11.77-8.33 14.42l-26.75 15.45z" fill="#fff"/><path d="M282.42 411.45l-.41-.69 26.76-15.45c4.37-2.52 7.92-8.68 7.92-13.72v-6.46c0-5.3 3.74-11.77 8.33-14.42l5.59-3.23.4.7-5.59 3.23a17.51 17.51 0 00-7.92 13.72v6.46c0 5.3-3.74 11.77-8.33 14.42l-26.75 15.44z" fill="#fff"/><path d="M272 405.46l-.4-.7 26.75-15.44c4.37-2.53 7.93-8.69 7.93-13.73v-6.45c0-5.3 3.73-11.78 8.33-14.43l5.58-3.22.41.69-5.6 3.23a17.538 17.538 0 00-7.93 13.73v6.45c0 5.3-3.73 11.77-8.33 14.42L272 405.46z" fill="#fff"/><path d="M261.61 399.46l-.41-.69 26.8-15.45c4.37-2.52 7.92-8.68 7.92-13.73v-6.45c0-5.3 3.74-11.77 8.33-14.42l5.59-3.23.4.7-5.59 3.22a17.55 17.55 0 00-7.92 13.73v6.45c0 5.31-3.74 11.78-8.33 14.43l-26.79 15.44z" fill="#fff"/><path d="M251.2 393.47l-.4-.7 26.75-15.45c4.37-2.52 7.93-8.68 7.93-13.72v-6.46c0-5.3 3.73-11.77 8.33-14.42l5.58-3.22.41.69-5.59 3.23c-4.37 2.52-7.93 8.68-7.93 13.72v6.46c0 5.3-3.73 11.77-8.33 14.42l-26.75 15.45z" fill="#fff"/><path d="M197.63 411.8l-.2-.11-113.78-65.32.4-.71 113.58 65.21 42.77-24.1 26.75-15.44a17.55 17.55 0 007.92-13.73v-6.45c0-5.3 3.74-11.77 8.33-14.43l5.6-3.22.4.7-5.59 3.22a17.541 17.541 0 00-7.92 13.73v6.45c0 5.3-3.74 11.77-8.33 14.43l-26.76 15.44-43.17 24.33z" fill="#fff"/><path d="M230.39 381.47l-.4-.69 26.75-15.45a17.538 17.538 0 007.93-13.73v-6.45c0-5.3 3.73-11.77 8.33-14.42l5.58-3.23.41.7-5.59 3.22c-4.37 2.53-7.93 8.69-7.93 13.73v6.45c0 5.31-3.73 11.78-8.33 14.43l-26.75 15.44z" fill="#fff"/><path d="M220 375.48l-.41-.7 26.76-15.44a17.55 17.55 0 007.92-13.73v-6.45c0-5.31 3.74-11.78 8.33-14.43l5.59-3.22.4.69-5.59 3.23c-4.37 2.52-7.92 8.68-7.92 13.73v6.45c0 5.3-3.74 11.77-8.33 14.42L220 375.48z" fill="#fff"/><path d="M209.58 369.48l-.4-.7 26.75-15.44a17.538 17.538 0 007.93-13.73v-6.45c0-5.3 3.73-11.77 8.33-14.42l5.58-3.23.41.7-5.59 3.22c-4.37 2.53-7.93 8.69-7.93 13.73v6.45c0 5.31-3.73 11.78-8.33 14.43l-26.75 15.44z" fill="#fff"/><path d="M199.18 363.49l-.41-.7 26.76-15.45a17.516 17.516 0 007.92-13.72v-6.46c0-5.3 3.74-11.77 8.33-14.42l5.59-3.23.4.7-5.59 3.23c-4.37 2.52-7.92 8.68-7.92 13.72v6.46c0 5.3-3.74 11.77-8.33 14.42l-26.75 15.45z" fill="#fff"/><path d="M188.77 357.49l-.4-.7 26.75-15.44c4.37-2.53 7.93-8.68 7.93-13.73v-6.45c0-5.3 3.73-11.77 8.33-14.42l5.58-3.23.41.7-5.59 3.22a17.538 17.538 0 00-7.93 13.73v6.45c0 5.3-3.73 11.77-8.33 14.43l-26.75 15.44z" fill="#fff"/><path d="M178.37 351.49l-.41-.69 26.76-15.45c4.37-2.52 7.92-8.68 7.92-13.73v-6.45c0-5.3 3.74-11.77 8.33-14.42l5.59-3.23.4.7-5.59 3.22a17.553 17.553 0 00-7.92 13.73v6.45c0 5.31-3.74 11.78-8.33 14.43l-26.75 15.44z" fill="#fff"/><path d="M168 345.5l-.4-.7 26.75-15.44c4.37-2.53 7.93-8.68 7.93-13.73v-6.45c0-5.31 3.73-11.77 8.33-14.43l5.58-3.22.41.69-5.6 3.23a17.535 17.535 0 00-8 13.73v6.45c0 5.3-3.73 11.77-8.33 14.42L168 345.5z" fill="#fff"/><path d="M157.56 339.5l-.41-.69 26.76-15.45c4.37-2.52 7.92-8.68 7.92-13.73v-6.45c0-5.3 3.74-11.77 8.33-14.42l5.59-3.23.4.7-5.59 3.22a17.541 17.541 0 00-7.92 13.73v6.45c0 5.31-3.74 11.78-8.33 14.43l-26.75 15.44z" fill="#fff"/><path d="M147.15 333.51l-.4-.7 26.75-15.45c4.37-2.52 7.93-8.68 7.93-13.72v-6.45c0-5.31 3.73-11.78 8.33-14.43l5.58-3.23.41.7-5.59 3.23a17.538 17.538 0 00-7.93 13.73v6.45c0 5.3-3.73 11.77-8.33 14.42l-26.75 15.45z" fill="#fff"/><path d="M136.75 327.51l-.41-.7 26.76-15.44a17.546 17.546 0 007.9-13.73v-6.45c0-5.3 3.74-11.77 8.33-14.42l5.59-3.23.4.69-5.59 3.23a17.541 17.541 0 00-7.92 13.73v6.45c0 5.3-3.74 11.77-8.33 14.42l-26.73 15.45z" fill="#fff"/><path d="M126.34 321.51l-.4-.69 26.75-15.45c4.37-2.52 7.93-8.68 7.93-13.72v-6.46c0-5.3 3.73-11.77 8.33-14.42l5.58-3.23.41.7-5.59 3.23c-4.37 2.52-7.93 8.68-7.93 13.72v6.46c0 5.3-3.73 11.77-8.33 14.42l-26.75 15.44zM676.4 218.05l-.2-.11-56.14-32.42.6-.34L676.4 153l.2.11 56.14 32.41-.6.35-55.74 32.18zm-54.73-32.53l54.73 31.6 54.73-31.6-54.73-31.59-54.73 31.59z" fill="#fff"/><path opacity=".5" d="M675.39 207.66l-38.35-22.14 38.35-22.14 38.35 22.14-38.35 22.14z" fill="url(#paint1_linear)"/><path d="M675.39 129.84l-38.35-22.14v44.28l38.35 22.14 38.35-22.14V107.7l-38.35 22.14z" fill="#42E8E0"/><path d="M675.39 174.13l-38.35-22.15V107.7l38.35 22.14v44.29z" fill="#D05A9E"/><path d="M713.74 151.98l-38.35 22.15v-44.29l38.35-22.14v44.28z" fill="#985EA4"/><path d="M675.39 129.84l-38.35-22.14 38.35-22.14 38.35 22.14-38.35 22.14z" fill="#FF5985"/><path d="M675.39 129.84l-38.35-22.14v1.92l38.35 22.14 38.35-22.14v-1.92l-38.35 22.14zM56.34 362.34l-.2-.11L0 329.81l.6-.34 55.74-32.18.2.11 56.14 32.42-.6.34-55.74 32.18zM1.61 329.81l54.73 31.61 54.73-31.6-54.73-31.6-54.73 31.59z" fill="#fff"/><path opacity=".5" d="M56.34 352.65l-38.35-22.14 38.35-22.14 38.35 22.14-38.35 22.14z" fill="url(#paint2_linear)"/><path d="M56.34 274.83l-38.35-22.14v44.28l38.35 22.14 38.35-22.14v-44.28l-38.35 22.14z" fill="#42E8E0"/><path d="M56.34 319.11l-38.35-22.14v-44.28l38.35 22.14v44.28z" fill="#D05A9E"/><path d="M94.69 296.97l-38.35 22.14v-44.28l38.35-22.14v44.28z" fill="#985EA4"/><path d="M56.34 274.83l-38.35-22.14 38.35-22.14 38.35 22.14-38.35 22.14z" fill="#FF5985"/><path d="M56.34 274.83l-38.35-22.14v1.92l38.35 22.14 38.35-22.14v-1.92l-38.35 22.14z" fill="#fff"/><path opacity=".5" d="M372.43 563.7l-38.35-22.14 38.35-22.14 38.35 22.14-38.35 22.14z" fill="url(#paint3_linear)"/><path d="M372.43 485.88l-38.35-22.14v44.28l38.35 22.14 38.35-22.14v-44.28l-38.35 22.14z" fill="#42E8E0"/><path d="M372.43 530.16l-38.35-22.14v-44.28l38.35 22.14v44.28z" fill="#D05A9E"/><path d="M410.78 508.02l-38.35 22.14v-44.28l38.35-22.14v44.28z" fill="#985EA4"/><path d="M372.43 485.88l-38.35-22.14 38.35-22.14 38.35 22.14-38.35 22.14z" fill="#FF5985"/><path d="M372.43 485.88l-38.35-22.14v1.92l38.35 22.14 38.35-22.14v-1.92l-38.35 22.14z" fill="#fff"/><path opacity=".5" d="M694.57 469.98l-38.35-22.14 38.35-22.14 38.34 22.14-38.34 22.14z" fill="url(#paint4_linear)"/><path opacity=".4" d="M694.57 508.43c-25.28 0-50.56-5.55-69.8-16.66-18.72-10.81-29-25.2-29-40.53 0-15.33 10.31-29.72 29-40.53 38.48-22.22 101.11-22.22 139.59 0 18.72 10.81 29 25.2 29 40.53 0 15.33-10.31 29.72-29 40.53-19.24 11.11-44.52 16.66-69.79 16.66zm0-113.59c-25.13 0-50.26 5.52-69.39 16.56-18.46 10.66-28.62 24.81-28.62 39.84 0 15.03 10.16 29.17 28.62 39.83 38.27 22.09 100.53 22.09 138.79 0 18.46-10.66 28.62-24.8 28.62-39.83 0-15.03-10.17-29.18-28.59-39.83-19.17-11.05-44.31-16.57-69.44-16.57h.01z" fill="#fff"/><path opacity=".2" d="M694.57 523.75c-32.08 0-64.15-7-88.57-21.15-23.73-13.7-36.8-31.94-36.8-51.36 0-19.42 13.07-37.67 36.8-51.37 48.84-28.19 128.3-28.19 177.13 0 23.73 13.7 36.8 31.95 36.8 51.37 0 19.42-13.06 37.66-36.8 51.36l-.2-.34.2.34c-24.41 14.1-56.49 21.15-88.56 21.15zm0-144.23c-31.93 0-63.85 7-88.16 21.05-23.47 13.55-36.4 31.54-36.4 50.67 0 19.13 12.93 37.11 36.4 50.67C655 530 734.12 530 782.73 501.91c23.47-13.56 36.4-31.55 36.4-50.67s-12.93-37.12-36.4-50.67c-24.31-14.03-56.24-21.05-88.17-21.05h.01z" fill="#fff"/><path d="M694.57 496.36c-19.92 0-39.84-4.37-55-13.13-14.77-8.53-22.91-19.89-22.91-32s8.14-23.47 22.91-32c30.33-17.52 79.68-17.52 110 0 14.77 8.52 22.91 19.89 22.91 32s-8.13 23.47-22.9 32c-15.17 8.77-35.09 13.13-55.01 13.13zm0-89.45c-19.77 0-39.55 4.34-54.6 13-14.51 8.38-22.5 19.49-22.5 31.3 0 11.81 8 22.91 22.5 31.29 30.11 17.39 79.1 17.38 109.21 0l.2.34-.2-.34c14.51-8.38 22.5-19.5 22.5-31.3s-8-22.92-22.5-31.3c-15.06-8.65-34.84-12.99-54.62-12.99h.01z" fill="#fff"/><path d="M690.15 408.88l-4.39-44.06-35.97 25.83 4.39 44.07 40.36 18.23 35.96-25.84-40.35-18.23z" fill="#42E8E0"/><path d="M654.18 434.72l-4.39-44.07 35.97-25.83 4.39 44.06-35.97 25.84z" fill="#D05A9E"/><path d="M694.54 452.95l-40.36-18.23 35.97-25.84 40.35 18.23-35.96 25.84z" fill="#985EA4"/><path d="M690.15 408.88l-4.39-44.06 40.35 18.23 4.39 44.06-40.35-18.23z" fill="#FF5985"/><path d="M690.15 408.88l-4.39-44.06-1.56 1.12 4.39 44.07 40.35 18.22 1.56-1.12-40.35-18.23z" fill="#fff"/><path d="M376.18 161.81l-38.35-22.14v44.28l38.35 22.14 38.35-22.14v-44.28l-38.35 22.14z" fill="#42E8E0"/><path d="M376.18 206.09l-38.35-22.14v-44.28l38.35 22.14v44.28z" fill="#42E8E0"/><path d="M414.53 183.95l-38.35 22.14v-44.28l38.35-22.14v44.28z" fill="#2FD3C7"/><path d="M376.18 161.81l-38.35-22.14 38.35-22.14 38.35 22.14-38.35 22.14z" fill="#42E8E0"/><path d="M376.18 161.81l-36.68-21.18-1.67.96 38.35 22.14 38.35-22.14-1.66-.96-36.69 21.18z" fill="#fff"/><path d="M426 190.24l-38.35-22.15v44.29L426 234.52l38.35-22.14v-44.29L426 190.24z" fill="#42E8E0"/><path d="M426 234.52l-38.35-22.14v-44.29L426 190.24v44.28z" fill="#42E8E0"/><path d="M464.35 212.38L426 234.52v-44.28l38.35-22.15v44.29z" fill="#2FD3C7"/><path d="M426 190.24l-38.35-22.15L426 145.95l38.35 22.15L426 190.24z" fill="#42E8E0"/><path d="M426 190.24l-36.69-21.18-1.66.95L426 192.16l38.35-22.14-1.67-.96L426 190.24z" fill="#fff"/><path d="M475.81 218.66l-38.35-22.14v44.28l38.35 22.14 38.35-22.14v-44.28l-38.35 22.14z" fill="#42E8E0"/><path d="M475.81 262.94l-38.35-22.14v-44.28l38.35 22.14v44.28z" fill="#D05A9E"/><path d="M514.16 240.8l-38.35 22.14v-44.28l38.35-22.14v44.28z" fill="#985EA4"/><path d="M475.81 218.66l-38.35-22.14 38.35-22.14 38.35 22.14-38.35 22.14z" fill="#FF5985"/><path d="M475.81 218.66l-36.69-21.18-1.66.96 38.35 22.14 38.35-22.14v-1.92l-38.35 22.14z" fill="#fff"/><path d="M326.37 192.16l-38.35-22.14v44.28l38.35 22.14 38.35-22.14v-44.28l-38.35 22.14z" fill="#42E8E0"/><path d="M326.37 236.44l-38.35-22.14v-44.28l38.35 22.14v44.28z" fill="#42E8E0"/><path d="M364.72 214.3l-38.35 22.14v-44.28l38.35-22.14v44.28z" fill="#2FD3C7"/><path d="M326.37 192.16l-38.35-22.14 38.35-22.14 38.35 22.14-38.35 22.14z" fill="#42E8E0"/><path d="M326.37 192.16l-36.69-21.18-1.66.96 38.35 22.14 38.35-22.14-1.67-.96-36.68 21.18z" fill="#fff"/><path d="M376.18 220.58l-38.35-22.14v44.28l38.35 22.14 38.35-22.14v-44.28l-38.35 22.14z" fill="#42E8E0"/><path d="M376.18 264.86l-38.35-22.14v-44.28l38.35 22.14v44.28z" fill="#42E8E0"/><path d="M414.53 242.72l-38.35 22.14v-44.28l38.35-22.14v44.28z" fill="#2FD3C7"/><path d="M376.18 220.58l-38.35-22.14 38.35-22.14 38.35 22.14-38.35 22.14z" fill="#42E8E0"/><path d="M376.18 220.58L339.5 199.4l-1.67.96 38.35 22.14 38.35-22.14-1.66-.96-36.69 21.18z" fill="#fff"/><path d="M426 249l-38.35-22.14v44.28L426 293.28l38.35-22.14v-44.28L426 249z" fill="#42E8E0"/><path d="M426 293.28l-38.35-22.14v-44.28L426 249v44.28z" fill="#D05A9E"/><path d="M464.35 271.14L426 293.28V249l38.35-22.14v44.28z" fill="#985EA4"/><path d="M426 249l-38.35-22.14L426 204.72l38.35 22.14L426 249z" fill="#FF5985"/><path d="M426 249l-36.69-21.18-1.66.96L426 250.92l38.35-22.14v-1.92L426 249z" fill="#fff"/><path d="M276.55 222.5l-38.35-22.14v44.28l38.35 22.14 38.35-22.14v-44.28l-38.35 22.14z" fill="#42E8E0"/><path d="M276.55 266.78l-38.35-22.14v-44.28l38.35 22.14v44.28z" fill="#D05A9E"/><path d="M314.9 244.64l-38.35 22.14V222.5l38.35-22.14v44.28z" fill="#985EA4"/><path d="M276.55 222.5l-38.35-22.14 38.35-22.14 38.35 22.14-38.35 22.14z" fill="#FF5985"/><path d="M276.55 222.5l-38.35-22.14v1.92l38.35 22.14 38.35-22.14-1.66-.96-36.69 21.18z" fill="#fff"/><path d="M326.37 250.92l-38.35-22.14v44.28l38.35 22.14 38.35-22.14v-44.28l-38.35 22.14z" fill="#42E8E0"/><path d="M326.37 295.2l-38.35-22.14v-44.28l38.35 22.14v44.28z" fill="#D05A9E"/><path d="M364.72 273.06l-38.35 22.14v-44.28l38.35-22.14v44.28z" fill="#985EA4"/><path d="M326.37 250.92l-38.35-22.14 38.35-22.14 38.35 22.14-38.35 22.14z" fill="#FF5985"/><path d="M326.37 250.92l-38.35-22.14v1.92l38.35 22.14 38.35-22.14-1.67-.96-36.68 21.18z" fill="#fff"/><path d="M376.18 279.35l-38.35-22.15v44.29l38.35 22.14 38.35-22.14V257.2l-38.35 22.15z" fill="#42E8E0"/><path d="M376.18 323.63l-38.35-22.14V257.2l38.35 22.15v44.28z" fill="#D05A9E"/><path d="M414.53 301.49l-38.35 22.14v-44.28l38.35-22.15v44.29z" fill="#985EA4"/><path d="M376.18 279.35l-38.35-22.15 38.35-22.14 38.35 22.14-38.35 22.15z" fill="#FF5985"/><path d="M376.18 279.35l-38.35-22.15v1.93l38.35 22.14 38.35-22.14v-1.93l-38.35 22.15z" fill="#FF5985"/><path d="M376.18 103.05l-38.35-22.14v44.28l38.35 22.14 38.35-22.14V80.91l-38.35 22.14z" fill="#42E8E0"/><path d="M376.18 147.33l-38.35-22.14V80.91l38.35 22.14v44.28z" fill="#D05A9E"/><path d="M414.53 125.19l-38.35 22.14v-44.28l38.35-22.14v44.28z" fill="#985EA4"/><path d="M376.18 103.05l-38.35-22.14 38.35-22.14 38.35 22.14-38.35 22.14z" fill="#FF5985"/><path d="M376.18 103.05L339.5 81.87l-1.67.96 38.35 22.14 38.35-22.14-1.66-.96-36.69 21.18z" fill="#fff"/><path opacity=".7" d="M376.18 272.13l-26.16-15.1 26.16-15.1 26.16 15.1-26.16 15.1zm-49.81-28.42l-26.16-15.1 26.16-15.11 26.16 15.11-26.16 15.1zm99.63-1.92l-26.17-15.1L426 211.58l26.16 15.11-26.16 15.1zm49.9-30l-26.15-15.1 26.15-15.1 26.17 15.1-26.17 15.1zm-199.35 3.5l-26.16-15.1 26.16-15.11 26.16 15.11-26.16 15.1z" fill="#E25481"/><path d="M426 131.47l-38.35-22.14v44.28L426 175.75l38.35-22.14v-44.28L426 131.47z" fill="#42E8E0"/><path d="M426 175.75l-38.35-22.14v-44.28L426 131.47v44.28z" fill="#D05A9E"/><path d="M464.35 153.61L426 175.75v-44.28l38.35-22.14v44.28z" fill="#985EA4"/><path d="M426 131.47l-38.35-22.14L426 87.19l38.35 22.14L426 131.47z" fill="#FF5985"/><path d="M426 131.47l-36.69-21.18-1.66.96L426 133.39l38.35-22.14-1.67-.96L426 131.47z" fill="#fff"/><path d="M475.81 159.89l-38.35-22.14v44.28l38.35 22.14 38.35-22.14v-44.28l-38.35 22.14z" fill="#42E8E0"/><path d="M475.81 204.18l-38.35-22.15v-44.28l38.35 22.14v44.29z" fill="#D05A9E"/><path d="M514.16 182.03l-38.35 22.15v-44.29l38.35-22.14v44.28z" fill="#985EA4"/><path d="M475.81 159.89l-38.35-22.14 38.35-22.14 38.35 22.14-38.35 22.14z" fill="#FF5985"/><path d="M475.81 159.89l-36.69-21.18-1.66.96 38.35 22.14 38.35-22.14v-1.92l-38.35 22.14z" fill="#fff"/><path d="M326.37 133.39l-38.35-22.14v44.28l38.35 22.14 38.35-22.14v-44.28l-38.35 22.14z" fill="#42E8E0"/><path d="M326.37 177.67l-38.35-22.14v-44.28l38.35 22.14v44.28z" fill="#D05A9E"/><path d="M364.72 155.53l-38.35 22.14v-44.28l38.35-22.14v44.28z" fill="#985EA4"/><path d="M326.37 133.39l-38.35-22.14 38.35-22.14 38.35 22.14-38.35 22.14z" fill="#FF5985"/><path d="M326.37 133.39l-36.69-21.18-1.66.96 38.35 22.14 38.35-22.14-1.67-.96-36.68 21.18z" fill="#fff"/><path d="M376.18 161.81l-38.35-22.14v44.28l38.35 22.14 38.35-22.14v-44.28l-38.35 22.14z" fill="#42E8E0"/><path d="M376.18 206.09l-38.35-22.14v-44.28l38.35 22.14v44.28z" fill="#D05A9E"/><path d="M414.53 183.95l-38.35 22.14v-44.28l38.35-22.14v44.28z" fill="#985EA4"/><path d="M376.18 161.81l-38.35-22.14 38.35-22.14 38.35 22.14-38.35 22.14z" fill="#FF5985"/><path d="M376.18 161.81l-36.68-21.18-1.67.96 38.35 22.15 38.35-22.15-1.66-.96-36.69 21.18z" fill="#fff"/><path d="M426 190.24l-38.35-22.15v44.29L426 234.52l38.35-22.14v-44.29L426 190.24z" fill="#42E8E0"/><path d="M426 234.52l-38.35-22.14v-44.29L426 190.24v44.28z" fill="#D05A9E"/><path d="M464.35 212.38L426 234.52v-44.28l38.35-22.15v44.29z" fill="#985EA4"/><path d="M426 190.24l-38.35-22.15L426 145.96l38.35 22.14L426 190.24z" fill="#FF5985"/><path d="M426 190.24l-36.69-21.18-1.66.96L426 192.16l38.35-22.14v-1.93L426 190.24z" fill="#fff"/><path d="M276.55 163.74l-38.35-22.15v44.29l38.35 22.14 38.35-22.14v-44.29l-38.35 22.15z" fill="#42E8E0"/><path d="M276.55 208.02l-38.35-22.14v-44.29l38.35 22.15v44.28z" fill="#D05A9E"/><path d="M314.9 185.88l-38.35 22.14v-44.28l38.35-22.15v44.29z" fill="#985EA4"/><path d="M276.55 163.74l-38.35-22.15 38.35-22.14 38.35 22.14-38.35 22.15z" fill="#FF5985"/><path d="M276.55 163.74l-36.68-21.19-1.67.96 38.35 22.15 38.35-22.15-1.66-.95-36.69 21.18z" fill="#fff"/><path d="M326.37 192.16l-38.35-22.14v44.28l38.35 22.14 38.35-22.14v-44.28l-38.35 22.14z" fill="#42E8E0"/><path d="M326.37 236.44l-38.35-22.14v-44.28l38.35 22.14v44.28z" fill="#D05A9E"/><path d="M364.72 214.3l-38.35 22.14v-44.28l38.35-22.14v44.28z" fill="#985EA4"/><path d="M326.37 192.16l-38.35-22.14 38.35-22.14 38.35 22.14-38.35 22.14z" fill="#FF5985"/><path d="M326.37 192.16l-38.35-22.14v1.92l38.35 22.14 38.35-22.14-1.67-.96-36.68 21.18z" fill="#fff"/><path d="M376.18 220.58l-38.35-22.14v44.28l38.35 22.14 38.35-22.14v-44.28l-38.35 22.14z" fill="#42E8E0"/><path d="M376.18 264.86l-38.35-22.14v-44.28l38.35 22.14v44.28z" fill="#D05A9E"/><path d="M414.53 242.72l-38.35 22.14v-44.28l38.35-22.14v44.28z" fill="#985EA4"/><path d="M376.18 220.58l-38.35-22.14 38.35-22.14 38.35 22.14-38.35 22.14z" fill="#FF5985"/><path d="M376.18 220.58l-38.35-22.14v1.92l38.35 22.14 38.35-22.14v-1.92l-38.35 22.14z" fill="#fff"/><path opacity=".7" d="M475.9 153.29l-26.15-15.1 26.15-15.11 26.17 15.11-26.17 15.1zm-199.35 3.49l-26.16-15.1 26.16-15.1 26.16 15.1-26.16 15.1z" fill="#E25481"/><path d="M376.18 44.28l-38.35-22.14v44.28l38.35 22.14 38.35-22.14V22.14l-38.35 22.14z" fill="#42E8E0"/><path d="M376.18 88.56l-38.35-22.14V22.14l38.35 22.14v44.28z" fill="#D05A9E"/><path d="M414.53 66.42l-38.35 22.14V44.28l38.35-22.14v44.28z" fill="#985EA4"/><path d="M376.18 44.28l-38.35-22.14L376.18 0l38.35 22.14-38.35 22.14z" fill="#FF5985"/><path d="M376.18 44.28l-38.35-22.14v1.92l38.35 22.14 38.35-22.14v-1.92l-38.35 22.14z" fill="#fff"/><path d="M426 72.7l-38.35-22.14v44.28L426 116.99l38.35-22.15V50.56L426 72.7z" fill="#42E8E0"/><path d="M426 116.99l-38.35-22.15V50.56L426 72.7v44.29z" fill="#D05A9E"/><path d="M464.35 94.84L426 116.99V72.7l38.35-22.14v44.28z" fill="#985EA4"/><path d="M426 72.7l-38.35-22.14L426 28.42l38.35 22.14L426 72.7z" fill="#FF5985"/><path d="M426 72.7l-38.35-22.14v1.92L426 74.63l38.35-22.15v-1.92L426 72.7z" fill="#fff"/><path d="M475.81 101.13l-38.35-22.14v44.28l38.35 22.14 38.35-22.14V78.99l-38.35 22.14z" fill="#42E8E0"/><path d="M475.81 145.41l-38.35-22.14V78.99l38.35 22.14v44.28z" fill="#D05A9E"/><path d="M514.16 123.27l-38.35 22.14v-44.28l38.35-22.14v44.28z" fill="#985EA4"/><path d="M475.81 101.13l-38.35-22.14 38.35-22.15 38.35 22.15-38.35 22.14z" fill="#FF5985"/><path d="M475.81 101.13l-38.35-22.14v1.92l38.35 22.14 38.35-22.14v-1.92l-38.35 22.14z" fill="#fff"/><path d="M326.37 74.63l-38.35-22.15v44.29l38.35 22.14 38.35-22.14V52.48l-38.35 22.15z" fill="#42E8E0"/><path d="M326.37 118.91l-38.35-22.14V52.48l38.35 22.15v44.28z" fill="#D05A9E"/><path d="M364.72 96.77l-38.35 22.14V74.63l38.35-22.15v44.29z" fill="#985EA4"/><path d="M326.37 74.63l-38.35-22.15 38.35-22.14 38.35 22.14-38.35 22.15z" fill="#FF5985"/><path d="M326.37 74.63l-38.35-22.15v1.93l38.35 22.14 38.35-22.14v-1.93l-38.35 22.15z" fill="#fff"/><path d="M276.55 104.97L238.2 82.83v44.28l38.35 22.14 38.35-22.14V82.83l-38.35 22.14z" fill="#42E8E0"/><path d="M276.55 149.25l-38.35-22.14V82.83l38.35 22.14v44.28z" fill="#D05A9E"/><path d="M314.9 127.11l-38.35 22.14v-44.28l38.35-22.14v44.28z" fill="#985EA4"/><path d="M276.55 104.97L238.2 82.83l38.35-22.14 38.35 22.14-38.35 22.14z" fill="#FF5985"/><path d="M276.55 104.97L238.2 82.83v1.92l38.35 22.14 38.35-22.14v-1.92l-38.35 22.14z" fill="#fff"/><path opacity=".3" d="M193 411.18a5.181 5.181 0 008.843 3.663A5.18 5.18 0 00198.18 406a5.173 5.173 0 00-5.18 5.18z" fill="#FF5985"/><path d="M198.17 413.43a2.25 2.25 0 100-4.5 2.25 2.25 0 000 4.5z" fill="#FF5985"/><path opacity=".3" d="M605.8 149.58a5.183 5.183 0 003.193 4.784 5.187 5.187 0 005.643-1.114 5.184 5.184 0 001.135-5.638A5.178 5.178 0 00611 144.4a5.17 5.17 0 00-3.682 1.504 5.146 5.146 0 00-1.127 1.686 5.146 5.146 0 00-.391 1.99z" fill="#FF5985"/><path d="M608.73 149.58a2.248 2.248 0 002.693 2.206 2.257 2.257 0 001.765-1.773 2.247 2.247 0 00-.965-2.309 2.253 2.253 0 00-1.253-.374c-.295 0-.587.058-.86.171a2.255 2.255 0 00-1.212 1.219 2.245 2.245 0 00-.168.86z" fill="#FF5985"/><path opacity=".3" d="M756.56 473.66a5.177 5.177 0 003.2 4.787 5.179 5.179 0 006.763-6.776 5.18 5.18 0 00-4.793-3.191 5.163 5.163 0 00-5.17 5.18z" fill="#FF5985"/><path d="M761.73 475.91a2.25 2.25 0 100-4.5 2.25 2.25 0 000 4.5z" fill="#FF5985"/><path opacity=".3" d="M663.11 500.1a8.08 8.08 0 100-16.16 8.08 8.08 0 000 16.16z" fill="#FF5985"/><path d="M659.6 492a3.507 3.507 0 002.16 3.25 3.514 3.514 0 003.829-.755 3.509 3.509 0 10-4.957-4.97A3.51 3.51 0 00659.6 492z" fill="#FF5985"/><path opacity=".3" d="M630.75 421.55a5.48 5.48 0 105.47-5.47 5.47 5.47 0 00-5.47 5.47z" fill="#FF5985"/><path d="M633.85 421.55a2.377 2.377 0 001.465 2.207 2.386 2.386 0 002.598-.514 2.386 2.386 0 00-.367-3.666 2.377 2.377 0 00-1.326-.397 2.372 2.372 0 00-2.37 2.37z" fill="#FF5985"/><path opacity=".3" d="M550.68 119.73a5.187 5.187 0 003.193 4.794 5.18 5.18 0 10-3.193-4.794z" fill="#FF5985"/><path d="M553.61 119.73a2.247 2.247 0 002.686 2.217 2.246 2.246 0 001.771-1.771 2.25 2.25 0 00-2.217-2.686 2.24 2.24 0 00-2.24 2.24z" fill="#FF5985"/><path opacity=".3" d="M121 370.17a5.179 5.179 0 105.17-5.17 5.174 5.174 0 00-3.656 1.514A5.174 5.174 0 00121 370.17z" fill="#FF5985"/><path d="M123.93 370.17a2.255 2.255 0 001.385 2.087 2.249 2.249 0 002.942-2.943 2.25 2.25 0 00-2.087-1.384 2.24 2.24 0 00-2.24 2.24z" fill="#FF5985"/></g><defs><linearGradient id="paint0_linear" x1="170.61" y1="336.31" x2="581.75" y2="336.31" gradientUnits="userSpaceOnUse"><stop stop-color="#FF5985"/><stop offset=".22" stop-color="#ED5A8A"/><stop offset=".67" stop-color="#BF5C98"/><stop offset="1" stop-color="#985EA4"/></linearGradient><linearGradient id="paint1_linear" x1="637.04" y1="185.523" x2="713.74" y2="185.523" gradientUnits="userSpaceOnUse"><stop stop-color="#FF5885"/><stop offset=".27" stop-color="#FC5893"/><stop offset=".66" stop-color="#F957A1"/><stop offset="1" stop-color="#F857A6"/></linearGradient><linearGradient id="paint2_linear" x1="17.99" y1="330.513" x2="94.69" y2="330.513" gradientUnits="userSpaceOnUse"><stop stop-color="#FF5885"/><stop offset=".27" stop-color="#FC5893"/><stop offset=".66" stop-color="#F957A1"/><stop offset="1" stop-color="#F857A6"/></linearGradient><linearGradient id="paint3_linear" x1="334.08" y1="541.563" x2="410.78" y2="541.563" gradientUnits="userSpaceOnUse"><stop stop-color="#FF5885"/><stop offset=".27" stop-color="#FC5893"/><stop offset=".66" stop-color="#F957A1"/><stop offset="1" stop-color="#F857A6"/></linearGradient><linearGradient id="paint4_linear" x1="656.22" y1="447.843" x2="732.91" y2="447.843" gradientUnits="userSpaceOnUse"><stop stop-color="#FF5885"/><stop offset=".27" stop-color="#FC5893"/><stop offset=".66" stop-color="#F957A1"/><stop offset="1" stop-color="#F857A6"/></linearGradient><clipPath id="clip0"><path fill="#fff" d="M0 0h819.93v563.7H0z"/></clipPath></defs></svg>