<svg width="251" height="266" fill="none" xmlns="http://www.w3.org/2000/svg"><g clip-path="url(#clip0)"><path d="M125.369 121.076l-41.79-24.373v48.483l41.79 24.11 41.79-24.11V96.703l-41.79 24.373z" fill="#42E8E0"/><path d="M125.369 169.296l-41.79-24.11V96.703l41.79 24.373v48.22z" fill="#D05A9E"/><path d="M167.159 145.186l-41.789 24.11v-48.22l41.789-24.373v48.483z" fill="#985EA4"/><path d="M125.369 121.076l-41.79-24.373 41.79-24.11 41.79 24.11-41.79 24.373z" fill="#FF5985"/><path d="M125.369 115.048L93.766 96.703l31.603-18.082 31.343 18.082-31.343 18.345z" fill="#E25481"/><path d="M125.369 121.076l-41.79-24.373V98.8l41.79 24.372 41.79-24.372v-2.097l-41.79 24.373z" fill="#fff"/><path d="M125.369 48.483L83.579 24.11v48.483l41.79 24.11 41.79-24.11V24.11l-41.79 24.373z" fill="#42E8E0"/><path d="M125.369 96.703l-41.79-24.11V24.11l41.79 24.373v48.22z" fill="#D05A9E"/><path d="M167.159 72.593l-41.789 24.11v-48.22l41.789-24.373v48.483z" fill="#985EA4"/><path d="M125.369 48.483L83.579 24.11 125.37 0l41.79 24.11-41.79 24.373z" fill="#FF5985"/><path d="M125.369 48.483L83.579 24.11v2.097l41.79 24.372 41.79-24.372V24.11l-41.79 24.373z" fill="#fff"/><path d="M41.79 217.779l41.79-24.372v-48.221l-41.79 24.11L0 145.186v48.221l41.79 24.372z" fill="#42E8E0"/><path d="M41.79 217.779L0 193.407v-48.221l41.79 24.11v48.483z" fill="#D05A9E"/><path d="M41.79 217.779v-48.483l41.79-24.11v48.221l-41.79 24.372z" fill="#985EA4"/><path d="M41.79 169.296L0 145.186l41.79-24.11 41.79 24.11-41.79 24.11z" fill="#FF5985"/><path d="M41.79 169.296L0 145.186v2.097l41.79 24.11 41.79-24.11v-2.097l-41.79 24.11z" fill="#fff"/><path d="M209.21 217.779L251 193.407v-48.221l-41.79 24.11-41.79-24.11v48.221l41.79 24.372z" fill="#42E8E0"/><path d="M209.21 217.779l-41.79-24.372v-48.221l41.79 24.11v48.483z" fill="#D05A9E"/><path d="M209.21 217.779v-48.483l41.79-24.11v48.221l-41.79 24.372z" fill="#985EA4"/><path d="M209.21 169.296l-41.79-24.11 41.79-24.11 41.79 24.11-41.79 24.11z" fill="#FF5985"/><path d="M209.21 169.296l-41.79-24.11v2.097l41.79 24.11 41.79-24.11v-2.097l-41.79 24.11z" fill="#fff"/><path d="M125.369 266l41.79-24.111v-48.482l-41.79 24.372-41.79-24.372v48.482L125.37 266z" fill="#42E8E0"/><path d="M125.369 266l-41.79-24.111v-48.482l41.79 24.372V266z" fill="#D05A9E"/><path d="M125.37 266v-48.221l41.789-24.372v48.482L125.37 266z" fill="#985EA4"/><path d="M125.369 217.78l-41.79-24.373 41.79-24.11 41.79 24.11-41.79 24.373z" fill="#FF5985"/><path d="M125.369 217.779l-41.79-24.372v2.096l41.79 24.373 41.79-24.373v-2.096l-41.79 24.372z" fill="#fff"/></g><defs><clipPath id="clip0"><path fill="#fff" d="M0 0h251v266H0z"/></clipPath></defs></svg>