<svg width="414" height="544" viewBox="0 0 414 560" fill="none" xmlns="http://www.w3.org/2000/svg"><g opacity=".75" class="cube-one"><path d="M.06 16.609L28.82 0h.08l28.759 16.609c.08 0 .08.161 0 .161L28.98 33.38h-.08L.06 16.77c-.08 0-.08-.08 0-.161z" fill="#FF5985"/><path d="M58 16.69l-.08 33.54L29 67V33.46l29-16.77z" fill="#D05A9E"/><path d="M0 16.69l29 16.77V67L0 50.23V16.69z" fill="#985EA4"/></g><g opacity=".75" class="cube-two"><path d="M215.06 493.609L243.819 477h.08l28.759 16.609c.08 0 .08.161 0 .161l-28.678 16.609h-.081L215.06 493.77c-.08 0-.08-.08 0-.161z" fill="#FF5985"/><path d="M273 493.69l-.081 33.54L244 544v-33.54l29-16.77z" fill="#D05A9E"/><path d="M215 493.69l29 16.77V544l-29-16.77v-33.54z" fill="#985EA4"/></g><g clip-path="url(#clip0)" class="cube-three"><path d="M38.986 493.924L53.86 485h.042l14.875 8.924c.041 0 .041.087 0 .087l-14.834 8.924h-.041l-14.917-8.924c-.042 0-.042-.043 0-.087z" fill="#FF5985"/><path d="M69 493.968l-.042 18.021L54 521v-18.022l15-9.01z" fill="#D05A9E"/><path d="M39 493.968l15 9.01V521l-15-9.011v-18.021z" fill="#985EA4"/></g><g opacity=".75" clip-path="url(#clip1)" class="cube-four"><path d="M382.985 407.924L398.356 399h.043l15.371 8.924c.043 0 .043.087 0 .087l-15.328 8.924h-.043l-15.414-8.924c-.043 0-.043-.043 0-.087z" fill="#FF5985"/><path d="M414 407.968l-.043 18.021L398.5 435v-18.022l15.5-9.01z" fill="#D05A9E"/><path d="M383 407.968l15.5 9.01V435l-15.5-9.011v-18.021z" fill="#985EA4"/></g><path d="M222.333 256.997l61.898-35.857L346 256.997l-61.769 35.601-61.898-35.601z" fill="#FF5985"/><path d="M285.003 149.553l-.772 71.587-60.74 34.958-.901-70.173 62.413-36.372z" fill="#D05A9E"/><path d="M58 185.154L202.386 102l82.617 47.553-62.413 36.372c.386.128 61.641 35.215 61.641 35.215l-81.841 47.17L58 185.154z" fill="#FF5985"/><path d="M284.231 292.598L346 256.997v94.978L202.386 435V268.307l81.845-47.167v71.458z" fill="#D05A9E"/><path d="M58 185.154l144.386 83.153V435L58 351.846V185.154z" fill="#985EA4"/><g filter="url(#filter0_d)"><path d="M235.237 105.953L295.729 71h.17l60.491 34.953c.17 0 .17.339 0 .339l-60.322 34.953h-.169l-60.662-34.953c-.169 0-.169-.169 0-.339z" fill="#FF5985"/><path d="M357 106.123l-.169 70.585L296 212v-70.585l61-35.292z" fill="#D05A9E"/><path d="M235 106.123l61 35.292V212l-61-35.292v-70.585z" fill="#985EA4"/></g><defs><clipPath id="clip0"><path fill="#fff" transform="translate(39 485)" d="M0 0h30v36H0z"/></clipPath><clipPath id="clip1"><path fill="#fff" transform="translate(383 399)" d="M0 0h31v36H0z"/></clipPath><filter id="filter0_d" x="195" y="71" width="162" height="181" filterUnits="userSpaceOnUse" color-interpolation-filters="sRGB"><feFlood flood-opacity="0" result="BackgroundImageFix"/><feColorMatrix in="SourceAlpha" values="0 0 0 0 0 0 0 0 0 0 0 0 0 0 0 0 0 0 127 0"/><feOffset dx="-20" dy="20"/><feGaussianBlur stdDeviation="10"/><feColorMatrix values="0 0 0 0 0 0 0 0 0 0 0 0 0 0 0 0 0 0 0.21 0"/><feBlend in2="BackgroundImageFix" result="effect1_dropShadow"/><feBlend in="SourceGraphic" in2="effect1_dropShadow" result="shape"/></filter></defs></svg>