<svg width="961" height="822" fill="none" xmlns="http://www.w3.org/2000/svg"><g opacity=".3"><g opacity=".4" fill="#fff" clip-path="url(#clip0)"><path opacity=".4" d="M734.228 343.65l-68.993-39.935L734.228 264l.661.441 68.331 39.494-68.992 39.715zm-64.143-39.715l64.143 37.067 64.143-37.067-64.143-37.067-64.143 37.067z"/><path opacity=".4" d="M601.093 343.65l-68.992-39.935L601.093 264l68.992 39.935-68.992 39.715zm-64.143-39.715l64.143 37.067 64.143-37.067-64.143-37.067-64.143 37.067z"/><path opacity=".4" d="M667.661 382.04l-.662-.441-68.331-39.494 68.993-39.935 68.992 39.935-68.992 39.935zm-64.143-39.714l64.143 37.067 64.143-37.067-64.143-37.067-64.143 37.067z"/><path opacity=".4" d="M734.228 420.652l-.662-.441-68.331-39.494 68.993-39.936.661.442 68.331 39.494-68.992 39.935zm-64.143-39.935l64.143 37.067 64.143-37.067-64.143-37.067-64.143 37.067zM467.958 343.65l-.662-.442-68.331-39.493L467.958 264l.661.441 68.331 39.494-68.992 39.715zm-63.923-39.715l64.143 37.067 64.143-37.067-64.363-37.067-63.923 37.067z"/><path opacity=".4" d="M534.526 382.04l-68.993-39.935 68.993-39.935 68.992 39.935-68.992 39.935zm-63.923-39.714l64.143 37.067 64.143-37.067-64.143-37.067-64.143 37.067z"/><path opacity=".4" d="M601.093 420.652l-.661-.441-68.331-39.494 68.992-39.936.661.442 68.331 39.494-68.992 39.935zm-64.143-39.935l64.143 37.067 64.143-37.067-64.143-37.067-64.143 37.067z"/><path opacity=".4" d="M667.661 459.042l-.662-.441-68.331-39.494 68.993-39.935.661.441 68.331 39.494-68.992 39.935zm-64.143-39.935l64.143 37.067 64.143-37.067-64.143-37.067-64.143 37.067z"/><path opacity=".4" d="M734.228 497.433l-.662-.441-68.331-39.494 68.993-39.935 68.992 39.935-68.992 39.935zm-64.143-39.714l64.143 37.067 64.143-37.067-64.143-37.067-64.143 37.067zM335.043 343.65l-.662-.442-68.331-39.493L335.043 264l.661.441 68.331 39.494-68.992 39.715zM270.9 303.935l64.143 36.846 64.143-37.066-64.143-36.847-64.143 37.067z"/><path opacity=".4" d="M401.61 382.04l-.661-.441-68.331-39.494 68.992-39.935.661.441 68.331 39.494-68.992 39.935zm-64.143-39.714l64.143 37.067 64.143-37.067-64.143-37.067-64.143 37.067z"/><path opacity=".4" d="M467.958 420.652l-.662-.441-68.331-39.494 68.993-39.936 68.992 39.936-68.992 39.935zm-63.923-39.935l64.143 37.067 64.143-37.067-64.143-37.067-64.143 37.067z"/><path opacity=".4" d="M534.526 459.042l-68.993-39.935 68.993-39.935.661.441 68.331 39.494-68.992 39.935zm-63.923-39.935l64.143 37.067 64.143-37.067-64.143-37.067-64.143 37.067z"/><path opacity=".4" d="M601.093 497.433l-.661-.441-68.331-39.494 68.992-39.935.661.441 68.331 39.494-68.992 39.935zm-64.143-39.714l64.143 37.067 64.143-37.067-64.143-37.067-64.143 37.067z"/><path opacity=".4" d="M667.661 535.824l-.662-.441-68.331-39.494 68.993-39.935.661.441 68.331 39.494-68.992 39.935zm-64.143-39.715l64.143 37.067 64.143-37.067-64.143-37.066-64.143 37.066z"/><path opacity=".4" d="M734.228 574.435l-.662-.441-68.331-39.494 68.993-39.935.661.441L803.22 534.5l-68.992 39.935zM670.085 534.5l64.143 37.067 64.143-37.067-64.143-37.067-64.143 37.067zM201.907 343.65l-.441-.221-68.331-39.494L201.907 264l.661.441 68.331 39.494-68.992 39.715zm-63.922-39.715l64.143 37.067 64.143-37.067-64.364-37.067-63.922 37.067z"/><path opacity=".4" d="M268.475 382.04l-68.993-39.714 68.993-39.935.661.441 68.331 39.494-68.992 39.714zm-64.143-39.714l64.143 37.067 64.143-37.067-64.143-37.067-64.143 37.067z"/><path opacity=".4" d="M335.043 420.652l-.662-.441-68.331-39.494 68.993-39.936.661.442 68.331 39.494-68.992 39.935zM270.9 380.717l64.143 37.067 64.143-37.067-64.143-37.067-64.143 37.067z"/><path opacity=".4" d="M401.61 459.042l-.661-.441-68.331-39.494 68.992-39.935.661.441 68.331 39.494-68.992 39.935zm-64.143-39.935l64.143 37.067 64.143-37.067-64.143-37.067-64.143 37.067z"/><path opacity=".4" d="M467.958 497.433l-68.993-39.935 68.993-39.935 68.992 39.935-68.992 39.935zm-63.923-39.714l64.143 37.067 64.143-37.067-64.363-37.067-63.923 37.067z"/><path opacity=".4" d="M534.526 535.824l-.662-.441-68.331-39.494 68.993-39.935.661.441 68.331 39.494-68.992 39.935zm-63.923-39.715l64.143 37.067 64.143-37.067-64.143-37.066-64.143 37.066z"/><path opacity=".4" d="M601.093 574.435L532.101 534.5l68.992-39.935.661.441 68.331 39.494-68.992 39.935zM536.95 534.5l64.143 37.067 64.143-37.067-64.143-37.067L536.95 534.5z"/><path opacity=".4" d="M667.661 612.826l-.662-.442-68.331-39.494 68.993-39.935.661.442 68.331 39.493-68.992 39.936zm-64.143-39.936l64.143 37.067 64.143-37.067-64.143-37.066-64.143 37.066z"/><path opacity=".4" d="M734.228 651.217l-.662-.442-68.331-39.493 68.993-39.936.661.442 68.331 39.494-68.992 39.935zm-64.143-39.935l64.143 37.066 64.143-37.066-64.143-37.067-64.143 37.067zM68.992 343.65l-.66-.221L0 303.935 68.992 264l.662.441 68.331 39.494-68.993 39.715zM4.85 303.935l64.143 37.067 64.143-37.067-64.143-37.067L4.85 303.935z"/><path opacity=".4" d="M135.56 382.04l-.661-.441-68.331-39.494 68.992-39.935.661.441 68.331 39.494-68.992 39.935zm-64.143-39.714l64.143 37.067 64.143-37.067-64.143-37.067-64.143 37.067z"/><path opacity=".4" d="M201.907 420.652l-.661-.441-68.331-39.494 68.992-39.936 68.992 39.936-68.992 39.935zm-63.923-39.935l64.143 37.067 64.143-37.067-64.363-37.067-63.923 37.067z"/><path opacity=".4" d="M268.475 459.042l-68.993-39.935 68.993-39.935.661.441 68.331 39.494-68.992 39.935zm-64.143-39.935l64.143 37.067 64.143-37.067-64.143-37.067-64.143 37.067z"/><path opacity=".4" d="M335.043 497.433l-.662-.441-68.331-39.494 68.993-39.715.661.442 68.331 39.494-68.992 39.714zM270.9 457.719l64.143 37.066 64.143-37.066-64.143-37.067-64.143 37.067z"/><path opacity=".4" d="M401.61 535.824l-68.992-39.935 68.992-39.935 68.992 39.935-68.992 39.935zm-64.143-39.715l64.143 37.067 64.143-37.067-64.143-37.066-64.143 37.066z"/><path opacity=".4" d="M468.178 574.435l-.661-.441-68.331-39.494 68.992-39.935.661.441L537.17 534.5l-68.992 39.935zM404.035 534.5l64.143 37.067 64.143-37.067-64.143-37.067-64.143 37.067z"/><path opacity=".4" d="M534.526 612.826l-.662-.442-68.331-39.494 68.993-39.935 68.992 39.935-68.992 39.936zm-63.923-39.936l64.143 37.067 64.143-37.067-64.143-37.066-64.143 37.066z"/><path opacity=".4" d="M601.093 651.217l-68.992-39.935 68.992-39.936.661.442 68.331 39.494-68.992 39.935zm-64.143-39.935l64.143 37.066 64.143-37.066-64.143-37.067-64.143 37.067z"/><path opacity=".4" d="M667.661 689.607l-.662-.441-68.331-39.494 68.993-39.935.661.441 68.331 39.494-68.992 39.935zm-64.143-39.714l64.143 37.067 64.143-37.067-64.143-37.067-64.143 37.067z"/><path opacity=".4" d="M734.228 728.218l-.662-.441-68.331-39.494 68.993-39.935.661.441 68.331 39.494-68.992 39.935zm-64.143-39.935l64.143 37.067 64.143-37.067-64.143-37.067-64.143 37.067zM68.992 420.652l-.66-.441L0 380.717l68.992-39.936.662.442 68.331 39.494-68.993 39.935zM4.85 380.717l64.143 37.067 64.143-37.067-64.143-37.067L4.85 380.717z"/><path opacity=".4" d="M135.56 459.042l-.661-.441-68.331-39.494 68.992-39.935.661.441 68.331 39.494-68.992 39.935zm-64.143-39.935l64.143 37.067 64.143-37.067-64.143-37.067-64.143 37.067z"/><path opacity=".4" d="M201.907 497.433l-.661-.441-68.331-39.494 68.992-39.935 68.992 39.935-68.992 39.935zm-63.923-39.714l64.143 37.067 64.143-37.067-64.363-37.067-63.923 37.067z"/><path opacity=".4" d="M268.475 535.824l-.662-.441-68.331-39.494 68.993-39.935.661.441 68.331 39.494-68.992 39.935zm-64.143-39.715l64.143 37.067 64.143-37.067-64.143-37.066-64.143 37.066z"/><path opacity=".4" d="M335.043 574.435L266.05 534.5l68.993-39.935 68.992 39.935-68.992 39.935zM270.9 534.5l64.143 37.067 64.143-37.067-64.143-37.067L270.9 534.5z"/><path opacity=".4" d="M401.61 612.826l-68.992-39.936 68.992-39.935.661.442 68.331 39.493-68.992 39.936zm-64.143-39.936l64.143 37.067 64.143-37.067-64.143-37.066-64.143 37.066z"/><path opacity=".4" d="M468.178 651.217l-.661-.442-68.331-39.493 68.992-39.936.661.442 68.331 39.494-68.992 39.935zm-64.143-39.935l64.143 37.066 64.143-37.066-64.143-37.067-64.143 37.067z"/><path opacity=".4" d="M534.526 689.607l-.662-.441-68.331-39.494 68.993-39.935 68.992 39.935-68.992 39.935zm-63.923-39.714l64.143 37.067 64.143-37.067-64.143-37.067-64.143 37.067z"/><path opacity=".4" d="M601.093 728.218l-.661-.441-68.331-39.494 68.992-39.935.661.441 68.331 39.494-68.992 39.935zm-64.143-39.935l64.143 37.067 64.143-37.067-64.143-37.067-64.143 37.067z"/><path opacity=".4" d="M667.661 766.61l-68.993-39.936 68.993-39.935.661.442 68.331 39.493-68.992 39.936zm-64.143-39.936l64.143 37.067 64.143-37.067-64.143-37.066-64.143 37.066z"/><path opacity=".4" d="M734.228 805l-.662-.441-68.331-39.494 68.993-39.935.661.441 68.331 39.494L734.228 805zm-64.143-39.935l64.143 37.067 64.143-37.067-64.143-37.067-64.143 37.067zM68.992 497.433L0 457.719l68.992-39.936.662.442 68.331 39.494-68.993 39.714zM4.85 457.719l64.143 37.066 64.143-37.066-64.143-37.067L4.85 457.719z"/><path opacity=".4" d="M135.56 535.824l-.661-.441-68.331-39.494 68.992-39.935.661.441 68.331 39.494-68.992 39.935zm-64.143-39.715l64.143 37.067 64.143-37.067-64.143-37.066-64.143 37.066z"/><path opacity=".4" d="M201.907 574.435l-.661-.441-68.331-39.494 68.992-39.935.661.441 68.331 39.494-68.992 39.935zM137.984 534.5l64.143 37.067L266.27 534.5l-64.143-37.067-64.143 37.067z"/><path opacity=".4" d="M268.475 612.826l-.662-.442-68.331-39.494 68.993-39.935 68.992 39.935-68.992 39.936zm-63.923-39.936l64.143 37.067 64.143-37.067-64.143-37.066-64.143 37.066z"/><path opacity=".4" d="M335.043 651.217l-68.993-39.935 68.993-39.936 68.992 39.936-68.992 39.935zM270.9 611.282l64.143 37.066 64.143-37.066-64.143-36.847-64.143 36.847z"/><path opacity=".4" d="M401.61 689.607l-68.992-39.935 68.992-39.935.661.441 68.331 39.494-68.992 39.935zm-64.143-39.714l64.143 37.067 64.143-37.067-64.143-37.067-64.143 37.067z"/><path opacity=".4" d="M468.178 728.218l-.661-.441-68.331-39.494 68.992-39.935.661.441 68.331 39.494-68.992 39.935zm-64.143-39.935l64.143 37.067 64.143-37.067-64.143-37.067-64.143 37.067z"/><path opacity=".4" d="M534.526 766.61l-.662-.442-68.331-39.494 68.993-39.935.661.442 68.331 39.493-68.992 39.936zm-63.923-39.936l64.143 37.067 64.143-37.067-64.143-37.066-64.143 37.066z"/><path opacity=".4" d="M601.093 805l-.661-.441-68.331-39.494 68.992-39.935 68.992 39.935L601.093 805zm-64.143-39.935l64.143 37.067 64.143-37.067-64.143-37.067-64.143 37.067zM68.992 574.435L0 534.5l68.992-39.935.662.441 68.331 39.494-68.993 39.935zM4.85 534.5l64.143 37.067 64.143-37.067-64.143-37.067L4.85 534.5z"/><path opacity=".4" d="M135.56 612.826l-.661-.441-68.331-39.494 68.992-39.715.661.442 68.331 39.493-68.992 39.715zm-64.143-39.935l64.143 37.067 63.923-37.067-64.143-37.067-63.923 37.067z"/><path opacity=".4" d="M201.907 651.217l-.661-.442-68.331-39.493 68.992-39.936.661.442 68.331 39.494-68.992 39.935zm-63.923-39.935l64.143 37.066 64.143-37.066-64.143-37.067-64.143 37.067z"/><path opacity=".4" d="M268.475 689.607l-68.993-39.935 68.993-39.935 68.992 39.935-68.992 39.935zm-63.923-39.714l64.143 37.067 64.143-37.067-64.143-37.067-64.143 37.067z"/><path opacity=".4" d="M335.043 728.218l-.662-.441-68.331-39.494 68.993-39.935 68.992 39.935-68.992 39.935zM270.9 688.283l64.143 37.067 64.143-37.067-64.143-37.067-64.143 37.067z"/><path opacity=".4" d="M401.61 766.61l-68.992-39.936 68.992-39.935.661.442 68.331 39.493-68.992 39.936zm-64.143-39.936l64.143 37.067 64.143-37.067-64.143-37.066-64.143 37.066z"/><path opacity=".4" d="M468.178 805l-.661-.441-68.331-39.494 68.992-39.935.661.441 68.331 39.494L468.178 805zm-64.143-39.935l64.143 37.067 64.143-37.067-64.143-37.067-64.143 37.067zM68.992 651.217l-.66-.442L0 611.282l68.992-39.936.662.442 68.331 39.494-68.993 39.935zM4.85 611.282l64.143 37.066 64.143-37.066-64.143-37.067L4.85 611.282z"/><path opacity=".4" d="M135.56 689.607l-68.992-39.935 68.992-39.935.661.441 68.331 39.494-68.992 39.935zm-64.143-39.714l64.143 37.067 64.143-37.067-64.143-37.067-64.143 37.067z"/><path opacity=".4" d="M201.907 728.218l-.661-.441-68.331-39.494 68.992-39.935 68.992 39.935-68.992 39.935zm-63.923-39.935l64.143 37.067 64.143-37.067-64.143-37.067-64.143 37.067z"/><path opacity=".4" d="M268.475 766.61l-68.993-39.936 68.993-39.935.661.442 68.331 39.493-68.992 39.936zm-63.923-39.936l64.143 37.067 64.143-37.067-64.143-37.066-64.143 37.066z"/><path opacity=".4" d="M335.043 805l-.662-.441-68.331-39.494 68.993-39.935 68.992 39.935L335.043 805zM270.9 765.065l64.143 37.067 64.143-37.067-64.143-36.846-64.143 36.846zM68.992 728.218l-.66-.441L0 688.283l68.992-39.935 68.993 39.935-68.993 39.935zM4.85 688.283l64.143 37.067 64.143-37.067-64.143-37.067L4.85 688.283z"/><path opacity=".4" d="M135.56 766.61l-.661-.442-68.331-39.494 68.992-39.935.661.442 68.331 39.493-68.992 39.936zm-64.143-39.936l64.143 37.067 64.143-37.067-64.143-37.066-64.143 37.066z"/><path opacity=".4" d="M201.907 805l-68.992-39.935 68.992-39.935 68.992 39.935L201.907 805zm-63.923-39.935l64.143 37.067 64.143-37.067-64.143-37.067-64.143 37.067z"/><path opacity=".4" d="M68.992 805l-.66-.441L0 765.065l68.992-39.935.662.441 68.331 39.494L68.992 805zM4.85 765.065l64.143 37.067 64.143-37.067-64.143-37.067L4.85 765.065z"/></g></g><g clip-path="url(#clip1)"><path d="M148.47 418.07a24.518 24.518 0 01-12-2.85L73.08 378.6c-3.29-1.91-5.1-4.47-5.1-7.23 0-2.76 1.81-5.32 5.1-7.22l63.43-36.62c6.59-3.81 17.31-3.81 23.91 0l63.43 36.62c3.29 1.9 5.11 4.47 5.11 7.22s-1.82 5.33-5.11 7.23l-63.43 36.62a24.44 24.44 0 01-11.95 2.85zm-11.4-3.82c6.28 3.63 16.52 3.63 22.8 0l63.42-36.62c2.94-1.69 4.56-3.91 4.56-6.26 0-2.35-1.62-4.56-4.56-6.26l-63.43-36.62c-6.28-3.63-16.51-3.63-22.79 0l-63.43 36.62c-2.94 1.7-4.55 3.92-4.55 6.26s1.61 4.57 4.55 6.26l63.43 36.62z" fill="#fff"/><path opacity=".5" d="M230.93 357.32V335.6l-4-2.21c-1.12 6.78-9.11 11.25-15.78 12.18l-45.42 26.58-19.83 7.16-63.32-32.67 1.47-.85c-5.41-2.53-8.33-8.31-11.26-13.58l-4.26 2.54-2.53.71v22.09c0 2.81 1.86 5.63 5.57 7.77L135 401.94c7.43 4.29 19.51 4.29 26.94 0l63.42-36.62c3.66-2.1 5.51-4.86 5.57-7.63v-.38.01z" fill="url(#paint0_linear)" fill-opacity=".5"/><path d="M230.93 338v-14.36l-4-2.21c-1.12 6.78-9.11 11.25-15.78 12.18l-45.42 26.58-19.83 7.16-63.32-32.67 1.47-.85c-5.41-2.52-8.33-8.31-11.26-13.58l-4.26 2.54-2.53.71v14.74c0 2.82 1.86 5.63 5.57 7.78L135 382.64c7.43 4.28 19.51 4.28 26.94 0L225.36 346c3.66-2.11 5.51-4.87 5.57-7.64v-.37.01z" fill="url(#paint1_linear)"/><path opacity=".3" d="M211.18 333.61l-45.45 26.58-17.26 6.23v19.43a27.627 27.627 0 0013.47-3.21L225.36 346c3.66-2.11 5.51-4.87 5.57-7.64v-14.72l-3.63-2h-.38c-1.24 6.65-9.13 11.05-15.74 11.97z" fill="#0F054C"/><path d="M135 368l-63.43-36.58c-7.43-4.29-7.43-11.27 0-15.56L135 279.24c7.42-4.28 19.51-4.28 26.93 0l63.43 36.63c7.43 4.28 7.43 11.26 0 15.55L161.94 368c-7.43 4.32-19.51 4.32-26.94 0z" fill="url(#paint2_linear)"/><path d="M225.36 331.42L161.94 368c-7.43 4.28-19.51 4.28-26.94 0l-63.43-36.58c-3.32-1.92-5.15-4.37-5.5-6.89-.44 3.11 1.39 6.31 5.5 8.68L135 369.83c7.43 4.29 19.51 4.29 26.94 0l63.42-36.62c4.11-2.37 5.94-5.57 5.51-8.67-.36 2.51-2.19 4.96-5.51 6.88z" fill="#fff"/><path d="M286.71 98.73L201.2 49.37 286.7 0l85.51 49.37-85.5 49.36z" fill="#FF5985"/><path d="M286.71 598.1l-85.51-49.36 85.5-359.24 85.51 359.24-85.5 49.36z" fill="#fff"/><path d="M372.21 49.37v499.37l-85.5 49.36V98.73l85.5-49.36z" fill="#D05A9E"/><path d="M201.2 49.37v499.37l85.51 49.36V98.73L201.2 49.37z" fill="#985EA4"/><path d="M359.38 95.15v5.01l-59.85 34.56v-5.01l59.85-34.56z" fill="#784D82"/><path d="M359.38 116.33v5.01l-59.85 34.55v-5.01l59.85-34.55z" fill="#453C9E"/><path d="M359.38 137.51v5l-59.85 34.56v-5.01l59.85-34.55zm0 21.17v5.01l-59.85 34.56v-5.01l59.85-34.56zm0 21.18v5.01l-59.85 34.56v-5.01l59.85-34.56zm0 21.18v5.01l-59.85 34.55v-5l59.85-34.56zm0 21.18v5.01l-59.85 34.55v-5.01l59.85-34.55zm0 21.18v5l-59.85 34.56v-5.01l59.85-34.55zm0 21.17v5.01l-59.85 34.56v-5.01l59.85-34.56zm0 21.18v5.01l-59.85 34.55v-5l59.85-34.56zm0 21.18v5.01l-59.85 34.55v-5.01l59.85-34.55zm0 21.18v5.01l-59.85 34.55v-5.01l59.85-34.55zm0 21.17v5.01l-59.85 34.56v-5.01l59.85-34.56zm0 21.18v5.01l-59.85 34.56v-5.01l59.85-34.56zm0 21.18v5.01l-59.85 34.55v-5l59.85-34.56zm0 21.18v5.01l-59.85 34.55v-5.01l59.85-34.55zm0 21.18v5l-59.85 34.56v-5.01L359.38 434zm0 21.17v5.01l-59.85 34.56v-5.01l59.85-34.56z" fill="#784D82"/><path d="M359.38 476.35v5.01l-59.85 34.55v-5l59.85-34.56zm0 21.18v5.01l-59.85 34.55v-5.01l59.85-34.55z" fill="#453C9E"/><path d="M359.38 116.33v5.01l-59.85 34.55v-5.01l59.85-34.55z" fill="#784D82"/><path d="M286.71 85.76h-22.47L201.2 49.37l68.59-39.6h16.91l.01 75.99z" fill="#E25481"/><path d="M286.71 81.4l-62.05-35.82L286.7 9.77l62.05 35.82-62.04 35.81z" fill="#FF5985"/><path d="M348.75 45.59v4.35l-62.04 35.82V81.4l62.04-35.81z" fill="#D05A9E"/><path d="M224.66 45.58v4.36l62.05 35.82V81.4l-62.05-35.82z" fill="#985EA4"/><path d="M262.64 46.16l-2.75-1.59.23-1.29 25.49-14.83 3.54 1.69-.66 1.1-25.85 14.92z" fill="#E25481"/><path d="M285.75 29.65l2.74 1.59 1.77-1.03-4.51-2.6-27.62 15.94 1.77 1.02 25.85-14.92z" fill="#C94F7B"/><path d="M270.98 50.96l-2.75-1.59.23-1.29 25.49-14.83 3.54 1.69-.66 1.1-25.85 14.92z" fill="#E25481"/><path d="M294.09 34.45l2.74 1.59 1.77-1.03-4.51-2.6-27.62 15.94 1.77 1.02 25.85-14.92z" fill="#C94F7B"/><path d="M279.32 55.76l-2.75-1.59.23-1.29 25.49-14.83 3.54 1.69-.66 1.1-25.85 14.92z" fill="#E25481"/><path d="M302.43 39.25l2.74 1.59 1.77-1.03-4.51-2.6-27.62 15.94 1.77 1.02 25.85-14.92z" fill="#C94F7B"/><path d="M287.66 60.56l-2.75-1.59.23-1.29 25.49-14.83 3.54 1.69-.66 1.1-25.85 14.92z" fill="#E25481"/><path d="M310.77 44.05l2.74 1.59 1.77-1.03-4.51-2.6-27.62 15.94 1.77 1.02 25.85-14.92z" fill="#C94F7B"/><path opacity=".51" d="M201.2 316.11l85.51-158.82V98.73L201.2 49.37v266.74z" fill="#453C9E"/><path d="M283.32 586.83a7.534 7.534 0 00-3.4-5.89 2.41 2.41 0 00-2.42-.23l-2.41 1.41h1.49a4.177 4.177 0 00-.07.74 7.53 7.53 0 003.41 5.89c.23.131.471.241.72.33l-.69 1.29 2.36-1.38a2.379 2.379 0 001.01-2.16z" fill="url(#paint3_linear)"/><path d="M280.89 588.25c0 2.17-1.52 3-3.4 2a7.534 7.534 0 01-3.4-5.89c0-2.17 1.52-3.05 3.4-2a7.527 7.527 0 013.4 5.89z" fill="url(#paint4_linear)"/><path d="M279.45 587.42c0 1.25-.88 1.75-2 1.13a4.313 4.313 0 01-2-3.39c0-1.25.88-1.75 2-1.13a4.326 4.326 0 012 3.39z" fill="#3F21D3"/><path d="M215.46 86.89l-5.09-2.93V75.6l5.09 2.93v8.36z" fill="#453C9E"/><path d="M224.32 92.02l-5.08-2.94v-8.36l5.08 2.93v8.37z" fill="#fff"/><path d="M233.19 97.14l-5.08-2.94v-8.36l5.08 2.93v8.37zm8.87 5.11l-5.08-2.93v-8.36l5.08 2.93v8.36zm8.87 5.13l-5.08-2.94v-8.36l5.08 2.93v8.37zm8.87 5.12l-5.09-2.94v-8.36l5.09 2.93v8.37zm8.86 5.11l-5.08-2.93v-8.36l5.08 2.93v8.36zm8.87 5.12l-5.08-2.93v-8.36l5.08 2.93v8.36zm-62.07-24.66l-5.09-2.93v-8.37l5.09 2.94v8.36zm8.86 5.12l-5.08-2.93v-8.37l5.08 2.94v8.36zm8.87 5.12l-5.08-2.93v-8.37l5.08 2.94v8.36zm8.87 5.12l-5.08-2.93v-8.37l5.08 2.94v8.36zm8.87 5.12l-5.08-2.93v-8.37l5.08 2.94v8.36zm8.87 5.12l-5.09-2.93v-8.37l5.09 2.94v8.36zm8.86 5.12l-5.08-2.93v-8.37l5.08 2.94v8.36zm8.87 5.12l-5.08-2.93v-8.37l5.08 2.94v8.36zm-62.07-24.66l-5.09-2.94v-8.36l5.09 2.93v8.37z" fill="#453C9E"/><path d="M224.32 114.36l-5.08-2.93v-8.36l5.08 2.93v8.36z" fill="#fff"/><path d="M233.19 119.48l-5.08-2.93v-8.36l5.08 2.93v8.36z" fill="#453C9E"/><path d="M242.06 124.61l-5.08-2.94v-8.36l5.08 2.93v8.37z" fill="#fff"/><path d="M250.93 129.72l-5.08-2.93v-8.36l5.08 2.93v8.36zm8.87 5.12l-5.09-2.93v-8.36l5.09 2.93v8.36zm8.86 5.13l-5.08-2.94v-8.36l5.08 2.93v8.37zm8.87 5.12l-5.08-2.94v-8.36l5.08 2.93v8.37zm-62.07-24.67l-5.09-2.93v-8.37l5.09 2.94v8.36zm8.86 5.12l-5.08-2.93v-8.37l5.08 2.94v8.36zm8.87 5.12l-5.08-2.93v-8.37l5.08 2.94v8.36z" fill="#453C9E"/><path d="M242.06 135.78l-5.08-2.93v-8.37l5.08 2.94v8.36zm8.87 5.12l-5.08-2.93v-8.37l5.08 2.94v8.36z" fill="#fff"/><path d="M259.8 146.02l-5.09-2.93v-8.37l5.09 2.94v8.36zm8.86 5.12l-5.08-2.93v-8.37l5.08 2.94v8.36zm8.87 5.12l-5.08-2.93v-8.37l5.08 2.94v8.36z" fill="#453C9E"/><path d="M215.46 131.59l-5.09-2.93v-8.36l5.09 2.93v8.36zm8.86 5.13l-5.08-2.94v-8.36l5.08 2.93v8.37z" fill="#fff"/><path d="M233.19 141.84l-5.08-2.94v-8.36l5.08 2.93v8.37zm8.87 5.12l-5.08-2.94v-8.36l5.08 2.93v8.37zm8.87 5.11l-5.08-2.93v-8.36l5.08 2.93v8.36zm8.87 5.12l-5.09-2.93v-8.36l5.09 2.93v8.36zm8.86 5.12l-5.08-2.93v-8.36l5.08 2.93v8.36zm8.87 5.13l-5.08-2.94v-8.36l5.08 2.93v8.37z" fill="#453C9E"/><path d="M215.46 142.77l-5.09-2.93v-8.37l5.09 2.94v8.36z" fill="#fff"/><path d="M224.32 147.89l-5.08-2.93v-8.37l5.08 2.94v8.36zm8.87 5.12l-5.08-2.93v-8.37l5.08 2.94v8.36zm8.87 5.12l-5.08-2.93v-8.37l5.08 2.94v8.36zm8.87 5.12l-5.08-2.93v-8.37l5.08 2.94v8.36zm8.87 5.12l-5.09-2.93v-8.37l5.09 2.94v8.36z" fill="#453C9E"/><path d="M268.66 173.49l-5.08-2.93v-8.37l5.08 2.94v8.36z" fill="#fff"/><path d="M277.53 178.61l-5.08-2.93v-8.37l5.08 2.94v8.36zm-62.07-24.67l-5.09-2.93v-8.36l5.09 2.93v8.36zm8.86 5.12l-5.08-2.93v-8.36l5.08 2.93v8.36z" fill="#453C9E"/><path d="M233.19 164.19l-5.08-2.94v-8.36l5.08 2.93v8.37z" fill="#fff"/><path d="M242.06 169.31l-5.08-2.94v-8.36l5.08 2.93v8.37zm8.87 5.11l-5.08-2.93v-8.36l5.08 2.93v8.36zm8.87 5.12l-5.09-2.93v-8.36l5.09 2.93v8.36zm8.86 5.12l-5.08-2.93v-8.36l5.08 2.93v8.36zm8.87 5.12l-5.08-2.93v-8.36l5.08 2.93v8.36zm-62.07-24.66l-5.09-2.93v-8.37l5.09 2.94v8.36zm8.86 5.12l-5.08-2.93v-8.37l5.08 2.94v8.36zm8.87 5.12l-5.08-2.93v-8.37l5.08 2.94v8.36zm8.87 5.12l-5.08-2.93v-8.37l5.08 2.94v8.36zm8.87 5.12l-5.08-2.93v-8.37l5.08 2.94v8.36zm8.87 5.12l-5.09-2.94v-8.36l5.09 2.94v8.36zm8.86 5.12l-5.08-2.93v-8.37l5.08 2.94v8.36zm8.87 5.12l-5.08-2.93v-8.37l5.08 2.94v8.36zm-62.07-24.67l-5.09-2.93V165l5.09 2.93v8.36zm8.86 5.12l-5.08-2.93v-8.36l5.08 2.93v8.36zm8.87 5.12l-5.08-2.93v-8.36l5.08 2.93v8.36z" fill="#453C9E"/><path d="M242.06 191.65l-5.08-2.93v-8.36l5.08 2.93v8.36z" fill="#fff"/><path d="M250.93 196.77l-5.08-2.93v-8.36l5.08 2.93v8.36zm8.87 5.12l-5.09-2.93v-8.36l5.09 2.93v8.36zm8.86 5.12l-5.08-2.93v-8.36l5.08 2.93v8.36zm8.87 5.12l-5.08-2.93v-8.36l5.08 2.93v8.36zm-62.07-24.66l-5.09-2.94v-8.36l5.09 2.94v8.36zm8.86 5.12l-5.08-2.93v-8.37l5.08 2.94v8.36zm8.87 5.12l-5.08-2.93v-8.37l5.08 2.94v8.36z" fill="#453C9E"/><path d="M242.06 202.83l-5.08-2.93v-8.37l5.08 2.94v8.36z" fill="#fff"/><path d="M250.93 207.95l-5.08-2.94v-8.36l5.08 2.94v8.36z" fill="#453C9E"/><path d="M259.8 213.07l-5.09-2.94v-8.36l5.09 2.94v8.36z" fill="#fff"/><path d="M268.66 218.19l-5.08-2.94v-8.36l5.08 2.94v8.36zm8.87 5.12l-5.08-2.93v-8.37l5.08 2.94v8.36zm-62.07-24.67l-5.09-2.93v-8.36l5.09 2.93v8.36z" fill="#453C9E"/><path d="M224.32 203.76l-5.08-2.93v-8.36l5.08 2.93v8.36z" fill="#fff"/><path d="M233.19 208.88l-5.08-2.93v-8.36l5.08 2.93v8.36zm8.87 5.12l-5.08-2.93v-8.36l5.08 2.93V214zm8.87 5.12l-5.08-2.93v-8.36l5.08 2.93v8.36zm8.87 5.12l-5.09-2.93v-8.36l5.09 2.93v8.36zm8.86 5.12l-5.08-2.93v-8.36l5.08 2.93v8.36zm8.87 5.12l-5.08-2.93v-8.36l5.08 2.93v8.36zm-62.07-24.66l-5.09-2.94v-8.36l5.09 2.94v8.36zm8.86 5.12l-5.08-2.94v-8.36l5.08 2.94v8.36zm8.87 5.12l-5.08-2.93v-8.37l5.08 2.94v8.36zm8.87 5.12l-5.08-2.93v-8.37l5.08 2.94v8.36zm8.87 5.12l-5.08-2.93V219l5.08 2.94v8.36z" fill="#453C9E"/><path d="M259.8 235.42l-5.09-2.93v-8.37l5.09 2.94v8.36z" fill="#fff"/><path d="M268.66 240.54l-5.08-2.94v-8.36l5.08 2.94v8.36zm8.87 5.12l-5.08-2.94v-8.36l5.08 2.94v8.36zm-62.07-24.67l-5.09-2.93v-8.36l5.09 2.93v8.36z" fill="#453C9E"/><path d="M224.32 226.11l-5.08-2.93v-8.36l5.08 2.93v8.36z" fill="#fff"/><path d="M233.19 231.23l-5.08-2.93v-8.36l5.08 2.93v8.36z" fill="#453C9E"/><path d="M242.06 236.35l-5.08-2.93v-8.36l5.08 2.93v8.36z" fill="#fff"/><path d="M250.93 241.47l-5.08-2.93v-8.36l5.08 2.93v8.36zm8.87 5.12l-5.09-2.93v-8.36l5.09 2.93v8.36zm8.86 5.12l-5.08-2.93v-8.36l5.08 2.93v8.36zm8.87 5.12l-5.08-2.93v-8.36l5.08 2.93v8.36zm-62.07-24.66l-5.09-2.93v-8.37l5.09 2.94v8.36zm8.86 5.12l-5.08-2.94v-8.36l5.08 2.94v8.36zm8.87 5.12l-5.08-2.94v-8.36l5.08 2.94v8.36zm8.87 5.12l-5.08-2.94v-8.36l5.08 2.93v8.37zm8.87 5.12l-5.08-2.94v-8.36l5.08 2.94v8.36zm8.87 5.12l-5.09-2.93v-8.37l5.09 2.94v8.36zm8.86 5.12l-5.08-2.94v-8.36l5.08 2.94v8.36zm8.87 5.12l-5.08-2.94v-8.36l5.08 2.93v8.37zm-62.07-24.67l-5.09-2.93v-8.36l5.09 2.93v8.36zm8.86 5.12l-5.08-2.93v-8.36l5.08 2.93v8.36zm8.87 5.12l-5.08-2.93v-8.36l5.08 2.93v8.36zm8.87 5.12l-5.08-2.93v-8.36l5.08 2.93v8.36zm8.87 5.12l-5.08-2.93v-8.36l5.08 2.93v8.36zm8.87 5.12l-5.09-2.93v-8.36l5.09 2.93v8.36z" fill="#453C9E"/><path d="M268.66 274.06l-5.08-2.93v-8.36l5.08 2.93v8.36z" fill="#fff"/><path d="M277.53 279.18l-5.08-2.93v-8.36l5.08 2.93v8.36zm-62.07-24.66l-5.09-2.93v-8.37l5.09 2.94v8.36zm8.86 5.12l-5.08-2.94v-8.36l5.08 2.94v8.36zm8.87 5.12l-5.08-2.94v-8.36l5.08 2.93v8.37z" fill="#453C9E"/><path d="M242.06 269.88l-5.08-2.94v-8.36l5.08 2.93v8.37z" fill="#fff"/><path d="M250.93 275l-5.08-2.94v-8.36l5.08 2.93V275zm8.87 5.12l-5.09-2.94v-8.36l5.09 2.93v8.37zm8.86 5.12l-5.08-2.94v-8.36l5.08 2.94v8.36zm8.87 5.12l-5.08-2.94v-8.36l5.08 2.94v8.36zm-62.07-24.67l-5.09-2.93v-8.36l5.09 2.93v8.36zm8.86 5.12l-5.08-2.93v-8.36l5.08 2.93v8.36zm8.87 5.12l-5.08-2.93v-8.36l5.08 2.93v8.36zm8.87 5.12l-5.08-2.93v-8.36l5.08 2.93v8.36zm8.87 5.12l-5.08-2.93v-8.36l5.08 2.93v8.36zm8.87 5.12l-5.09-2.93V280l5.09 2.93v8.36zm8.86 5.12l-5.08-2.93v-8.36l5.08 2.93v8.36zm8.87 5.12l-5.08-2.93v-8.36l5.08 2.93v8.36zm-62.07-24.66l-5.09-2.94v-8.36l5.09 2.93v8.37zm8.86 5.12l-5.08-2.94v-8.36l5.08 2.94v8.36zm8.87 5.12l-5.08-2.94v-8.36l5.08 2.94v8.36zm8.87 5.12l-5.08-2.94v-8.36l5.08 2.94v8.36zm8.87 5.12l-5.08-2.94v-8.36l5.08 2.94v8.36zm8.87 5.12l-5.09-2.94v-8.36l5.09 2.94v8.36zm8.86 5.12l-5.08-2.94v-8.36l5.08 2.94v8.36zm8.87 5.12l-5.08-2.94v-8.36l5.08 2.94v8.36zm-62.07-24.67l-5.09-2.93v-8.36l5.09 2.93v8.36zm8.86 5.12l-5.08-2.93v-8.36l5.08 2.93v8.36zm8.87 5.12l-5.08-2.93v-8.36l5.08 2.93v8.36zm8.87 5.12l-5.08-2.93v-8.36l5.08 2.93v8.36zm8.87 5.12l-5.08-2.93v-8.36l5.08 2.93v8.36zm8.87 5.12l-5.09-2.93v-8.36l5.09 2.93v8.36zm8.86 5.12l-5.08-2.93v-8.36l5.08 2.93v8.36z" fill="#453C9E"/><path d="M277.53 323.88l-5.08-2.93v-8.36l5.08 2.93v8.36z" fill="#fff"/><path d="M215.46 299.22l-5.09-2.94v-8.36l5.09 2.94v8.36zm8.86 5.12l-5.08-2.94v-8.36l5.08 2.94v8.36zm8.87 5.12l-5.08-2.94v-8.36l5.08 2.94v8.36zm8.87 5.12l-5.08-2.94v-8.36l5.08 2.93v8.37z" fill="#453C9E"/><path d="M250.93 319.7l-5.08-2.94v-8.36l5.08 2.93v8.37z" fill="#fff"/><path d="M259.8 324.82l-5.09-2.94v-8.36l5.09 2.93v8.37z" fill="#453C9E"/><path d="M268.66 329.94l-5.08-2.94v-8.36l5.08 2.93v8.37z" fill="#fff"/><path d="M277.53 335.06l-5.08-2.94v-8.36l5.08 2.93v8.37zm-62.07-24.67l-5.09-2.93v-8.36l5.09 2.93v8.36z" fill="#453C9E"/><path d="M224.32 315.51l-5.08-2.93v-8.36l5.08 2.93v8.36z" fill="#fff"/><path d="M233.19 320.63l-5.08-2.93v-8.36l5.08 2.93v8.36zm8.87 5.12l-5.08-2.93v-8.36l5.08 2.93v8.36zm8.87 5.12l-5.08-2.93v-8.36l5.08 2.93v8.36zm8.87 5.12l-5.09-2.93v-8.36l5.09 2.93v8.36z" fill="#453C9E"/><path d="M268.66 341.11l-5.08-2.93v-8.36l5.08 2.93v8.36z" fill="#fff"/><path d="M277.53 346.23l-5.08-2.93v-8.36l5.08 2.93v8.36zm-62.07-24.66l-5.09-2.94v-8.36l5.09 2.93v8.37zm8.86 5.12l-5.08-2.94v-8.36l5.08 2.93v8.37z" fill="#453C9E"/><path d="M233.19 331.81l-5.08-2.94v-8.36l5.08 2.93v8.37z" fill="#fff"/><path d="M242.06 336.93l-5.08-2.94v-8.36l5.08 2.93v8.37zm8.87 5.12l-5.08-2.94v-8.36l5.08 2.93v8.37zm8.87 5.12l-5.09-2.94v-8.36l5.09 2.93v8.37zm8.86 5.12l-5.08-2.94v-8.36l5.08 2.93v8.37zm8.87 5.12l-5.08-2.94v-8.36l5.08 2.93v8.37zm-62.07-24.67l-5.09-2.93v-8.36l5.09 2.93v8.36zm8.86 5.12l-5.08-2.93v-8.37l5.08 2.94v8.36zm8.87 5.12l-5.08-2.93v-8.36l5.08 2.93v8.36z" fill="#453C9E"/><path d="M242.06 348.1l-5.08-2.93v-8.36l5.08 2.93v8.36z" fill="#fff"/><path d="M250.93 353.22l-5.08-2.93v-8.36l5.08 2.93v8.36zm8.87 5.12l-5.09-2.93v-8.36l5.09 2.93v8.36z" fill="#453C9E"/><path d="M268.66 363.46l-5.08-2.93v-8.36l5.08 2.93v8.36z" fill="#fff"/><path d="M277.53 368.58l-5.08-2.93v-8.36l5.08 2.93v8.36zm-62.07-24.66l-5.09-2.94v-8.36l5.09 2.93v8.37zm8.86 5.12l-5.08-2.94v-8.36l5.08 2.93v8.37zm8.87 5.12l-5.08-2.94v-8.36l5.08 2.93v8.37zm8.87 5.12l-5.08-2.94v-8.36l5.08 2.93v8.37zm8.87 5.12l-5.08-2.94v-8.36l5.08 2.93v8.37zm8.87 5.12l-5.09-2.94v-8.36l5.09 2.93v8.37zm8.86 5.12l-5.08-2.94v-8.36l5.08 2.93v8.37zm8.87 5.12l-5.08-2.94v-8.36l5.08 2.93v8.37zm-62.07-24.67l-5.09-2.93v-8.36l5.09 2.93v8.36zm8.86 5.12l-5.08-2.93v-8.36l5.08 2.93v8.36zm8.87 5.12l-5.08-2.93v-8.36l5.08 2.93v8.36zm8.87 5.12l-5.08-2.93v-8.37l5.08 2.94v8.36zm8.87 5.12l-5.08-2.93v-8.37l5.08 2.94v8.36zm8.87 5.12l-5.09-2.93v-8.37l5.09 2.94v8.36zm8.86 5.12l-5.08-2.93v-8.37l5.08 2.94v8.36zm8.87 5.12l-5.08-2.93v-8.37l5.08 2.94v8.36zm-62.07-24.66l-5.09-2.94v-8.36l5.09 2.93v8.37zm8.86 5.12l-5.08-2.94v-8.36l5.08 2.93v8.37zm8.87 5.12l-5.08-2.94v-8.36l5.08 2.93v8.37zm8.87 5.12l-5.08-2.94v-8.36l5.08 2.93v8.37zm8.87 5.12l-5.08-2.94v-8.36l5.08 2.93v8.37zm8.87 5.12l-5.09-2.94v-8.36l5.09 2.93v8.37zm8.86 5.12l-5.08-2.94v-8.36l5.08 2.93v8.37zm8.87 5.12l-5.08-2.94v-8.36l5.08 2.93v8.37zm-62.07-24.67l-5.09-2.93v-8.37l5.09 2.94v8.36zm8.86 5.12l-5.08-2.93v-8.37l5.08 2.94v8.36zm8.87 5.12l-5.08-2.93v-8.37l5.08 2.94v8.36zm8.87 5.12l-5.08-2.93v-8.37l5.08 2.94v8.36zm8.87 5.12l-5.08-2.93v-8.36l5.08 2.93v8.36zm8.87 5.12l-5.09-2.93v-8.36l5.09 2.93v8.36zm8.86 5.12l-5.08-2.93v-8.36l5.08 2.93v8.36zm8.87 5.12l-5.08-2.93v-8.36l5.08 2.93v8.36zm-62.07-24.66l-5.09-2.94v-8.36l5.09 2.93v8.37z" fill="#453C9E"/><path d="M224.32 393.74l-5.08-2.94v-8.36l5.08 2.93v8.37zm8.87 5.12l-5.08-2.94v-8.36l5.08 2.93v8.37zm8.87 5.12l-5.08-2.94v-8.36l5.08 2.93v8.37z" fill="#fff"/><path d="M250.93 409.1l-5.08-2.94v-8.36l5.08 2.93v8.37zm8.87 5.12l-5.09-2.94v-8.36l5.09 2.93v8.37zm8.86 5.12l-5.08-2.94v-8.36l5.08 2.93v8.37zm8.87 5.12l-5.08-2.94v-8.36l5.08 2.93v8.37zm-62.07-24.67l-5.09-2.93v-8.36l5.09 2.93v8.36zm8.86 5.12l-5.08-2.93v-8.36l5.08 2.93v8.36zm8.87 5.12l-5.08-2.93v-8.36l5.08 2.93v8.36zm8.87 5.12l-5.08-2.93v-8.36l5.08 2.93v8.36zm8.87 5.12l-5.08-2.93v-8.37l5.08 2.94v8.36zm8.87 5.12l-5.09-2.93v-8.36l5.09 2.93v8.36z" fill="#453C9E"/><path d="M268.66 430.51l-5.08-2.93v-8.37l5.08 2.94v8.36z" fill="#fff"/><path d="M277.53 435.63l-5.08-2.93v-8.37l5.08 2.94v8.36zm-62.07-24.66l-5.09-2.94v-8.36l5.09 2.93v8.37zm8.86 5.12l-5.08-2.94v-8.36l5.08 2.93v8.37z" fill="#453C9E"/><path d="M233.19 421.21l-5.08-2.94v-8.36l5.08 2.93v8.37zm8.87 5.12l-5.08-2.94v-8.36l5.08 2.93v8.37zm8.87 5.12l-5.08-2.94v-8.36l5.08 2.93v8.37z" fill="#fff"/><path d="M259.8 436.57l-5.09-2.94v-8.36l5.09 2.93v8.37zm8.86 5.12l-5.08-2.94v-8.36l5.08 2.93v8.37zm8.87 5.12l-5.08-2.94v-8.36l5.08 2.93v8.37z" fill="#453C9E"/><path d="M215.46 422.14l-5.09-2.93v-8.36l5.09 2.93v8.36z" fill="#fff"/><path d="M224.32 427.26l-5.08-2.93v-8.37l5.08 2.94v8.36z" fill="#453C9E"/><path d="M233.19 432.38l-5.08-2.93v-8.37l5.08 2.94v8.36z" fill="#fff"/><path d="M242.06 437.5l-5.08-2.93v-8.37l5.08 2.94v8.36zm8.87 5.12l-5.08-2.93v-8.37l5.08 2.94v8.36z" fill="#453C9E"/><path d="M259.8 447.74l-5.09-2.93v-8.37l5.09 2.94v8.36z" fill="#fff"/><path d="M268.66 452.86l-5.08-2.93v-8.37l5.08 2.94v8.36z" fill="#453C9E"/><path d="M277.53 457.98l-5.08-2.93v-8.37l5.08 2.94v8.36zm-62.07-24.66l-5.09-2.94v-8.36l5.09 2.93v8.37z" fill="#fff"/><path d="M224.32 438.44l-5.08-2.94v-8.36l5.08 2.93v8.37zm8.87 5.12l-5.08-2.94v-8.36l5.08 2.93v8.37zm8.87 5.12l-5.08-2.94v-8.36l5.08 2.93v8.37z" fill="#453C9E"/><path d="M250.93 453.8l-5.08-2.94v-8.36l5.08 2.93v8.37zm8.87 5.12l-5.09-2.94v-8.36l5.09 2.93v8.37z" fill="#fff"/><path d="M268.66 464.04l-5.08-2.94v-8.36l5.08 2.93v8.37z" fill="#453C9E"/><path d="M277.53 469.16l-5.08-2.94v-8.36l5.08 2.93v8.37z" fill="#fff"/><path d="M215.46 444.49l-5.09-2.93v-8.37l5.09 2.94v8.36z" fill="#453C9E"/><path d="M224.32 449.61l-5.08-2.93v-8.37l5.08 2.94v8.36zm8.87 5.12l-5.08-2.93v-8.37l5.08 2.94v8.36zm8.87 5.12l-5.08-2.93v-8.37l5.08 2.94v8.36zm8.87 5.12l-5.08-2.93v-8.37l5.08 2.94v8.36z" fill="#fff"/><path d="M259.8 470.09l-5.09-2.93v-8.37l5.09 2.94v8.36zm8.86 5.12l-5.08-2.93v-8.37l5.08 2.94v8.36zm8.87 5.12l-5.08-2.93v-8.37l5.08 2.94v8.36zm-62.07-24.66l-5.09-2.94v-8.36l5.09 2.93v8.37zm8.86 5.12l-5.08-2.94v-8.36l5.08 2.93v8.37z" fill="#453C9E"/><path d="M233.19 465.91l-5.08-2.94v-8.36l5.08 2.93v8.37z" fill="#fff"/><path d="M242.06 471.03l-5.08-2.94v-8.36l5.08 2.93v8.37zm8.87 5.12l-5.08-2.94v-8.36l5.08 2.93v8.37z" fill="#453C9E"/><path d="M259.8 481.27l-5.09-2.94v-8.36l5.09 2.93v8.37zm8.86 5.12l-5.08-2.94v-8.36l5.08 2.93v8.37z" fill="#fff"/><path d="M277.53 491.51l-5.08-2.94v-8.36l5.08 2.93v8.37zm-62.07-24.67l-5.09-2.93v-8.37l5.09 2.94v8.36zm8.86 5.12l-5.08-2.93v-8.37l5.08 2.94v8.36zm8.87 5.12l-5.08-2.93v-8.37l5.08 2.94v8.36z" fill="#453C9E"/><path d="M242.06 482.2l-5.08-2.93v-8.37l5.08 2.94v8.36zm8.87 5.12l-5.08-2.93v-8.37l5.08 2.94v8.36z" fill="#fff"/><path d="M259.8 492.44l-5.09-2.93v-8.37l5.09 2.94v8.36z" fill="#453C9E"/><path d="M268.66 497.56l-5.08-2.93v-8.37l5.08 2.94v8.36z" fill="#fff"/><path d="M277.53 502.68l-5.08-2.93v-8.37l5.08 2.94v8.36zm-62.07-24.66l-5.09-2.94v-8.36l5.09 2.93v8.37z" fill="#453C9E"/><path d="M224.32 483.14l-5.08-2.94v-8.36l5.08 2.93v8.37z" fill="#fff"/><path d="M233.19 488.26l-5.08-2.94v-8.36l5.08 2.93v8.37z" fill="#453C9E"/><path d="M242.06 493.38l-5.08-2.94v-8.36l5.08 2.93v8.37zm8.87 5.12l-5.08-2.94v-8.36l5.08 2.93v8.37z" fill="#fff"/><path d="M259.8 503.62l-5.09-2.94v-8.36l5.09 2.93v8.37zm8.86 5.12l-5.08-2.94v-8.36l5.08 2.93v8.37zm8.87 5.12l-5.08-2.94v-8.36l5.08 2.93v8.37z" fill="#453C9E"/><path d="M215.46 489.19l-5.09-2.93v-8.37l5.09 2.94v8.36zm8.86 5.12l-5.08-2.93v-8.37l5.08 2.94v8.36z" fill="#fff"/><path d="M233.19 499.43l-5.08-2.93v-8.37l5.08 2.94v8.36z" fill="#453C9E"/><path d="M242.06 504.55l-5.08-2.93v-8.37l5.08 2.94v8.36z" fill="#fff"/><path d="M250.93 509.67l-5.08-2.93v-8.37l5.08 2.94v8.36zm8.87 5.12l-5.09-2.93v-8.37l5.09 2.94v8.36zm8.86 5.12l-5.08-2.93v-8.37l5.08 2.94v8.36zm8.87 5.12l-5.08-2.93v-8.37l5.08 2.94v8.36zm-62.07-24.66l-5.09-2.94v-8.36l5.09 2.93v8.37z" fill="#453C9E"/><path d="M224.32 505.49l-5.08-2.94v-8.36l5.08 2.93v8.37zm8.87 5.12l-5.08-2.94v-8.36l5.08 2.93v8.37z" fill="#fff"/><path d="M242.06 515.73l-5.08-2.94v-8.36l5.08 2.93v8.37zm8.87 5.12l-5.08-2.94v-8.36l5.08 2.93v8.37zm8.87 5.12l-5.09-2.94v-8.36l5.09 2.93v8.37zm8.86 5.12l-5.08-2.94v-8.36l5.08 2.93v8.37zm8.87 5.12l-5.08-2.94v-8.36l5.08 2.93v8.37zm-62.07-24.67l-5.09-2.93v-8.37l5.09 2.94v8.36z" fill="#453C9E"/><path d="M224.32 516.66l-5.08-2.93v-8.37l5.08 2.94v8.36z" fill="#fff"/><path d="M233.19 521.78l-5.08-2.93v-8.37l5.08 2.94v8.36zm8.87 5.12l-5.08-2.93v-8.37l5.08 2.94v8.36zm8.87 5.12l-5.08-2.93v-8.37l5.08 2.94v8.36zm8.87 5.12l-5.09-2.93v-8.37l5.09 2.94v8.36zm8.86 5.12l-5.08-2.93v-8.37l5.08 2.94v8.36zm8.87 5.12l-5.08-2.93v-8.37l5.08 2.94v8.36zm-62.07-24.66l-5.09-2.94v-8.36l5.09 2.93v8.37zm8.86 5.12l-5.08-2.94v-8.36l5.08 2.93v8.37zm8.87 5.12l-5.08-2.94v-8.36l5.08 2.93v8.37zm8.87 5.12l-5.08-2.94v-8.36l5.08 2.93v8.37zm8.87 5.12l-5.08-2.94v-8.36l5.08 2.93v8.37zm8.87 5.12l-5.09-2.94v-8.36l5.09 2.93v8.37zm8.86 5.11l-5.08-2.93v-8.36l5.08 2.93v8.36zm8.87 5.12l-5.08-2.93v-8.36l5.08 2.93v8.36zm-62.07-24.66l-5.09-2.93v-8.37l5.09 2.94v8.36zm8.86 5.12l-5.08-2.93v-8.37l5.08 2.94v8.36zm8.87 5.12l-5.08-2.93v-8.37l5.08 2.94v8.36zm8.87 5.12l-5.08-2.93v-8.37l5.08 2.94v8.36zm8.87 5.12l-5.08-2.93v-8.37l5.08 2.94v8.36zm8.87 5.12l-5.09-2.93v-8.37l5.09 2.94v8.36zm8.86 5.12l-5.08-2.93v-8.37l5.08 2.94v8.36zm8.87 5.12l-5.08-2.93v-8.37l5.08 2.94v8.36zm-62.07-24.66l-5.09-2.94v-8.36l5.09 2.93v8.37zm8.86 5.11l-5.08-2.93v-8.36l5.08 2.93v8.36zm8.87 5.12l-5.08-2.93v-8.36l5.08 2.93v8.36zm8.87 5.12l-5.08-2.93v-8.36l5.08 2.93v8.36zm8.87 5.12l-5.08-2.93v-8.36l5.08 2.93v8.36zm8.87 5.12l-5.09-2.93v-8.36l5.09 2.93v8.36zm8.86 5.12l-5.08-2.93v-8.36l5.08 2.93v8.36zm8.87 5.12l-5.08-2.93v-8.36l5.08 2.93v8.36zM215.46 98.07l-5.09-2.93v-8.37l5.09 2.94v8.36z" fill="#453C9E"/><path d="M224.32 103.19l-5.08-2.93v-8.37l5.08 2.94v8.36z" fill="#fff"/><path d="M233.19 108.31l-5.08-2.93v-8.37l5.08 2.94v8.36zm8.87 5.12l-5.08-2.93v-8.37l5.08 2.94v8.36zm8.87 5.12l-5.08-2.93v-8.37l5.08 2.94v8.36zm8.87 5.12l-5.09-2.93v-8.37l5.09 2.94v8.36zm8.86 5.12l-5.08-2.93v-8.37l5.08 2.94v8.36zm8.87 5.12l-5.08-2.93v-8.37l5.08 2.94v8.36z" fill="#453C9E"/><path d="M286.71 96.45l-83.53-48.23-1.98 1.15 85.51 49.36 85.5-49.36-1.98-1.15-83.52 48.23z" fill="#fff"/><path d="M478.86 176.57l-85.5-49.37 85.5-49.37 85.51 49.37-85.51 49.37z" fill="#FF5985"/><path d="M478.86 168.52l-71.57-41.32 71.57-41.32 71.58 41.32-71.58 41.32z" fill="#E25481"/><path d="M478.86 92.59l65.76 37.97 5.82-3.36-71.58-41.32-71.57 41.32 5.81 3.36 65.76-37.97z" fill="#C94F7B"/><path d="M478.86 483.86l-85.5-49.37 85.5-167.16 85.51 167.17-85.51 49.36z" fill="#fff"/><path d="M564.37 127.2v307.3l-85.51 49.36V176.57l85.51-49.37z" fill="#D05A9E"/><path d="M393.36 127.2v307.29l85.5 49.37V176.57l-85.5-49.37z" fill="#985EA4"/><path d="M551.54 172.99V178l-59.85 34.55v-5.01l59.85-34.55z" fill="#784D82"/><path d="M551.54 194.16v5.01l-59.85 34.56v-5.01l59.85-34.56z" fill="#453C9E"/><path d="M551.54 215.34v5.01l-59.85 34.56v-5.01l59.85-34.56zm0 21.18v5.01l-59.85 34.55v-5.01l59.85-34.55zm0 21.18v5.01l-59.85 34.55v-5.01l59.85-34.55zm0 21.18v5l-59.85 34.56v-5.01l59.85-34.55z" fill="#784D82"/><path d="M551.54 300.05v5.01l-59.85 34.56v-5.01l59.85-34.56z" fill="#453C9E"/><path d="M551.54 321.23v5.01l-59.85 34.56v-5.01l59.85-34.56z" fill="#706EC4"/><path d="M551.54 342.41v5.01l-59.85 34.55v-5.01l59.85-34.55zm0 21.18v5.01l-59.85 34.55v-5.01l59.85-34.55z" fill="#453C9E"/><path d="M551.54 384.76v5.01l-59.85 34.56v-5.01l59.85-34.56zm0 21.18v5.01l-59.85 34.56v-5.01l59.85-34.56z" fill="#706EC4"/><path d="M551.54 194.16v5.01l-59.85 34.56v-5.01l59.85-34.56z" fill="#784D82"/><path opacity=".51" d="M393.36 393.94l85.5-158.82v-58.55l-85.5-49.37v266.74z" fill="#453C9E"/><path d="M407.61 164.73l-5.08-2.93v-8.37l5.08 2.94v8.36zm8.87 5.12l-5.08-2.93v-8.37l5.08 2.94v8.36zm8.87 5.12l-5.08-2.93v-8.37l5.08 2.94v8.36zm8.87 5.12l-5.09-2.93v-8.37l5.09 2.94v8.36zm8.86 5.12l-5.08-2.93v-8.37l5.08 2.94v8.36zm8.87 5.12l-5.08-2.93v-8.37l5.08 2.94v8.36zm8.87 5.12l-5.08-2.93v-8.37l5.08 2.94v8.36zm8.87 5.12l-5.08-2.93v-8.37l5.08 2.94v8.36zm-62.08-24.66l-5.08-2.94v-8.36l5.08 2.93v8.37zm8.87 5.12l-5.08-2.94v-8.36l5.08 2.93v8.37zm8.87 5.12l-5.08-2.94v-8.36l5.08 2.93v8.37zm8.87 5.11l-5.09-2.93v-8.36l5.09 2.93v8.36zm8.86 5.12l-5.08-2.93v-8.36l5.08 2.93v8.36zm8.87 5.12l-5.08-2.93v-8.36l5.08 2.93v8.36zm8.87 5.13l-5.08-2.94v-8.36l5.08 2.93v8.37zm8.87 5.12l-5.08-2.94v-8.36l5.08 2.93v8.37zm-62.08-24.67l-5.08-2.93v-8.37l5.08 2.94v8.36zm8.87 5.12l-5.08-2.93v-8.37l5.08 2.94v8.36zm8.87 5.12l-5.08-2.93v-8.37l5.08 2.94v8.36zm8.87 5.12l-5.09-2.93v-8.37l5.09 2.94v8.36z" fill="#453C9E"/><path d="M443.08 207.56l-5.08-2.93v-8.37l5.08 2.94v8.36z" fill="#fff"/><path d="M451.95 212.68l-5.08-2.93v-8.37l5.08 2.94v8.36z" fill="#453C9E"/><path d="M460.82 217.8l-5.08-2.93v-8.37l5.08 2.94v8.36z" fill="#fff"/><path d="M469.69 222.92l-5.08-2.93v-8.37l5.08 2.94v8.36zm-62.08-24.67l-5.08-2.93v-8.36l5.08 2.93v8.36zm8.87 5.13l-5.08-2.94v-8.36l5.08 2.93v8.37zm8.87 5.12l-5.08-2.94v-8.36l5.08 2.93v8.37z" fill="#453C9E"/><path d="M434.22 213.62l-5.09-2.94v-8.36l5.09 2.93v8.37z" fill="#fff"/><path d="M443.08 218.74L438 215.8v-8.36l5.08 2.93v8.37zm8.87 5.11l-5.08-2.93v-8.36l5.08 2.93v8.36z" fill="#453C9E"/><path d="M460.82 228.97l-5.08-2.93v-8.36l5.08 2.93v8.36z" fill="#fff"/><path d="M469.69 234.09l-5.08-2.93v-8.36l5.08 2.93v8.36z" fill="#453C9E"/><path d="M407.61 209.43l-5.08-2.93v-8.37l5.08 2.94v8.36zm8.87 5.12l-5.08-2.93v-8.37l5.08 2.94v8.36z" fill="#fff"/><path d="M425.35 219.67l-5.08-2.93v-8.37l5.08 2.94v8.36zm8.87 5.12l-5.09-2.93v-8.37l5.09 2.94v8.36z" fill="#453C9E"/><path d="M443.08 229.91l-5.08-2.93v-8.37l5.08 2.94v8.36z" fill="#fff"/><path d="M451.95 235.03l-5.08-2.93v-8.37l5.08 2.94v8.36zm8.87 5.12l-5.08-2.93v-8.37l5.08 2.94v8.36zm8.87 5.12l-5.08-2.93v-8.37l5.08 2.94v8.36zm-62.08-24.67l-5.08-2.93v-8.36l5.08 2.93v8.36zm8.87 5.12l-5.08-2.93v-8.36l5.08 2.93v8.36zm8.87 5.12l-5.08-2.93v-8.36l5.08 2.93v8.36zm8.87 5.13l-5.09-2.94v-8.36l5.09 2.93v8.37zm8.86 5.12l-5.08-2.94v-8.36l5.08 2.93v8.37zm8.87 5.12l-5.08-2.94v-8.36l5.08 2.93v8.37z" fill="#453C9E"/><path d="M460.82 251.32l-5.08-2.93v-8.36l5.08 2.93v8.36z" fill="#fff"/><path d="M469.69 256.44l-5.08-2.93v-8.36l5.08 2.93v8.36zm-62.08-24.66l-5.08-2.93v-8.37l5.08 2.94v8.36zm8.87 5.12l-5.08-2.93v-8.37l5.08 2.94v8.36z" fill="#453C9E"/><path d="M425.35 242.02l-5.08-2.93v-8.37l5.08 2.94v8.36z" fill="#fff"/><path d="M434.22 247.14l-5.09-2.93v-8.37l5.09 2.94v8.36zm8.86 5.12l-5.08-2.93v-8.37l5.08 2.94v8.36zm8.87 5.12l-5.08-2.93v-8.37l5.08 2.94v8.36zm8.87 5.12l-5.08-2.93v-8.37l5.08 2.94v8.36zm8.87 5.12l-5.08-2.93v-8.37l5.08 2.94v8.36zm-62.08-24.66l-5.08-2.94v-8.36l5.08 2.93v8.37zm8.87 5.11l-5.08-2.93v-8.36l5.08 2.93v8.36zm8.87 5.12l-5.08-2.93v-8.36l5.08 2.93v8.36zm8.87 5.12l-5.09-2.93v-8.36l5.09 2.93v8.36zm8.86 5.13L438 260.5v-8.36l5.08 2.93v8.37zm8.87 5.12l-5.08-2.94v-8.36l5.08 2.93v8.37zm8.87 5.11l-5.08-2.93v-8.36l5.08 2.93v8.36zm8.87 5.12l-5.08-2.93v-8.36l5.08 2.93v8.36zm-62.08-24.66l-5.08-2.93v-8.37l5.08 2.94v8.36zm8.87 5.12l-5.08-2.93v-8.37l5.08 2.94v8.36zm8.87 5.12l-5.08-2.93v-8.37l5.08 2.94v8.36z" fill="#453C9E"/><path d="M434.22 269.49l-5.09-2.93v-8.37l5.09 2.94v8.36z" fill="#fff"/><path d="M443.08 274.61l-5.08-2.93v-8.37l5.08 2.94v8.36zm8.87 5.12l-5.08-2.93v-8.37l5.08 2.94v8.36zm8.87 5.12l-5.08-2.93v-8.37l5.08 2.94v8.36zm8.87 5.12l-5.08-2.93v-8.37l5.08 2.94v8.36zm-62.08-24.67l-5.08-2.93v-8.36l5.08 2.93v8.36zm8.87 5.12l-5.08-2.93v-8.36l5.08 2.93v8.36zm8.87 5.12l-5.08-2.93v-8.36l5.08 2.93v8.36z" fill="#453C9E"/><path d="M434.22 280.67l-5.09-2.94v-8.36l5.09 2.93v8.37z" fill="#fff"/><path d="M443.08 285.78l-5.08-2.93v-8.36l5.08 2.93v8.36z" fill="#453C9E"/><path d="M451.95 290.9l-5.08-2.93v-8.36l5.08 2.93v8.36z" fill="#fff"/><path d="M460.82 296.02l-5.08-2.93v-8.36l5.08 2.93v8.36zm8.87 5.12l-5.08-2.93v-8.36l5.08 2.93v8.36zm-62.08-24.66l-5.08-2.93v-8.37l5.08 2.94v8.36z" fill="#453C9E"/><path d="M416.48 281.6l-5.08-2.93v-8.37l5.08 2.94v8.36z" fill="#fff"/><path d="M425.35 286.72l-5.08-2.93v-8.37l5.08 2.94v8.36zm8.87 5.12l-5.09-2.94v-8.36l5.09 2.94v8.36zm8.86 5.12l-5.08-2.94v-8.36l5.08 2.94v8.36zm8.87 5.12l-5.08-2.94v-8.36l5.08 2.94v8.36zm8.87 5.12l-5.08-2.94v-8.36l5.08 2.94v8.36zm8.87 5.12l-5.08-2.94v-8.36l5.08 2.94v8.36zm-62.08-24.67l-5.08-2.93v-8.36l5.08 2.93v8.36zm8.87 5.12l-5.08-2.93v-8.36l5.08 2.93v8.36zm8.87 5.12l-5.08-2.93v-8.36l5.08 2.93v8.36zm8.87 5.12l-5.09-2.93v-8.36l5.09 2.93v8.36zm8.86 5.12L438 305.2v-8.36l5.08 2.93v8.36z" fill="#453C9E"/><path d="M451.95 313.25l-5.08-2.93v-8.36l5.08 2.93v8.36z" fill="url(#paint5_linear)"/><path d="M460.82 318.37l-5.08-2.93v-8.36l5.08 2.93v8.36zm8.87 5.12l-5.08-2.93v-8.36l5.08 2.93v8.36zm-62.08-24.66l-5.08-2.94v-8.36l5.08 2.94v8.36z" fill="#453C9E"/><path d="M416.48 303.95l-5.08-2.94v-8.36l5.08 2.94v8.36z" fill="#fff"/><path d="M425.35 309.07l-5.08-2.94v-8.36l5.08 2.94v8.36z" fill="#453C9E"/><path d="M434.22 314.19l-5.09-2.94v-8.36l5.09 2.94v8.36z" fill="url(#paint6_linear)"/><path d="M443.08 319.31l-5.08-2.93v-8.37l5.08 2.94v8.36zm8.87 5.12l-5.08-2.93v-8.37l5.08 2.94v8.36zm8.87 5.12l-5.08-2.93v-8.37l5.08 2.94v8.36zm8.87 5.12l-5.08-2.93v-8.37l5.08 2.94v8.36zM407.61 310l-5.08-2.93v-8.36l5.08 2.93V310zm8.87 5.12l-5.08-2.93v-8.36l5.08 2.93v8.36zm8.87 5.12l-5.08-2.93v-8.36l5.08 2.93v8.36z" fill="#453C9E"/><path d="M434.22 325.36l-5.09-2.93v-8.36l5.09 2.93v8.36z" fill="url(#paint7_linear)"/><path d="M443.08 330.48l-5.08-2.93v-8.36l5.08 2.93v8.36zm8.87 5.12l-5.08-2.93v-8.36l5.08 2.93v8.36zm8.87 5.12l-5.08-2.93v-8.36l5.08 2.93v8.36zm8.87 5.12l-5.08-2.93v-8.36l5.08 2.93v8.36zm-62.08-24.66l-5.08-2.93v-8.37l5.08 2.94v8.36zm8.87 5.12l-5.08-2.93V315l5.08 2.94v8.36zm8.87 5.12l-5.08-2.93v-8.37l5.08 2.94v8.36z" fill="#453C9E"/><path d="M434.22 336.54l-5.09-2.93v-8.37l5.09 2.94v8.36z" fill="url(#paint8_linear)"/><path d="M443.08 341.66l-5.08-2.93v-8.37l5.08 2.94v8.36zm8.87 5.12l-5.08-2.93v-8.37l5.08 2.94v8.36z" fill="#453C9E"/><path d="M460.82 351.9l-5.08-2.94v-8.36l5.08 2.94v8.36z" fill="url(#paint9_linear)"/><path d="M469.69 357.02l-5.08-2.94v-8.36l5.08 2.94v8.36zm-62.08-24.67l-5.08-2.93v-8.36l5.08 2.93v8.36zm8.87 5.12l-5.08-2.93v-8.36l5.08 2.93v8.36zm8.87 5.12l-5.08-2.93v-8.36l5.08 2.93v8.36z" fill="#453C9E"/><path d="M434.22 347.71l-5.09-2.93v-8.36l5.09 2.93v8.36z" fill="url(#paint10_linear)"/><path d="M443.08 352.83L438 349.9v-8.36l5.08 2.93v8.36zm8.87 5.12l-5.08-2.93v-8.36l5.08 2.93v8.36zm8.87 5.12l-5.08-2.93v-8.36l5.08 2.93v8.36zm8.87 5.12l-5.08-2.93v-8.36l5.08 2.93v8.36zm-62.08-24.66l-5.08-2.93v-8.37l5.08 2.94v8.36zm8.87 5.12l-5.08-2.94v-8.36l5.08 2.94v8.36zm8.87 5.12l-5.08-2.94v-8.36l5.08 2.94v8.36zm8.87 5.12l-5.09-2.94v-8.36l5.09 2.93v8.37zm8.86 5.12l-5.08-2.94v-8.36l5.08 2.93v8.37zm8.87 5.12l-5.08-2.94v-8.36l5.08 2.93v8.37zm8.87 5.12l-5.08-2.94v-8.36l5.08 2.93v8.37zm8.87 5.12l-5.08-2.94v-8.36l5.08 2.93v8.37zm-62.08-24.67l-5.08-2.93v-8.36l5.08 2.93v8.36zm8.87 5.12l-5.08-2.93v-8.36l5.08 2.93v8.36zm8.87 5.12l-5.08-2.93v-8.36l5.08 2.93v8.36z" fill="#453C9E"/><path d="M434.22 370.06l-5.09-2.93v-8.36l5.09 2.93v8.36z" fill="url(#paint11_linear)"/><path d="M443.08 375.18l-5.08-2.93v-8.36l5.08 2.93v8.36zm8.87 5.12l-5.08-2.93v-8.36l5.08 2.93v8.36zm8.87 5.12l-5.08-2.93v-8.36l5.08 2.93v8.36zm8.87 5.12l-5.08-2.93v-8.36l5.08 2.93v8.36zm-62.08-24.66l-5.08-2.94v-8.36l5.08 2.93v8.37zm8.87 5.12l-5.08-2.94v-8.36l5.08 2.93V371z" fill="#453C9E"/><path d="M425.35 376.12l-5.08-2.94v-8.36l5.08 2.93v8.37z" fill="url(#paint12_linear)"/><path d="M434.22 381.24l-5.09-2.94v-8.36l5.09 2.94v8.36zm8.86 5.12l-5.08-2.94v-8.36l5.08 2.94v8.36zm8.87 5.12l-5.08-2.94v-8.36l5.08 2.94v8.36zm8.87 5.12l-5.08-2.94v-8.36l5.08 2.94v8.36z" fill="#453C9E"/><path d="M469.69 401.72l-5.08-2.94v-8.36l5.08 2.94v8.36z" fill="url(#paint13_linear)"/><path d="M407.61 377.05l-5.08-2.93v-8.36l5.08 2.93v8.36z" fill="#453C9E"/><path d="M416.48 382.17l-5.08-2.93v-8.36l5.08 2.93v8.36z" fill="url(#paint14_linear)"/><path d="M425.35 387.29l-5.08-2.93V376l5.08 2.93v8.36zm8.87 5.12l-5.09-2.93v-8.36l5.09 2.93v8.36z" fill="#453C9E"/><path d="M443.08 397.53L438 394.6v-8.36l5.08 2.93v8.36z" fill="url(#paint15_linear)"/><path d="M451.95 402.65l-5.08-2.93v-8.36l5.08 2.93v8.36z" fill="#453C9E"/><path d="M460.82 407.77l-5.08-2.93v-8.36l5.08 2.93v8.36z" fill="url(#paint16_linear)"/><path d="M469.69 412.89l-5.08-2.93v-8.36l5.08 2.93v8.36zm-62.08-24.66l-5.08-2.94v-8.36l5.08 2.94v8.36z" fill="#453C9E"/><path d="M416.48 393.35l-5.08-2.94v-8.36l5.08 2.94v8.36z" fill="url(#paint17_linear)"/><path d="M425.35 398.47l-5.08-2.94v-8.36l5.08 2.94v8.36zm8.87 5.12l-5.09-2.94v-8.36l5.09 2.94v8.36zm8.86 5.12l-5.08-2.94v-8.36l5.08 2.94v8.36zm8.87 5.12l-5.08-2.94v-8.36l5.08 2.93v8.37z" fill="#453C9E"/><path d="M460.82 418.95l-5.08-2.94v-8.36l5.08 2.93v8.37z" fill="url(#paint18_linear)"/><path d="M469.69 424.07l-5.08-2.94v-8.36l5.08 2.93v8.37zm-62.08-24.67l-5.08-2.93v-8.36l5.08 2.93v8.36zm8.87 5.12l-5.08-2.93v-8.36l5.08 2.93v8.36z" fill="#453C9E"/><path d="M425.35 409.64l-5.08-2.93v-8.36l5.08 2.93v8.36z" fill="url(#paint19_linear)"/><path d="M434.22 414.76l-5.09-2.93v-8.36l5.09 2.93v8.36zm8.86 5.12l-5.08-2.93v-8.36l5.08 2.93v8.36zm8.87 5.12l-5.08-2.93v-8.36l5.08 2.93V425zm8.87 5.12l-5.08-2.93v-8.36l5.08 2.93v8.36zm8.87 5.12l-5.08-2.93v-8.36l5.08 2.93v8.36zm-62.08-24.66l-5.08-2.94v-8.36l5.08 2.93v8.37zm8.87 5.12l-5.08-2.94v-8.36l5.08 2.93v8.37zm8.87 5.12l-5.08-2.94v-8.36l5.08 2.93v8.37z" fill="#453C9E"/><path d="M434.22 425.94l-5.09-2.94v-8.36l5.09 2.93v8.37z" fill="url(#paint20_linear)"/><path d="M443.08 431.06l-5.08-2.94v-8.36l5.08 2.93v8.37zm8.87 5.12l-5.08-2.94v-8.36l5.08 2.93v8.37z" fill="#453C9E"/><path d="M460.82 441.3l-5.08-2.94V430l5.08 2.93v8.37z" fill="url(#paint21_linear)"/><path d="M469.69 446.42l-5.08-2.94v-8.36l5.08 2.93v8.37zm-62.08-24.67l-5.08-2.93v-8.36l5.08 2.93v8.36zm8.87 5.12l-5.08-2.93v-8.36l5.08 2.93v8.36zm8.87 5.12l-5.08-2.93v-8.36l5.08 2.93v8.36zm8.87 5.12l-5.09-2.93v-8.36l5.09 2.93v8.36zm8.86 5.12L438 439.3v-8.36l5.08 2.93v8.36zm8.87 5.12l-5.08-2.93v-8.36l5.08 2.93v8.36zm8.87 5.12l-5.08-2.93v-8.36l5.08 2.93v8.36zm8.87 5.12l-5.08-2.93v-8.36l5.08 2.93v8.36zm-62.08-281.68l-5.08-2.94v-8.36l5.08 2.93v8.37z" fill="#453C9E"/><path d="M416.48 181.03l-5.08-2.94v-8.36l5.08 2.93v8.37zm8.87 5.12l-5.08-2.94v-8.36l5.08 2.93v8.37z" fill="#fff"/><path d="M434.22 191.26l-5.09-2.93v-8.36l5.09 2.93v8.36z" fill="#453C9E"/><path d="M443.08 196.38l-5.08-2.93v-8.36l5.08 2.93v8.36z" fill="#fff"/><path d="M451.95 201.5l-5.08-2.93v-8.36l5.08 2.93v8.36zm8.87 5.13l-5.08-2.94v-8.36l5.08 2.93v8.37zm8.87 5.12l-5.08-2.94v-8.36l5.08 2.93v8.37z" fill="#453C9E"/><path d="M312.09 564.59a36.104 36.104 0 0118.13-33.66L961 166.5v-46L305.53 501.83A69.43 69.43 0 00270.59 565c13.83.24 27.67.39 41.5-.41z" fill="#985EA4"/><path d="M270.59 563.22v-2.89c-.05 1.56-.05 3.12 0 4.67 13.83.24 27.67.39 41.5-.41v-1.79c-13.86.8-27.68.65-41.5.42z" fill="url(#paint22_linear)"/><path d="M330.22 529.14a36.002 36.002 0 00-18.16 32.33 36 36 0 0118.16-30.54L961 166.5V165L330.22 529.14z" fill="#fff"/><path d="M330.22 520.46L961 161.5v-46L305.53 491.35a69.375 69.375 0 00-35 60.41c13.9.25 27.82.32 41.51.34a36.001 36.001 0 0118.18-31.64z" fill="#fff"/><path d="M604.42 293.7l-85.51-49.37 85.51-49.36 85.5 49.36-85.5 49.37z" fill="#FF5985"/><path d="M604.42 600.99l-85.51-49.37 85.51-167.16 85.5 167.17-85.5 49.36z" fill="#fff"/><path d="M689.92 244.33v307.3l-85.5 49.36V293.7l85.5-49.37z" fill="#D05A9E"/><path d="M618.43 577.89V303.05l.4-.23 57.08-32.95V544.7l-.4.23-57.08 32.96zM620 304v271.11l54.27-31.33V272.65L620 304z" fill="#fff"/><path d="M518.91 244.33v307.29l85.51 49.37V293.7l-85.51-49.37z" fill="#985EA4"/><path opacity=".51" d="M518.91 511.07l85.51-158.82V293.7l-85.51-49.37v266.74z" fill="#453C9E"/><path d="M533.17 281.86l-5.08-2.93v-8.37l5.08 2.94v8.36zm8.87 5.12l-5.08-2.93v-8.37l5.08 2.94v8.36zm8.87 5.12l-5.09-2.93v-8.37l5.09 2.94v8.36zm8.86 5.12l-5.08-2.93v-8.37l5.08 2.94v8.36zm8.87 5.12l-5.08-2.93v-8.37l5.08 2.94v8.36zm8.87 5.12l-5.08-2.93v-8.37l5.08 2.94v8.36zm8.87 5.12l-5.08-2.93v-8.37l5.08 2.94v8.36zm8.87 5.12l-5.09-2.93v-8.37l5.09 2.94v8.36zm-62.08-24.66l-5.08-2.94v-8.36l5.08 2.93v8.37zm8.87 5.11l-5.08-2.93v-8.36l5.08 2.93v8.36zm8.87 5.12l-5.09-2.93v-8.36l5.09 2.93v8.36zm8.86 5.12l-5.08-2.93v-8.36l5.08 2.93v8.36zm8.87 5.12l-5.08-2.93v-8.36l5.08 2.93v8.36zm8.87 5.12l-5.08-2.93v-8.36l5.08 2.93v8.36zm8.87 5.12l-5.08-2.93v-8.36l5.08 2.93v8.36zm8.87 5.13l-5.09-2.94v-8.36l5.09 2.93v8.37zm-62.08-24.67l-5.08-2.93v-8.37l5.08 2.94v8.36zm8.87 5.12l-5.08-2.93v-8.37l5.08 2.94v8.36zm8.87 5.12l-5.09-2.93v-8.37l5.09 2.94v8.36zm8.86 5.12l-5.08-2.93v-8.37l5.08 2.94v8.36z" fill="#453C9E"/><path d="M568.64 324.69l-5.08-2.93v-8.37l5.08 2.94v8.36z" fill="#fff"/><path d="M577.51 329.81l-5.08-2.93v-8.37l5.08 2.94v8.36z" fill="#453C9E"/><path d="M586.38 334.93L581.3 332v-8.37l5.08 2.94v8.36z" fill="#fff"/><path d="M595.25 340.05l-5.09-2.93v-8.37l5.09 2.94v8.36zm-62.08-24.67l-5.08-2.93v-8.36l5.08 2.93v8.36zm8.87 5.12l-5.08-2.93v-8.36l5.08 2.93v8.36zm8.87 5.13l-5.09-2.94v-8.36l5.09 2.93v8.37z" fill="#453C9E"/><path d="M559.77 330.75l-5.08-2.94v-8.36l5.08 2.93v8.37z" fill="#fff"/><path d="M568.64 335.87l-5.08-2.94v-8.36l5.08 2.93v8.37zm8.87 5.12l-5.08-2.94v-8.36l5.08 2.93v8.37z" fill="#453C9E"/><path d="M586.38 346.11l-5.08-2.94v-8.36l5.08 2.93v8.37z" fill="#fff"/><path d="M595.25 351.23l-5.09-2.94v-8.36l5.09 2.93v8.37z" fill="#453C9E"/><path d="M533.17 326.56l-5.08-2.93v-8.37l5.08 2.94v8.36zm8.87 5.12l-5.08-2.93v-8.37l5.08 2.94v8.36z" fill="#fff"/><path d="M550.91 336.8l-5.09-2.93v-8.37l5.09 2.94v8.36zm8.86 5.12l-5.08-2.93v-8.37l5.08 2.94v8.36z" fill="#453C9E"/><path d="M568.64 347.04l-5.08-2.93v-8.37l5.08 2.94v8.36z" fill="#fff"/><path d="M577.51 352.16l-5.08-2.93v-8.37l5.08 2.94v8.36zm8.87 5.12l-5.08-2.93v-8.37l5.08 2.94v8.36zm8.87 5.12l-5.09-2.93v-8.37l5.09 2.94v8.36zm-62.08-24.66l-5.08-2.94v-8.36l5.08 2.93v8.37zm8.87 5.12l-5.08-2.94v-8.36l5.08 2.93v8.37zm8.87 5.12l-5.09-2.94v-8.36l5.09 2.93v8.37zm8.86 5.12l-5.08-2.94v-8.36l5.08 2.93v8.37zm8.87 5.11l-5.08-2.93v-8.36l5.08 2.93v8.36zm8.87 5.12l-5.08-2.93v-8.36l5.08 2.93v8.36z" fill="#453C9E"/><path d="M586.38 368.45l-5.08-2.93v-8.36l5.08 2.93v8.36z" fill="#fff"/><path d="M595.25 373.57l-5.09-2.93v-8.36l5.09 2.93v8.36zm-62.08-24.66l-5.08-2.93v-8.37l5.08 2.94v8.36zm8.87 5.12l-5.08-2.93v-8.37l5.08 2.94v8.36z" fill="#453C9E"/><path d="M550.91 359.15l-5.09-2.93v-8.37l5.09 2.94v8.36z" fill="#fff"/><path d="M559.77 364.27l-5.08-2.93v-8.37l5.08 2.94v8.36zm8.87 5.12l-5.08-2.94v-8.36l5.08 2.94v8.36zm8.87 5.12l-5.08-2.93v-8.37l5.08 2.94v8.36zm8.87 5.12l-5.08-2.93v-8.37l5.08 2.94v8.36zm8.87 5.12l-5.09-2.93v-8.37l5.09 2.94v8.36zm-62.08-24.67l-5.08-2.93v-8.36l5.08 2.93v8.36zm8.87 5.12l-5.08-2.93v-8.36l5.08 2.93v8.36zm8.87 5.12l-5.09-2.93v-8.36l5.09 2.93v8.36zm8.86 5.12l-5.08-2.93v-8.36l5.08 2.93v8.36zm8.87 5.12l-5.08-2.93v-8.36l5.08 2.93v8.36zm8.87 5.12l-5.08-2.93v-8.36l5.08 2.93v8.36zm8.87 5.12l-5.08-2.93v-8.36l5.08 2.93v8.36zm8.87 5.12l-5.09-2.93v-8.36l5.09 2.93v8.36zm-62.08-24.66l-5.08-2.93v-8.37l5.08 2.94v8.36zm8.87 5.12l-5.08-2.93v-8.37l5.08 2.94v8.36zm8.87 5.12l-5.09-2.94v-8.36l5.09 2.94v8.36z" fill="#453C9E"/><path d="M559.77 386.62l-5.08-2.93v-8.37l5.08 2.94v8.36z" fill="#fff"/><path d="M568.64 391.74l-5.08-2.93v-8.37l5.08 2.94v8.36zm8.87 5.12l-5.08-2.93v-8.37l5.08 2.94v8.36zm8.87 5.12l-5.08-2.93v-8.37l5.08 2.94v8.36zm8.87 5.12l-5.09-2.93v-8.37l5.09 2.94v8.36zm-62.08-24.67l-5.08-2.93v-8.36l5.08 2.93v8.36zm8.87 5.12l-5.08-2.93v-8.36l5.08 2.93v8.36zm8.87 5.12l-5.09-2.93v-8.36l5.09 2.93v8.36z" fill="#453C9E"/><path d="M559.77 397.79l-5.08-2.93v-8.36l5.08 2.93v8.36z" fill="#fff"/><path d="M568.64 402.91l-5.08-2.93v-8.36l5.08 2.93v8.36z" fill="#453C9E"/><path d="M577.51 408.03l-5.08-2.93v-8.36l5.08 2.93v8.36z" fill="#fff"/><path d="M586.38 413.15l-5.08-2.93v-8.36l5.08 2.93v8.36zm8.87 5.12l-5.09-2.93v-8.36l5.09 2.93v8.36zm-62.08-24.66l-5.08-2.93v-8.37l5.08 2.94v8.36z" fill="#453C9E"/><path d="M542.04 398.73l-5.08-2.93v-8.37l5.08 2.94v8.36z" fill="#fff"/><path d="M550.91 403.85l-5.09-2.93v-8.37l5.09 2.94v8.36zm8.86 5.12l-5.08-2.93v-8.37l5.08 2.94v8.36zm8.87 5.12l-5.08-2.94v-8.36l5.08 2.94v8.36zm8.87 5.12l-5.08-2.94v-8.36l5.08 2.94v8.36zm8.87 5.12l-5.08-2.94v-8.36l5.08 2.94v8.36zm8.87 5.12l-5.09-2.94v-8.36l5.09 2.94v8.36zm-62.08-24.67l-5.08-2.93v-8.36l5.08 2.93v8.36zm8.87 5.12l-5.08-2.93v-8.36l5.08 2.93v8.36zm8.87 5.12l-5.09-2.93v-8.36l5.09 2.93v8.36zm8.86 5.12l-5.08-2.93v-8.36l5.08 2.93v8.36zm8.87 5.12l-5.08-2.93v-8.36l5.08 2.93v8.36z" fill="#453C9E"/><path d="M577.51 430.38l-5.08-2.93v-8.36l5.08 2.93v8.36z" fill="#fff"/><path d="M586.38 435.5l-5.08-2.93v-8.36l5.08 2.93v8.36zm8.87 5.12l-5.09-2.93v-8.36l5.09 2.93v8.36zm-62.08-24.66l-5.08-2.94v-8.36l5.08 2.94v8.36z" fill="#453C9E"/><path d="M542.04 421.08l-5.08-2.94v-8.36l5.08 2.94v8.36z" fill="#fff"/><path d="M550.91 426.2l-5.09-2.94v-8.36l5.09 2.94v8.36z" fill="#453C9E"/><path d="M559.77 431.32l-5.08-2.94v-8.36l5.08 2.94v8.36z" fill="#fff"/><path d="M568.64 436.44l-5.08-2.94v-8.36l5.08 2.94v8.36zm8.87 5.12l-5.08-2.93v-8.37l5.08 2.94v8.36zm8.87 5.12l-5.08-2.93v-8.37l5.08 2.94v8.36zm8.87 5.12l-5.09-2.93v-8.37l5.09 2.94v8.36zm-62.08-24.67l-5.08-2.93v-8.36l5.08 2.93v8.36zm8.87 5.12l-5.08-2.93v-8.36l5.08 2.93v8.36zm8.87 5.12l-5.09-2.93v-8.36l5.09 2.93v8.36z" fill="#453C9E"/><path d="M559.77 442.49l-5.08-2.93v-8.36l5.08 2.93v8.36z" fill="#fff"/><path d="M568.64 447.61l-5.08-2.93v-8.36l5.08 2.93v8.36zm8.87 5.12l-5.08-2.93v-8.36l5.08 2.93v8.36zm8.87 5.12l-5.08-2.93v-8.36l5.08 2.93v8.36zm8.87 5.12l-5.09-2.93v-8.36l5.09 2.93v8.36zm-62.08-24.66l-5.08-2.93v-8.37l5.08 2.94v8.36zm8.87 5.12l-5.08-2.93v-8.37l5.08 2.94v8.36zm8.87 5.12l-5.09-2.93v-8.37l5.09 2.94v8.36z" fill="#453C9E"/><path d="M559.77 453.67l-5.08-2.93v-8.37l5.08 2.94v8.36z" fill="#fff"/><path d="M568.64 458.79l-5.08-2.93v-8.37l5.08 2.94v8.36zm8.87 5.12l-5.08-2.94v-8.36l5.08 2.94v8.36z" fill="#453C9E"/><path d="M586.38 469.03l-5.08-2.94v-8.36l5.08 2.94v8.36z" fill="#fff"/><path d="M595.25 474.15l-5.09-2.94v-8.36l5.09 2.94v8.36zm-62.08-24.67l-5.08-2.93v-8.36l5.08 2.93v8.36zm8.87 5.12l-5.08-2.93v-8.36l5.08 2.93v8.36zm8.87 5.12l-5.09-2.93v-8.36l5.09 2.93v8.36z" fill="#453C9E"/><path d="M559.77 464.84l-5.08-2.93v-8.36l5.08 2.93v8.36z" fill="#fff"/><path d="M568.64 469.96l-5.08-2.93v-8.36l5.08 2.93v8.36zm8.87 5.12l-5.08-2.93v-8.36l5.08 2.93v8.36zm8.87 5.12l-5.08-2.93v-8.36l5.08 2.93v8.36zm8.87 5.12l-5.09-2.93v-8.36l5.09 2.93v8.36zm-62.08-24.66l-5.08-2.94v-8.36l5.08 2.94v8.36zm8.87 5.12l-5.08-2.94v-8.36l5.08 2.94v8.36zm8.87 5.12l-5.09-2.94v-8.36l5.09 2.94v8.36zm8.86 5.12l-5.08-2.94v-8.36l5.08 2.93v8.37zm8.87 5.12l-5.08-2.94v-8.36l5.08 2.93v8.37zm8.87 5.12l-5.08-2.94v-8.36l5.08 2.93v8.37zm8.87 5.12l-5.08-2.94v-8.36l5.08 2.93v8.37zm8.87 5.12l-5.09-2.94v-8.36l5.09 2.93v8.37zm-62.08-24.67l-5.08-2.93v-8.36l5.08 2.93v8.36zm8.87 5.12l-5.08-2.93v-8.36l5.08 2.93v8.36zm8.87 5.12l-5.09-2.93v-8.36l5.09 2.93v8.36z" fill="#453C9E"/><path d="M559.77 487.19l-5.08-2.93v-8.36l5.08 2.93v8.36z" fill="#fff"/><path d="M568.64 492.31l-5.08-2.93v-8.36l5.08 2.93v8.36zm8.87 5.12l-5.08-2.93v-8.36l5.08 2.93v8.36zm8.87 5.12l-5.08-2.93v-8.36l5.08 2.93v8.36zm8.87 5.12l-5.09-2.93v-8.36l5.09 2.93v8.36zm-62.08-24.66l-5.08-2.94v-8.36l5.08 2.93v8.37zm8.87 5.12l-5.08-2.94v-8.36l5.08 2.93v8.37z" fill="#453C9E"/><path d="M550.91 493.25l-5.09-2.94v-8.36l5.09 2.93v8.37z" fill="#fff"/><path d="M559.77 498.37l-5.08-2.94v-8.36l5.08 2.93v8.37zm8.87 5.12l-5.08-2.94v-8.36l5.08 2.94v8.36zm8.87 5.12l-5.08-2.94v-8.36l5.08 2.94v8.36zm8.87 5.12l-5.08-2.94v-8.36l5.08 2.94v8.36z" fill="#453C9E"/><path d="M595.25 518.85l-5.09-2.94v-8.36l5.09 2.94v8.36z" fill="#fff"/><path d="M533.17 494.18l-5.08-2.93v-8.36l5.08 2.93v8.36z" fill="#453C9E"/><path d="M542.04 499.3l-5.08-2.93v-8.36l5.08 2.93v8.36z" fill="#fff"/><path d="M550.91 504.42l-5.09-2.93v-8.36l5.09 2.93v8.36zm8.86 5.12l-5.08-2.93v-8.36l5.08 2.93v8.36z" fill="#453C9E"/><path d="M568.64 514.66l-5.08-2.93v-8.36l5.08 2.93v8.36z" fill="#fff"/><path d="M577.51 519.78l-5.08-2.93v-8.36l5.08 2.93v8.36z" fill="#453C9E"/><path d="M586.38 524.9l-5.08-2.93v-8.36l5.08 2.93v8.36z" fill="#fff"/><path d="M595.25 530.02l-5.09-2.93v-8.36l5.09 2.93v8.36zm-62.08-24.66l-5.08-2.94v-8.36l5.08 2.94v8.36z" fill="#453C9E"/><path d="M542.04 510.48l-5.08-2.94v-8.36l5.08 2.94v8.36z" fill="#fff"/><path d="M550.91 515.6l-5.09-2.94v-8.36l5.09 2.94v8.36zm8.86 5.12l-5.08-2.94v-8.36l5.08 2.94v8.36zm8.87 5.12l-5.08-2.94v-8.36l5.08 2.94v8.36zm8.87 5.12l-5.08-2.94v-8.36l5.08 2.94v8.36z" fill="#453C9E"/><path d="M586.38 536.08l-5.08-2.94v-8.36l5.08 2.93v8.37z" fill="#fff"/><path d="M595.25 541.2l-5.09-2.94v-8.36l5.09 2.93v8.37zm-62.08-24.67l-5.08-2.93v-8.36l5.08 2.93v8.36zm8.87 5.12l-5.08-2.93v-8.36l5.08 2.93v8.36z" fill="#453C9E"/><path d="M550.91 526.77l-5.09-2.93v-8.36l5.09 2.93v8.36z" fill="#fff"/><path d="M559.77 531.89l-5.08-2.93v-8.36l5.08 2.93v8.36zm8.87 5.12l-5.08-2.93v-8.36l5.08 2.93v8.36zm8.87 5.12l-5.08-2.93v-8.36l5.08 2.93v8.36zm8.87 5.12l-5.08-2.93v-8.36l5.08 2.93v8.36zm8.87 5.12l-5.09-2.93v-8.36l5.09 2.93v8.36zm-62.08-24.66l-5.08-2.94v-8.36l5.08 2.93v8.37zm8.87 5.12l-5.08-2.94v-8.36l5.08 2.93v8.37zm8.87 5.12l-5.09-2.94v-8.36l5.09 2.93v8.37z" fill="#453C9E"/><path d="M559.77 543.07l-5.08-2.94v-8.36l5.08 2.94v8.36z" fill="#fff"/><path d="M568.64 548.19l-5.08-2.94v-8.36l5.08 2.93v8.37zm8.87 5.12l-5.08-2.94v-8.36l5.08 2.93v8.37z" fill="#453C9E"/><path d="M586.38 558.43l-5.08-2.94v-8.36l5.08 2.93v8.37z" fill="#fff"/><path d="M595.25 563.55l-5.09-2.94v-8.36l5.09 2.93v8.37zm-62.08-24.67l-5.08-2.93v-8.36l5.08 2.93v8.36zm8.87 5.12l-5.08-2.93v-8.36l5.08 2.93V544zm8.87 5.12l-5.09-2.93v-8.36l5.09 2.93v8.36zm8.86 5.12l-5.08-2.93v-8.36l5.08 2.93v8.36zm8.87 5.12l-5.08-2.93v-8.36l5.08 2.93v8.36zm8.87 5.12l-5.08-2.93v-8.37l5.08 2.94v8.36zm8.87 5.12l-5.08-2.93v-8.37l5.08 2.94v8.36zm8.87 5.12l-5.09-2.93v-8.37l5.09 2.94v8.36zm-62.08-281.68l-5.08-2.94v-8.36l5.08 2.93v8.37z" fill="#453C9E"/><path d="M542.04 298.15l-5.08-2.93v-8.36l5.08 2.93v8.36zm8.87 5.12l-5.09-2.93v-8.36l5.09 2.93v8.36z" fill="#fff"/><path d="M559.77 308.39l-5.08-2.93v-8.36l5.08 2.93v8.36z" fill="#453C9E"/><path d="M568.64 313.51l-5.08-2.93v-8.36l5.08 2.93v8.36z" fill="#fff"/><path d="M577.51 318.63l-5.08-2.93v-8.36l5.08 2.93v8.36zm8.87 5.12l-5.08-2.93v-8.36l5.08 2.93v8.36zm8.87 5.13l-5.09-2.94v-8.36l5.09 2.93v8.37z" fill="#453C9E"/><path d="M604.42 291.41l-83.53-48.22-1.98 1.14 85.51 49.37 85.5-49.37-1.98-1.14-83.52 48.22z" fill="#fff"/><path d="M446.24 379.34l-85.51-49.37 85.5-49.36 85.51 49.36-85.5 49.37z" fill="#FF5985"/><path d="M446.24 377.05l-83.53-48.22-1.98 1.14 85.51 49.37 85.5-49.37-1.98-1.14-83.52 48.22zm0 309.58l-85.51-49.37 85.5-167.16 85.51 167.17-85.5 49.36z" fill="#fff"/><path d="M531.74 329.97v307.3l-85.5 49.36V379.34l85.5-49.37z" fill="#D05A9E"/><path d="M360.73 329.97v307.29l85.51 49.37V379.34l-85.51-49.37z" fill="#985EA4"/><path d="M518.91 375.76v5.01l-59.85 34.55v-5.01l59.85-34.55z" fill="#784D82"/><path d="M518.91 396.94v5l-59.85 34.56v-5.01l59.85-34.55z" fill="#453C9E"/><path d="M518.91 418.11v5.01l-59.85 34.56v-5.01l59.85-34.56zm0 21.18v5.01l-59.85 34.56v-5.01l59.85-34.56zm0 21.18v5.01l-59.85 34.55v-5.01l59.85-34.55zm0 21.18v5l-59.85 34.56v-5.01l59.85-34.55zm0 21.17v5.01l-59.85 34.56v-5.01l59.85-34.56zm0 21.18v5.01l-59.85 34.56v-5.01L518.91 524zm0 21.18v5.01l-59.85 34.56v-5.01l59.85-34.56zm0 21.18v5.01l-59.85 34.55v-5.01l59.85-34.55zm0 21.17v5.01l-59.85 34.56v-5.01l59.85-34.56zm0 21.18v5.01l-59.85 34.56v-5.01l59.85-34.56zm0-211.77v5l-59.85 34.56v-5.01l59.85-34.55z" fill="#784D82"/><path opacity=".51" d="M360.73 596.71l85.51-158.81v-58.56l-85.51-49.37v266.74z" fill="#453C9E"/><path d="M374.99 367.5l-5.09-2.93v-8.37l5.09 2.94v8.36z" fill="#453C9E"/><path d="M383.85 372.62l-5.08-2.93v-8.37l5.08 2.94v8.36z" fill="#fff"/><path d="M392.72 377.74l-5.08-2.93v-8.37l5.08 2.94v8.36zm8.87 5.12l-5.08-2.93v-8.37l5.08 2.94v8.36zm8.87 5.12l-5.08-2.93v-8.36l5.08 2.93v8.36z" fill="#453C9E"/><path d="M419.33 393.1l-5.09-2.93v-8.36l5.09 2.93v8.36zm8.86 5.12l-5.08-2.93v-8.36l5.08 2.93v8.36zm8.87 5.12l-5.08-2.93v-8.36l5.08 2.93v8.36z" fill="#fff"/><path d="M374.99 378.68l-5.09-2.94v-8.36l5.09 2.93v8.37zm8.86 5.12l-5.08-2.94v-8.36l5.08 2.93v8.37zm8.87 5.12l-5.08-2.94v-8.36l5.08 2.93v8.37zm8.87 5.12l-5.08-2.94v-8.36l5.08 2.93v8.37zm8.87 5.12l-5.08-2.94v-8.36l5.08 2.93v8.37zm8.87 5.12l-5.09-2.94v-8.36l5.09 2.93v8.37zm8.86 5.12l-5.08-2.94v-8.36l5.08 2.93v8.37zm8.87 5.12l-5.08-2.94v-8.36l5.08 2.93v8.37zm-62.07-24.67l-5.09-2.93v-8.36l5.09 2.93v8.36zm8.86 5.12l-5.08-2.93v-8.36l5.08 2.93v8.36zm8.87 5.12l-5.08-2.93v-8.36l5.08 2.93v8.36z" fill="#453C9E"/><path d="M401.59 405.21l-5.08-2.93v-8.36l5.08 2.93v8.36z" fill="#fff"/><path d="M410.46 410.33l-5.08-2.93v-8.36l5.08 2.93v8.36zm8.87 5.12l-5.09-2.93v-8.37l5.09 2.94v8.36zm8.86 5.12l-5.08-2.93v-8.37l5.08 2.94v8.36zm8.87 5.12l-5.08-2.93v-8.37l5.08 2.94v8.36zm-62.07-24.66l-5.09-2.94v-8.36l5.09 2.93v8.37zm8.86 5.12l-5.08-2.94v-8.36l5.08 2.93v8.37zm8.87 5.12l-5.08-2.94v-8.36l5.08 2.93v8.37zm8.87 5.12l-5.08-2.94v-8.36l5.08 2.93v8.37zm8.87 5.12l-5.08-2.94v-8.36l5.08 2.93v8.37zm8.87 5.12l-5.09-2.94v-8.36l5.09 2.93v8.37zm8.86 5.12l-5.08-2.94v-8.36l5.08 2.93v8.37zm8.87 5.12l-5.08-2.94v-8.36l5.08 2.93v8.37zm-62.07-24.67l-5.09-2.93v-8.37l5.09 2.94v8.36z" fill="#453C9E"/><path d="M383.85 417.32l-5.08-2.93v-8.37l5.08 2.94v8.36z" fill="#fff"/><path d="M392.72 422.44l-5.08-2.93v-8.37l5.08 2.94v8.36zm8.87 5.12l-5.08-2.93v-8.37l5.08 2.94v8.36zm8.87 5.12l-5.08-2.93v-8.37l5.08 2.94v8.36zm8.87 5.12l-5.09-2.93v-8.37l5.09 2.94v8.36zm8.86 5.12l-5.08-2.93v-8.36l5.08 2.93v8.36zm8.87 5.12l-5.08-2.93v-8.37l5.08 2.94v8.36zm-62.07-24.66l-5.09-2.94v-8.36l5.09 2.93v8.37zm8.86 5.12l-5.08-2.94v-8.36l5.08 2.93v8.37zm8.87 5.12l-5.08-2.94v-8.36l5.08 2.93v8.37zm8.87 5.12l-5.08-2.94v-8.36l5.08 2.93v8.37zm8.87 5.12l-5.08-2.94v-8.36l5.08 2.93v8.37zm8.87 5.12l-5.09-2.94v-8.36l5.09 2.93v8.37z" fill="#453C9E"/><path d="M428.19 454.1l-5.08-2.94v-8.36l5.08 2.93v8.37z" fill="#fff"/><path d="M437.06 459.22l-5.08-2.94v-8.36l5.08 2.93v8.37zm-62.07-24.67l-5.09-2.93v-8.37l5.09 2.94v8.36zm8.86 5.12l-5.08-2.93v-8.37l5.08 2.94v8.36z" fill="#453C9E"/><path d="M392.72 444.79l-5.08-2.93v-8.37l5.08 2.94v8.36z" fill="#fff"/><path d="M401.59 449.91l-5.08-2.93v-8.37l5.08 2.94v8.36zm8.87 5.12l-5.08-2.93v-8.37l5.08 2.94v8.36zm8.87 5.12l-5.09-2.93v-8.37l5.09 2.94v8.36zm8.86 5.12l-5.08-2.93v-8.37l5.08 2.94v8.36zm8.87 5.12l-5.08-2.93v-8.37l5.08 2.94v8.36zm-62.07-24.66l-5.09-2.94v-8.36l5.09 2.93v8.37zm8.86 5.12l-5.08-2.94v-8.36l5.08 2.93v8.37zm8.87 5.12l-5.08-2.94v-8.36l5.08 2.93v8.37zm8.87 5.12l-5.08-2.94v-8.36l5.08 2.93v8.37zm8.87 5.12l-5.08-2.94v-8.36l5.08 2.93v8.37zm8.87 5.12l-5.09-2.94v-8.36l5.09 2.93v8.37zm8.86 5.12l-5.08-2.94v-8.36l5.08 2.93v8.37zm8.87 5.12l-5.08-2.94v-8.36l5.08 2.93v8.37zm-62.07-24.67l-5.09-2.93v-8.37l5.09 2.94v8.36zm8.86 5.12l-5.08-2.93v-8.37l5.08 2.94v8.36zm8.87 5.12l-5.08-2.93v-8.37l5.08 2.94v8.36zm8.87 5.12l-5.08-2.93v-8.37l5.08 2.94v8.36zm8.87 5.12l-5.08-2.93v-8.37l5.08 2.94v8.36zm8.87 5.12l-5.09-2.93v-8.37l5.09 2.94v8.36zm8.86 5.12l-5.08-2.93v-8.37l5.08 2.94v8.36zm8.87 5.12l-5.08-2.93v-8.37l5.08 2.94v8.36zm-62.07-24.66l-5.09-2.94v-8.36l5.09 2.93v8.37zm8.86 5.12l-5.08-2.94v-8.36l5.08 2.93v8.37zm8.87 5.12l-5.08-2.94v-8.36l5.08 2.93v8.37z" fill="#453C9E"/><path d="M401.59 483.44l-5.08-2.94v-8.36l5.08 2.93v8.37z" fill="#fff"/><path d="M410.46 488.56l-5.08-2.94v-8.36l5.08 2.93v8.37z" fill="#453C9E"/><path d="M419.33 493.68l-5.09-2.94v-8.36l5.09 2.93v8.37z" fill="url(#paint23_linear)"/><path d="M428.19 498.8l-5.08-2.94v-8.36l5.08 2.93v8.37zm8.87 5.12l-5.08-2.94v-8.36l5.08 2.93v8.37zm-62.07-24.67l-5.09-2.93v-8.37l5.09 2.94v8.36zm8.86 5.12l-5.08-2.93v-8.37l5.08 2.94v8.36zm8.87 5.12l-5.08-2.93v-8.37l5.08 2.94v8.36zm8.87 5.12l-5.08-2.93v-8.37l5.08 2.94v8.36zm8.87 5.12l-5.08-2.93v-8.37l5.08 2.94v8.36zm8.87 5.12l-5.09-2.93v-8.37l5.09 2.94v8.36zm8.86 5.12l-5.08-2.93v-8.37l5.08 2.94v8.36zm8.87 5.12l-5.08-2.93v-8.37l5.08 2.94v8.36zm-62.07-24.66l-5.09-2.94v-8.36l5.09 2.93v8.37zm8.86 5.12l-5.08-2.94v-8.36l5.08 2.93v8.37zm8.87 5.12l-5.08-2.94v-8.36l5.08 2.93v8.37zm8.87 5.12l-5.08-2.94v-8.36l5.08 2.93v8.37zm8.87 5.12l-5.08-2.94v-8.36l5.08 2.93v8.37z" fill="#453C9E"/><path d="M419.33 516.02l-5.09-2.93v-8.36l5.09 2.93v8.36z" fill="url(#paint24_linear)"/><path d="M428.19 521.14l-5.08-2.93v-8.36l5.08 2.93v8.36zm8.87 5.12l-5.08-2.93v-8.36l5.08 2.93v8.36zm-62.07-24.66l-5.09-2.93v-8.37l5.09 2.94v8.36z" fill="#453C9E"/><path d="M383.85 506.72l-5.08-2.93v-8.37l5.08 2.94v8.36z" fill="#fff"/><path d="M392.72 511.84l-5.08-2.93v-8.37l5.08 2.94v8.36zm8.87 5.12l-5.08-2.93v-8.37l5.08 2.94v8.36zm8.87 5.12l-5.08-2.93v-8.37l5.08 2.94v8.36zm8.87 5.12l-5.09-2.93v-8.37l5.09 2.94v8.36zm8.86 5.12l-5.08-2.93v-8.37l5.08 2.94v8.36zm8.87 5.12l-5.08-2.93v-8.37l5.08 2.94v8.36zm-62.07-24.67l-5.09-2.93v-8.36l5.09 2.93v8.36zm8.86 5.12l-5.08-2.93v-8.36l5.08 2.93v8.36zm8.87 5.13l-5.08-2.94v-8.36l5.08 2.93v8.37zm8.87 5.11l-5.08-2.93v-8.36l5.08 2.93v8.36zm8.87 5.12l-5.08-2.93v-8.36l5.08 2.93v8.36zm8.87 5.13l-5.09-2.94v-8.36l5.09 2.93v8.37zm8.86 5.12l-5.08-2.94v-8.36l5.08 2.93v8.37zm8.87 5.12l-5.08-2.94v-8.36l5.08 2.93v8.37zm-62.07-24.67l-5.09-2.93v-8.37l5.09 2.94v8.36zm8.86 5.12l-5.08-2.93v-8.37l5.08 2.94v8.36zm8.87 5.12l-5.08-2.93v-8.37l5.08 2.94v8.36zm8.87 5.12l-5.08-2.93v-8.37l5.08 2.94v8.36zm8.87 5.12l-5.08-2.93v-8.37l5.08 2.94v8.36zm8.87 5.12l-5.09-2.93v-8.37l5.09 2.94v8.36z" fill="#453C9E"/><path d="M428.19 554.67l-5.08-2.93v-8.37l5.08 2.94v8.36z" fill="url(#paint25_linear)"/><path d="M437.06 559.79l-5.08-2.93v-8.37l5.08 2.94v8.36zm-62.07-24.66l-5.09-2.94v-8.36l5.09 2.93v8.37zm8.86 5.12l-5.08-2.94v-8.36l5.08 2.93v8.37zm8.87 5.12l-5.08-2.94v-8.36l5.08 2.93v8.37z" fill="#453C9E"/><path d="M401.59 550.49l-5.08-2.94v-8.36l5.08 2.93v8.37z" fill="url(#paint26_linear)"/><path d="M410.46 555.61l-5.08-2.94v-8.36l5.08 2.93v8.37zm8.87 5.12l-5.09-2.94v-8.36l5.09 2.93v8.37zm8.86 5.12l-5.08-2.94v-8.36l5.08 2.93v8.37zm8.87 5.12l-5.08-2.94v-8.36l5.08 2.93v8.37zm-62.07-24.67l-5.09-2.93V535l5.09 2.94v8.36zm8.86 5.12l-5.08-2.93v-8.37l5.08 2.94v8.36zm8.87 5.12l-5.08-2.93v-8.37l5.08 2.94v8.36zm8.87 5.12l-5.08-2.93v-8.37l5.08 2.94v8.36zm8.87 5.12l-5.08-2.93v-8.37l5.08 2.94v8.36zm8.87 5.12l-5.09-2.93v-8.37l5.09 2.94v8.36zm8.86 5.12l-5.08-2.93v-8.37l5.08 2.94v8.36zm8.87 5.12l-5.08-2.93v-8.37l5.08 2.94v8.36zm-62.07-24.66l-5.09-2.94v-8.36l5.09 2.93v8.37zm8.86 5.12l-5.08-2.94v-8.36l5.08 2.93v8.37zm8.87 5.12l-5.08-2.94v-8.36l5.08 2.93v8.37z" fill="#453C9E"/><path d="M401.59 572.84l-5.08-2.94v-8.36l5.08 2.93v8.37z" fill="url(#paint27_linear)"/><path d="M410.46 577.96l-5.08-2.94v-8.36l5.08 2.93v8.37zm8.87 5.12l-5.09-2.94v-8.36l5.09 2.93v8.37zm8.86 5.12l-5.08-2.94v-8.36l5.08 2.93v8.37zm8.87 5.12l-5.08-2.94v-8.36l5.08 2.93v8.37zm-62.07-24.67l-5.09-2.93v-8.37l5.09 2.94v8.36zm8.86 5.12l-5.08-2.93v-8.37l5.08 2.94v8.36z" fill="#453C9E"/><path d="M392.72 578.89l-5.08-2.93v-8.37l5.08 2.94v8.36z" fill="url(#paint28_linear)"/><path d="M401.59 584.01l-5.08-2.93v-8.37l5.08 2.94v8.36zm8.87 5.12l-5.08-2.93v-8.37l5.08 2.94v8.36zm8.87 5.12l-5.09-2.93v-8.37l5.09 2.94v8.36zm8.86 5.12l-5.08-2.94v-8.36l5.08 2.94v8.36z" fill="#453C9E"/><path d="M437.06 604.49l-5.08-2.93v-8.37l5.08 2.94v8.36z" fill="url(#paint29_linear)"/><path d="M374.99 579.83l-5.09-2.94v-8.36l5.09 2.93v8.37z" fill="#453C9E"/><path d="M383.85 584.95l-5.08-2.94v-8.36l5.08 2.93v8.37z" fill="url(#paint30_linear)"/><path d="M392.72 590.06l-5.08-2.93v-8.36l5.08 2.93v8.36zm8.87 5.12l-5.08-2.93v-8.36l5.08 2.93v8.36z" fill="#453C9E"/><path d="M410.46 600.3l-5.08-2.93v-8.36l5.08 2.93v8.36z" fill="url(#paint31_linear)"/><path d="M419.33 605.42l-5.09-2.93v-8.36l5.09 2.93v8.36z" fill="#453C9E"/><path d="M428.19 610.54l-5.08-2.93v-8.36l5.08 2.93v8.36z" fill="url(#paint32_linear)"/><path d="M437.06 615.66l-5.08-2.93v-8.36l5.08 2.93v8.36zM374.99 591l-5.09-2.93v-8.37l5.09 2.94V591z" fill="#453C9E"/><path d="M383.85 596.12l-5.08-2.93v-8.37l5.08 2.94v8.36z" fill="url(#paint33_linear)"/><path d="M392.72 601.24l-5.08-2.93v-8.37l5.08 2.94v8.36zm8.87 5.12l-5.08-2.94v-8.36l5.08 2.94v8.36zm8.87 5.12l-5.08-2.94v-8.36l5.08 2.94v8.36zm8.87 5.12l-5.09-2.94v-8.36l5.09 2.94v8.36z" fill="#453C9E"/><path d="M428.19 621.72l-5.08-2.94v-8.36l5.08 2.94v8.36z" fill="url(#paint34_linear)"/><path d="M437.06 626.84l-5.08-2.94v-8.36l5.08 2.94v8.36zm-62.07-24.67l-5.09-2.93v-8.36l5.09 2.93v8.36zm8.86 5.12l-5.08-2.93V596l5.08 2.93v8.36z" fill="#453C9E"/><path d="M392.72 612.41l-5.08-2.93v-8.36l5.08 2.93v8.36z" fill="url(#paint35_linear)"/><path d="M401.59 617.53l-5.08-2.93v-8.36l5.08 2.93v8.36zm8.87 5.12l-5.08-2.93v-8.36l5.08 2.93v8.36zm8.87 5.12l-5.09-2.93v-8.36l5.09 2.93v8.36zm8.86 5.12l-5.08-2.93v-8.36l5.08 2.93v8.36zm8.87 5.12l-5.08-2.93v-8.36l5.08 2.93v8.36zm-62.07-24.66l-5.09-2.94v-8.36l5.09 2.94v8.36zm8.86 5.12l-5.08-2.94v-8.36l5.08 2.94v8.36zm8.87 5.12l-5.08-2.94v-8.36l5.08 2.94v8.36z" fill="#453C9E"/><path d="M401.59 628.71l-5.08-2.94v-8.36l5.08 2.94v8.36z" fill="url(#paint36_linear)"/><path d="M410.46 633.83l-5.08-2.94v-8.36l5.08 2.94v8.36zm8.87 5.12l-5.09-2.94v-8.36l5.09 2.94v8.36z" fill="#453C9E"/><path d="M428.19 644.07l-5.08-2.94v-8.36l5.08 2.94v8.36z" fill="url(#paint37_linear)"/><path d="M437.06 649.19l-5.08-2.94v-8.36l5.08 2.94v8.36zm-62.07-24.67l-5.09-2.93v-8.36l5.09 2.93v8.36zm8.86 5.12l-5.08-2.93v-8.36l5.08 2.93v8.36zm8.87 5.12l-5.08-2.93v-8.36l5.08 2.93v8.36zm8.87 5.12l-5.08-2.93v-8.36l5.08 2.93v8.36zm8.87 5.12l-5.08-2.93v-8.36l5.08 2.93V645zm8.87 5.12l-5.09-2.93v-8.36l5.09 2.93v8.36zm8.86 5.12l-5.08-2.93v-8.36l5.08 2.93v8.36zm8.87 5.12l-5.08-2.93v-8.36l5.08 2.93v8.36zm-62.07-281.68l-5.09-2.94v-8.36l5.09 2.93v8.37zm8.86 5.12l-5.08-2.94v-8.36l5.08 2.93v8.37zm8.87 5.12l-5.08-2.94v-8.36l5.08 2.93v8.37zm8.87 5.12l-5.08-2.94v-8.36l5.08 2.93v8.37zm8.87 5.12l-5.08-2.94v-8.36l5.08 2.93v8.37zm8.87 5.12l-5.09-2.94v-8.36l5.09 2.93v8.37zm8.86 5.12l-5.08-2.94v-8.36l5.08 2.93v8.37zm8.87 5.12l-5.08-2.94v-8.36l5.08 2.93v8.37z" fill="#453C9E"/><path d="M496.45 718l-13.85-24c-6.85-11.86-16.14-21.67-25.82-27.26L330.26 594a35.997 35.997 0 01-18.17-29.38c-13.83.8-27.67.65-41.5.41a69.31 69.31 0 0034.94 58.15l113.33 65.43c9.69 5.59 19 15.4 25.83 27.26l13.84 24c6.85 11.86 16.14 21.67 25.82 27.26l96 55.16 35.91-23-94-54c-9.68-5.62-18.97-15.42-25.81-27.29z" fill="#985EA4"/><path d="M580.37 819.89l-96-55.17c-9.68-5.59-19-15.39-25.82-27.26l-13.84-24c-6.85-11.87-16.14-21.67-25.83-27.27L305.53 620.8a69.231 69.231 0 01-34.79-55.8h-.15a69.314 69.314 0 0034.94 58.15l113.33 65.43c9.69 5.59 19 15.4 25.83 27.26l13.84 24c6.85 11.86 16.14 21.67 25.82 27.26l96 55.16 36-20.71v-2.26l-35.98 20.6z" fill="#fff"/><path d="M496.45 707.53l-13.85-24c-6.85-11.87-16.14-21.67-25.82-27.27L330.26 583.5A36.054 36.054 0 01312 552.1c-4.9 0-10.43-16.61-15.38-16.81-8.87-.36-17.21 15.58-26.13 15.42-.09 23.68 11.58 48.44 35 62l113.33 65.43c9.69 5.59 19 15.4 25.83 27.26l13.84 24c6.85 11.86 16.14 21.67 25.82 27.26l96.06 55.19L618.33 790l-96.06-55.2c-9.69-5.6-18.98-15.4-25.82-27.27z" fill="#fff"/><path d="M122.44 323.69l-2.75-1.58.23-1.29 25.49-14.83 3.54 1.68-.66 1.1-25.85 14.92z" fill="#E25481"/><path d="M145.54 307.19l2.75 1.58 1.77-1.02-4.52-2.61-27.61 15.95 1.77 1.02 25.84-14.92z" fill="#C94F7B"/><path d="M130.78 328.5l-2.75-1.59.23-1.29 25.49-14.83 3.54 1.68-.66 1.1-25.85 14.93z" fill="#E25481"/><path d="M153.88 311.99l2.75 1.58 1.77-1.02-4.52-2.61-27.61 15.95 1.77 1.02 25.84-14.92z" fill="#C94F7B"/><path d="M139.12 333.3l-2.75-1.59.23-1.29 25.49-14.83 3.54 1.68-.66 1.1-25.85 14.93z" fill="#E25481"/><path d="M162.22 316.79l2.75 1.58 1.77-1.02-4.52-2.6-27.61 15.94 1.77 1.02 25.84-14.92z" fill="#C94F7B"/><path d="M147.46 338.1l-2.75-1.59.23-1.29 25.49-14.83 3.54 1.68-.66 1.1-25.85 14.93z" fill="#E25481"/><path d="M170.56 321.59l2.75 1.58 1.77-1.02-4.52-2.6-27.61 15.94 1.77 1.02 25.84-14.92z" fill="#C94F7B"/><g clip-path="url(#clip2)"><path d="M153.9 704.46a22.82 22.82 0 01-11.14-2.66l-59.15-34.15c-3.08-1.77-4.77-4.17-4.77-6.74 0-2.57 1.69-5 4.77-6.74L142.75 620c6.15-3.55 16.15-3.55 22.3 0l59.15 34.18c3.07 1.82 4.8 4.16 4.8 6.73 0 2.57-1.69 5-4.76 6.74l-59.19 34.15a22.848 22.848 0 01-11.15 2.66zm0-86.07a21.75 21.75 0 00-10.63 2.53l-59.15 34.15c-2.73 1.59-4.24 3.66-4.24 5.84 0 2.18 1.51 4.26 4.24 5.84l59.16 34.15c5.86 3.39 15.39 3.39 21.25 0l59.15-34.15c2.74-1.58 4.25-3.65 4.25-5.84s-1.51-4.25-4.25-5.83l-59.15-34.16a21.75 21.75 0 00-10.63-2.53z" fill="#fff"/><path opacity=".5" d="M230.81 647.81v-20.26l-3.71-2.06c-1 6.32-8.49 10.49-14.71 11.36L170 661.63l-18.49 6.68-59-30.47 1.37-.78c-5-2.36-7.76-7.75-10.49-12.67l-4 2.37-2.39.66V648c0 2.63 1.73 5.25 5.19 7.25l59.15 34.15c6.93 4 18.2 4 25.12 0l59.15-34.15c3.41-2 5.14-4.54 5.2-7.12v-.35.03z" fill="url(#paint38_linear)"/><path d="M230.81 629.8v-13.4l-3.71-2.06c-1 6.32-8.49 10.49-14.71 11.36L170 650.48l-18.49 6.68-59-30.47 1.37-.78c-5-2.36-7.76-7.75-10.49-12.67l-4 2.37-2.39.66V630c0 2.62 1.73 5.25 5.19 7.25l59.15 34.17c6.93 4 18.2 4 25.12 0l59.15-34.15c3.41-2 5.14-4.54 5.2-7.13v-.34z" fill="url(#paint39_linear)"/><path opacity=".3" d="M212.39 625.7L170 650.48l-16.1 5.82v18.12a25.665 25.665 0 0012.56-3l59.15-34.15c3.41-2 5.14-4.54 5.2-7.13V616.4l-3.39-1.88h-.36c-1.15 6.22-8.51 10.32-14.67 11.18z" fill="#0F054C"/><path d="M93.83 625.91l56.05-32.37a8.906 8.906 0 018 0l55.12 31.8-.61.36c6.22-.87 13.66-5 14.71-11.36L165.29 580l-18-4.75-14.62 8.57-49.33 29.42c2.73 4.92 5.44 10.31 10.49 12.67z" fill="url(#paint40_linear)"/><path d="M153.9 577l-6.59-1.79-14.64 8.61-49.33 29.42c2.73 4.92 5.44 10.31 10.49 12.67l56.05-32.37a8.238 8.238 0 014-1l.02-15.54z" fill="#985EA4"/><path d="M141.34 657.8l-59.15-34.15c-6.92-4-6.92-10.5 0-14.5L141.34 575c6.93-4 18.2-4 25.12 0l59.15 34.15c6.93 4 6.93 10.5 0 14.5l-59.15 34.15c-6.92 4-18.19 4-25.12 0zm16.58-77.87a8.906 8.906 0 00-8 0l-59.19 34.15c-2.22 1.28-2.22 3.36 0 4.64l59.15 34.15a8.921 8.921 0 008.05 0l59.14-34.15c2.22-1.28 2.22-3.36 0-4.64l-59.15-34.15z" fill="url(#paint41_linear)"/><path d="M217.07 614.08l-59.15-34.15a8.906 8.906 0 00-8 0l-59.19 34.15c-1.48.85-2 2.06-1.47 3.15a3.411 3.411 0 011.47-1.48l59.15-34.15a8.906 8.906 0 018 0l59.15 34.15c.638.328 1.156.85 1.48 1.49.49-1.1.04-2.31-1.44-3.16z" fill="#fff"/><path d="M225.61 623.65l-59.15 34.15c-6.92 4-18.19 4-25.12 0l-59.15-34.15c-3.09-1.79-4.8-4.07-5.13-6.42-.4 2.9 1.3 5.88 5.13 8.09l59.15 34.15c6.93 4 18.2 4 25.12 0l59.15-34.15c3.83-2.21 5.54-5.19 5.13-8.08-.32 2.34-2.03 4.63-5.13 6.41z" fill="#fff"/><path d="M143 656.84l-59.13-34.15c-6-3.47-6-9.11 0-12.58L143 576c6-3.5 15.79-3.5 21.79 0l59.15 34.15c6 3.47 6 9.11 0 12.58l-59.15 34.11c-6 3.46-15.79 3.46-21.79 0zM159.59 579a12.597 12.597 0 00-11.38 0l-59.15 34.11c-3.14 1.82-3.14 4.76 0 6.58l59.15 34.15a12.62 12.62 0 0011.39 0l59.14-34.15c3.14-1.82 3.14-4.76 0-6.58L159.59 579z" fill="#E25481"/><path opacity=".3" d="M157.89 579.85a8.906 8.906 0 00-8 0L90.7 614c-2.22 1.28-2.22 3.36 0 4.65l59.15 34.15a8.905 8.905 0 008 0L217 618.65c2.22-1.28 2.22-3.37 0-4.65l-59.11-34.15z" fill="#fff"/></g></g><defs><linearGradient id="paint0_linear" x1="66" y1="368.68" x2="230.93" y2="368.68" gradientUnits="userSpaceOnUse"><stop stop-color="#FF5885"/><stop offset=".27" stop-color="#FC5893"/><stop offset=".66" stop-color="#F957A1"/><stop offset="1" stop-color="#F857A6"/></linearGradient><linearGradient id="paint1_linear" x1="82.41" y1="295.08" x2="213.27" y2="370.63" gradientUnits="userSpaceOnUse"><stop stop-color="#FF5985"/><stop offset=".22" stop-color="#ED5A8A"/><stop offset=".67" stop-color="#BF5C98"/><stop offset="1" stop-color="#985EA4"/></linearGradient><linearGradient id="paint2_linear" x1="65.998" y1="31089.8" x2="27268.7" y2="31089.8" gradientUnits="userSpaceOnUse"><stop stop-color="#FF5885"/><stop offset=".27" stop-color="#FC5893"/><stop offset=".66" stop-color="#F957A1"/><stop offset="1" stop-color="#F857A6"/></linearGradient><linearGradient id="paint3_linear" x1="275.09" y1="585.45" x2="283.32" y2="585.45" gradientUnits="userSpaceOnUse"><stop stop-color="#C0BFF6"/><stop offset=".29" stop-color="#C5C4F7"/><stop offset=".64" stop-color="#D3D2F9"/><stop offset="1" stop-color="#E9E9FD"/></linearGradient><linearGradient id="paint4_linear" x1="274.09" y1="586.29" x2="280.89" y2="586.29" gradientUnits="userSpaceOnUse"><stop stop-color="#5761D7"/><stop offset=".18" stop-color="#5C66D9"/><stop offset=".39" stop-color="#6A73DF"/><stop offset=".61" stop-color="#8289E8"/><stop offset=".85" stop-color="#A3A7F5"/><stop offset="1" stop-color="#BCBEFF"/></linearGradient><linearGradient id="paint5_linear" x1="446.87" y1="307.61" x2="451.95" y2="307.61" gradientUnits="userSpaceOnUse"><stop stop-color="#42E8E0"/><stop offset="1" stop-color="#42E8E0"/></linearGradient><linearGradient id="paint6_linear" x1="2592.07" y1="3789.39" x2="2617.93" y2="3789.39" gradientUnits="userSpaceOnUse"><stop stop-color="#42E8E0"/><stop offset="1" stop-color="#42E8E0"/></linearGradient><linearGradient id="paint7_linear" x1="2592.07" y1="3923.7" x2="2617.93" y2="3923.7" gradientUnits="userSpaceOnUse"><stop stop-color="#42E8E0"/><stop offset="1" stop-color="#42E8E0"/></linearGradient><linearGradient id="paint8_linear" x1="2592.07" y1="4064.3" x2="2617.93" y2="4064.3" gradientUnits="userSpaceOnUse"><stop stop-color="#42E8E0"/><stop offset="1" stop-color="#42E8E0"/></linearGradient><linearGradient id="paint9_linear" x1="2749.62" y1="4253.22" x2="2775.43" y2="4253.22" gradientUnits="userSpaceOnUse"><stop stop-color="#42E8E0"/><stop offset="1" stop-color="#42E8E0"/></linearGradient><linearGradient id="paint10_linear" x1="2592.07" y1="4198.27" x2="2617.93" y2="4198.27" gradientUnits="userSpaceOnUse"><stop stop-color="#42E8E0"/><stop offset="1" stop-color="#42E8E0"/></linearGradient><linearGradient id="paint11_linear" x1="2592.07" y1="4472.96" x2="2617.93" y2="4472.96" gradientUnits="userSpaceOnUse"><stop stop-color="#42E8E0"/><stop offset="1" stop-color="#42E8E0"/></linearGradient><linearGradient id="paint12_linear" x1="2533.91" y1="4551.13" x2="2559.77" y2="4551.13" gradientUnits="userSpaceOnUse"><stop stop-color="#42E8E0"/><stop offset="1" stop-color="#42E8E0"/></linearGradient><linearGradient id="paint13_linear" x1="2803.5" y1="4866.01" x2="2829.36" y2="4866.01" gradientUnits="userSpaceOnUse"><stop stop-color="#42E8E0"/><stop offset="1" stop-color="#42E8E0"/></linearGradient><linearGradient id="paint14_linear" x1="2480.03" y1="4621.79" x2="2505.84" y2="4621.79" gradientUnits="userSpaceOnUse"><stop stop-color="#42E8E0"/><stop offset="1" stop-color="#42E8E0"/></linearGradient><linearGradient id="paint15_linear" x1="2641.75" y1="4810.57" x2="2667.56" y2="4810.57" gradientUnits="userSpaceOnUse"><stop stop-color="#42E8E0"/><stop offset="1" stop-color="#42E8E0"/></linearGradient><linearGradient id="paint16_linear" x1="2749.62" y1="4936.41" x2="2775.43" y2="4936.41" gradientUnits="userSpaceOnUse"><stop stop-color="#42E8E0"/><stop offset="1" stop-color="#42E8E0"/></linearGradient><linearGradient id="paint17_linear" x1="2480.03" y1="4763.07" x2="2505.84" y2="4763.07" gradientUnits="userSpaceOnUse"><stop stop-color="#42E8E0"/><stop offset="1" stop-color="#42E8E0"/></linearGradient><linearGradient id="paint18_linear" x1="2749.62" y1="5077.95" x2="2775.43" y2="5077.95" gradientUnits="userSpaceOnUse"><stop stop-color="#42E8E0"/><stop offset="1" stop-color="#42E8E0"/></linearGradient><linearGradient id="paint19_linear" x1="2533.91" y1="4959.4" x2="2559.77" y2="4959.4" gradientUnits="userSpaceOnUse"><stop stop-color="#42E8E0"/><stop offset="1" stop-color="#42E8E0"/></linearGradient><linearGradient id="paint20_linear" x1="2592.07" y1="5163.91" x2="2617.93" y2="5163.91" gradientUnits="userSpaceOnUse"><stop stop-color="#42E8E0"/><stop offset="1" stop-color="#42E8E0"/></linearGradient><linearGradient id="paint21_linear" x1="2749.62" y1="5352.84" x2="2775.43" y2="5352.84" gradientUnits="userSpaceOnUse"><stop stop-color="#42E8E0"/><stop offset="1" stop-color="#42E8E0"/></linearGradient><linearGradient id="paint22_linear" x1="8767.05" y1="3296.08" x2="10492.5" y2="3296.08" gradientUnits="userSpaceOnUse"><stop stop-color="#42E8E0"/><stop offset="1" stop-color="#42E8E0"/></linearGradient><linearGradient id="paint23_linear" x1="414.24" y1="488.03" x2="419.33" y2="488.03" gradientUnits="userSpaceOnUse"><stop stop-color="#fff"/><stop offset="1" stop-color="#fff"/></linearGradient><linearGradient id="paint24_linear" x1="2186.78" y1="6266.92" x2="2212.69" y2="6266.92" gradientUnits="userSpaceOnUse"><stop stop-color="#fff"/><stop offset="1" stop-color="#fff"/></linearGradient><linearGradient id="paint25_linear" x1="2237.23" y1="6747.29" x2="2263.04" y2="6747.29" gradientUnits="userSpaceOnUse"><stop stop-color="#fff"/><stop offset="1" stop-color="#fff"/></linearGradient><linearGradient id="paint26_linear" x1="2075.5" y1="6695.88" x2="2101.3" y2="6695.88" gradientUnits="userSpaceOnUse"><stop stop-color="#fff"/><stop offset="1" stop-color="#fff"/></linearGradient><linearGradient id="paint27_linear" x1="2075.5" y1="6970.81" x2="2101.3" y2="6970.81" gradientUnits="userSpaceOnUse"><stop stop-color="#fff"/><stop offset="1" stop-color="#fff"/></linearGradient><linearGradient id="paint28_linear" x1="2021.57" y1="7045.2" x2="2047.37" y2="7045.2" gradientUnits="userSpaceOnUse"><stop stop-color="#fff"/><stop offset="1" stop-color="#fff"/></linearGradient><linearGradient id="paint29_linear" x1="2291.15" y1="7360.07" x2="2316.96" y2="7360.07" gradientUnits="userSpaceOnUse"><stop stop-color="#fff"/><stop offset="1" stop-color="#fff"/></linearGradient><linearGradient id="paint30_linear" x1="1967.65" y1="7119.73" x2="1993.45" y2="7119.73" gradientUnits="userSpaceOnUse"><stop stop-color="#fff"/><stop offset="1" stop-color="#fff"/></linearGradient><linearGradient id="paint31_linear" x1="2129.43" y1="7302.71" x2="2155.23" y2="7302.71" gradientUnits="userSpaceOnUse"><stop stop-color="#fff"/><stop offset="1" stop-color="#fff"/></linearGradient><linearGradient id="paint32_linear" x1="2237.23" y1="7428.56" x2="2263.04" y2="7428.56" gradientUnits="userSpaceOnUse"><stop stop-color="#fff"/><stop offset="1" stop-color="#fff"/></linearGradient><linearGradient id="paint33_linear" x1="1967.65" y1="7257.12" x2="1993.45" y2="7257.12" gradientUnits="userSpaceOnUse"><stop stop-color="#fff"/><stop offset="1" stop-color="#fff"/></linearGradient><linearGradient id="paint34_linear" x1="2237.23" y1="7572" x2="2263.04" y2="7572" gradientUnits="userSpaceOnUse"><stop stop-color="#fff"/><stop offset="1" stop-color="#fff"/></linearGradient><linearGradient id="paint35_linear" x1="2021.57" y1="7451.54" x2="2047.37" y2="7451.54" gradientUnits="userSpaceOnUse"><stop stop-color="#fff"/><stop offset="1" stop-color="#fff"/></linearGradient><linearGradient id="paint36_linear" x1="2075.5" y1="7658.02" x2="2101.3" y2="7658.02" gradientUnits="userSpaceOnUse"><stop stop-color="#fff"/><stop offset="1" stop-color="#fff"/></linearGradient><linearGradient id="paint37_linear" x1="2237.23" y1="7846.91" x2="2263.04" y2="7846.91" gradientUnits="userSpaceOnUse"><stop stop-color="#fff"/><stop offset="1" stop-color="#fff"/></linearGradient><linearGradient id="paint38_linear" x1="77" y1="658.4" x2="230.81" y2="658.4" gradientUnits="userSpaceOnUse"><stop stop-color="#FF5885"/><stop offset=".27" stop-color="#FC5893"/><stop offset=".66" stop-color="#F957A1"/><stop offset="1" stop-color="#F857A6"/></linearGradient><linearGradient id="paint39_linear" x1="92.3" y1="589.77" x2="214.33" y2="660.22" gradientUnits="userSpaceOnUse"><stop stop-color="#FF5985"/><stop offset=".22" stop-color="#ED5A8A"/><stop offset=".67" stop-color="#BF5C98"/><stop offset="1" stop-color="#985EA4"/></linearGradient><linearGradient id="paint40_linear" x1="3336.63" y1="1234.84" x2="8997.08" y2="10510.6" gradientUnits="userSpaceOnUse"><stop stop-color="#FF5985"/><stop offset=".22" stop-color="#ED5A8A"/><stop offset=".67" stop-color="#BF5C98"/><stop offset="1" stop-color="#985EA4"/></linearGradient><linearGradient id="paint41_linear" x1="77" y1="4514.72" x2="23734.1" y2="4514.72" gradientUnits="userSpaceOnUse"><stop stop-color="#FF5885"/><stop offset=".27" stop-color="#FC5893"/><stop offset=".66" stop-color="#F957A1"/><stop offset="1" stop-color="#F857A6"/></linearGradient><clipPath id="clip0"><path fill="#fff" transform="translate(0 264)" d="M0 0h803v541H0z"/></clipPath><clipPath id="clip1"><path fill="#fff" transform="translate(66)" d="M0 0h895v822H0z"/></clipPath><clipPath id="clip2"><path fill="#fff" transform="translate(77 572)" d="M0 0h153.81v132.46H0z"/></clipPath></defs></svg>