<svg width="32" height="32" fill="none" xmlns="http://www.w3.org/2000/svg"><rect width="32" height="32" rx="16" fill="#000" fill-opacity=".03"/><mask id="a" maskUnits="userSpaceOnUse" x="8" y="8" width="16" height="16"><path fill-rule="evenodd" clip-rule="evenodd" d="M23.37 12.886c.205.483.363.99.468 1.504a8.078 8.078 0 010 3.222 7.987 7.987 0 01-1.205 2.862c-.285.424-.614.82-.976 1.184-.362.36-.76.688-1.184.975a7.974 7.974 0 01-6.084 1.203 7.876 7.876 0 01-1.503-.465 8.017 8.017 0 01-4.724-5.76 8.095 8.095 0 010-3.221 7.958 7.958 0 011.205-2.863 8.051 8.051 0 012.16-2.16 8.02 8.02 0 011.359-.738 8.016 8.016 0 017.587.739 8.007 8.007 0 012.898 3.518zm-2.858-2.012A6.804 6.804 0 0014.39 9.36c.102.136 1.386 1.84 2.553 3.986 2.565-.96 3.541-2.43 3.57-2.473zm-6.148-1.507l-.001.002-.021.003.007-.001.015-.004zm1.258 4.39a40.837 40.837 0 00-2.537-3.935 6.834 6.834 0 00-3.77 4.77c.18.003 3.027.038 6.307-.834zM9.168 16l.003-.144.002-.07c.122.002 3.497.078 7.015-.975.195.383.383.774.554 1.162-.09.025-.18.052-.27.082-3.686 1.191-5.557 4.508-5.557 4.508l.003.004A6.806 6.806 0 019.168 16zm9.32.788c.896 2.462 1.26 4.467 1.33 4.88a6.834 6.834 0 002.928-4.582c-.141-.046-2.052-.65-4.258-.298zm-6.84 4.48A6.805 6.805 0 0016 22.832c.946 0 1.848-.194 2.668-.542-.102-.598-.498-2.69-1.46-5.187l-.016.005a.39.39 0 00-.03.009c-4.052 1.412-5.361 4.268-5.361 4.268s-.063-.046-.154-.12zm11.183-5.335c-.1-.022-2.412-.52-4.759-.224l-.047-.113-.1-.239a20.57 20.57 0 00-.455-.991c2.685-1.097 3.783-2.67 3.806-2.704a6.805 6.805 0 011.555 4.27z" fill="#fff"/></mask><g mask="url(#a)"><path fill="#fff" d="M8 8h16v16H8z"/><path fill="#212529" d="M8 8h16v16H8z"/></g></svg>