<svg width="16" height="16" fill="none" xmlns="http://www.w3.org/2000/svg"><mask id="a" maskUnits="userSpaceOnUse" x="0" y="1" width="16" height="14"><path fill-rule="evenodd" clip-rule="evenodd" d="M2.266 4.182h-.022C1.186 4.182.5 3.481.5 2.592.5 1.686 1.206 1 2.286 1c1.079 0 1.742.685 1.763 1.59 0 .888-.684 1.592-1.783 1.592zM15.5 14.5h-3.315V9.754c0-1.242-.519-2.09-1.659-2.09-.872 0-1.357.572-1.583 1.124-.075.174-.073.409-.072.65V14.5H5.587s.042-8.407 0-9.17h3.284v1.438c.194-.629 1.244-1.527 2.919-1.527 2.078 0 3.71 1.32 3.71 4.16V14.5zM3.802 5.33H.878v9.17h2.924V5.33z" fill="#fff"/></mask><g mask="url(#a)"><path fill="#fff" d="M0 0h16v16H0z"/><path fill="#212529" d="M0 0h16v16H0z"/></g></svg>