<svg width="16" height="16" fill="none" xmlns="http://www.w3.org/2000/svg"><path fill-rule="evenodd" clip-rule="evenodd" d="M15.951 3.47c-.003-.002-.005-.006-.01-.007l-.005-.003-4.826-2.406A.537.537 0 0010.876 1a.553.553 0 00-.469.254L7.628 5.755l3.488 5.65 4.85-7.858a.059.059 0 00-.015-.077zM6.098 4.73v5.124l4.568 2.278L6.098 4.73zm5.255 7.744l3.76 1.874c.49.244.887.073.887-.381V4.946l-4.647 7.528zM5.305 3.478L.59 1.128a.542.542 0 00-.24-.063c-.206 0-.351.16-.351.427v10.146c0 .271.2.593.443.715l4.152 2.069a.677.677 0 00.3.078c.257 0 .438-.199.438-.533V3.524a.052.052 0 00-.028-.046z" fill="#212529"/></svg>