<svg width="30" height="24" fill="none" xmlns="http://www.w3.org/2000/svg"><path d="M29.271 4.442a.664.664 0 00-.154-.429L25.924.233A.672.672 0 0025.418 0h-4.762a.654.654 0 00-.514.255l-5.53 6.95L9.2.382V.36A.661.661 0 008.618 0H3.853a.661.661 0 00-.503.233L.157 4.013A.666.666 0 000 4.442v18.893a.663.663 0 00.66.662h5.26a.649.649 0 00.46-.187l2.706-2.624a.664.664 0 00.2-.475v-3.15l1.808 2.396a.656.656 0 00.492.271h5.642a.658.658 0 00.511-.247l2.265-2.792.016 3.528a.67.67 0 00.2.472l2.576 2.507a.9.9 0 00.541.304h5.26a.66.66 0 00.674-.665V4.442zm-4.159-3.115l2.073 2.442h-3.493l-1.75-2.442h3.17zm-16.48.456l5.14 6.485-1.894 2.393-5.114-6.246 1.867-2.632zm-4.47-.456H7.33L5.582 3.769H2.089L4.16 1.327zM7.95 20.432L6.578 21.77v-7.79l1.372 1.823v4.629zM6.45 11.6a.668.668 0 00-.738-.228.66.66 0 00-.452.63v10.671H1.323V5.107H5.61l5.769 7.03a.669.669 0 00.511.242.667.667 0 00.511-.25l8.226-10.365 1.894 2.662L11.62 18.467 6.45 11.6zm16.235 10.143l-1.353-1.311-.024-4.87 1.372-1.694.005 7.874zm5.26.93h-3.934V12.001a.664.664 0 00-.84-.64.66.66 0 00-.334.223L16.91 18.91h-3.948l10.71-13.803h4.278l-.006 17.566z" fill="#DF0070"/></svg>