<svg width="172" height="39" fill="none" xmlns="http://www.w3.org/2000/svg"><path d="M47.735 7.235c0-.264-.088-.485-.264-.706L42.265.397A1.025 1.025 0 0041.426 0h-7.764c-.353 0-.618.176-.838.397l-9 11.294L15 .618V.574C14.823.22 14.47 0 14.03 0H6.264c-.31 0-.618.132-.839.397L.265 6.53C.088 6.75 0 6.971 0 7.235v30.706C0 38.515.485 39 1.059 39h8.559c.308 0 .573-.132.75-.309l4.411-4.28c.221-.22.31-.485.31-.793v-5.074l2.955 3.882c.177.265.485.398.794.442h9.22c.31 0 .619-.133.84-.397l3.705-4.544.044 5.735c0 .309.132.573.309.75l4.191 4.059c.177.176.53.485.927.485h8.558c.574 0 1.06-.485 1.06-1.059V7.235h.043zm-6.794-5.073l3.397 3.97h-5.69l-2.869-3.97h5.162zm-26.868.75l8.383 10.544-3.088 3.882-8.339-10.147 3.044-4.28zm-7.279-.75h5.162l-2.868 3.97h-5.69l3.396-3.97zm6.177 31.059l-2.25 2.161V22.721l2.25 2.956v7.544zM10.5 18.882c-.265-.353-.75-.53-1.191-.353-.441.133-.75.574-.75 1.015v17.338H2.162V8.294h6.97l9.397 11.427a1.086 1.086 0 001.677 0L33.618 2.868l3.088 4.323-17.78 22.853L10.5 18.882zm26.515 16.456l-2.206-2.117-.044-7.942 2.25-2.735v12.794zm8.559 1.544h-6.442V19.5c0-.441-.308-.882-.706-1.015-.44-.132-.926 0-1.19.353L27.573 30.75h-6.442l17.47-22.412h6.972v28.544z" fill="#DF0070"/><path d="M71.646 7.104c-1.323 0-2.426.485-3.309 1.411-.662-.926-1.632-1.411-2.912-1.411-1.102 0-2.029.397-2.735 1.147V7.236H60v11.03h2.735v-6.662c0-.706.177-1.236.574-1.589.309-.308.75-.44 1.235-.44.485 0 .927.132 1.235.44.397.353.574.883.574 1.589v6.661h2.735v-6.75c0-.661.22-1.19.618-1.544.309-.264.75-.44 1.235-.44.486 0 .883.131 1.236.44.397.353.573.883.573 1.588v6.662h2.735v-7.059c0-1.279-.397-2.338-1.19-3.132-.618-.618-1.5-.926-2.648-.926zm10.587.088c-.97 0-1.72.089-2.294.31-.617.22-1.19.617-1.72 1.19l1.764 1.677c.53-.574 1.28-.882 2.162-.882.75 0 1.28.132 1.588.397.31.264.486.705.486 1.323v.574h-2.647c-1.236 0-2.206.308-2.912.926-.618.574-.927 1.324-.927 2.25 0 1.015.31 1.853.927 2.47.662.618 1.588.971 2.823.971 1.147 0 2.03-.353 2.736-1.058v.926h2.735v-7.191c.044-2.603-1.544-3.883-4.72-3.883zm1.942 7.015c0 .662-.133 1.147-.397 1.368-.398.353-.971.53-1.765.53-1.059 0-1.633-.398-1.633-1.236s.53-1.235 1.589-1.235h2.206v.573zm6.619.925c0 .883.264 1.589.75 2.162.573.662 1.412 1.015 2.426 1.015h1.5V15.97h-1.014c-.618 0-.971-.353-.971-1.015V9.662h1.941V7.544h-1.941V4.28H90.75v3.265h-1.147v2.118h1.147v5.47h.044zm11.03-7.984c-1.456 0-2.603.485-3.441 1.456-.883 1.015-1.324 2.382-1.324 4.147 0 3.75 1.677 5.603 5.074 5.603 1.632 0 3-.574 4.191-1.72L104.647 15c-.661.706-1.5 1.059-2.47 1.059-.706 0-1.28-.22-1.677-.618-.397-.397-.617-.926-.662-1.588v-.176h6.883v-1.236c0-1.544-.397-2.78-1.235-3.75-1.015-1.015-2.162-1.544-3.662-1.544zm-2.074 4.588c0-.44.088-.794.265-1.147.353-.75.926-1.147 1.809-1.147.882 0 1.5.397 1.853 1.147.132.353.22.75.264 1.147h-4.19zm12-3.441v-1.06h-2.691v11.03h2.735v-6.662c0-.661.176-1.147.573-1.544.353-.309.75-.485 1.192-.485.529 0 1.014.22 1.455.662l2.074-2.118c-.706-.706-1.544-1.059-2.603-1.059-1.147.044-2.073.441-2.735 1.236zm10.191-5.162h-2.824v2.25h2.824v-2.25zm-.044 4.146h-2.735v11.03h2.735V7.278zm7.544-.087c-.971 0-1.721.089-2.294.31-.618.22-1.191.617-1.721 1.19l1.765 1.677c.529-.574 1.279-.882 2.162-.882.75 0 1.279.132 1.588.397.309.264.485.705.485 1.323v.574h-2.647c-1.235 0-2.206.308-2.912.926-.617.574-.926 1.324-.926 2.25 0 1.015.309 1.853.926 2.47.662.618 1.589.971 2.824.971 1.147 0 2.029-.353 2.735-1.058v.926h2.736v-7.191c.044-2.559-1.545-3.883-4.721-3.883zm1.985 7.06c0 .661-.132 1.146-.397 1.367-.397.353-.97.53-1.765.53-1.058 0-1.632-.398-1.632-1.236s.529-1.235 1.588-1.235h2.206v.573zm7.986.704V3.176h-2.735v11.957c0 .882.264 1.588.75 2.162.573.661 1.412 1.014 2.47 1.014h1.589v-2.338h-1.059c-.662-.044-1.015-.353-1.015-1.015zm7.765-7.677h-2.736v11.03h2.736V7.278zm.044-4.146h-2.824v2.25h2.824v-2.25zm3.264 6.617h4.588l-4.897 6.485v2.073h8.427v-2.47h-4.941l4.941-6.486V7.28h-8.118v2.47zm13.852 3.794l6.882-.044v-1.235c0-1.544-.397-2.78-1.235-3.75-.882-.97-2.029-1.5-3.529-1.5-1.456 0-2.603.485-3.442 1.456-.882 1.014-1.323 2.382-1.323 4.147 0 3.75 1.676 5.603 5.073 5.603 1.633 0 3-.574 4.192-1.72l-1.677-1.633c-.662.706-1.5 1.059-2.47 1.059-.706 0-1.28-.221-1.677-.618s-.618-.926-.662-1.588v-.088c-.132 0-.132-.045-.132-.089zm.265-3.088c.353-.75.926-1.147 1.809-1.147.882 0 1.5.397 1.852 1.147.133.353.221.75.265 1.147h-4.191c0-.397.088-.794.265-1.147zm-102 22.588V22.058h-2.558V33.22c0 .794.22 1.456.705 2.03.53.617 1.324.926 2.294.926H64.5V33.97h-.97c-.618 0-.927-.309-.927-.926zm7.501-7.234c-.883 0-1.633.088-2.162.309-.573.22-1.103.573-1.632 1.103l1.676 1.588c.486-.573 1.191-.838 2.03-.838.705 0 1.19.132 1.5.397.308.265.44.662.44 1.235v.53h-2.47c-1.147 0-2.073.264-2.691.838-.574.53-.882 1.235-.882 2.117 0 .971.308 1.721.882 2.294.618.574 1.5.883 2.647.883 1.059 0 1.897-.309 2.559-.97v.882h2.559v-6.75c0-2.427-1.5-3.618-4.456-3.618zm1.809 6.53c0 .617-.133 1.058-.397 1.279-.353.309-.883.485-1.633.485-1.014 0-1.5-.397-1.5-1.147s.486-1.147 1.456-1.147h2.074v.53zm10.234-6.62c-1.058 0-1.853.353-2.514 1.015v-4.677h-2.56v14.118l2.471.044c.265.044 2.294.088 2.603.088 1.06 0 1.897-.309 2.515-.926.706-.706 1.059-2.162 1.059-4.368 0-2.206-.353-3.617-1.059-4.323-.618-.662-1.456-.97-2.515-.97zm.706 7.368c-.264.573-.75.882-1.456.882h-1.764l.044-2.515v-.485c0-.97.088-1.676.308-2.118.265-.573.75-.838 1.456-.838s1.192.265 1.456.838c.177.442.31 1.103.31 2.118-.045 1.015-.133 1.72-.354 2.118zm10.059-3.219l-1.632-.177c-.706-.044-1.059-.353-1.059-.882 0-.662.485-.97 1.456-.97 1.103 0 1.897.22 2.382.705l1.588-1.588c-.838-.794-2.161-1.191-3.926-1.191-1.103 0-2.03.264-2.78.838-.793.617-1.19 1.412-1.19 2.47 0 1.721 1.014 2.692 3 2.868l1.632.177c.706.044 1.103.397 1.103.97 0 .706-.618 1.059-1.81 1.059-1.19 0-2.117-.309-2.734-.97l-1.677 1.676c.97.97 2.47 1.5 4.412 1.5 1.28 0 2.294-.265 3.088-.838.838-.574 1.28-1.456 1.28-2.515-.089-1.941-1.103-2.956-3.133-3.132z" fill="#000"/></svg>