<svg width="456" height="328" fill="none" xmlns="http://www.w3.org/2000/svg"><path d="M456 69.435a10.391 10.391 0 00-2.403-6.701L403.858 3.648a10.47 10.47 0 00-3.547-2.686A10.403 10.403 0 00395.975 0h-74.187a10.15 10.15 0 00-4.461 1.064 10.215 10.215 0 00-3.548 2.923l-86.158 108.628L143.317 5.981v-.34a10.327 10.327 0 00-3.749-4.094A10.237 10.237 0 00134.254 0h-74.23c-1.49.002-2.964.33-4.317.96a10.334 10.334 0 00-3.523 2.688L2.444 62.734A10.43 10.43 0 000 69.435V364.78c0 2.745 1.084 5.377 3.012 7.318a10.252 10.252 0 007.273 3.031H92.23a10.083 10.083 0 007.165-2.926l42.152-41.017a10.398 10.398 0 002.304-3.395c.536-1.274.813-2.644.816-4.028v-49.245l28.157 37.454a10.235 10.235 0 003.361 2.991 10.163 10.163 0 004.311 1.25h87.887a10.244 10.244 0 007.966-3.86l35.281-43.646.253 55.141c.013 1.376.295 2.736.83 4.003a10.487 10.487 0 002.29 3.378l40.128 39.192a14.014 14.014 0 008.431 4.751h81.943a10.24 10.24 0 007.424-2.97A10.369 10.369 0 00456 364.78V69.435zm-64.788-48.693l32.289 38.174h-54.418L341.81 20.742h49.402zm-256.747 7.125l80.088 101.375-29.506 37.412-79.667-97.643 29.085-41.143zM64.83 20.742h49.36L86.96 58.916H32.54l32.29-38.174zm59.012 298.652l-21.371 20.912V218.529l21.371 28.503v72.362zM100.49 181.33a10.41 10.41 0 00-5.19-3.626 10.349 10.349 0 00-6.317.063 10.282 10.282 0 00-5.102 3.774 10.394 10.394 0 00-1.938 6.066V354.43h-61.33V79.827H87.38l89.868 109.901a10.429 10.429 0 003.567 2.777c1.377.652 2.878.993 4.4.998a10.354 10.354 0 004.416-1.056 10.416 10.416 0 003.55-2.846l128.142-162.03 29.507 41.61L181 288.685 100.49 181.33zm252.912 158.552l-21.076-20.488-.379-76.137 21.371-26.467.084 123.092zm81.943 14.548h-61.289V187.607a10.394 10.394 0 00-1.872-5.993 10.289 10.289 0 00-4.973-3.799 10.218 10.218 0 00-6.24-.205 10.28 10.28 0 00-5.208 3.465L263.45 295.599h-61.5L368.787 79.827h66.643l-.085 274.603z" fill="#DF0070" fill-opacity=".3"/></svg>