<svg width="86" height="104" fill="none" xmlns="http://www.w3.org/2000/svg"><g clip-path="url(#clip0)"><path d="M43.052 73.914c16.975 0 30.736-13.843 30.736-30.919s-13.76-30.919-30.736-30.919c-16.975 0-30.737 13.843-30.737 30.919s13.762 30.919 30.737 30.919z" fill="#FF5985"/><path d="M34.048 70.478c-1.552-4.268-.828-7.807-4.14-12.7-1.759-2.603-2.38-2.082-3.829-4.58-.414-.73-4.553-7.6-1.759-14.888.517-1.353 1.552-3.852 4.14-5.621 4.14-2.811 8.9-1.354 9.728-1.041 7.554 2.394 9.21 11.347 9.21 14.366 0 1.145-.31 1.978-.828 2.707-1.035 1.353-3.104 1.978-4.553 1.353-2.484-.937-2.69-4.893-2.69-5.621-.208-5.934 5.174-10.099 6.002-10.723 1.655-1.25 3.932-3.02 7.244-2.915 4.14.104 6.83 3.019 7.658 3.852 2.69 3.227 2.69 7.079 2.69 9.577 0 5.31-2.276 9.266-3.207 10.723-1.76 3.019-2.484 2.603-4.036 5.413-1.656 2.915-1.76 5.101-2.691 10.41-1.346 7.704-1.967 11.452-3.209 12.077-3.518 1.665-12.832-4.268-15.73-12.389z" stroke="#34495E" stroke-width="1.834" stroke-miterlimit="10"/><path d="M57.644 89.321c-1.449 1.874-9.314 13.326-14.178 13.742-3.415.312-13.971-12.18-15.42-14.262" fill="#FEFEFE"/><path d="M57.644 89.321c-1.449 1.874-9.314 13.326-14.178 13.742-3.415.312-13.971-12.18-15.42-14.262" stroke="#212529" stroke-width="1.834" stroke-miterlimit="10"/><path d="M59.093 75.996H27.114c-1.759 0-3.311-1.457-3.311-3.331 0-1.77 1.449-3.332 3.311-3.332h31.979c1.76 0 3.311 1.458 3.311 3.332-.103 1.873-1.552 3.33-3.311 3.33z" fill="#fff" stroke="#212529" stroke-width="1.861" stroke-miterlimit="10"/><path d="M59.093 82.555H27.114c-1.759 0-3.311-1.458-3.311-3.332 0-1.77 1.449-3.331 3.311-3.331h31.979c1.76 0 3.311 1.457 3.311 3.331-.103 1.874-1.552 3.332-3.311 3.332z" fill="#fff" stroke="#212529" stroke-width="1.861" stroke-miterlimit="10"/><path d="M59.093 89.113H27.114c-1.759 0-3.311-1.457-3.311-3.331 0-1.77 1.449-3.332 3.311-3.332h31.979c1.76 0 3.311 1.458 3.311 3.332-.103 1.874-1.552 3.331-3.311 3.331z" fill="#fff" stroke="#212529" stroke-width="1.861" stroke-miterlimit="10"/><path d="M57.851 22.695c4.036 3.852 7.658 8.224 9.21 13.741.518 1.77 3.209 1.041 2.795-.728-1.656-5.934-5.588-10.723-9.935-14.991-1.345-1.354-3.312.728-2.07 1.978zm10.452 17.697c.414 1.77.31 3.54-.207 5.31-.517 1.77 2.174 2.498 2.795.728.724-2.186.828-4.58.207-6.766-.414-1.874-3.209-1.146-2.795.728z" fill="#fff"/><path d="M29.495 11.66c-.828-.104-1.139-.625-1.45-1.146a258.682 258.682 0 00-2.173-5.205c-.413-.937-.206-1.561.621-1.978.828-.312 1.346.104 1.656.833.828 1.874 1.553 3.748 2.38 5.622.415 1.145-.103 1.665-1.034 1.874z" fill="#985EA4"/><path d="M73.892 72.457c-.31 1.145-1.035 1.873-2.07 1.04a46.403 46.403 0 01-4.657-4.372c-.518-.52-.518-1.25 0-1.77.414-.52 1.138-.624 1.656-.104l4.657 4.373c.103.208.207.52.414.833zM13.35 74.018c-1.138-.312-1.552-1.145-.827-2.082 1.345-1.666 2.897-3.123 4.346-4.685.414-.416.931-.52 1.552-.104.518.417.725 1.041.414 1.458a30.14 30.14 0 01-4.967 5.309c-.104 0-.31 0-.518.104z" fill="#FF5985"/><path d="M11.384 56.424c0 .937-.518 1.25-1.138 1.458-1.76.729-3.416 1.561-5.175 2.29-.828.417-1.552.312-1.966-.624-.414-1.041.31-1.458 1.035-1.77 1.656-.833 3.415-1.562 5.174-2.29 1.035-.417 1.863-.209 2.07.936z" fill="#D05A9E"/><path d="M82.999 26.755c0 .729-.31 1.145-.828 1.457-1.863.833-3.726 1.562-5.589 2.395-.828.312-1.655.104-1.966-.73-.31-.832.31-1.352 1.035-1.665 1.76-.729 3.622-1.561 5.382-2.29.93-.416 1.655-.104 1.966.833z" fill="#FF5985"/><path d="M60.128 4.893c-.931 1.874-1.863 3.956-2.898 6.038-.31.52-.931.729-1.449.312-.62-.312-.931-.937-.62-1.561l2.483-5.622c.31-.729.931-.937 1.656-.729.517.208.828.729.828 1.562z" fill="#D05A9E"/><path d="M67.89 19.26c-.932-.105-1.553-.938-1.035-1.667 1.552-1.977 3.311-3.747 5.381-5.205.414-.208.931 0 1.242.417.31.416.517.833.103 1.353a30.108 30.108 0 01-5.278 4.997c-.103.104-.31 0-.413.104z" fill="#985EA4"/><path d="M19.25 17.906c-.311 1.353-1.243 1.666-2.07.937-1.76-1.458-3.312-3.123-4.865-4.789a1.01 1.01 0 010-1.457c.518-.52 1.139-.73 1.656-.209l4.968 4.685c.103.208.207.52.31.833z" fill="#D05A9E"/><path d="M11.384 29.15c-.103 1.248-.828 1.665-1.76 1.353-1.862-.73-3.725-1.562-5.691-2.29-.725-.313-.932-.834-.725-1.562.207-.625.725-1.041 1.242-.833 2.174.833 4.347 1.77 6.52 2.706.207.105.31.521.414.625zM41.603 4.476V1.353c0-.833.31-1.457 1.242-1.457.828 0 1.242.52 1.242 1.353v6.142c0 .833-.414 1.458-1.242 1.458-.828 0-1.242-.52-1.242-1.354V4.476z" fill="#FF5985"/><path d="M76.272 55.383c1.967.937 4.14 1.666 6.003 3.02.414.312.414.832.103 1.353-.414.52-.931.937-1.656.624-1.759-.833-3.518-1.665-5.278-2.602-.62-.313-.724-.833-.517-1.458.103-.624.517-.937 1.345-.937z" fill="#985EA4"/><path d="M81.55 44.348c-1.035 0-2.07.105-3.001 0-.725-.104-1.139-.624-1.035-1.353 0-.625.414-1.041 1.035-1.041h6.313c.724 0 1.138.52 1.138 1.25 0 .728-.414 1.144-1.138 1.248-1.139-.104-2.277-.104-3.312-.104z" fill="#D05A9E"/><path d="M4.347 44.348H1.553c-.828 0-1.45-.416-1.45-1.249-.103-.833.622-1.25 1.346-1.25h5.692c.724 0 1.449.313 1.449 1.25 0 1.041-.725 1.354-1.553 1.354-1.034-.105-1.862-.105-2.69-.105z" fill="#985EA4"/><path d="M50.09 97.65c-.518.728-5.486 5.101-7.452 5.205-1.242.104-5.278-4.58-5.795-5.414" fill="#000"/></g><defs><clipPath id="clip0"><path fill="#fff" d="M0 0h86v104H0z"/></clipPath></defs></svg>