<svg width="98" height="99" fill="none" xmlns="http://www.w3.org/2000/svg"><path d="M49.363 33.242l3.992 7.978c.242.483.606.725 1.09.846l8.831 1.33c1.21.12 1.694 1.692.847 2.538l-6.412 6.286c-.363.362-.484.846-.484 1.33l1.573 8.824c.242 1.208-1.089 2.175-2.178 1.571l-7.864-4.11a1.544 1.544 0 00-1.452 0l-7.864 4.11c-1.089.604-2.42-.363-2.178-1.571l1.573-8.825c.121-.483-.121-.967-.484-1.33l-6.533-6.285c-.847-.846-.363-2.418.847-2.538l8.832-1.33c.484-.121.968-.363 1.089-.846l3.992-7.978c.605-1.088 2.178-1.088 2.783 0z" stroke="#fff" stroke-width="1.32" stroke-miterlimit="10"/><path d="M48.758 39.165L51.178 44c.12.242.363.483.726.483l5.323.726c.726.12 1.09 1.088.484 1.571l-3.871 3.747c-.242.242-.363.484-.242.847l.968 5.318a.913.913 0 01-1.331.967l-4.84-2.538a1.034 1.034 0 00-.847 0l-4.84 2.538a.913.913 0 01-1.33-.967l.968-5.318c0-.242 0-.605-.242-.847l-3.872-3.747c-.605-.483-.242-1.45.484-1.571l5.324-.726c.242 0 .605-.241.726-.483l2.42-4.835c.241-.725 1.33-.725 1.572 0zM22.867 76.758c-5.082 0-9.075-4.11-9.075-9.066s4.114-9.066 9.075-9.066" fill="#985EA4"/><path d="M22.867 76.758c-5.082 0-9.075-4.11-9.075-9.066s4.114-9.066 9.075-9.066" stroke="#fff" stroke-width="1.65" stroke-miterlimit="10"/><path d="M19.479 51.615a3.386 3.386 0 003.388-3.384 3.386 3.386 0 00-3.388-3.385 3.386 3.386 0 00-3.388 3.385 3.386 3.386 0 003.388 3.384z" fill="#FF5985" stroke="#fff" stroke-width="1.32" stroke-miterlimit="10"/><path d="M22.867 76.758c0 1.209.968 2.297 2.299 2.297h4.597c1.21 0 2.299-.967 2.299-2.297V58.505a2.296 2.296 0 00-2.299-2.296h-4.598c-1.21 0-2.298.967-2.298 2.296v18.253z" fill="#FF5985" stroke="#fff" stroke-width="1.65" stroke-miterlimit="10"/><path d="M75.375 76.758c5.082 0 9.074-4.11 9.074-9.066s-4.114-9.066-9.074-9.066" fill="#985EA4"/><path d="M75.375 76.758c5.082 0 9.074-4.11 9.074-9.066s-4.114-9.066-9.074-9.066" stroke="#fff" stroke-width="1.65" stroke-miterlimit="10"/><path d="M48.032 67.571h2.178m-6.775 0h2.298m6.775 0h2.3m1.088 15.956a2.296 2.296 0 01-2.299 2.297h-6.896c-1.21 0-2.299-.967-2.299-2.297V82.44c0-1.208.968-2.296 2.3-2.296h6.895c1.21 0 2.3.967 2.3 2.296v1.088z" stroke="#fff" stroke-width="1.883" stroke-miterlimit="10" stroke-linejoin="round"/><path d="M53.718 85.824h18.27a3.38 3.38 0 003.387-3.385v-5.68M18.39 51.615l-2.299 3.506v6.769" stroke="#fff" stroke-width="1.883" stroke-miterlimit="10" stroke-linejoin="round"/><path d="M78.763 51.615a3.386 3.386 0 003.387-3.384 3.386 3.386 0 00-3.387-3.385 3.386 3.386 0 00-3.388 3.385 3.386 3.386 0 003.388 3.384z" fill="#FF5985" stroke="#fff" stroke-width="1.32" stroke-miterlimit="10"/><path d="M75.375 76.758a2.296 2.296 0 01-2.299 2.297H68.48c-1.21 0-2.299-.967-2.299-2.297V58.505c0-1.208.968-2.296 2.299-2.296h4.597c1.21 0 2.3.967 2.3 2.296v18.253z" fill="#FF5985" stroke="#fff" stroke-width="1.65" stroke-miterlimit="10"/><path d="M79.852 51.615l2.298 3.506v6.769M19.479 44.846c0-16.319 13.309-29.615 29.642-29.615s29.642 13.296 29.642 29.615" stroke="#fff" stroke-width="1.883" stroke-miterlimit="10" stroke-linejoin="round"/><path d="M65.454 3.385a1.693 1.693 0 10.002-3.386 1.693 1.693 0 00-.002 3.386zm6.654 3.022a1.693 1.693 0 10.002-3.387 1.693 1.693 0 00-.002 3.387zm6.534 4.11a1.693 1.693 0 10.001-3.387 1.693 1.693 0 00-.001 3.387zm5.444 5.318a1.693 1.693 0 10.002-3.386 1.693 1.693 0 00-.002 3.386zm4.719 5.923a1.693 1.693 0 10.001-3.386 1.693 1.693 0 00-.001 3.386zm3.75 6.769a1.693 1.693 0 10.002-3.386 1.693 1.693 0 00-.002 3.386z" fill="#FF5985"/><path opacity=".5" d="M94.975 35.418a1.33 1.33 0 10.001-2.661 1.33 1.33 0 00-.001 2.66z" fill="#FF5985"/><path opacity=".25" d="M96.669 42.67a1.33 1.33 0 10.001-2.66 1.33 1.33 0 00-.001 2.66z" fill="#FF5985"/><path d="M36.538 98.88a1.693 1.693 0 10.002-3.387 1.693 1.693 0 00-.002 3.386zm-7.017-2.176a1.693 1.693 0 10.001-3.387 1.693 1.693 0 00-.001 3.387zm-6.896-3.506a1.693 1.693 0 10.001-3.386 1.693 1.693 0 00-.002 3.386zm-5.929-4.714a1.693 1.693 0 10.002-3.387 1.693 1.693 0 00-.002 3.387zm-5.444-5.44a1.693 1.693 0 10.002-3.386 1.693 1.693 0 00-.002 3.386zm-4.356-6.286a1.693 1.693 0 10.002-3.386 1.693 1.693 0 00-.002 3.386z" fill="#FF5985"/><path opacity=".5" d="M3.75 69.505a1.33 1.33 0 10.002-2.66 1.33 1.33 0 00-.001 2.66z" fill="#FF5985"/><path opacity=".25" d="M1.33 62.374a1.33 1.33 0 10.002-2.66 1.33 1.33 0 00-.001 2.66z" fill="#FF5985"/></svg>