<svg width="113" height="112" fill="none" xmlns="http://www.w3.org/2000/svg"><g clip-path="url(#clip0)"><path d="M63.8 82.6v5.9c0 2.6.7 4.9 3.3 6.1 2.9 1.3 5.6.9 8-1.1 1-.8 1.8-1.9 2.8-2.7 4.8-4 10.5-2.6 13 3.1.3.8.6 1.7 1 2.5 1.3 2.5 3.3 3.3 5.9 2.3 2.7-1.1 5.4-1.7 8.3-1.4 3.6.3 6.2 3.3 6 7.1-.1 3.9-2.7 6.7-6.3 6.7-9.7.1-19.4 0-29.1 0-23.2 0-46.4-.1-69.6.1-5.7 0-8.1-5.7-6.6-9.5 1.1-2.7 3-4.2 5.9-4.4 2.6-.2 5 .2 7.4 1.2 3.6 1.5 5.6.6 7.1-3.1.2-.4.3-.8.4-1.2 2.3-5.9 7.9-7.4 12.9-3.5 1 .8 1.8 1.9 2.8 2.7 2.4 2.1 5.1 2.5 8 1.4 2.8-1.1 3.5-3.5 3.5-6.2.1-2 0-3.9 0-5.9 2.1-1.4 13-1.4 15.3-.1z" fill="#FF5985"/><path d="M63.8 82.6H48.4c-1.2 0-2.4-.1-3.7-.1-2.6-.1-3.1-.8-2-3.1.3-.7.7-1.3 1-2-.6-.6-1.3-.3-1.9-.3H21.2c-2.6 0-2.9-.4-2.4-2.9l1.2-6c.7-2.9 2.2-4.8 5.5-5.5 8.2-1.6 13.7-6.4 15.7-14.6.9-3.5.5-7.3.9-10.9 1.1-11.8 4.5-23 9.5-33.7 1-2.1 2.6-3.3 5-3.3 2.4.1 3.9 1.4 4.9 3.5 5.5 12.7 8.9 26 8.9 39.8 0 8.6 6.5 17.4 15.5 18.9 3.8.6 5.7 2.7 6.3 6.4.3 1.8.7 3.5 1.1 5.3.5 2.4.2 2.9-2.4 2.9H68.2c0 .3-.1.4 0 .4 1.9 4.7 1.7 4.9-3.2 5-.4.1-.8.1-1.2.2z" fill="#000"/><path d="M97.7 95.3c-1.6-.2-2.7-1.1-2.7-2.8-.1-1.9 1.1-3 2.8-3 1.6 0 2.8 1.1 2.8 2.8.1 1.8-1 2.8-2.9 3z" fill="#985EA4"/><path d="M60.4 84.6c2.2-.1 1.1 1 1.3 3.5.3 3.7.8 7.2 4.9 8.7.7.2 1.1.8.8 1.6-.3.8-1 1-1.8.8-2-.4-3.3-1.7-4.4-3.3-1.5-2.3-2.9-11.2-.8-11.3z" fill="#FCFEFD"/><path d="M83.3 90.9c2.6.1 5.5 2.5 5.8 4.9.1.8-.1 1.5-.9 1.8-.7.2-1.3-.2-1.5-.9-.6-1.9-1.8-3-3.9-3.2-.8-.1-1.5-.5-1.3-1.4.2-1 1-1.3 1.8-1.2z" fill="#F8FEFC"/><path d="M32.2 92.3c-.2.9-.8 1.2-1.6 1.1-1.9-.3-3.3.3-4.4 1.8-.5.7-1.1 1.3-2 .6-.9-.7-.5-1.4-.1-2.2 1.2-2.2 4.3-3.5 6.7-2.8.8.3 1.3.6 1.4 1.5z" fill="#F9FEFC"/><path d="M70.1 99.2c-.8 0-1.2-.5-1.2-1.2 0-.6.4-1.1 1-1.1.8-.1 1.2.5 1.2 1.2 0 .6-.3 1-1 1.1zm-61.9 1.7c-.7-.1-1.3-.4-1.3-1.2 0-.7.4-1.1 1.1-1.1.8-.1 1.3.3 1.3 1.1 0 .7-.5 1-1.1 1.2z" fill="#F2FDFA"/><path d="M104.4 100.7c0 .7-.4 1-1.1 1-.6 0-1.1-.3-1.2-1 0-.8.5-1.2 1.2-1.1.8 0 1.1.4 1.1 1.1z" fill="#F1FDF9"/><path d="M68 54.9v17.6c0 1.3-.3 1.8-1.7 1.8-6.9-.1-13.7 0-20.6 0-1 0-1.7-.1-1.6-1.4.3-13-.7-25.9 1-38.9.7-5.3 2-10.5 3.5-15.7.4-1.5 1.1-1.9 2.6-1.8 3.3.1 6.5.2 9.8 0 2.2-.2 2.7.8 3.2 2.6 3.1 11.2 4.1 22.6 3.9 34.1-.1.6-.1 1.1-.1 1.7zm2.6.5c4.2 5.5 9.4 8.9 16.1 10 1.2.2 2.1 1 2.4 2.2.5 2.1 1.7 4.6 1.1 6.3-.2.6-3.6.3-5.5.4-4.2.1-8.3 0-12.5 0-1 0-1.7 0-1.7-1.4.1-5.8.1-11.7.1-17.5zm-29 0v17.4c0 1.1-.3 1.6-1.5 1.6-5.7-.1-11.4 0-17.1 0-1 0-1.6-.1-1.2-1.4.2-.6.3-1.3.4-1.9.3-3.7 2-5.6 6-6.3 5.6-1.2 9.8-4.8 13.4-9.4z" fill="#FEFEFE"/><path d="M62.6 13.9H50.4c1-3.5 2.4-6.7 4.1-9.7 1-1.9 3.5-1.6 4.5.4.6 1.1 1 2.4 1.5 3.7.7 1.7 1.3 3.5 2.1 5.6z" fill="#985EA4"/><path d="M45.7 79.8c.6-2.4 2-2.9 4.1-2.9 4.2.2 8.5.2 12.7 0 2.1-.1 3.1.7 3.6 2.7-.3.1-.5.2-.7.2H45.7z" fill="#F4F4F4"/><path d="M18.1 29.1v8.3" stroke="#fff" stroke-width="1.96" stroke-miterlimit="10"/><path d="M18.1 30.1a1 1 0 100-2 1 1 0 000 2zm0 8.3a1 1 0 100-2 1 1 0 000 2z" fill="#fff"/><path d="M13.9 33.3h8.3" stroke="#fff" stroke-width="1.96" stroke-miterlimit="10"/><path d="M13.9 34.3a1 1 0 100-2 1 1 0 000 2zm8.3 0a1 1 0 100-2 1 1 0 000 2z" fill="#fff"/><path d="M84.7 2.1v8.3" stroke="#fff" stroke-width="1.96" stroke-miterlimit="10"/><path d="M84.7 3.1a1 1 0 100-2 1 1 0 000 2zm0 8.3a1 1 0 100-2 1 1 0 000 2z" fill="#fff"/><path d="M80.5 6.2h8.3" stroke="#fff" stroke-width="1.96" stroke-miterlimit="10"/><path d="M80.5 7.2a1 1 0 100-2 1 1 0 000 2zm8.3 0a1 1 0 100-2 1 1 0 000 2z" fill="#fff"/><path d="M33.4 16.8a1.2 1.2 0 100-2.4 1.2 1.2 0 000 2.4zm46.5 7.1a1.2 1.2 0 100-2.4 1.2 1.2 0 000 2.4zM56.3 44.4a5.9 5.9 0 100-11.8 5.9 5.9 0 000 11.8z" fill="#FF5985"/><path d="M52.7 38.5c0-.1-.3-1.7.9-2.8 1-1 2.2-.9 2.4-.9" stroke="#fff" stroke-width="1.159" stroke-miterlimit="10"/><path d="M52.7 39.1a.6.6 0 100-1.2.6.6 0 000 1.2zm3.2-3.7a.6.6 0 100-1.2.6.6 0 000 1.2zm-2.5 5.5a.6.6 0 100-1.2.6.6 0 000 1.2z" fill="#fff"/><path d="M53.8 54.2a1.2 1.2 0 100-2.4 1.2 1.2 0 000 2.4zm4.9 0a1.2 1.2 0 100-2.4 1.2 1.2 0 000 2.4zm-4.9 4a1.2 1.2 0 100-2.4 1.2 1.2 0 000 2.4zm4.9 0a1.2 1.2 0 100-2.4 1.2 1.2 0 000 2.4zm-4.9 4a1.2 1.2 0 100-2.4 1.2 1.2 0 000 2.4zm4.9 0a1.2 1.2 0 100-2.4 1.2 1.2 0 000 2.4zm-4.9 3.9a1.2 1.2 0 100-2.4 1.2 1.2 0 000 2.4zm4.9 0a1.2 1.2 0 100-2.4 1.2 1.2 0 000 2.4z" fill="#FF5985"/></g><defs><clipPath id="clip0"><path fill="#fff" d="M0 0h112.1v111.1H0z"/></clipPath></defs></svg>