<svg width="99" height="99" fill="none" xmlns="http://www.w3.org/2000/svg"><g clip-path="url(#clip0)"><path d="M77.06 89.413v-.268h11.06c.802 0 1.515-.717 1.515-1.523v-11.11c4.638-.09 8.295-3.315 8.295-7.436 0-4.032-3.746-7.347-8.295-7.436V50.62c0-.806-.713-1.523-1.516-1.523H77.06c-.089-4.57-3.389-8.243-7.313-8.243-4.013 0-7.224 3.674-7.313 8.243h-11.06c-.803 0-1.516.716-1.516 1.523v11.378c4.638 0 8.473 3.315 8.473 7.436 0 4.122-3.746 7.437-8.473 7.437v10.75c0 .807.713 1.524 1.516 1.524h11.06v.269c0 4.658 3.3 8.51 7.402 8.51 3.925 0 7.225-3.762 7.225-8.51z" fill="#FF5985"/><path d="M89.546 22.04h-.268V10.93c0-.806-.713-1.523-1.516-1.523h-11.06c-.088-4.659-3.3-8.332-7.402-8.332-4.013 0-7.313 3.763-7.402 8.332h-10.97c-.803 0-1.517.717-1.517 1.523v11.11c-4.549.09-8.205 3.404-8.205 7.346 0 4.032 3.656 7.257 8.205 7.347v11.11c0 .806.713 1.523 1.516 1.523h11.327c0-4.66 3.3-8.512 7.403-8.512s7.403 3.763 7.403 8.512h10.702c.803 0 1.516-.717 1.516-1.523v-11.02h.268c4.638 0 8.473-3.315 8.473-7.437 0-4.031-3.835-7.346-8.473-7.346z" fill="#FEFEFE" stroke="#000" stroke-width="2.353" stroke-miterlimit="10"/><path d="M84.195 15.141h-3.3c-.535 0-.981-.18-1.07-.717 0-.627.446-.806.98-.806h4.014c.625 0 1.07.358 1.07 1.075v3.584c0 .537-.178.985-.802 1.075-.714 0-.803-.538-.803-1.075v-2.15c.09-.359.09-.717-.089-.986zm-6.6 0a.805.805 0 00.802-.806.805.805 0 00-.802-.807.805.805 0 00-.803.807c0 .445.36.806.803.806z" fill="#D05A9E"/><path d="M85.444 55.995h-3.301c-.535 0-.98-.179-1.07-.716 0-.628.446-.807.981-.807h4.014c.624 0 1.07.359 1.07 1.075v3.584c0 .538-.178.986-.803 1.075-.713 0-.802-.537-.802-1.075v-2.15c.089-.448.178-.717-.09-.986zm-6.601 0a.804.804 0 00.803-.806.804.804 0 00-.803-.806.805.805 0 00-.803.806c0 .446.36.806.803.806z" fill="#FBFEFD"/><path d="M9.543 76.96h.268v11.11c0 .806.713 1.523 1.516 1.523h11.06c.089 4.659 3.3 8.332 7.402 8.332 4.103 0 7.314-3.763 7.403-8.332h11.06c.802 0 1.516-.717 1.516-1.523V76.96c4.548-.09 8.205-3.404 8.205-7.346 0-4.032-3.657-7.257-8.205-7.347v-11.2c0-.806-.714-1.522-1.517-1.522H36.835c0 4.659-3.3 8.511-7.402 8.511-4.103 0-7.403-3.763-7.403-8.511H11.327c-.803 0-1.516.716-1.516 1.523v11.11h-.268c-4.638 0-8.473 3.314-8.473 7.436 0 4.031 3.746 7.346 8.473 7.346z" fill="#FEFEFE" stroke="#000" stroke-width="2.353" stroke-miterlimit="10"/><path d="M14.895 83.77h3.3c.535 0 .98.178 1.07.716 0 .627-.446.806-.981.806h-4.013c-.625 0-1.07-.358-1.07-1.075v-3.584c0-.537.178-.985.802-1.075.713 0 .803.538.803 1.075v2.15c-.09.449-.179.717.089.986zm6.51 1.612a.805.805 0 00.803-.806.804.804 0 00-.803-.807.805.805 0 00-.803.807c0 .445.36.806.803.806z" fill="#985EA4"/><path d="M40.046 10.482H33.98c-.535 0-1.07-.448-1.07-1.075 0-.537.446-1.075 1.07-1.075h6.065c.535 0 1.07.448 1.07 1.075s-.535 1.075-1.07 1.075zm-10.613 0h-6.065c-.535 0-1.07-.448-1.07-1.075 0-.537.445-1.075 1.07-1.075h6.065c.535 0 1.07.448 1.07 1.075s-.446 1.075-1.07 1.075zm-10.614 0h-1.784c-.535 0-1.07-.448-1.07-1.075 0-.537.446-1.075 1.07-1.075h1.784c.535 0 1.07.448 1.07 1.075s-.446 1.075-1.07 1.075zm26.935 0h-1.16c-.535 0-1.07-.448-1.07-1.075 0-.537.446-1.075 1.07-1.075h1.16c.535 0 1.07.448 1.07 1.075s-.445 1.075-1.07 1.075zM8.74 40.765v-6.093c0-.537.447-1.075 1.071-1.075.535 0 1.07.448 1.07 1.075v6.093c0 .537-.446 1.075-1.07 1.075-.535 0-1.07-.538-1.07-1.075zm0-10.662v-6.092c0-.538.447-1.075 1.071-1.075.535 0 1.07.448 1.07 1.075v6.092c0 .538-.446 1.075-1.07 1.075-.535 0-1.07-.537-1.07-1.075zm0-10.661V17.56c0-.537.447-1.075 1.071-1.075.535 0 1.07.448 1.07 1.075v1.882c0 .537-.446 1.075-1.07 1.075-.535 0-1.07-.538-1.07-1.075zm0 27.057v-1.165c0-.538.447-1.075 1.071-1.075.535 0 1.07.448 1.07 1.075v1.165c0 .537-.446 1.075-1.07 1.075-.535 0-1.07-.448-1.07-1.075zm3.835-38.077H9.633c-.178 0-.356.179-.535.268-.089.09-.089.09-.089.18-.09.179-.178.358-.178.627V12.9c0 .448.267.896.802 1.075.714.18 1.338-.358 1.338-.985v-1.702c0-.359.357-.717.714-.717h1.07c.624 0 1.16-.627.981-1.344-.268-.538-.713-.806-1.16-.806z" fill="#FF5985"/></g><defs><clipPath id="clip0"><path fill="#fff" d="M0 0h99v99H0z"/></clipPath></defs></svg>