<svg width="116" height="69" fill="none" xmlns="http://www.w3.org/2000/svg"><g clip-path="url(#clip0)"><path d="M.9 3.6v50.5c0 1.5 1.2 2.7 2.7 2.7h78.8c1.5 0 2.7-1.2 2.7-2.7V3.6c0-1.5-1.2-2.7-2.7-2.7H3.6C2.1.9.9 2.1.9 3.6z" fill="#FEFEFE" stroke="#000" stroke-width="1.798" stroke-miterlimit="10"/><path d="M22.3 8.2h-10c-.5 0-.9-.4-.9-.9s.4-.9.9-.9h10c.5 0 .9.4.9.9-.1.5-.5.9-.9.9z" fill="#FF5985"/><path d="M54.3 8.2H31c-.5 0-.9-.4-.9-.9s.4-.9.9-.9h23.3c.5 0 .9.4.9.9s-.4.9-.9.9z" fill="#985EA4"/><path d="M69.9 8.2H58.6c-.5 0-.9-.4-.9-.9s.4-.9.9-.9h11.2c.5 0 .9.4.9.9.1.5-.4.9-.8.9z" fill="#FF5985"/><path d="M86 8.2H75.7c-.5 0-.9-.4-.9-.9s.4-.9.9-.9H86c.5 0 .9.4.9.9s-.4.9-.9.9z" fill="#D05A9E"/><path d="M99.3 8.2h-5.4c-.5 0-.9-.4-.9-.9s.4-.9.9-.9h5.4c.5 0 .9.4.9.9s-.4.9-.9.9z" fill="#FF5985"/><path d="M113 8.2h-9.4c-.5 0-.9-.4-.9-.9s.4-.9.9-.9h9.4c.5 0 .9.4.9.9s-.4.9-.9.9z" fill="#985EA4"/><path d="M16.3 12.5h-4c-.5 0-.9-.4-.9-.9s.4-.9.9-.9h4c.5 0 .9.4.9.9s-.4.9-.9.9z" fill="#FF5985"/><path d="M22.3 12.5h-1.9c-.5 0-.9-.4-.9-.9s.4-.9.9-.9h1.9c.5 0 .9.4.9.9-.1.5-.5.9-.9.9z" fill="#D05A9E"/><path d="M27.6 12.5h-1.9c-.5 0-.9-.4-.9-.9s.4-.9.9-.9h1.9c.5 0 .9.4.9.9s-.4.9-.9.9zm13.3 0H31c-.5 0-.9-.4-.9-.9s.4-.9.9-.9h9.9c.5 0 .9.4.9.9s-.4.9-.9.9zm22 0H53c-.5 0-.9-.4-.9-.9s.4-.9.9-.9h9.9c.5 0 .9.4.9.9s-.4.9-.9.9z" fill="#FF5985"/><path d="M69.9 12.5h-3.2c-.5 0-.9-.4-.9-.9s.4-.9.9-.9h3.2c.5 0 .9.4.9.9s-.5.9-.9.9z" fill="#D05A9E"/><path d="M89.3 12.5h-9.6c-.5 0-.9-.4-.9-.9s.4-.9.9-.9h9.6c.5 0 .9.4.9.9s-.5.9-.9.9z" fill="#985EA4"/><path d="M27.3 16.6h-9.8c-.5 0-.9-.4-.9-.9s.4-.9.9-.9h9.8c.5 0 .9.4.9.9s-.4.9-.9.9z" fill="#FF5985"/><path d="M35.6 16.6H31c-.5 0-.9-.4-.9-.9s.4-.9.9-.9h4.6c.5 0 .9.4.9.9s-.4.9-.9.9z" fill="#985EA4"/><path d="M39.6 16.6c-.5 0-.8-.4-.8-.8v-.1c0-.5.4-.8.8-.8.5 0 .8.4.8.8v.1c0 .4-.3.8-.8.8z" fill="#D05A9E"/><path d="M53.3 16.6h-9.9c-.5 0-.9-.4-.9-.9s.4-.9.9-.9h9.9c.5 0 .9.4.9.9s-.4.9-.9.9z" fill="#FF5985"/><path d="M61.5 16.6h-4.4c-.5 0-.9-.4-.9-.9s.4-.9.9-.9h4.4c.5 0 .9.4.9.9s-.4.9-.9.9z" fill="#985EA4"/><path d="M67.4 16.6H65c-.5 0-.9-.4-.9-.9s.4-.9.9-.9h2.3c.5 0 .9.4.9.9.1.5-.4.9-.8.9zm17 0h-9.7c-.5 0-.9-.4-.9-.9s.4-.9.9-.9h9.7c.5 0 .9.4.9.9s-.4.9-.9.9z" fill="#FF5985"/><path d="M100.7 16.6h-5.4c-.5 0-.9-.4-.9-.9s.4-.9.9-.9h5.4c.5 0 .9.4.9.9s-.4.9-.9.9z" fill="#985EA4"/><path d="M114.4 16.6H105c-.5 0-.9-.4-.9-.9s.4-.9.9-.9h9.4c.5 0 .9.4.9.9s-.4.9-.9.9z" fill="#D05A9E"/><path d="M84.2 53.4H1.8v2.7h82.4v-2.7z" fill="#000"/><path d="M44.312 62.9V55h-2.7v7.9h2.7zm-9.5 1.708h16.3v-1.7h-16.3v1.7z" fill="#000"/><path d="M52.6 35.6v28.6h47V35.6c0-1.4-1.2-2.6-2.6-2.6H55.2c-1.4 0-2.6 1.1-2.6 2.6z" fill="#FEFEFE" stroke="#000" stroke-width="1.442" stroke-miterlimit="10"/><path d="M45.4 65.2v1.6c0 .6.5 1.1 1.1 1.1h59c.6 0 1.1-.5 1.1-1.1v-1.6c0-.6-.5-1.1-1.1-1.1h-59c-.6 0-1.1.5-1.1 1.1z" fill="#FEFEFE" stroke="#000" stroke-width="1.442" stroke-miterlimit="10"/><path d="M94.9 40H57.4v10.1h37.5V40z" fill="#FF5985"/><path d="M74.7 53.1H57.4v8.6h17.3v-8.6z" fill="#D05A9E"/><path d="M94.8 53H77.5v8.6h17.3V53z" fill="#985EA4"/><path d="M84.8 35.7H57.4v1.5h27.4v-1.5zm4.4 0h-1.5v1.5h1.5v-1.5zm2.8 0h-1.5v1.5H92v-1.5zm2.9 0h-1.5v1.5h1.5v-1.5z" fill="#D05A9E"/></g><defs><clipPath id="clip0"><path fill="#fff" d="M0 0h115.3v68.6H0z"/></clipPath></defs></svg>