<svg width="69" height="110" fill="none" xmlns="http://www.w3.org/2000/svg"><g clip-path="url(#clip0)"><path d="M34.936 41.213c4.812 0 8.713-1.293 8.713-2.887 0-1.595-3.9-2.887-8.713-2.887-4.812 0-8.712 1.292-8.712 2.887 0 1.594 3.9 2.887 8.712 2.887z" stroke="#fff" stroke-width="1.65" stroke-miterlimit="10"/><path d="M31.931 69.484a.799.799 0 00.802-.796.799.799 0 00-.801-.797.799.799 0 00-.802.797.8.8 0 00.802.796zm-.801 1.294l-3.104 3.385a.79.79 0 01-1.102 0 .778.778 0 010-1.095l3.105-3.385a.79.79 0 011.102 0c.3.2.3.697 0 1.095zm-4.907 5.177l-.901.896a.79.79 0 01-1.102 0 .778.778 0 010-1.095l.902-.896a.79.79 0 011.101 0c.3.298.3.796 0 1.095z" fill="#fff"/><path d="M58.971 83.819L43.55 67.493V38.027" stroke="#fff" stroke-width="1.65" stroke-miterlimit="10"/><path d="M58.971 84.615a.799.799 0 00.801-.796.799.799 0 00-.8-.796.799.799 0 00-.802.796c0 .44.359.796.801.796z" fill="#fff"/><path d="M10.801 83.819l15.423-16.326V38.027" stroke="#fff" stroke-width="1.65" stroke-miterlimit="10"/><path d="M10.801 84.615a.799.799 0 00.801-.796.799.799 0 00-.8-.796.799.799 0 00-.802.796c0 .44.359.796.801.796z" fill="#fff"/><path d="M29.148 93.575c4.406-2.29 8.112-3.883 11.016-5.077 2.503-.996 4.506-1.792 7.01-2.39 3.205-.796 5.508-.895 7.711-.796 2.904.2 4.106.996 4.507 1.195 1.402.896 2.103 2.09 2.704 3.185.901 1.593 2.103 3.684 1.702 5.077-1.101 3.683-13.019 3.982-22.032 2.39-5.408-.797-9.714-2.29-12.618-3.584z" fill="#D05A9E"/><path d="M.006 104.923c.8 4.679 49.772 7.765 67.498 1.692.9-.298 1.301-1.095 1.402-2.09.2-1.792-4.607-16.326-7.912-15.43-.901.299-.801 1.294-2.003 2.887-2.503 3.385-6.81 3.185-8.312 3.185-8.412.299-11.917-6.769-23.935-9.855-1.301-.299-3.004-.697-5.307-.697-5.208 0-9.113 2.19-10.415 2.987-1.603.995-3.505 2.09-5.108 4.28C4.913 93.575-.195 103.33.006 104.923z" fill="#FF5985"/><path d="M12.118 93.077a.799.799 0 00.8-.796.799.799 0 00-.8-.797.799.799 0 00-.802.797.8.8 0 00.802.796zm-.301 1.393l-3.605 6.571c-.2.398-.7.497-1.101.298s-.501-.696-.3-1.095l3.604-6.57c.2-.398.701-.498 1.102-.299.4.3.5.797.3 1.096z" fill="#fff"/><path d="M21.828 26.346c1.755-4.217-.26-9.053-4.5-10.801-4.24-1.749-9.1.252-10.855 4.469-1.755 4.217.26 9.053 4.5 10.801 4.24 1.749 9.1-.252 10.855-4.47z" fill="#FF5985"/><path d="M9.013 23.195c0-.2-.4-2.39 1.202-3.883 1.402-1.393 3.104-1.294 3.405-1.294" stroke="#fff" stroke-width="1.65" stroke-miterlimit="10"/><path d="M9.013 23.991a.799.799 0 00.801-.796.799.799 0 00-.8-.797.799.799 0 00-.802.797c0 .44.359.796.801.796zm4.607-5.177a.799.799 0 00.801-.796.799.799 0 00-.801-.796.799.799 0 00-.801.796c0 .44.358.796.801.796zm-3.505 7.766a.799.799 0 00.8-.797.799.799 0 00-.8-.797.799.799 0 00-.802.797.8.8 0 00.802.796z" fill="#fff"/><path d="M40.258 12.742c3.54 0 6.41-2.852 6.41-6.371 0-3.519-2.87-6.371-6.41-6.371S33.85 2.852 33.85 6.371c0 3.519 2.87 6.371 6.41 6.371z" fill="#D05A9E"/><path d="M36.152 7.367c0-.2-.4-2.39 1.202-3.883C38.756 2.09 40.46 2.19 40.76 2.19" stroke="#fff" stroke-width="1.65" stroke-miterlimit="10"/><path d="M36.152 8.163a.799.799 0 00.801-.796.799.799 0 00-.8-.797.799.799 0 00-.802.797c0 .44.359.796.801.796zm4.608-5.177a.799.799 0 00.8-.796.799.799 0 00-.8-.796.799.799 0 00-.802.796c0 .44.359.796.801.796z" fill="#fff"/><path d="M52.176 33.448c3.927 0 7.11-3.164 7.11-7.068 0-3.903-3.183-7.068-7.11-7.068-3.927 0-7.11 3.165-7.11 7.068 0 3.904 3.183 7.068 7.11 7.068z" fill="#985EA4"/><path d="M47.669 26.977c0-.199-.4-2.389 1.202-3.882 1.402-1.394 3.104-1.294 3.405-1.294" stroke="#fff" stroke-width="1.65" stroke-miterlimit="10"/><path d="M47.67 27.774a.799.799 0 00.8-.797.799.799 0 00-.8-.796.799.799 0 00-.802.796.8.8 0 00.801.797zm4.506-5.177a.799.799 0 00.8-.796.799.799 0 00-.8-.796.799.799 0 00-.802.796.8.8 0 00.802.796zm-3.506 7.765a.799.799 0 00.802-.796.799.799 0 00-.801-.797.799.799 0 00-.801.797c0 .44.358.796.8.796z" fill="#fff"/></g><defs><clipPath id="clip0"><path fill="#fff" d="M0 0h69v110H0z"/></clipPath></defs></svg>