<svg width="32" height="32" fill="none" xmlns="http://www.w3.org/2000/svg"><rect width="32" height="32" rx="16" fill="#fff" fill-opacity=".3"/><mask id="a" maskUnits="userSpaceOnUse" x="8" y="9" width="16" height="14"><path d="M24 11.098a6.356 6.356 0 01-1.885.536A3.395 3.395 0 0023.56 9.75a6.417 6.417 0 01-2.086.825A3.22 3.22 0 0019.077 9.5c-1.812 0-3.281 1.526-3.281 3.408 0 .267.028.527.084.776-2.728-.142-5.146-1.498-6.766-3.562a3.504 3.504 0 00-.444 1.715c0 1.182.58 2.225 1.46 2.837a3.192 3.192 0 01-1.488-.425v.042c0 1.651 1.132 3.03 2.635 3.341a3.157 3.157 0 01-1.483.06c.418 1.353 1.63 2.339 3.066 2.365A6.432 6.432 0 018 21.47 9.06 9.06 0 0013.032 23c6.038 0 9.34-5.192 9.34-9.696 0-.148-.003-.297-.009-.442A6.789 6.789 0 0024 11.098z" fill="#fff"/></mask><g mask="url(#a)" fill="#fff"><path d="M8 8h16v16H8z"/><path d="M8 8h16v16H8z"/></g></svg>