<svg width="53" height="53" viewBox="0 0 53 53" fill="none" xmlns="http://www.w3.org/2000/svg">
<path fill-rule="evenodd" clip-rule="evenodd" d="M5.68609 37.0241C5.73814 37.5946 5.42526 38.2602 4.92958 38.5771C4.59055 38.7674 4.19933 38.8942 3.80801 38.7674C3.15596 38.5139 2.68654 37.7531 2.63437 36.9289C2.71257 36.7388 2.58217 36.39 2.81694 36.295L5.68609 37.0241ZM50.1571 34.9003C50.2352 35.6927 50.0003 36.4535 49.4267 36.8973C49.0877 37.0874 48.6704 37.2459 48.2789 37.1192C47.7834 36.8973 47.2096 36.3266 47.1836 35.6611V35.5026C48.2008 35.3757 49.1399 35.0588 50.1571 34.9003ZM35.8637 11.6653L37.1155 11.3164V12.7432L35.8896 13.1551V16.7054L34.7421 17.0539V10.6193L35.8637 10.2704V11.6653ZM0 53V3.0019e-05H53V53H0ZM28.0911 7.86142C26.3175 7.41759 24.8307 8.59039 23.6831 10.1755C22.9007 11.3164 22.6136 13.0917 23.1093 14.4866C23.5005 15.4054 24.2569 15.9445 25.0133 16.2297C26.9173 16.6101 28.6387 15.4373 29.6821 13.5037C30.3341 12.2994 30.4125 10.3657 29.6821 9.16103C29.2648 8.46358 28.6909 8.08316 28.0911 7.86142ZM5.00792 48.7207L7.56392 48.3087C7.56392 48.3087 7.2771 48.0551 6.7815 47.326C6.28591 46.5652 5.92074 45.1389 6.52071 43.7124C7.0945 42.2859 8.05964 41.4617 9.4419 41.2082L42.0974 36.5169L47.8097 39.1162V38.3872C47.8356 38.1335 48.0702 38.1651 48.2008 38.0383C48.8787 37.975 50.0787 37.7847 50.1309 38.4505V45.7411L52.3739 46.058V0.729365H46.1661L46.8706 9.0661C46.8706 9.0661 48.9571 33.7273 48.9831 34.0444C49.0093 34.4565 48.8787 34.6466 48.592 34.71C48.3052 34.7734 48.0702 34.6784 47.9659 34.4247L46.8444 28.6239L41.8887 26.2783L36.6984 32.2692V32.3326C38.0805 33.347 40.8456 35.4708 40.8456 35.4708L36.8546 36.1047L34.5856 34.5833L32.6556 36.7388C32.6556 36.7388 29.9952 37.2143 28.665 37.3093C29.8124 35.9146 31.1167 34.4565 32.3163 33.0934C30.5166 31.7938 28.6909 30.5893 26.8913 29.3213C26.0827 29.4798 25.2219 29.5749 24.4655 29.7968C25.3785 29.8602 26.1609 30.2723 26.9173 30.7477C28.0389 31.5402 29.1604 32.9032 28.9517 34.6466C28.7952 35.7878 28.117 36.9289 27.2303 37.5312C24.3611 37.9432 21.4921 38.5455 18.597 38.7674C17.8406 38.4188 16.9798 37.7531 16.6668 36.7388C16.1712 34.9954 16.9538 33.3787 17.9971 32.2059C17.2928 31.9206 16.5364 31.6671 15.8322 31.3501V33.4738L11.8937 34.2978V36.0731L15.5192 35.3757V37.4994L11.8937 38.1335V39.7501L9.38982 40.1305V33.3787L8.58126 32.9983L8.60729 31.6671L41.9671 24.5983L46.5054 26.8171L45.0708 19.2412C44.0274 18.5756 43.2189 18.1633 42.0974 17.5927L39.8543 21.8404V24.1864L38.133 24.5983V22.094L37.1417 20.731C36.4897 20.5408 35.4725 19.9702 34.8724 19.8118C35.2898 20.0021 35.9159 20.6357 36.0461 21.3017C36.1767 22.1255 35.8374 22.8864 35.2898 23.3302C35.8637 23.8056 37.0636 24.7885 37.0636 24.7885L35.0292 25.2005L33.3857 23.8375V25.6126L31.7687 25.9295V21.6502L30.4385 20.9846C30.4385 20.9846 30.4906 23.6472 30.4385 24.8834C30.3341 25.6126 30.1254 26.1198 29.7602 26.3733L27.5694 26.8489C27.0999 26.8171 26.839 26.2466 26.7087 25.4859C26.5783 24.3447 26.6565 22.8549 26.6304 22.094L25.9001 21.8404V23.3621L24.7785 23.6472V27.4511L23.4483 27.7364V23.9643L22.2746 24.2813L22.3007 23.2034L21.5965 22.9183L21.5704 28.1485L20.1358 28.4655L18.3882 26.3417V28.8775L17.058 29.1311L17.0842 24.5664L16.119 24.1545V25.359L14.4498 25.8345V26.8171L15.9886 26.4367V27.4194L14.476 27.8314L14.502 28.7507L16.1712 28.3703V29.3213L13.1195 30.0187V26.4367C12.7022 26.2783 12.4936 26.088 11.3721 25.8661C11.8937 26.0247 12.2067 26.183 12.3892 26.8489C12.0502 27.1341 11.7893 27.2926 11.4503 27.5779C11.2677 27.2926 10.9808 27.2291 10.6678 27.2609C10.407 27.4194 10.2243 27.6413 10.094 27.9583C9.96353 28.3069 10.0157 28.7825 10.1201 29.1311C10.2505 29.5115 10.5896 29.7016 10.9287 29.7016C11.2938 29.6383 11.5285 29.1311 11.6851 28.8141C12.0502 28.9726 12.3632 29.1627 12.7022 29.353C12.5196 29.8602 12.285 30.1137 11.9719 30.2723C11.3199 30.4624 10.407 30.6526 9.72885 30.7793C9.25931 30.4624 8.94643 29.8284 8.81591 29.2263C8.68551 28.2752 8.78988 27.2291 9.4419 26.5636C9.12891 26.3733 8.92028 26.2783 8.58126 26.1198V24.9787L34.6637 17.9101C37.1155 17.2441 42.0452 15.8811 42.0452 15.8811L44.6535 17.276L43.6363 12.0139C43.6363 12.0139 41.8628 11.0947 41.0802 10.6827C41.5235 10.9679 41.367 13.7888 41.3932 15.2156L40.2455 15.5641V12.0773C40.2455 12.0773 40.3239 11.7921 40.0368 11.6334C39.724 11.4751 39.4632 11.8555 39.3067 12.1091V15.8177L38.133 16.1348V9.38312C35.9159 8.21033 33.6987 7.00565 31.4557 5.86437C32.2382 6.72015 32.838 7.7665 33.0989 8.93929C33.8293 12.7747 32.1861 16.2297 29.6037 18.4488L24.7003 19.8434C23.2657 19.8118 21.8833 19.1459 20.9183 17.7195C19.7185 15.9127 19.5621 12.87 20.3184 10.7142C19.7967 10.3972 19.249 9.98528 18.7534 9.76318C20.9444 14.0109 16.8234 16.9271 15.0236 20.0655C16.4843 19.6216 19.4576 18.8608 19.4576 18.8608L19.4316 21.3017L9.59833 23.9643V22.5379L13.5892 17.0539C14.528 15.7224 15.5974 14.5181 16.3278 13.0598C16.406 12.616 16.3798 12.1091 16.0148 11.8236C15.6756 11.4751 15.1018 11.5385 14.6584 11.6019C13.7977 11.9189 12.8848 12.8381 12.8587 14.0109L9.65065 14.8986C9.96353 12.1725 11.7633 9.22443 13.9803 8.36866C16.4843 7.10057 19.275 9.63638 20.5271 10.2389L21.2052 8.844C22.9789 5.83285 25.6131 3.93073 28.7431 4.40644C30.5166 4.69157 35.4201 7.57592 38.1589 8.97082V6.27632L39.3067 6.02307L42.8537 7.98823L41.5235 0.729365H10.3288L5.94688 29.1945L5.00792 35.2807L4.82532 35.6611C4.69493 35.8195 4.46015 35.8828 4.27756 35.7878C4.09508 35.6927 3.88633 35.4392 3.91248 35.1538L4.98187 0.634069H0.625991L0.599966 49.5449L2.79092 49.1329V40.384C2.76477 39.8452 3.49514 39.7819 3.88633 39.7501C4.27756 39.7185 4.98187 39.7819 5.00792 40.384V48.7207ZM39.3067 6.37161V10.9997C39.3067 10.9997 39.2545 10.8726 39.6456 10.4291C40.063 10.0168 40.1933 10.0487 40.5326 10.0168L43.5582 11.6334L42.9059 8.33677L39.3067 6.37161ZM42.0715 37.9116L15.5714 41.3667L47.8097 45.4559V40.4791L42.0715 37.9116ZM37.585 18.9242L38.9674 20.7629L39.4891 19.78L37.585 18.9242ZM29.0299 22.0306L27.9867 21.6187C27.9867 21.6187 27.9605 24.8519 28.013 25.1371C28.0911 25.4223 28.3257 25.6126 28.5865 25.5491C28.8215 25.4541 28.978 25.1689 29.0299 24.9153V22.0306ZM33.8293 21.3017C33.5163 21.3332 33.3335 21.3651 33.3335 21.3651V22.6013C33.3335 22.6013 33.7509 22.5694 34.0899 22.411C34.4291 22.2524 34.4291 21.9357 34.4029 21.7455C34.4029 21.5868 34.2985 21.2383 33.8293 21.3017ZM18.31 23.7741L20.3184 26.4684V24.4715L18.31 23.7741ZM31.2992 28.3069L34.5072 30.6844L36.2026 28.8458L31.2992 28.3069ZM22.4049 32.301C21.1531 32.5862 19.6141 33.2519 19.3012 34.9954C19.3012 35.4392 19.5358 35.7878 19.8229 36.0096C21.3357 37.0241 23.4743 36.7388 24.8568 35.5658C25.3523 35.0904 25.8219 34.4247 25.6913 33.6323C25.0133 32.2376 23.6309 32.3326 22.4049 32.301ZM13.2239 41.9374C11.8155 41.8423 9.6245 41.8423 8.47689 42.7615C7.56392 43.5539 7.01627 44.6 7.2771 45.9947C7.45967 46.8189 8.13787 47.6113 8.76383 48.0235C9.28545 48.3405 9.85927 48.5624 10.4331 48.8158C7.01627 49.3864 4.04278 50.0205 0.599966 50.5276V52.271L52.3739 52.3027V47.1992L13.2239 41.9374Z" fill="#212529"/>
</svg>
