<svg width="53" height="53" viewBox="0 0 53 53" fill="none" xmlns="http://www.w3.org/2000/svg">
<path d="M48.7129 9.88966L45.0366 8.61293V6.16585L26.5024 0L7.9585 6.16585V8.61293L4.28197 9.88966V12.5292L0 14.0391C0.0439429 15.711 0.161123 17.3373 0.375953 18.9282C2.28014 33.4384 10.9906 44.7975 26.5024 53C42.0093 44.7975 50.7099 33.4384 52.6139 18.9282C52.8288 17.3373 52.9558 15.711 53 14.0391L48.7129 12.5292V9.88966ZM41.5552 8.29879V10.8675L45.4125 12.3317V14.8142L49.4014 16.324C49.3088 17.2005 49.1865 18.0669 49.0548 18.9282C46.9015 32.0249 39.3824 42.1678 26.5024 49.3623C13.6076 42.1678 6.08853 32.0249 3.93532 18.9282C3.7986 18.0669 3.68631 17.2005 3.58866 16.324L7.56793 14.8142V12.3317L11.4446 10.8675V8.29879L26.5024 3.37424L41.5552 8.29879Z" fill="#212529"/>
<path fill-rule="evenodd" clip-rule="evenodd" d="M17.3036 11.1258C15.4482 11.526 13.9932 11.9719 12.9435 12.4735C13.5538 19.5411 14.6914 25.2257 16.3564 29.5422L15.375 30.6619C12.7628 25.7374 11.0344 20.7318 10.1897 15.6552C8.54434 16.0757 7.35298 16.557 6.62061 17.1042C7.85588 24.8051 10.6682 31.6702 15.0869 37.684L17.8211 35.2521C20.0671 40.5618 22.4937 44.1994 25.1156 46.1751V7.40704C23.6411 7.478 22.1617 7.88834 20.6774 8.6483V30.363C18.6902 23.8121 17.5624 17.4081 17.3036 11.1258Z" fill="#212529"/>
<path fill-rule="evenodd" clip-rule="evenodd" d="M42.8491 29.2384C43.1765 26.7254 41.9266 24.8509 39.0993 23.6197C41.4331 22.1454 42.5709 20.134 42.522 17.6059C42.1509 12.5901 37.2734 9.15005 27.9136 7.28052V46.2867C37.1562 40.1666 42.1313 34.4821 42.8491 29.2384ZM32.5471 37.3193V29.1928C35.5156 26.69 37.2685 26.6849 37.7909 29.1776C38.3182 31.6602 36.5703 34.3757 32.5471 37.3193ZM32.5471 13.0208C36.5703 14.3127 38.328 16.0505 37.8153 18.2189C37.3075 20.3924 35.5547 22.3329 32.5471 24.0453V13.0208Z" fill="#212529"/>
</svg>
