<svg width="28" height="28" viewBox="0 0 28 28" fill="none" xmlns="http://www.w3.org/2000/svg">
<g clip-path="url(#clip0)">
<path d="M13.9782 0C9.4368 0 5.74219 3.69461 5.74219 8.23602V19.764C5.74219 24.3054 9.4368 28 13.9782 28C18.5196 28 22.2142 24.3054 22.2142 19.764V8.23602C22.2142 3.69461 18.5196 0 13.9782 0ZM20.5343 19.764C20.5343 23.3789 17.5931 26.3201 13.9782 26.3201C10.3633 26.3201 7.42212 23.3789 7.42212 19.764V8.23602C7.42212 4.62109 10.3633 1.67993 13.9782 1.67993C17.5931 1.67993 20.5343 4.62109 20.5343 8.23602V19.764Z" fill="#212529"/>
<path d="M13.9786 5.57001C13.5146 5.57001 13.1387 5.94598 13.1387 6.40997V10.2761C13.1387 10.7399 13.5146 11.1161 13.9786 11.1161C14.4424 11.1161 14.8186 10.7399 14.8186 10.2761V6.40997C14.8186 5.94598 14.4426 5.57001 13.9786 5.57001Z" fill="#212529"/>
</g>
<defs>
<clipPath id="clip0">
<rect width="28" height="28" fill="white"/>
</clipPath>
</defs>
</svg>
