<svg width="251" height="266" viewBox="0 0 251 266" fill="none" xmlns="http://www.w3.org/2000/svg">
<g clip-path="url(#clip0)">
<path d="M125.369 121.076L83.5796 96.7031V145.186L125.369 169.296L167.159 145.186V96.7031L125.369 121.076Z" fill="#42E8E0"/>
<path d="M125.369 169.296L83.5796 145.186V96.7031L125.369 121.076V169.296Z" fill="#D05A9E"/>
<path d="M167.159 145.186L125.37 169.296V121.076L167.159 96.7031V145.186Z" fill="#985EA4"/>
<path d="M125.369 121.076L83.5796 96.7031L125.369 72.5928L167.159 96.7031L125.369 121.076Z" fill="#FF5985"/>
<path d="M125.369 115.048L93.7656 96.7034L125.369 78.6206L156.712 96.7034L125.369 115.048Z" fill="#E25481"/>
<path d="M125.369 121.076L83.5796 96.7031V98.7997L125.369 123.172L167.159 98.7997V96.7031L125.369 121.076Z" fill="white"/>
<path d="M125.369 48.4828L83.5796 24.1104V72.5931L125.369 96.7034L167.159 72.5931V24.1104L125.369 48.4828Z" fill="#42E8E0"/>
<path d="M125.369 96.7034L83.5796 72.5931V24.1104L125.369 48.4828V96.7034Z" fill="#D05A9E"/>
<path d="M167.159 72.5931L125.37 96.7034V48.4828L167.159 24.1104V72.5931Z" fill="#985EA4"/>
<path d="M125.369 48.4828L83.5796 24.1103L125.369 0L167.159 24.1103L125.369 48.4828Z" fill="#FF5985"/>
<path d="M125.369 48.4828L83.5796 24.1104V26.2069L125.369 50.5793L167.159 26.2069V24.1104L125.369 48.4828Z" fill="white"/>
<path d="M41.7898 217.779L83.5796 193.407V145.186L41.7898 169.296L0 145.186V193.407L41.7898 217.779Z" fill="#42E8E0"/>
<path d="M41.7898 217.779L0 193.407V145.186L41.7898 169.296V217.779Z" fill="#D05A9E"/>
<path d="M41.79 217.779V169.296L83.5798 145.186V193.407L41.79 217.779Z" fill="#985EA4"/>
<path d="M41.7898 169.296L0 145.186L41.7898 121.076L83.5796 145.186L41.7898 169.296Z" fill="#FF5985"/>
<path d="M41.7898 169.296L0 145.186V147.283L41.7898 171.393L83.5796 147.283V145.186L41.7898 169.296Z" fill="white"/>
<path d="M209.21 217.779L251 193.407V145.186L209.21 169.296L167.42 145.186V193.407L209.21 217.779Z" fill="#42E8E0"/>
<path d="M209.21 217.779L167.42 193.407V145.186L209.21 169.296V217.779Z" fill="#D05A9E"/>
<path d="M209.21 217.779V169.296L251 145.186V193.407L209.21 217.779Z" fill="#985EA4"/>
<path d="M209.21 169.296L167.42 145.186L209.21 121.076L251 145.186L209.21 169.296Z" fill="#FF5985"/>
<path d="M209.21 169.296L167.42 145.186V147.283L209.21 171.393L251 147.283V145.186L209.21 169.296Z" fill="white"/>
<path d="M125.369 266L167.159 241.889V193.407L125.369 217.779L83.5796 193.407V241.889L125.369 266Z" fill="#42E8E0"/>
<path d="M125.369 266L83.5796 241.889V193.407L125.369 217.779V266Z" fill="#D05A9E"/>
<path d="M125.37 266V217.779L167.159 193.407V241.889L125.37 266Z" fill="#985EA4"/>
<path d="M125.369 217.78L83.5796 193.407L125.369 169.297L167.159 193.407L125.369 217.78Z" fill="#FF5985"/>
<path d="M125.369 217.779L83.5796 193.407V195.503L125.369 219.876L167.159 195.503V193.407L125.369 217.779Z" fill="white"/>
</g>
<defs>
<clipPath id="clip0">
<rect width="251" height="266" fill="white"/>
</clipPath>
</defs>
</svg>
