<svg width="820" height="564" viewBox="0 0 820 564" fill="none" xmlns="http://www.w3.org/2000/svg">
<g clip-path="url(#clip0)">
<path d="M467.79 171.56L467.39 170.86L556.08 119.27L556.28 119.38L647.92 169.66L647.53 170.37L556.09 120.19L467.79 171.56Z" fill="white"/>
<g opacity="0.1">
<path opacity="0.1" d="M376.18 416.81L337.83 394.67L376.18 372.53L414.53 394.67L376.18 416.81Z" fill="#42E8E0"/>
<path opacity="0.1" d="M376.18 416.81L339.5 395.63L337.83 396.59L376.18 418.73L414.53 396.59L412.87 395.63L376.18 416.81Z" fill="white"/>
<path opacity="0.1" d="M376.18 358.05L337.83 335.9V380.19L376.18 402.33L414.53 380.19V335.9L376.18 358.05Z" fill="#42E8E0"/>
<path opacity="0.1" d="M376.18 402.33L337.83 380.19V335.9L376.18 358.05V402.33Z" fill="#42E8E0"/>
<path opacity="0.1" d="M414.53 380.19L376.18 402.33V358.05L414.53 335.9V380.19Z" fill="#2FD3C7"/>
<path opacity="0.1" d="M376.18 358.05L337.83 335.9L376.18 313.76L414.53 335.91L376.18 358.05Z" fill="#42E8E0"/>
<path opacity="0.1" d="M376.18 358.05L339.5 336.87L337.83 337.82L376.18 359.97L414.53 337.83L412.87 336.87L376.18 358.05Z" fill="white"/>
<path opacity="0.7" d="M376.18 527.13L350.02 512.03L376.18 496.93L402.34 512.03L376.18 527.13Z" fill="#18B2A3"/>
<path opacity="0.1" d="M426 386.47L387.65 364.33L426 342.19L464.35 364.33L426 386.47Z" fill="#42E8E0"/>
<path opacity="0.1" d="M426 386.47L389.31 365.29L387.65 366.25L426 388.39L464.35 366.25L462.68 365.29L426 386.47Z" fill="white"/>
<path opacity="0.1" d="M326.37 388.39L288.02 366.25L326.37 344.11L364.72 366.25L326.37 388.39Z" fill="#42E8E0"/>
<path opacity="0.1" d="M326.37 388.39L289.68 367.21L288.02 368.17L326.37 390.31L364.72 368.17L363.05 367.21L326.37 388.39Z" fill="white"/>
<path opacity="0.1" d="M376.18 416.81L337.83 394.67L376.18 372.53L414.53 394.67L376.18 416.81Z" fill="#42E8E0"/>
<path opacity="0.1" d="M376.18 416.81L339.5 395.63L337.83 396.59L376.18 418.73L414.53 396.59L412.87 395.63L376.18 416.81Z" fill="white"/>
<path opacity="0.1" d="M376.18 299.28L337.83 277.14V321.42L376.18 343.56L414.53 321.42V277.14L376.18 299.28Z" fill="#42E8E0"/>
<path opacity="0.1" d="M376.18 343.56L337.83 321.42V277.14L376.18 299.28V343.56Z" fill="#42E8E0"/>
<path opacity="0.1" d="M414.53 321.42L376.18 343.56V299.28L414.53 277.14V321.42Z" fill="#2FD3C7"/>
<path opacity="0.1" d="M376.18 299.28L337.83 277.14L376.18 255L414.53 277.14L376.18 299.28Z" fill="#42E8E0"/>
<path opacity="0.1" d="M376.18 299.28L337.83 277.14V279.06L376.18 301.2L414.53 279.06V277.14L376.18 299.28Z" fill="white"/>
<path opacity="0.1" d="M426 327.7L387.65 305.56V349.84L426 371.98L464.35 349.84V305.56L426 327.7Z" fill="#42E8E0"/>
<path opacity="0.1" d="M426 371.98L387.65 349.84V305.56L426 327.7V371.98Z" fill="#42E8E0"/>
<path opacity="0.1" d="M464.35 349.84L426 371.98V327.7L464.35 305.56V349.84Z" fill="#2FD3C7"/>
<path opacity="0.1" d="M426 327.7L387.65 305.56L426 283.42L464.35 305.56L426 327.7Z" fill="#42E8E0"/>
<path opacity="0.1" d="M426 327.7L387.65 305.56V307.48L426 329.62L464.35 307.48V305.56L426 327.7Z" fill="white"/>
<path opacity="0.1" d="M475.81 356.13L437.46 333.98L475.81 311.84L514.16 333.99L475.81 356.13Z" fill="#42E8E0"/>
<path opacity="0.1" d="M475.81 356.13L437.46 333.98V335.9L475.81 358.05L514.16 335.9V333.98L475.81 356.13Z" fill="white"/>
<path opacity="0.1" d="M326.37 329.62L288.02 307.48V351.76L326.37 373.9L364.72 351.76V307.48L326.37 329.62Z" fill="#42E8E0"/>
<path opacity="0.1" d="M326.37 373.9L288.02 351.76V307.48L326.37 329.62V373.9Z" fill="#42E8E0"/>
<path opacity="0.1" d="M364.72 351.76L326.37 373.9V329.62L364.72 307.48V351.76Z" fill="#2FD3C7"/>
<path opacity="0.1" d="M326.37 329.62L288.02 307.48L326.37 285.34L364.72 307.48L326.37 329.62Z" fill="#42E8E0"/>
<path opacity="0.1" d="M326.37 329.62L288.02 307.48V309.4L326.37 331.54L364.72 309.4V307.48L326.37 329.62Z" fill="white"/>
<path opacity="0.1" d="M276.55 359.97L238.2 337.83L276.55 315.69L314.9 337.83L276.55 359.97Z" fill="#42E8E0"/>
<path opacity="0.1" d="M276.55 359.97L238.2 337.83V339.75L276.55 361.89L314.9 339.75V337.83L276.55 359.97Z" fill="white"/>
</g>
<g opacity="0.2">
<g style="mix-blend-mode:lighten" opacity="0.2">
<path d="M392.51 436.62C392.359 433.871 391.563 431.196 390.187 428.811C388.811 426.425 386.894 424.397 384.59 422.89L379 419.67L379.4 418.97L385 422.2C389.59 424.85 393.33 431.32 393.33 436.62V443.07C393.33 448.12 396.88 454.28 401.25 456.8L428 472.25L427.59 472.94L400.84 457.5" fill="white"/>
</g>
<g style="mix-blend-mode:lighten" opacity="0.2">
<path d="M438 467L411.25 451.5C406.65 448.85 402.92 442.38 402.92 437.08V430.62C402.92 425.62 399.36 419.42 394.99 416.9L389.4 413.67L389.81 412.98L395.4 416.2C399.99 418.85 403.72 425.32 403.72 430.62V437.08C403.871 439.829 404.667 442.504 406.045 444.888C407.423 447.272 409.343 449.297 411.65 450.8L438.4 466.25L438 467Z" fill="white"/>
</g>
<g style="mix-blend-mode:lighten" opacity="0.2">
<path d="M448.4 461L421.65 445.56C417.06 442.9 413.32 436.43 413.32 431.13V424.68C413.32 419.63 409.77 413.47 405.4 410.95L399.81 407.73L400.21 407.03L405.8 410.26C410.39 412.91 414.13 419.38 414.13 424.68V431.13C414.281 433.879 415.076 436.555 416.452 438.94C417.828 441.325 419.745 443.353 422.05 444.86L448.81 460.3L448.4 461Z" fill="white"/>
</g>
<g style="mix-blend-mode:lighten" opacity="0.2">
<path d="M458.81 455L432.06 439.56C427.46 436.91 423.73 430.44 423.73 425.13V418.68C423.73 413.68 420.17 407.48 415.8 404.95L410.21 401.73L410.62 401.03L416.21 404.26C420.8 406.91 424.53 413.38 424.53 418.68V425.13C424.681 427.881 425.477 430.557 426.855 432.942C428.233 435.328 430.153 437.355 432.46 438.86L459.21 454.31L458.81 455Z" fill="white"/>
</g>
<g style="mix-blend-mode:lighten" opacity="0.2">
<path d="M469.21 449L442.46 433.55C437.87 430.9 434.13 424.43 434.13 419.13V412.68C434.13 407.63 430.58 401.47 426.21 398.95L420.62 395.72L421.02 395.03L426.61 398.25C431.2 400.91 434.94 407.38 434.94 412.68V419.13C435.09 421.881 435.886 424.557 437.264 426.943C438.642 429.328 440.562 431.355 442.87 432.86L469.62 448.3L469.21 449Z" fill="white"/>
</g>
<g style="mix-blend-mode:lighten" opacity="0.2">
<path d="M479.62 443L452.87 427.56C448.27 424.91 444.54 418.44 444.54 413.13V406.68C444.54 401.63 440.98 395.48 436.61 392.95L431 389.69L431.4 388.99L436.99 392.22C441.58 394.87 445.31 401.34 445.31 406.64V413.09C445.461 415.841 446.257 418.517 447.635 420.902C449.013 423.288 450.933 425.315 453.24 426.82L480 442.27L479.62 443Z" fill="white"/>
</g>
<g style="mix-blend-mode:lighten" opacity="0.2">
<path d="M490 437L463.25 421.55C458.66 418.9 454.92 412.43 454.92 407.13V400.68C454.92 395.68 451.37 389.47 447 386.95L441.41 383.72L441.81 383.02L447.4 386.25C451.99 388.9 455.73 395.38 455.73 400.68V407.13C455.73 412.13 459.28 418.33 463.66 420.85L490.41 436.3L490 437Z" fill="white"/>
</g>
<g style="mix-blend-mode:lighten" opacity="0.2">
<path d="M500.43 431L473.68 415.56C469.08 412.91 465.35 406.44 465.35 401.13V394.68C465.35 389.68 461.79 383.48 457.42 380.95L451.84 377.73L452.24 377.03L457.83 380.26C462.42 382.91 466.15 389.38 466.15 394.68V401.13C466.301 403.881 467.097 406.557 468.475 408.942C469.853 411.328 471.773 413.355 474.08 414.86L500.83 430.3L500.43 431Z" fill="white"/>
</g>
<g style="mix-blend-mode:lighten" opacity="0.2">
<path d="M510.83 425L484.08 409.55C479.49 406.9 475.75 400.43 475.75 395.13V388.67C475.75 383.67 472.2 377.47 467.83 374.95L462.24 371.72L462.64 371.02L468.23 374.25C472.82 376.9 476.56 383.37 476.56 388.67V395.13C476.56 400.13 480.11 406.33 484.49 408.85L511.24 424.3L510.83 425Z" fill="white"/>
</g>
<g style="mix-blend-mode:lighten" opacity="0.2">
<path d="M521.24 419L494.49 403.55C489.9 400.9 486.16 394.43 486.16 389.13V382.68C486.009 379.93 485.213 377.253 483.835 374.868C482.457 372.482 480.537 370.455 478.23 368.95L472.65 365.72L473.05 365.03L478.64 368.25C483.23 370.9 486.96 377.38 486.96 382.68V389.13C486.96 394.18 490.52 400.33 494.89 402.86L521.64 418.3L521.24 419Z" fill="white"/>
</g>
<g style="mix-blend-mode:lighten" opacity="0.2">
<path d="M531.64 413L504.89 397.56C500.3 394.91 496.56 388.44 496.56 383.13V376.68C496.409 373.931 495.613 371.256 494.237 368.871C492.861 366.486 490.944 364.457 488.64 362.95L483.05 359.73L483.45 359.03L489.04 362.26C493.63 364.91 497.37 371.38 497.37 376.68V383.13C497.37 388.18 500.92 394.34 505.3 396.86L532.05 412.31L531.64 413Z" fill="white"/>
</g>
<g style="mix-blend-mode:lighten" opacity="0.2">
<path d="M542.05 407L515.3 391.54C510.71 388.89 506.97 382.42 506.97 377.12V370.67C506.815 367.916 506.012 365.237 504.627 362.852C503.242 360.466 501.314 358.441 499 356.94L493.42 353.71L493.82 353.02L499.41 356.24C504 358.89 507.73 365.36 507.73 370.67V377.12C507.73 382.12 511.29 388.32 515.66 390.85L542.41 406.29L542.05 407Z" fill="white"/>
</g>
<g style="mix-blend-mode:lighten" opacity="0.2">
<path d="M552.45 401L525.7 385.54C521.11 382.9 517.37 376.43 517.37 371.12V364.67C517.219 361.921 516.423 359.246 515.047 356.861C513.671 354.476 511.754 352.447 509.45 350.94L503.86 347.71L504.26 347.02L509.85 350.25C514.44 352.9 518.18 359.37 518.18 364.67V371.12C518.18 376.17 521.73 382.33 526.11 384.85L552.86 400.29L552.45 401Z" fill="white"/>
</g>
<g style="mix-blend-mode:lighten" opacity="0.2">
<path d="M562.86 395L536.11 379.56C531.52 376.91 527.78 370.44 527.78 365.14V358.68C527.78 353.68 524.22 347.48 519.85 344.96L514.27 341.73L514.67 341.03L520.26 344.26C524.85 346.91 528.58 353.38 528.58 358.68V365.14C528.58 370.14 532.14 376.34 536.51 378.86L563.26 394.31L562.86 395Z" fill="white"/>
</g>
<g style="mix-blend-mode:lighten" opacity="0.2">
<path d="M573.26 389L546.51 373.55C541.92 370.9 538.18 364.43 538.18 359.13V352.68C538.18 347.63 534.63 341.47 530.26 338.95L524.67 335.72L525.07 335.03L530.66 338.25C535.25 340.9 538.99 347.37 538.99 352.68V359.13C539.142 361.88 539.938 364.556 541.316 366.942C542.694 369.327 544.613 371.354 546.92 372.86L573.67 388.3L573.26 389Z" fill="white"/>
</g>
<g style="mix-blend-mode:lighten" opacity="0.2">
<path d="M583.67 383L556.92 367.56C552.33 364.91 548.59 358.44 548.59 353.13V346.68C548.59 341.68 545.03 335.48 540.66 332.95L535.08 329.73L535.48 329.03L541.07 332.26C545.66 334.91 549.39 341.38 549.39 346.68V353.13C549.541 355.881 550.337 358.557 551.715 360.942C553.093 363.328 555.013 365.355 557.32 366.86L584.07 382.31L583.67 383Z" fill="white"/>
</g>
<g style="mix-blend-mode:lighten" opacity="0.2">
<path d="M594.07 377L567.32 361.55C562.73 358.9 558.99 352.43 558.99 347.13V340.68C558.99 335.63 555.44 329.47 551.07 326.95L545.48 323.72L545.88 323.03L551.47 326.25C556.06 328.9 559.8 335.37 559.8 340.68V347.13C559.952 349.88 560.748 352.556 562.126 354.942C563.504 357.327 565.423 359.354 567.73 360.86L594.48 376.3L594.07 377Z" fill="white"/>
</g>
<g style="mix-blend-mode:lighten" opacity="0.2">
<path d="M604.48 371L577.73 355.56C573.14 352.9 569.4 346.43 569.4 341.13V334.68C569.4 329.63 565.84 323.48 561.47 320.95L555.89 317.73L556.29 317.03L561.88 320.26C566.47 322.91 570.21 329.38 570.21 334.68V341.13C570.21 346.18 573.76 352.34 578.13 354.86L604.88 370.31L604.48 371Z" fill="white"/>
</g>
<g style="mix-blend-mode:lighten" opacity="0.2">
<path d="M614.88 365L588.13 349.56C583.54 346.91 579.8 340.44 579.8 335.14V328.68C579.8 323.68 576.25 317.48 571.88 314.96L566.29 311.73L566.69 311.03L572.28 314.26C576.87 316.91 580.61 323.38 580.61 328.68V335.14C580.61 340.14 584.17 346.34 588.54 348.86L615.29 364.31L614.88 365Z" fill="white"/>
</g>
<g style="mix-blend-mode:lighten" opacity="0.2">
<path d="M625.29 359L598.54 343.55C593.95 340.9 590.21 334.43 590.21 329.13V322.7C590.055 319.955 589.256 317.284 587.879 314.905C586.501 312.525 584.583 310.502 582.28 309L576.7 305.77L577.1 305.08L582.69 308.3C587.28 310.95 591.02 317.42 591.02 322.73V329.18C591.171 331.929 591.966 334.605 593.342 336.99C594.718 339.375 596.636 341.403 598.94 342.91L625.69 358.35L625.29 359Z" fill="white"/>
</g>
<g style="mix-blend-mode:lighten" opacity="0.2">
<path d="M324 472.94L323.6 472.25L350.35 456.8C354.72 454.28 358.27 448.12 358.27 443.07V436.62C358.27 431.32 362.01 424.85 366.6 422.2L372.19 418.97L372.59 419.67L367 422.89C364.696 424.397 362.779 426.425 361.403 428.811C360.027 431.196 359.231 433.871 359.08 436.62V443.07C359.08 448.38 355.34 454.85 350.75 457.5L324 472.94Z" fill="white"/>
</g>
<g style="mix-blend-mode:lighten" opacity="0.2">
<path d="M313.63 467L313.23 466.3L340 450.8C342.307 449.297 344.227 447.272 345.605 444.888C346.983 442.504 347.779 439.829 347.93 437.08V430.62C347.93 425.32 351.66 418.85 356.26 416.2L361.84 412.98L362.25 413.67L356.66 416.9C352.29 419.42 348.73 425.58 348.73 430.62V437.08C348.73 442.38 345 448.85 340.41 451.5L313.63 467Z" fill="white"/>
</g>
<g style="mix-blend-mode:lighten" opacity="0.2">
<path d="M303.23 461L302.83 460.3L329.58 444.86C331.885 443.353 333.803 441.325 335.178 438.94C336.554 436.555 337.35 433.879 337.5 431.13V424.68C337.5 419.38 341.24 412.91 345.83 410.26L351.42 407.03L351.82 407.73L346.23 410.95C341.86 413.47 338.31 419.63 338.31 424.68V431.13C338.31 436.43 334.57 442.9 329.98 445.56L303.23 461Z" fill="white"/>
</g>
<g style="mix-blend-mode:lighten" opacity="0.2">
<path d="M292.82 455L292.42 454.31L319.17 438.86C321.477 437.355 323.397 435.328 324.775 432.942C326.153 430.557 326.949 427.881 327.1 425.13V418.68C327.1 413.38 330.83 406.91 335.43 404.26L341 401L341.41 401.7L335.82 404.92C331.45 407.45 327.89 413.61 327.89 418.65V425.1C327.89 430.41 324.16 436.88 319.56 439.53L292.82 455Z" fill="white"/>
</g>
<g style="mix-blend-mode:lighten" opacity="0.2">
<path d="M282.42 449L282.01 448.3L308.77 432.86C311.074 431.353 312.992 429.325 314.368 426.94C315.744 424.555 316.539 421.879 316.69 419.13V412.68C316.69 407.38 320.43 400.91 325.02 398.25L330.61 395.03L331.01 395.72L325.42 398.95C321.05 401.47 317.5 407.63 317.5 412.68V419.13C317.5 424.43 313.76 430.9 309.17 433.55L282.42 449Z" fill="white"/>
</g>
<g style="mix-blend-mode:lighten" opacity="0.2">
<path d="M272 443L271.6 442.31L298.35 426.86C300.657 425.355 302.577 423.328 303.955 420.942C305.333 418.557 306.129 415.881 306.28 413.13V406.68C306.28 401.38 310.01 394.91 314.61 392.26L320.2 389L320.61 389.7L315 392.91C310.63 395.44 307.07 401.59 307.07 406.64V413.09C307.07 418.4 303.34 424.87 298.74 427.52L272 443Z" fill="white"/>
</g>
<g style="mix-blend-mode:lighten" opacity="0.2">
<path d="M261.61 437L261.2 436.3L288 420.82C292.37 418.3 295.92 412.14 295.92 407.1V400.65C295.92 395.34 299.66 388.87 304.25 386.22L309.8 383L310.2 383.7L304.61 386.93C300.24 389.45 296.69 395.61 296.69 400.66V407.11C296.69 412.41 292.95 418.88 288.36 421.53L261.61 437Z" fill="white"/>
</g>
<g style="mix-blend-mode:lighten" opacity="0.2">
<path d="M251.2 431L250.8 430.3L277.55 414.86C279.857 413.355 281.777 411.328 283.155 408.942C284.532 406.557 285.329 403.881 285.48 401.13V394.68C285.48 389.38 289.21 382.91 293.81 380.26L299.39 377.03L299.8 377.73L294.21 380.95C289.84 383.48 286.28 389.63 286.28 394.68V401.13C286.28 406.44 282.55 412.91 277.95 415.56L251.2 431Z" fill="white"/>
</g>
<g style="mix-blend-mode:lighten" opacity="0.2">
<path d="M240.8 425L240.39 424.3L267.15 408.85C271.52 406.33 275.07 400.17 275.07 395.13V388.67C275.07 383.37 278.81 376.9 283.4 374.25L289 371L289.4 371.7L283.81 374.93C279.44 377.45 275.89 383.61 275.89 388.65V395.11C275.89 400.41 272.15 406.88 267.56 409.53L240.8 425Z" fill="white"/>
</g>
<g style="mix-blend-mode:lighten" opacity="0.2">
<path d="M230.39 419L229.99 418.3L256.74 402.86C261.11 400.33 264.67 394.18 264.67 389.13V382.68C264.67 377.38 268.4 370.9 273 368.25L278.58 365.03L278.99 365.72L273.4 368.95C271.093 370.455 269.172 372.482 267.795 374.868C266.417 377.253 265.621 379.93 265.47 382.68V389.13C265.47 394.43 261.74 400.9 257.14 403.55L230.39 419Z" fill="white"/>
</g>
<g style="mix-blend-mode:lighten" opacity="0.2">
<path d="M220 413L219.59 412.31L246.35 396.86C250.72 394.34 254.27 388.18 254.27 383.13V376.68C254.27 371.38 258.01 364.91 262.6 362.26L268.19 359.03L268.59 359.73L263 362.93C260.696 364.437 258.778 366.466 257.403 368.851C256.027 371.236 255.231 373.911 255.08 376.66V383.11C255.08 388.42 251.34 394.89 246.75 397.54L220 413Z" fill="white"/>
</g>
<g style="mix-blend-mode:lighten" opacity="0.2">
<path d="M209.58 407L209.18 406.3L235.93 390.86C240.3 388.33 243.86 382.17 243.86 377.13V370.68C243.86 365.37 247.59 358.9 252.19 356.25L257.77 353.03L258.18 353.72L252.59 356.95C250.283 358.455 248.362 360.482 246.985 362.868C245.607 365.253 244.811 367.93 244.66 370.68V377.13C244.66 382.43 240.93 388.9 236.33 391.55L209.58 407Z" fill="white"/>
</g>
<g style="mix-blend-mode:lighten" opacity="0.2">
<path d="M199.18 401L198.77 400.3L225.53 384.86C229.9 382.34 233.45 376.18 233.45 371.13V364.68C233.45 359.38 237.19 352.91 241.78 350.26L247.37 347.03L247.77 347.72L242.18 350.95C239.876 352.457 237.959 354.486 236.583 356.871C235.207 359.256 234.411 361.931 234.26 364.68V371.13C234.26 376.44 230.52 382.91 225.93 385.55L199.18 401Z" fill="white"/>
</g>
<g style="mix-blend-mode:lighten" opacity="0.2">
<path d="M188.77 395L188.37 394.31L215.12 378.86C219.49 376.34 223.05 370.18 223.05 365.14V358.68C223.05 353.38 226.78 346.91 231.38 344.26L237 341L237.41 341.7L231.78 345C227.41 347.52 223.85 353.68 223.85 358.72V365.18C223.85 370.48 220.12 376.95 215.52 379.6L188.77 395Z" fill="white"/>
</g>
<g style="mix-blend-mode:lighten" opacity="0.2">
<path d="M178.37 389L177.96 388.3L204.72 372.86C207.024 371.353 208.941 369.325 210.317 366.939C211.693 364.554 212.489 361.879 212.64 359.13V352.68C212.64 347.37 216.38 340.9 220.97 338.25L226.56 335.03L226.96 335.72L221.37 339C217 341.52 213.45 347.68 213.45 352.73V359.18C213.45 364.48 209.71 370.95 205.12 373.6L178.37 389Z" fill="white"/>
</g>
<g style="mix-blend-mode:lighten" opacity="0.2">
<path d="M168 383L167.6 382.31L194.35 366.86C196.657 365.355 198.577 363.328 199.955 360.942C201.333 358.557 202.129 355.881 202.28 353.13V346.68C202.28 341.38 206.01 334.91 210.61 332.26L216.19 329.03L216.6 329.73L211 333C206.63 335.53 203.07 341.69 203.07 346.73V353.18C203.07 358.49 199.34 364.96 194.74 367.61L168 383Z" fill="white"/>
</g>
<g style="mix-blend-mode:lighten" opacity="0.2">
<path d="M157.56 377L157.15 376.3L183.91 360.86C186.214 359.353 188.131 357.325 189.507 354.939C190.883 352.554 191.679 349.879 191.83 347.13V340.68C191.83 335.37 195.57 328.9 200.16 326.25L205.75 323.03L206.15 323.72L200.56 327C196.19 329.52 192.64 335.68 192.64 340.73V347.18C192.64 352.48 188.9 358.95 184.31 361.6L157.56 377Z" fill="white"/>
</g>
<g style="mix-blend-mode:lighten" opacity="0.2">
<path d="M147.15 371L146.75 370.31L173.5 354.86C175.807 353.355 177.727 351.328 179.105 348.942C180.483 346.557 181.279 343.881 181.43 341.13V334.68C181.43 329.38 185.16 322.91 189.76 320.26L195.34 317.03L195.75 317.73L190.16 321C185.79 323.53 182.23 329.68 182.23 334.73V341.18C182.23 346.48 178.5 352.95 173.9 355.61L147.15 371Z" fill="white"/>
</g>
<g style="mix-blend-mode:lighten" opacity="0.2">
<path d="M136.75 365L136.34 364.31L163.1 348.86C167.47 346.34 171.02 340.18 171.02 335.14V328.68C171.02 323.38 174.76 316.91 179.35 314.26L184.94 311.03L185.34 311.73L179.75 315C175.38 317.52 171.83 323.68 171.83 328.72V335.18C171.83 340.48 168.09 346.95 163.5 349.6L136.75 365Z" fill="white"/>
</g>
<g style="mix-blend-mode:lighten" opacity="0.2">
<path d="M126.34 359L125.94 358.3L152.69 342.86C157.06 340.33 160.62 334.18 160.62 329.13V322.7C160.62 317.39 164.35 310.92 168.95 308.27L174.53 305.05L174.94 305.74L169.35 309C167.043 310.505 165.123 312.532 163.745 314.918C162.367 317.303 161.571 319.979 161.42 322.73V329.18C161.42 334.48 157.69 340.95 153.09 343.6L126.34 359Z" fill="white"/>
</g>
<path opacity="0.2" d="M376.18 433.97L170.61 315.28L376.18 196.6L581.75 315.29L376.18 433.97Z" fill="#BCBEFF"/>
<path opacity="0.2" d="M376.18 431.19L173.01 313.89L170.61 315.28L376.18 433.97L581.75 315.29L579.35 313.9L376.18 431.19Z" fill="white"/>
</g>
<g style="mix-blend-mode:lighten">
<path d="M354.78 162.69C353.42 162.643 352.095 162.24 350.94 161.52L324.19 146.07L324.59 145.38L351.35 160.82C353.35 162 355.29 162.2 356.69 161.39C358.09 160.58 358.87 158.83 358.87 156.48V150C358.87 147.34 359.79 145.35 361.45 144.39C363.11 143.43 365.3 143.62 367.6 144.96L373.19 148.18L372.79 148.88L367.2 145.65C365.2 144.48 363.26 144.28 361.86 145.08C360.46 145.88 359.68 147.64 359.68 150V156.45C359.68 159.11 358.76 161.1 357.09 162.06C356.39 162.472 355.592 162.69 354.78 162.69Z" fill="#42E8E0"/>
</g>
<g style="mix-blend-mode:lighten">
<path d="M344.37 168.67C343.013 168.623 341.692 168.219 340.54 167.5L313.79 152.06L314.19 151.36L340.94 166.81C342.94 167.98 344.88 168.19 346.28 167.38C347.68 166.57 348.46 164.82 348.46 162.46V156C348.46 153.35 349.38 151.36 351.05 150.39C352.72 149.42 354.89 149.63 357.2 150.96L362.78 154.19L362.38 154.88L356.79 151.66C354.79 150.48 352.86 150.28 351.45 151.09C350.04 151.9 349.27 153.65 349.27 156V162.45C349.27 165.11 348.35 167.1 346.69 168.07C345.984 168.472 345.183 168.679 344.37 168.67Z" fill="#42E8E0"/>
</g>
<g style="mix-blend-mode:lighten">
<path d="M334 174.66C332.639 174.613 331.315 174.21 330.16 173.49L303.38 158L303.79 157.31L330.54 172.75C332.54 173.93 334.48 174.13 335.88 173.32C337.28 172.51 338.06 170.77 338.06 168.41V162C338.06 159.34 338.98 157.35 340.64 156.39C342.3 155.43 344.49 155.63 346.79 156.96L352.38 160.18L351.98 160.88L346.39 157.65C344.39 156.48 342.45 156.27 341.04 157.09C339.63 157.91 338.87 159.64 338.87 162V168.45C338.87 171.11 337.95 173.1 336.28 174.06C335.586 174.457 334.799 174.664 334 174.66Z" fill="#42E8E0"/>
</g>
<g style="mix-blend-mode:lighten">
<path d="M323.56 180.64C322.203 180.593 320.882 180.189 319.73 179.47L293 164L293.4 163.3L320.15 178.75C322.15 179.93 324.09 180.13 325.5 179.32C326.91 178.51 327.67 176.76 327.67 174.41V168C327.67 165.35 328.59 163.36 330.26 162.39C331.93 161.42 334.1 161.63 336.41 162.96L341.99 166.19L341.59 166.89L336 163.64C334 162.47 332.06 162.26 330.66 163.07C329.26 163.88 328.48 165.63 328.48 167.98V174.44C328.48 177.09 327.56 179.08 325.9 180.05C325.187 180.452 324.379 180.656 323.56 180.64Z" fill="#42E8E0"/>
</g>
<g style="mix-blend-mode:lighten">
<path d="M313.16 186.63C311.799 186.583 310.475 186.18 309.32 185.46L282.57 170L282.98 169.3L309.73 184.74C311.73 185.92 313.67 186.13 315.07 185.31C316.47 184.49 317.25 182.76 317.25 180.4V174C317.25 171.34 318.17 169.35 319.83 168.39C321.49 167.43 323.68 167.63 325.98 168.96L331.57 172.18L331.17 172.88L325.58 169.65C323.58 168.48 321.64 168.27 320.23 169.09C318.82 169.91 318.06 171.64 318.06 174V180.45C318.06 183.11 317.14 185.1 315.47 186.06C314.764 186.452 313.967 186.648 313.16 186.63Z" fill="#42E8E0"/>
</g>
<g style="mix-blend-mode:lighten">
<path d="M302.75 192.62C301.393 192.568 300.074 192.165 298.92 191.45L272.17 176L272.57 175.31L299.32 190.75C301.32 191.93 303.26 192.13 304.67 191.32C306.08 190.51 306.84 188.76 306.84 186.41V180C306.84 177.35 307.76 175.36 309.43 174.39C311.1 173.42 313.27 173.63 315.58 174.97L321.16 178.19L320.76 178.89L315.17 175.66C313.17 174.48 311.23 174.28 309.83 175.09C308.43 175.9 307.65 177.65 307.65 180V186.46C307.65 189.11 306.73 191.1 305.07 192.07C304.359 192.455 303.558 192.645 302.75 192.62Z" fill="#42E8E0"/>
</g>
<g style="mix-blend-mode:lighten">
<path d="M292.34 198.6C290.983 198.551 289.662 198.148 288.51 197.43L261.76 182L262.17 181.3L288.92 196.75C290.92 197.92 292.86 198.13 294.26 197.31C295.66 196.49 296.44 194.76 296.44 192.4V185.95C296.44 183.29 297.36 181.3 299.02 180.34C300.68 179.38 302.87 179.58 305.17 180.91L310.76 184.14L310.36 184.83L304.77 181.61C302.77 180.43 300.83 180.22 299.42 181.04C298.01 181.86 297.25 183.59 297.25 185.95V192.4C297.25 195.06 296.33 197.05 294.66 198.01C293.953 198.41 293.152 198.613 292.34 198.6Z" fill="#42E8E0"/>
</g>
<g style="mix-blend-mode:lighten">
<path d="M281.94 204.59C280.583 204.538 279.264 204.135 278.11 203.42L251.36 188L251.76 187.31L278.51 202.75C280.51 203.93 282.45 204.13 283.86 203.32C285.27 202.51 286.03 200.76 286.03 198.41V191.96C286.03 189.3 286.95 187.31 288.62 186.34C290.29 185.37 292.47 185.58 294.77 186.92L300.35 190.14L299.95 190.84L294.36 187.61C292.36 186.43 290.42 186.23 289.02 187.04C287.62 187.85 286.84 189.6 286.84 191.96V198.41C286.84 201.06 285.92 203.05 284.26 204.02C283.551 204.412 282.75 204.609 281.94 204.59Z" fill="#42E8E0"/>
</g>
<g style="mix-blend-mode:lighten">
<path d="M271.53 210.57C270.173 210.521 268.853 210.118 267.7 209.4L241 194L241.41 193.3L268.16 208.75C270.16 209.93 272.1 210.12 273.5 209.32C274.9 208.52 275.68 206.76 275.68 204.4V197.95C275.68 195.29 276.6 193.3 278.26 192.34C279.92 191.38 282.11 191.58 284.41 192.91L290 196.1L289.59 196.79L284 193.57C282 192.39 280.06 192.19 278.65 193C277.24 193.81 276.47 195.56 276.47 197.91V204.36C276.47 207.02 275.56 209.01 273.89 209.97C273.172 210.38 272.357 210.588 271.53 210.57Z" fill="white"/>
</g>
<g style="mix-blend-mode:lighten">
<path d="M261.13 216.56C259.773 216.513 258.452 216.109 257.3 215.39L230.55 199.94L230.95 199.25L257.7 214.69C259.7 215.87 261.64 216.08 263.04 215.26C264.44 214.44 265.22 212.71 265.22 210.35V203.9C265.22 201.24 266.14 199.25 267.81 198.29C269.48 197.33 271.65 197.53 273.96 198.86L279.54 202.08L279.14 202.78L273.55 199.55C271.55 198.38 269.61 198.18 268.21 198.99C266.81 199.8 266 201.54 266 203.9V210.35C266 213 265.08 215 263.42 215.96C262.722 216.357 261.933 216.564 261.13 216.56Z" fill="white"/>
</g>
<g style="mix-blend-mode:lighten">
<path d="M250.73 222.54C249.37 222.493 248.046 222.09 246.89 221.37L220.14 205.93L220.55 205.23L247.3 220.68C249.3 221.86 251.24 222.06 252.64 221.25C254.04 220.44 254.82 218.69 254.82 216.33V209.88C254.82 207.23 255.74 205.23 257.4 204.27C259.06 203.31 261.25 203.51 263.55 204.84L269.14 208.07L268.73 208.76L263.15 205.54C261.15 204.36 259.21 204.16 257.8 204.97C256.39 205.78 255.62 207.53 255.62 209.88V216.33C255.62 218.99 254.71 220.98 253.04 221.94C252.337 222.342 251.54 222.549 250.73 222.54Z" fill="white"/>
</g>
<g style="mix-blend-mode:lighten">
<path d="M240.32 228.53C238.963 228.483 237.642 228.079 236.49 227.36L209.74 211.91L210.14 211.22L236.89 226.66C238.89 227.84 240.83 228.05 242.24 227.23C243.65 226.41 244.41 224.68 244.41 222.32V215.87C244.41 213.21 245.33 211.22 246.99 210.26C248.65 209.3 250.84 209.5 253.15 210.83L258.73 214.05L258.33 214.75L252.74 211.52C250.74 210.35 248.8 210.15 247.4 210.96C246 211.77 245.22 213.51 245.22 215.87V222.32C245.22 224.98 244.3 226.97 242.64 227.93C241.934 228.332 241.133 228.539 240.32 228.53Z" fill="white"/>
</g>
<g style="mix-blend-mode:lighten">
<path d="M229.91 234.51C228.555 234.461 227.235 234.061 226.08 233.35L199.33 217.9L199.74 217.2L226.49 232.65C228.49 233.83 230.43 234.03 231.83 233.22C233.23 232.41 234.01 230.66 234.01 228.3V221.85C234.01 219.2 234.93 217.2 236.59 216.24C238.25 215.28 240.44 215.48 242.74 216.81L248.33 220.04L247.92 220.73L242.34 217.51C240.34 216.33 238.4 216.13 236.99 216.94C235.58 217.75 234.81 219.5 234.81 221.85V228.3C234.81 230.96 233.9 232.95 232.23 233.91C231.524 234.313 230.723 234.52 229.91 234.51Z" fill="white"/>
</g>
<g style="mix-blend-mode:lighten">
<path d="M219.51 240.5C218.153 240.453 216.832 240.049 215.68 239.33L188.93 223.89L189.33 223.19L216.08 238.63C218.08 239.81 220.02 240.02 221.43 239.2C222.84 238.38 223.6 236.65 223.6 234.29V227.84C223.6 225.18 224.52 223.19 226.18 222.23C227.84 221.27 230.04 221.47 232.34 222.8L237.92 226.03L237.52 226.72L231.93 223.5C229.93 222.31 227.99 222.11 226.59 222.93C225.19 223.75 224.41 225.48 224.41 227.84V234.29C224.41 236.95 223.49 238.94 221.83 239.9C221.124 240.302 220.323 240.509 219.51 240.5Z" fill="white"/>
</g>
<g style="mix-blend-mode:lighten">
<path d="M209.1 246.48C207.745 246.431 206.425 246.031 205.27 245.32L178.52 229.87L178.92 229.17L205.68 244.62C207.68 245.8 209.62 246 211.02 245.19C212.42 244.38 213.2 242.63 213.2 240.28V233.82C213.2 231.17 214.12 229.17 215.78 228.21C217.44 227.25 219.63 227.45 221.93 228.78L227.52 232.01L227.11 232.71L221.53 229.48C219.53 228.3 217.59 228.1 216.18 228.91C214.77 229.72 214 231.47 214 233.82V240.28C214 242.93 213.09 244.92 211.42 245.88C210.716 246.288 209.914 246.495 209.1 246.48Z" fill="white"/>
</g>
<g style="mix-blend-mode:lighten">
<path d="M198.7 252.47C197.343 252.423 196.022 252.019 194.87 251.3L168.12 235.86L168.52 235.16L195.27 250.6C197.27 251.78 199.21 251.98 200.61 251.17C202.01 250.36 202.79 248.62 202.79 246.26V239.81C202.79 237.15 203.71 235.16 205.38 234.2C207.05 233.24 209.22 233.44 211.53 234.77L217.11 238L216.71 238.69L211.12 235.47C209.12 234.29 207.18 234.08 205.78 234.9C204.38 235.72 203.6 237.45 203.6 239.81V246.26C203.6 248.92 202.68 250.91 201.02 251.87C200.313 252.271 199.513 252.478 198.7 252.47Z" fill="white"/>
</g>
<g style="mix-blend-mode:lighten">
<path d="M188.29 258.45C186.935 258.401 185.615 258.001 184.46 257.29L157.71 241.84L158.11 241.15L184.87 256.59C186.87 257.77 188.8 257.97 190.21 257.16C191.62 256.35 192.39 254.6 192.39 252.25V245.8C192.39 243.14 193.31 241.15 194.97 240.18C196.63 239.21 198.82 239.42 201.12 240.75L206.71 243.98L206.3 244.68L200.72 241.45C198.72 240.27 196.78 240.07 195.37 240.88C193.96 241.69 193.19 243.44 193.19 245.8V252.25C193.19 254.9 192.28 256.9 190.61 257.86C189.903 258.26 189.102 258.464 188.29 258.45Z" fill="white"/>
</g>
<g style="mix-blend-mode:lighten">
<path d="M177.89 264.44C176.533 264.393 175.212 263.989 174.06 263.27L147.31 247.83L147.71 247.13L174.46 262.58C176.46 263.76 178.4 263.96 179.8 263.14C181.2 262.32 181.98 260.59 181.98 258.23V251.78C181.98 249.12 182.9 247.13 184.56 246.17C186.22 245.21 188.41 245.41 190.71 246.74L196.3 250L195.9 250.69L190.31 247.47C188.31 246.29 186.37 246.09 184.97 246.9C183.57 247.71 182.79 249.45 182.79 251.81V258.26C182.79 260.92 181.87 262.91 180.21 263.87C179.501 264.262 178.7 264.459 177.89 264.44Z" fill="white"/>
</g>
<g style="mix-blend-mode:lighten">
<path d="M167.49 270.42C166.131 270.372 164.808 269.972 163.65 269.26L136.9 253.81L137.3 253.12L164.06 268.56C166.06 269.74 168 269.95 169.4 269.13C170.8 268.31 171.58 266.57 171.58 264.22V257.77C171.58 255.11 172.5 253.12 174.16 252.16C175.82 251.2 178.01 251.4 180.31 252.73L185.9 256L185.49 256.7L179.91 253.47C177.91 252.3 175.97 252.09 174.56 252.9C173.15 253.71 172.38 255.46 172.38 257.82V264.27C172.38 266.93 171.47 268.92 169.8 269.88C169.091 270.262 168.294 270.448 167.49 270.42Z" fill="white"/>
</g>
<g style="mix-blend-mode:lighten">
<path d="M157.08 276.41C155.723 276.363 154.402 275.959 153.25 275.24L126.5 259.8L126.9 259.1L153.65 274.55C155.65 275.72 157.59 275.93 158.99 275.11C160.39 274.29 161.17 272.56 161.17 270.2V263.75C161.17 261.09 162.09 259.1 163.75 258.14C165.41 257.18 167.6 257.38 169.9 258.71L175.49 261.94L175.09 262.63L169.5 259.41C167.5 258.23 165.56 258.03 164.16 258.84C162.76 259.65 161.98 261.39 161.98 263.75V270.2C161.98 272.86 161.06 274.85 159.4 275.81C158.694 276.212 157.893 276.419 157.08 276.41Z" fill="white"/>
</g>
<g style="mix-blend-mode:lighten">
<path d="M397.41 163.18C396.597 163.188 395.797 162.981 395.09 162.58C393.43 161.58 392.51 159.58 392.51 156.97V150.51C392.51 148.16 391.74 146.41 390.33 145.6C388.92 144.79 387.03 144.99 384.99 146.17L379.4 149.4L379 148.7L384.59 145.48C386.89 144.14 389.07 143.95 390.74 144.91C392.41 145.87 393.32 147.91 393.32 150.51V157C393.32 159.35 394.09 161.1 395.5 161.91C396.91 162.72 398.8 162.52 400.84 161.34L427.59 145.9L428 146.59L401.24 162C400.088 162.72 398.768 163.126 397.41 163.18Z" fill="#42E8E0"/>
</g>
<g style="mix-blend-mode:lighten">
<path d="M407.82 169.16C407.007 169.17 406.206 168.963 405.5 168.56C403.83 167.56 402.92 165.61 402.92 162.95V156.5C402.92 154.14 402.14 152.4 400.74 151.59C399.34 150.78 397.44 150.98 395.4 152.16L389.81 155.38L389.4 154.69L394.99 151.46C397.3 150.13 399.48 149.93 401.14 150.89C402.8 151.85 403.72 153.89 403.72 156.5V163C403.72 165.36 404.5 167.1 405.9 167.91C407.3 168.72 409.21 168.52 411.25 167.35L438 151.85L438.4 152.55L411.65 168C410.497 168.716 409.176 169.116 407.82 169.16Z" fill="#42E8E0"/>
</g>
<g style="mix-blend-mode:lighten">
<path d="M418.22 175.15C417.407 175.158 416.607 174.951 415.9 174.55C414.24 173.55 413.32 171.55 413.32 168.94V162.49C413.32 160.13 412.55 158.38 411.14 157.57C409.73 156.76 407.84 156.96 405.8 158.14L400.21 161.37L399.81 160.67L405.4 157.45C407.7 156.11 409.88 155.92 411.55 156.88C413.22 157.84 414.13 159.88 414.13 162.49V168.94C414.13 171.29 414.9 173.04 416.31 173.85C417.72 174.66 419.61 174.46 421.65 173.28L448.4 157.84L448.81 158.53L422.05 174C420.895 174.709 419.575 175.106 418.22 175.15Z" fill="#42E8E0"/>
</g>
<g style="mix-blend-mode:lighten">
<path d="M428.63 181.13C427.819 181.138 427.019 180.934 426.31 180.54C424.65 179.54 423.73 177.54 423.73 174.92V168.47C423.73 166.12 422.95 164.37 421.55 163.56C420.15 162.75 418.25 162.95 416.21 164.13L410.62 167.35L410.21 166.66L415.8 163.43C418.1 162.1 420.29 161.91 421.95 162.86C423.61 163.81 424.53 165.86 424.53 168.47V174.92C424.53 177.28 425.31 179.02 426.71 179.84C428.11 180.66 430.02 180.45 432.06 179.27L458.81 163.82L459.21 164.52L432.46 180C431.304 180.705 429.984 181.095 428.63 181.13Z" fill="#42E8E0"/>
</g>
<g style="mix-blend-mode:lighten">
<path d="M439 187.12C438.19 187.129 437.393 186.922 436.69 186.52C435.02 185.52 434.1 183.52 434.1 180.91V174.46C434.1 172.1 433.33 170.36 431.92 169.55C430.51 168.74 428.62 168.94 426.58 170.11L421 173.34L420.6 172.64L426.19 169.42C428.49 168.09 430.67 167.89 432.34 168.85C434.01 169.81 434.92 171.85 434.92 174.46V180.91C434.92 183.27 435.69 185.01 437.1 185.82C438.51 186.63 440.4 186.43 442.44 185.25L469.19 169.81L469.6 170.5L442.87 186C441.701 186.707 440.366 187.093 439 187.12Z" fill="#42E8E0"/>
</g>
<g style="mix-blend-mode:lighten">
<path d="M449.44 193.1C448.628 193.114 447.827 192.91 447.12 192.51C445.46 191.51 444.54 189.51 444.54 186.9V180.44C444.54 178.09 443.76 176.34 442.36 175.53C440.96 174.72 439.06 174.93 437.02 176.1L431.43 179.32L431.03 178.63L436.61 175.4C438.91 174.07 441.1 173.87 442.76 174.83C444.42 175.79 445.34 177.83 445.34 180.44V186.9C445.34 189.25 446.12 191 447.52 191.81C448.92 192.62 450.82 192.42 452.87 191.24L479.62 175.79L480.02 176.49L453.27 191.93C452.117 192.648 450.797 193.051 449.44 193.1Z" fill="#42E8E0"/>
</g>
<g style="mix-blend-mode:lighten">
<path d="M459.84 199.09C459.027 199.098 458.227 198.891 457.52 198.49C455.86 197.49 454.94 195.49 454.94 192.88V186.43C454.94 184.07 454.17 182.33 452.76 181.52C451.35 180.71 449.46 180.91 447.42 182.08L441.83 185.31L441.43 184.61L447.02 181.39C449.32 180.06 451.5 179.86 453.17 180.82C454.84 181.78 455.75 183.82 455.75 186.43V192.88C455.75 195.24 456.52 196.98 457.93 197.79C459.34 198.6 461.23 198.4 463.27 197.22L490 181.78L490.41 182.47L463.66 197.92C462.511 198.636 461.194 199.04 459.84 199.09Z" fill="#42E8E0"/>
</g>
<g style="mix-blend-mode:lighten">
<path d="M470.25 205.08C469.437 205.09 468.636 204.883 467.93 204.48C466.27 203.48 465.35 201.48 465.35 198.87V192.41C465.35 190.06 464.58 188.31 463.17 187.5C461.76 186.69 459.87 186.89 457.83 188.07L452.24 191.3L451.84 190.6L457.42 187.38C459.73 186.05 461.91 185.84 463.57 186.8C465.23 187.76 466.15 189.8 466.15 192.41V198.87C466.15 201.22 466.93 202.97 468.33 203.78C469.73 204.59 471.64 204.38 473.68 203.21L500.43 187.77L500.83 188.46L474.08 203.91C472.926 204.625 471.606 205.028 470.25 205.08Z" fill="#42E8E0"/>
</g>
<g style="mix-blend-mode:lighten">
<path d="M480.65 211.06C479.838 211.068 479.037 210.861 478.33 210.46C476.67 209.46 475.75 207.46 475.75 204.85V198.4C475.75 196.04 474.98 194.3 473.58 193.49C472.18 192.68 470.27 192.88 468.23 194.06L462.64 197.28L462.24 196.59L467.83 193.36C470.13 192.03 472.31 191.83 473.98 192.79C475.65 193.75 476.56 195.79 476.56 198.4V204.85C476.56 207.21 477.33 208.95 478.74 209.76C480.15 210.57 482.04 210.37 484.08 209.2L510.83 193.75L511.24 194.45L484.49 209.89C483.335 210.61 482.011 211.013 480.65 211.06Z" fill="#42E8E0"/>
</g>
<g style="mix-blend-mode:lighten">
<path d="M491.06 217.05C490.247 217.06 489.446 216.853 488.74 216.45C487.08 215.45 486.16 213.45 486.16 210.84V204.38C486.16 202.03 485.38 200.28 483.98 199.47C482.58 198.66 480.68 198.86 478.64 200.04L473.05 203.27L472.65 202.57L478.23 199.35C480.54 198.02 482.72 197.81 484.38 198.77C486.04 199.73 486.96 201.77 486.96 204.38V210.84C486.96 213.19 487.74 214.94 489.14 215.75C490.54 216.56 492.45 216.35 494.49 215.18L521.24 199.74L521.64 200.43L494.89 215.88C493.736 216.595 492.416 216.998 491.06 217.05Z" fill="white"/>
</g>
<g style="mix-blend-mode:lighten">
<path d="M501.46 223C500.65 223.009 499.853 222.802 499.15 222.4C497.48 221.4 496.56 219.4 496.56 216.79V210.34C496.56 207.98 495.79 206.24 494.38 205.43C492.97 204.62 491.08 204.82 489.04 206L483.45 209.22L483.05 208.53L488.64 205.3C490.94 203.97 493.12 203.77 494.79 204.73C496.46 205.69 497.37 207.73 497.37 210.34V216.79C497.37 219.15 498.14 220.89 499.55 221.7C500.96 222.51 502.85 222.31 504.89 221.14L531.64 205.69L532.05 206.39L505.3 221.86C504.141 222.569 502.817 222.962 501.46 223Z" fill="white"/>
</g>
<g style="mix-blend-mode:lighten">
<path d="M511.87 229C511.057 229.009 510.256 228.802 509.55 228.4C507.89 227.4 506.97 225.4 506.97 222.79V216.34C506.97 213.98 506.2 212.24 504.79 211.42C503.38 210.6 501.49 210.81 499.45 211.99L493.86 215.22L493.46 214.52L499.04 211.3C501.34 209.96 503.53 209.77 505.19 210.72C506.85 211.67 507.77 213.72 507.77 216.34V222.79C507.77 225.14 508.55 226.89 509.95 227.7C511.35 228.51 513.26 228.31 515.3 227.13L542.05 211.69L542.45 212.38L515.7 227.85C514.546 228.562 513.225 228.959 511.87 229Z" fill="white"/>
</g>
<g style="mix-blend-mode:lighten">
<path d="M522.27 235C521.46 235.009 520.663 234.802 519.96 234.4C518.29 233.4 517.37 231.4 517.37 228.79V222.34C517.37 219.99 516.6 218.24 515.2 217.43C513.8 216.62 511.89 216.82 509.85 218L504.26 221.22L503.86 220.53L509.45 217.3C511.75 215.97 513.94 215.77 515.6 216.73C517.26 217.69 518.18 219.73 518.18 222.34V228.79C518.18 231.15 518.95 232.9 520.36 233.71C521.77 234.52 523.66 234.31 525.7 233.14L552.45 217.69L552.86 218.39L526.11 233.83C524.954 234.55 523.63 234.953 522.27 235Z" fill="white"/>
</g>
<g style="mix-blend-mode:lighten">
<path d="M532.68 241C531.867 241.01 531.066 240.803 530.36 240.4C528.7 239.4 527.78 237.45 527.78 234.79V228.34C527.78 225.98 527.01 224.24 525.6 223.43C524.19 222.62 522.3 222.82 520.26 223.99L514.67 227.22L514.27 226.52L519.85 223.3C522.15 221.97 524.34 221.77 526 222.73C527.66 223.69 528.58 225.68 528.58 228.34V234.79C528.58 237.15 529.36 238.89 530.76 239.7C532.16 240.51 534.06 240.31 536.11 239.13L562.86 223.69L563.26 224.38L536.51 239.83C535.358 240.549 534.037 240.953 532.68 241Z" fill="white"/>
</g>
<g style="mix-blend-mode:lighten">
<path d="M543.08 247C542.27 247.009 541.473 246.802 540.77 246.4C539.1 245.4 538.18 243.4 538.18 240.79V234.34C538.18 231.99 537.41 230.24 536.01 229.43C534.61 228.62 532.7 228.82 530.66 230L525.07 233.22L524.67 232.53L530.26 229.3C532.56 227.97 534.75 227.77 536.41 228.73C538.07 229.69 538.99 231.73 538.99 234.34V240.79C538.99 243.15 539.76 244.9 541.17 245.71C542.58 246.52 544.47 246.32 546.51 245.14L573.26 229.69L573.67 230.39L546.92 245.8C545.767 246.53 544.443 246.944 543.08 247Z" fill="white"/>
</g>
<g style="mix-blend-mode:lighten">
<path d="M553.49 253C552.677 253.01 551.876 252.803 551.17 252.4C549.51 251.4 548.59 249.4 548.59 246.79V240.3C548.59 237.94 547.82 236.2 546.41 235.39C545 234.58 543.11 234.78 541.07 235.96L535.48 239.18L535.08 238.48L540.66 235.26C542.97 233.93 545.15 233.73 546.81 234.69C548.47 235.65 549.39 237.64 549.39 240.3V246.75C549.39 249.11 550.17 250.85 551.57 251.66C552.97 252.47 554.88 252.27 556.92 251.09L583.67 235.65L584.07 236.35L557.32 251.79C556.172 252.523 554.851 252.941 553.49 253Z" fill="white"/>
</g>
<g style="mix-blend-mode:lighten">
<path d="M563.89 258.94C563.08 258.954 562.281 258.747 561.58 258.34C559.91 257.34 558.99 255.39 558.99 252.74V246.28C558.99 243.93 558.22 242.18 556.82 241.37C555.42 240.56 553.51 240.76 551.47 241.94L545.88 245.17L545.48 244.47L551.07 241.24C553.37 239.91 555.55 239.71 557.22 240.67C558.89 241.63 559.8 243.67 559.8 246.28V252.74C559.8 255.09 560.57 256.84 561.98 257.65C563.39 258.46 565.28 258.26 567.32 257.08L594.07 241.63L594.48 242.33L567.73 257.78C566.572 258.492 565.249 258.892 563.89 258.94Z" fill="white"/>
</g>
<g style="mix-blend-mode:lighten">
<path d="M574.3 264.93C573.487 264.939 572.686 264.732 571.98 264.33C570.32 263.33 569.4 261.38 569.4 258.72V252.27C569.4 249.91 568.63 248.17 567.22 247.36C565.81 246.55 563.92 246.74 561.88 247.93L556.29 251.15L555.89 250.46L561.47 247.23C563.77 245.9 565.96 245.7 567.62 246.66C569.28 247.62 570.21 249.66 570.21 252.27V258.72C570.21 261.08 570.98 262.82 572.38 263.63C573.78 264.44 575.69 264.24 577.73 263.06L604.48 247.62L604.88 248.32L578.13 263.76C576.978 264.479 575.657 264.883 574.3 264.93Z" fill="white"/>
</g>
<g style="mix-blend-mode:lighten">
<path d="M584.7 270.91C583.891 270.923 583.094 270.719 582.39 270.32C580.72 269.32 579.8 267.32 579.8 264.71V258.26C579.8 255.9 579.03 254.15 577.62 253.34C576.21 252.53 574.32 252.73 572.28 253.91L566.69 257.14L566.29 256.44L571.88 253.21C574.18 251.89 576.36 251.69 578.03 252.64C579.7 253.59 580.61 255.64 580.61 258.26V264.71C580.61 267.06 581.38 268.81 582.79 269.62C584.2 270.43 586.09 270.23 588.13 269.05L614.88 253.6L615.29 254.3L588.54 269.75C587.382 270.462 586.059 270.862 584.7 270.91Z" fill="white"/>
</g>
<g style="mix-blend-mode:lighten">
<path d="M595.11 276.9C594.297 276.909 593.497 276.702 592.79 276.3C591.13 275.3 590.21 273.35 590.21 270.69V264.24C590.21 261.88 589.44 260.14 588.03 259.33C586.62 258.52 584.73 258.72 582.69 259.9L577.1 263.12L576.7 262.43L582.28 259.2C584.59 257.88 586.77 257.67 588.43 258.63C590.09 259.59 591.02 261.58 591.02 264.24V270.69C591.02 273.05 591.79 274.79 593.19 275.6C594.59 276.41 596.49 276.21 598.54 275.04L625.29 259.59L625.69 260.29L598.94 275.73C597.788 276.449 596.467 276.853 595.11 276.9Z" fill="white"/>
</g>
<path d="M581.75 265.09V288.85L376.18 407.53L170.61 288.84V265.09H581.75Z" fill="url(#paint0_linear)"/>
<path d="M376.18 383.77L170.61 265.09L376.18 146.4L581.75 265.09L376.18 383.77Z" fill="#FF5985"/>
<path d="M376.18 381L173.01 263.7L170.61 265.09L376.18 383.77L581.75 265.09L579.35 263.7L376.18 381Z" fill="white"/>
<path opacity="0.5" d="M376.18 278.57L313 242.1L376.18 205.62L439.36 242.1L376.18 278.57Z" fill="#42E8E0"/>
<path opacity="0.5" d="M376.18 208.98L436.45 243.78L439.36 242.1L376.18 205.62L313 242.1L315.91 243.78L376.18 208.98Z" fill="#42E8E0"/>
<path opacity="0.8" d="M376.18 330.87L220.24 240.84L218.07 242.1L376.18 333.38L534.29 242.1L532.12 240.84L376.18 330.87Z" fill="white"/>
<g style="mix-blend-mode:lighten">
<path d="M427.59 435.44L400.84 420C396.25 417.35 392.51 410.88 392.51 405.58V399.13C392.51 394.08 388.96 387.92 384.59 385.4L379 382.16L379.4 381.47L384.99 384.69C389.58 387.34 393.32 393.81 393.32 399.12V405.57C393.47 408.319 394.266 410.995 395.642 413.38C397.018 415.765 398.935 417.793 401.24 419.3L428 434.74L427.59 435.44Z" fill="white"/>
</g>
<g style="mix-blend-mode:lighten">
<path d="M438 429.44L411.25 414C406.65 411.34 402.92 404.87 402.92 399.57V393.12C402.92 388.07 399.36 381.92 394.99 379.39L389.4 376.17L389.81 375.47L395.4 378.7C399.99 381.35 403.72 387.82 403.72 393.12V399.57C403.871 402.32 404.667 404.997 406.045 407.382C407.423 409.768 409.343 411.795 411.65 413.3L438.4 428.75L438 429.44Z" fill="white"/>
</g>
<g style="mix-blend-mode:lighten">
<path d="M448.4 423.45L421.65 408C417.06 405.35 413.32 398.88 413.32 393.58V387.13C413.32 382.08 409.77 375.92 405.4 373.4L399.81 370.17L400.21 369.48L405.8 372.7C410.39 375.35 414.13 381.82 414.13 387.13V393.58C414.281 396.329 415.077 399.004 416.453 401.389C417.829 403.774 419.746 405.803 422.05 407.31L448.81 422.75L448.4 423.45Z" fill="white"/>
</g>
<g style="mix-blend-mode:lighten">
<path d="M458.81 417.45L432.06 402C427.46 399.35 423.73 392.88 423.73 387.58V381.13C423.73 376.08 420.17 369.93 415.8 367.4L410.21 364.17L410.62 363.48L416.21 366.7C420.8 369.36 424.53 375.83 424.53 381.13V387.58C424.681 390.33 425.477 393.007 426.855 395.392C428.233 397.778 430.153 399.805 432.46 401.31L459.21 416.75L458.81 417.45Z" fill="white"/>
</g>
<g style="mix-blend-mode:lighten">
<path d="M469.21 411.45L442.46 396C437.87 393.35 434.13 386.88 434.13 381.58V375.12C433.981 372.372 433.187 369.697 431.81 367.313C430.434 364.929 428.516 362.903 426.21 361.4L420.62 358.17L421.02 357.47L426.61 360.7C431.2 363.35 434.94 369.82 434.94 375.12V381.58C434.94 386.58 438.49 392.78 442.87 395.3L469.62 410.75L469.21 411.45Z" fill="white"/>
</g>
<g style="mix-blend-mode:lighten">
<path d="M479.62 405.46L452.87 390C448.27 387.35 444.54 380.88 444.54 375.58V369.13C444.389 366.379 443.593 363.703 442.215 361.318C440.837 358.932 438.917 356.905 436.61 355.4L431 352.18L431.4 351.49L436.99 354.71C441.58 357.36 445.31 363.84 445.31 369.14V375.59C445.31 380.59 448.87 386.79 453.24 389.32L480 404.76L479.62 405.46Z" fill="white"/>
</g>
<g style="mix-blend-mode:lighten">
<path d="M490 399.46L463.27 384C458.68 381.35 454.94 374.88 454.94 369.57V363.12C454.784 360.372 453.985 357.7 452.605 355.318C451.226 352.936 449.306 350.913 447 349.41L441.41 346.19L441.81 345.49L447.4 348.72C451.99 351.37 455.73 357.84 455.73 363.14V369.59C455.73 374.64 459.28 380.8 463.66 383.32L490.41 398.77L490 399.46Z" fill="white"/>
</g>
<g style="mix-blend-mode:lighten">
<path d="M500.43 393.47L473.68 378C469.08 375.35 465.35 368.88 465.35 363.58V357.12C465.35 352.12 461.79 345.92 457.42 343.4L451.84 340.17L452.24 339.48L457.83 342.7C462.42 345.35 466.15 351.82 466.15 357.12V363.58C466.15 368.58 469.71 374.78 474.08 377.3L500.83 392.75L500.43 393.47Z" fill="white"/>
</g>
<g style="mix-blend-mode:lighten">
<path d="M510.83 387.47L484.08 372C479.49 369.34 475.75 362.87 475.75 357.57V351.12C475.6 348.371 474.804 345.695 473.429 343.31C472.053 340.925 470.135 338.897 467.83 337.39L462.24 334.17L462.64 333.47L468.23 336.69C472.82 339.35 476.56 345.82 476.56 351.12V357.57C476.71 360.321 477.506 362.997 478.884 365.383C480.262 367.768 482.183 369.795 484.49 371.3L511.24 386.74L510.83 387.47Z" fill="white"/>
</g>
<g style="mix-blend-mode:lighten">
<path d="M521.24 381.47L494.49 366C489.9 363.35 486.16 356.88 486.16 351.57V345.12C486.16 340.12 482.6 333.92 478.23 331.39L472.65 328.17L473.05 327.47L478.64 330.7C483.23 333.35 486.96 339.82 486.96 345.12V351.57C487.111 354.32 487.907 356.997 489.285 359.382C490.663 361.768 492.583 363.795 494.89 365.3L521.64 380.75L521.24 381.47Z" fill="white"/>
</g>
<g style="mix-blend-mode:lighten">
<path d="M531.64 375.48L504.89 360C500.3 357.35 496.56 350.88 496.56 345.58V339.13C496.56 334.08 493.01 327.92 488.64 325.4L483.05 322.17L483.45 321.48L489.04 324.7C493.63 327.35 497.37 333.82 497.37 339.13V345.58C497.52 348.331 498.316 351.007 499.694 353.393C501.072 355.778 502.992 357.805 505.3 359.31L532.05 374.75L531.64 375.48Z" fill="white"/>
</g>
<g style="mix-blend-mode:lighten">
<path d="M542.05 369.48L515.3 354C510.71 351.35 506.97 344.88 506.97 339.57V333.12C506.97 328.12 503.41 321.92 499.04 319.39L493.46 316.17L493.86 315.47L499.45 318.7C504.04 321.35 507.77 327.82 507.77 333.12V339.57C507.921 342.32 508.717 344.997 510.095 347.382C511.473 349.768 513.393 351.795 515.7 353.3L542.45 368.74L542.05 369.48Z" fill="white"/>
</g>
<g style="mix-blend-mode:lighten">
<path d="M552.45 363.49L525.7 348C521.11 345.35 517.37 338.88 517.37 333.58V327.12C517.37 322.12 513.82 315.92 509.45 313.4L503.86 310.17L504.26 309.47L509.85 312.7C514.44 315.35 518.18 321.82 518.18 327.12V333.58C518.329 336.329 519.125 339.005 520.503 341.389C521.881 343.773 523.802 345.798 526.11 347.3L552.86 362.75L552.45 363.49Z" fill="white"/>
</g>
<g style="mix-blend-mode:lighten">
<path d="M562.86 357.49L536.11 342.05C531.52 339.39 527.78 332.92 527.78 327.62V321.17C527.629 318.42 526.833 315.743 525.455 313.358C524.077 310.972 522.157 308.945 519.85 307.44L514.27 304.22L514.67 303.52L520.26 306.75C524.85 309.4 528.58 315.87 528.58 321.17V327.62C528.58 332.67 532.14 338.82 536.51 341.35L563.26 356.79L562.86 357.49Z" fill="white"/>
</g>
<g style="mix-blend-mode:lighten">
<path d="M573.26 351.49L546.51 336.05C541.92 333.4 538.18 326.93 538.18 321.62V315.17C538.029 312.421 537.233 309.746 535.857 307.361C534.481 304.976 532.564 302.947 530.26 301.44L524.67 298.22L525.07 297.52L530.66 300.75C535.25 303.4 538.99 309.87 538.99 315.17V321.62C538.99 326.67 542.54 332.83 546.92 335.35L573.67 350.8L573.26 351.49Z" fill="white"/>
</g>
<g style="mix-blend-mode:lighten">
<path d="M583.67 345.5L556.92 330.05C552.33 327.4 548.59 320.93 548.59 315.63V309.18C548.439 306.43 547.643 303.753 546.265 301.368C544.887 298.982 542.967 296.955 540.66 295.45L535.08 292.22L535.48 291.53L541.07 294.75C545.66 297.41 549.39 303.87 549.39 309.18V315.63C549.39 320.68 552.95 326.83 557.32 329.36L584.07 344.8L583.67 345.5Z" fill="white"/>
</g>
<g style="mix-blend-mode:lighten">
<path d="M594.07 339.5L567.32 324.06C562.73 321.41 558.99 314.94 558.99 309.63V303.18C558.84 300.431 558.044 297.755 556.668 295.37C555.292 292.985 553.375 290.957 551.07 289.45L545.48 286.23L545.88 285.53L551.47 288.76C556.06 291.41 559.8 297.88 559.8 303.18V309.63C559.8 314.68 563.35 320.84 567.73 323.36L594.48 338.81L594.07 339.5Z" fill="white"/>
</g>
<g style="mix-blend-mode:lighten">
<path d="M604.48 333.51L577.73 318.06C573.14 315.41 569.4 308.94 569.4 303.64V297.19C569.249 294.44 568.453 291.763 567.075 289.378C565.697 286.992 563.777 284.965 561.47 283.46L555.89 280.23L556.29 279.53L561.88 282.76C566.47 285.41 570.21 291.88 570.21 297.19V303.64C570.21 308.64 573.76 314.84 578.13 317.36L604.88 332.81L604.48 333.51Z" fill="white"/>
</g>
<g style="mix-blend-mode:lighten">
<path d="M614.88 327.51L588.13 312.06C583.54 309.41 579.8 302.94 579.8 297.64V291.19C579.65 288.441 578.854 285.765 577.478 283.38C576.103 280.995 574.185 278.967 571.88 277.46L566.29 274.23L566.69 273.54L572.28 276.77C576.87 279.42 580.61 285.89 580.61 291.19V297.64C580.61 302.69 584.17 308.84 588.54 311.37L615.29 326.81L614.88 327.51Z" fill="white"/>
</g>
<g style="mix-blend-mode:lighten">
<path d="M625.29 321.51L598.54 306.07C593.95 303.42 590.21 296.95 590.21 291.65V285.19C590.21 280.19 586.65 273.99 582.28 271.47L576.7 268.24L577.1 267.54L582.69 270.77C587.28 273.42 591.02 279.89 591.02 285.19V291.65C591.02 296.65 594.57 302.85 598.94 305.37L625.69 320.82L625.29 321.51Z" fill="white"/>
</g>
<g style="mix-blend-mode:lighten">
<path d="M324 435.44L323.6 434.74L350.35 419.3C352.655 417.793 354.573 415.765 355.948 413.38C357.324 410.995 358.12 408.319 358.27 405.57V399.12C358.27 393.81 362.01 387.34 366.6 384.69L372.19 381.47L372.59 382.16L367 385.39C362.63 387.91 359.08 394.07 359.08 399.12V405.57C359.08 410.87 355.34 417.34 350.75 419.99L324 435.44Z" fill="white"/>
</g>
<g style="mix-blend-mode:lighten">
<path d="M313.63 429.44L313.23 428.75L340 413.3C342.307 411.795 344.227 409.768 345.605 407.382C346.983 404.997 347.779 402.32 347.93 399.57V393.12C347.93 387.82 351.66 381.35 356.26 378.7L361.84 375.47L362.25 376.17L356.66 379.39C352.29 381.92 348.73 388.07 348.73 393.12V399.57C348.73 404.87 345 411.34 340.41 414L313.63 429.44Z" fill="white"/>
</g>
<g style="mix-blend-mode:lighten">
<path d="M303.23 423.45L302.83 422.75L329.58 407.31C331.884 405.803 333.802 403.774 335.177 401.389C336.553 399.004 337.349 396.329 337.5 393.58V387.13C337.5 381.82 341.24 375.35 345.83 372.7L351.42 369.48L351.82 370.17L346.23 373.4C341.86 375.92 338.31 382.08 338.31 387.13V393.58C338.31 398.88 334.57 405.35 329.98 408L303.23 423.45Z" fill="white"/>
</g>
<g style="mix-blend-mode:lighten">
<path d="M292.82 417.45L292.42 416.75L319.17 401.31C321.477 399.805 323.397 397.778 324.775 395.392C326.153 393.007 326.949 390.33 327.1 387.58V381.13C327.1 375.83 330.83 369.36 335.43 366.7L341.01 363.48L341.42 364.17L335.83 367.4C331.46 369.93 327.9 376.08 327.9 381.13V387.58C327.9 392.88 324.17 399.35 319.57 402L292.82 417.45Z" fill="white"/>
</g>
<g style="mix-blend-mode:lighten">
<path d="M282.42 411.45L282.01 410.76L308.77 395.31C313.14 392.79 316.69 386.63 316.69 381.59V375.13C316.69 369.83 320.43 363.36 325.02 360.71L330.61 357.48L331.01 358.18L325.42 361.41C323.114 362.913 321.196 364.939 319.819 367.323C318.443 369.707 317.649 372.382 317.5 375.13V381.59C317.5 386.89 313.76 393.36 309.17 396.01L282.42 411.45Z" fill="white"/>
</g>
<g style="mix-blend-mode:lighten">
<path d="M272 405.46L271.6 404.76L298.35 389.32C302.72 386.79 306.28 380.63 306.28 375.59V369.14C306.28 363.84 310.01 357.36 314.61 354.71L320.19 351.49L320.6 352.18L315 355.41C312.693 356.915 310.773 358.942 309.395 361.328C308.017 363.713 307.221 366.39 307.07 369.14V375.59C307.07 380.89 303.34 387.36 298.74 390.01L272 405.46Z" fill="white"/>
</g>
<g style="mix-blend-mode:lighten">
<path d="M261.61 399.46L261.2 398.77L288 383.32C292.37 380.8 295.92 374.64 295.92 369.59V363.14C295.92 357.84 299.66 351.37 304.25 348.72L309.84 345.49L310.24 346.19L304.65 349.41C302.345 350.917 300.428 352.945 299.052 355.33C297.676 357.715 296.881 360.391 296.73 363.14V369.59C296.73 374.9 292.99 381.37 288.4 384.02L261.61 399.46Z" fill="white"/>
</g>
<g style="mix-blend-mode:lighten">
<path d="M251.2 393.47L250.8 392.77L277.55 377.32C281.92 374.8 285.48 368.64 285.48 363.6V357.14C285.48 351.84 289.21 345.37 293.81 342.72L299.39 339.5L299.8 340.19L294.21 343.42C289.84 345.94 286.28 352.1 286.28 357.14V363.6C286.28 368.9 282.55 375.37 277.95 378.02L251.2 393.47Z" fill="white"/>
</g>
<g style="mix-blend-mode:lighten">
<path d="M197.63 411.8L197.43 411.69L83.6499 346.37L84.0499 345.66L197.63 410.87L240.4 386.77L267.15 371.33C269.455 369.823 271.372 367.795 272.748 365.41C274.124 363.025 274.919 360.349 275.07 357.6V351.15C275.07 345.85 278.81 339.38 283.4 336.72L289 333.5L289.4 334.2L283.81 337.42C281.505 338.927 279.587 340.955 278.212 343.34C276.836 345.725 276.04 348.401 275.89 351.15V357.6C275.89 362.9 272.15 369.37 267.56 372.03L240.8 387.47L197.63 411.8Z" fill="white"/>
</g>
<g style="mix-blend-mode:lighten">
<path d="M230.39 381.47L229.99 380.78L256.74 365.33C259.047 363.825 260.967 361.798 262.345 359.412C263.723 357.027 264.519 354.351 264.67 351.6V345.15C264.67 339.85 268.4 333.38 273 330.73L278.58 327.5L278.99 328.2L273.4 331.42C269.03 333.95 265.47 340.11 265.47 345.15V351.6C265.47 356.91 261.74 363.38 257.14 366.03L230.39 381.47Z" fill="white"/>
</g>
<g style="mix-blend-mode:lighten">
<path d="M220 375.48L219.59 374.78L246.35 359.34C248.655 357.833 250.572 355.805 251.948 353.42C253.324 351.035 254.119 348.359 254.27 345.61V339.16C254.27 333.85 258.01 327.38 262.6 324.73L268.19 321.51L268.59 322.2L263 325.43C258.63 327.95 255.08 334.11 255.08 339.16V345.61C255.08 350.91 251.34 357.38 246.75 360.03L220 375.48Z" fill="white"/>
</g>
<g style="mix-blend-mode:lighten">
<path d="M209.58 369.48L209.18 368.78L235.93 353.34C238.237 351.835 240.157 349.808 241.535 347.422C242.913 345.037 243.709 342.36 243.86 339.61V333.16C243.86 327.86 247.59 321.39 252.19 318.74L257.77 315.51L258.18 316.21L252.59 319.43C248.22 321.96 244.66 328.12 244.66 333.16V339.61C244.66 344.92 240.93 351.39 236.33 354.04L209.58 369.48Z" fill="white"/>
</g>
<g style="mix-blend-mode:lighten">
<path d="M199.18 363.49L198.77 362.79L225.53 347.34C227.836 345.837 229.754 343.811 231.13 341.427C232.506 339.043 233.301 336.368 233.45 333.62V327.16C233.45 321.86 237.19 315.39 241.78 312.74L247.37 309.51L247.77 310.21L242.18 313.44C237.81 315.96 234.26 322.12 234.26 327.16V333.62C234.26 338.92 230.52 345.39 225.93 348.04L199.18 363.49Z" fill="white"/>
</g>
<g style="mix-blend-mode:lighten">
<path d="M188.77 357.49L188.37 356.79L215.12 341.35C219.49 338.82 223.05 332.67 223.05 327.62V321.17C223.05 315.87 226.78 309.4 231.38 306.75L236.96 303.52L237.37 304.22L231.78 307.44C229.473 308.945 227.553 310.972 226.175 313.358C224.797 315.743 224.001 318.42 223.85 321.17V327.62C223.85 332.92 220.12 339.39 215.52 342.05L188.77 357.49Z" fill="white"/>
</g>
<g style="mix-blend-mode:lighten">
<path d="M178.37 351.49L177.96 350.8L204.72 335.35C209.09 332.83 212.64 326.67 212.64 321.62V315.17C212.64 309.87 216.38 303.4 220.97 300.75L226.56 297.52L226.96 298.22L221.37 301.44C219.066 302.947 217.148 304.976 215.773 307.361C214.397 309.746 213.601 312.421 213.45 315.17V321.62C213.45 326.93 209.71 333.4 205.12 336.05L178.37 351.49Z" fill="white"/>
</g>
<g style="mix-blend-mode:lighten">
<path d="M168 345.5L167.6 344.8L194.35 329.36C198.72 326.83 202.28 320.68 202.28 315.63V309.18C202.28 303.87 206.01 297.41 210.61 294.75L216.19 291.53L216.6 292.22L211 295.45C208.68 296.947 206.746 298.971 205.356 301.357C203.966 303.743 203.159 306.423 203 309.18V315.63C203 320.93 199.27 327.4 194.67 330.05L168 345.5Z" fill="white"/>
</g>
<g style="mix-blend-mode:lighten">
<path d="M157.56 339.5L157.15 338.81L183.91 323.36C188.28 320.84 191.83 314.68 191.83 309.63V303.18C191.83 297.88 195.57 291.41 200.16 288.76L205.75 285.53L206.15 286.23L200.56 289.45C198.255 290.957 196.337 292.985 194.962 295.37C193.586 297.755 192.79 300.431 192.64 303.18V309.63C192.64 314.94 188.9 321.41 184.31 324.06L157.56 339.5Z" fill="white"/>
</g>
<g style="mix-blend-mode:lighten">
<path d="M147.15 333.51L146.75 332.81L173.5 317.36C177.87 314.84 181.43 308.68 181.43 303.64V297.19C181.43 291.88 185.16 285.41 189.76 282.76L195.34 279.53L195.75 280.23L190.16 283.46C187.853 284.965 185.933 286.992 184.555 289.378C183.177 291.763 182.381 294.44 182.23 297.19V303.64C182.23 308.94 178.5 315.41 173.9 318.06L147.15 333.51Z" fill="white"/>
</g>
<g style="mix-blend-mode:lighten">
<path d="M136.75 327.51L136.34 326.81L163.1 311.37C165.401 309.861 167.315 307.832 168.687 305.447C170.059 303.062 170.852 300.388 171 297.64V291.19C171 285.89 174.74 279.42 179.33 276.77L184.92 273.54L185.32 274.23L179.73 277.46C177.425 278.967 175.507 280.995 174.132 283.38C172.756 285.765 171.96 288.441 171.81 291.19V297.64C171.81 302.94 168.07 309.41 163.48 312.06L136.75 327.51Z" fill="white"/>
</g>
<g style="mix-blend-mode:lighten">
<path d="M126.34 321.51L125.94 320.82L152.69 305.37C157.06 302.85 160.62 296.69 160.62 291.65V285.19C160.62 279.89 164.35 273.42 168.95 270.77L174.53 267.54L174.94 268.24L169.35 271.47C164.98 273.99 161.42 280.15 161.42 285.19V291.65C161.42 296.95 157.69 303.42 153.09 306.07L126.34 321.51Z" fill="white"/>
</g>
<g style="mix-blend-mode:lighten">
<path d="M676.4 218.05L676.2 217.94L620.06 185.52L620.66 185.18L676.4 153L676.6 153.11L732.74 185.52L732.14 185.87L676.4 218.05ZM621.67 185.52L676.4 217.12L731.13 185.52L676.4 153.93L621.67 185.52Z" fill="white"/>
</g>
<path opacity="0.5" d="M675.39 207.66L637.04 185.52L675.39 163.38L713.74 185.52L675.39 207.66Z" fill="url(#paint1_linear)"/>
<path d="M675.39 129.84L637.04 107.7V151.98L675.39 174.12L713.74 151.98V107.7L675.39 129.84Z" fill="#42E8E0"/>
<path d="M675.39 174.13L637.04 151.98V107.7L675.39 129.84V174.13Z" fill="#D05A9E"/>
<path d="M713.74 151.98L675.39 174.13V129.84L713.74 107.7V151.98Z" fill="#985EA4"/>
<path d="M675.39 129.84L637.04 107.7L675.39 85.56L713.74 107.7L675.39 129.84Z" fill="#FF5985"/>
<path d="M675.39 129.84L637.04 107.7V109.62L675.39 131.76L713.74 109.62V107.7L675.39 129.84Z" fill="white"/>
<g style="mix-blend-mode:lighten">
<path d="M56.34 362.34L56.14 362.23L0 329.81L0.6 329.47L56.34 297.29L56.54 297.4L112.68 329.82L112.08 330.16L56.34 362.34ZM1.61 329.81L56.34 361.42L111.07 329.82L56.34 298.22L1.61 329.81Z" fill="white"/>
</g>
<path opacity="0.5" d="M56.3402 352.65L17.9902 330.51L56.3402 308.37L94.6902 330.51L56.3402 352.65Z" fill="url(#paint2_linear)"/>
<path d="M56.3402 274.83L17.9902 252.69V296.97L56.3402 319.11L94.6902 296.97V252.69L56.3402 274.83Z" fill="#42E8E0"/>
<path d="M56.3402 319.11L17.9902 296.97V252.69L56.3402 274.83V319.11Z" fill="#D05A9E"/>
<path d="M94.6898 296.97L56.3398 319.11V274.83L94.6898 252.69V296.97Z" fill="#985EA4"/>
<path d="M56.3402 274.83L17.9902 252.69L56.3402 230.55L94.6902 252.69L56.3402 274.83Z" fill="#FF5985"/>
<path d="M56.3402 274.83L17.9902 252.69V254.61L56.3402 276.75L94.6902 254.61V252.69L56.3402 274.83Z" fill="white"/>
<path opacity="0.5" d="M372.43 563.7L334.08 541.56L372.43 519.42L410.78 541.56L372.43 563.7Z" fill="url(#paint3_linear)"/>
<path d="M372.43 485.88L334.08 463.74V508.02L372.43 530.16L410.78 508.02V463.74L372.43 485.88Z" fill="#42E8E0"/>
<path d="M372.43 530.16L334.08 508.02V463.74L372.43 485.88V530.16Z" fill="#D05A9E"/>
<path d="M410.78 508.02L372.43 530.16V485.88L410.78 463.74V508.02Z" fill="#985EA4"/>
<path d="M372.43 485.88L334.08 463.74L372.43 441.6L410.78 463.74L372.43 485.88Z" fill="#FF5985"/>
<path d="M372.43 485.88L334.08 463.74V465.66L372.43 487.8L410.78 465.66V463.74L372.43 485.88Z" fill="white"/>
<path opacity="0.5" d="M694.57 469.98L656.22 447.84L694.57 425.7L732.91 447.84L694.57 469.98Z" fill="url(#paint4_linear)"/>
<path opacity="0.4" d="M694.57 508.43C669.29 508.43 644.01 502.88 624.77 491.77C606.05 480.96 595.77 466.57 595.77 451.24C595.77 435.91 606.08 421.52 624.77 410.71C663.25 388.49 725.88 388.49 764.36 410.71C783.08 421.52 793.36 435.91 793.36 451.24C793.36 466.57 783.05 480.96 764.36 491.77C745.12 502.88 719.84 508.43 694.57 508.43ZM694.57 394.84C669.44 394.84 644.31 400.36 625.18 411.4C606.72 422.06 596.56 436.21 596.56 451.24C596.56 466.27 606.72 480.41 625.18 491.07C663.45 513.16 725.71 513.16 763.97 491.07C782.43 480.41 792.59 466.27 792.59 451.24C792.59 436.21 782.42 422.06 764 411.41C744.83 400.36 719.69 394.84 694.56 394.84H694.57Z" fill="white"/>
<path opacity="0.2" d="M694.57 523.75C662.49 523.75 630.42 516.75 606 502.6C582.27 488.9 569.2 470.66 569.2 451.24C569.2 431.82 582.27 413.57 606 399.87C654.84 371.68 734.3 371.68 783.13 399.87C806.86 413.57 819.93 431.82 819.93 451.24C819.93 470.66 806.87 488.9 783.13 502.6L782.93 502.26L783.13 502.6C758.72 516.7 726.64 523.75 694.57 523.75ZM694.57 379.52C662.64 379.52 630.72 386.52 606.41 400.57C582.94 414.12 570.01 432.11 570.01 451.24C570.01 470.37 582.94 488.35 606.41 501.91C655 530 734.12 530 782.73 501.91C806.2 488.35 819.13 470.36 819.13 451.24C819.13 432.12 806.2 414.12 782.73 400.57C758.42 386.54 726.49 379.52 694.56 379.52H694.57Z" fill="white"/>
<path d="M694.57 496.36C674.65 496.36 654.73 491.99 639.57 483.23C624.8 474.7 616.66 463.34 616.66 451.23C616.66 439.12 624.8 427.76 639.57 419.23C669.9 401.71 719.25 401.71 749.57 419.23C764.34 427.75 772.48 439.12 772.48 451.23C772.48 463.34 764.35 474.7 749.58 483.23C734.41 492 714.49 496.36 694.57 496.36ZM694.57 406.91C674.8 406.91 655.02 411.25 639.97 419.91C625.46 428.29 617.47 439.4 617.47 451.21C617.47 463.02 625.47 474.12 639.97 482.5C670.08 499.89 719.07 499.88 749.18 482.5L749.38 482.84L749.18 482.5C763.69 474.12 771.68 463 771.68 451.2C771.68 439.4 763.68 428.28 749.18 419.9C734.12 411.25 714.34 406.91 694.56 406.91H694.57Z" fill="white"/>
<path d="M690.15 408.88L685.76 364.82L649.79 390.65L654.18 434.72L694.54 452.95L730.5 427.11L690.15 408.88Z" fill="#42E8E0"/>
<path d="M654.18 434.72L649.79 390.65L685.76 364.82L690.15 408.88L654.18 434.72Z" fill="#D05A9E"/>
<path d="M694.54 452.95L654.18 434.72L690.15 408.88L730.5 427.11L694.54 452.95Z" fill="#985EA4"/>
<path d="M690.15 408.88L685.76 364.82L726.11 383.05L730.5 427.11L690.15 408.88Z" fill="#FF5985"/>
<path d="M690.15 408.88L685.76 364.82L684.2 365.94L688.59 410.01L728.94 428.23L730.5 427.11L690.15 408.88Z" fill="white"/>
<path d="M376.18 161.81L337.83 139.67V183.95L376.18 206.09L414.53 183.95V139.67L376.18 161.81Z" fill="#42E8E0"/>
<path d="M376.18 206.09L337.83 183.95V139.67L376.18 161.81V206.09Z" fill="#42E8E0"/>
<path d="M414.53 183.95L376.18 206.09V161.81L414.53 139.67V183.95Z" fill="#2FD3C7"/>
<path d="M376.18 161.81L337.83 139.67L376.18 117.53L414.53 139.67L376.18 161.81Z" fill="#42E8E0"/>
<path d="M376.18 161.81L339.5 140.63L337.83 141.59L376.18 163.73L414.53 141.59L412.87 140.63L376.18 161.81Z" fill="white"/>
<path d="M426 190.24L387.65 168.09V212.38L426 234.52L464.35 212.38V168.09L426 190.24Z" fill="#42E8E0"/>
<path d="M426 234.52L387.65 212.38V168.09L426 190.24V234.52Z" fill="#42E8E0"/>
<path d="M464.35 212.38L426 234.52V190.24L464.35 168.09V212.38Z" fill="#2FD3C7"/>
<path d="M426 190.24L387.65 168.09L426 145.95L464.35 168.1L426 190.24Z" fill="#42E8E0"/>
<path d="M426 190.24L389.31 169.06L387.65 170.01L426 192.16L464.35 170.02L462.68 169.06L426 190.24Z" fill="white"/>
<path d="M475.81 218.66L437.46 196.52V240.8L475.81 262.94L514.16 240.8V196.52L475.81 218.66Z" fill="#42E8E0"/>
<path d="M475.81 262.94L437.46 240.8V196.52L475.81 218.66V262.94Z" fill="#D05A9E"/>
<path d="M514.16 240.8L475.81 262.94V218.66L514.16 196.52V240.8Z" fill="#985EA4"/>
<path d="M475.81 218.66L437.46 196.52L475.81 174.38L514.16 196.52L475.81 218.66Z" fill="#FF5985"/>
<path d="M475.81 218.66L439.12 197.48L437.46 198.44L475.81 220.58L514.16 198.44V196.52L475.81 218.66Z" fill="white"/>
<path d="M326.37 192.16L288.02 170.02V214.3L326.37 236.44L364.72 214.3V170.02L326.37 192.16Z" fill="#42E8E0"/>
<path d="M326.37 236.44L288.02 214.3V170.02L326.37 192.16V236.44Z" fill="#42E8E0"/>
<path d="M364.72 214.3L326.37 236.44V192.16L364.72 170.02V214.3Z" fill="#2FD3C7"/>
<path d="M326.37 192.16L288.02 170.02L326.37 147.88L364.72 170.02L326.37 192.16Z" fill="#42E8E0"/>
<path d="M326.37 192.16L289.68 170.98L288.02 171.94L326.37 194.08L364.72 171.94L363.05 170.98L326.37 192.16Z" fill="white"/>
<path d="M376.18 220.58L337.83 198.44V242.72L376.18 264.86L414.53 242.72V198.44L376.18 220.58Z" fill="#42E8E0"/>
<path d="M376.18 264.86L337.83 242.72V198.44L376.18 220.58V264.86Z" fill="#42E8E0"/>
<path d="M414.53 242.72L376.18 264.86V220.58L414.53 198.44V242.72Z" fill="#2FD3C7"/>
<path d="M376.18 220.58L337.83 198.44L376.18 176.3L414.53 198.44L376.18 220.58Z" fill="#42E8E0"/>
<path d="M376.18 220.58L339.5 199.4L337.83 200.36L376.18 222.5L414.53 200.36L412.87 199.4L376.18 220.58Z" fill="white"/>
<path d="M426 249L387.65 226.86V271.14L426 293.28L464.35 271.14V226.86L426 249Z" fill="#42E8E0"/>
<path d="M426 293.28L387.65 271.14V226.86L426 249V293.28Z" fill="#D05A9E"/>
<path d="M464.35 271.14L426 293.28V249L464.35 226.86V271.14Z" fill="#985EA4"/>
<path d="M426 249L387.65 226.86L426 204.72L464.35 226.86L426 249Z" fill="#FF5985"/>
<path d="M426 249L389.31 227.82L387.65 228.78L426 250.92L464.35 228.78V226.86L426 249Z" fill="white"/>
<path d="M276.55 222.5L238.2 200.36V244.64L276.55 266.78L314.9 244.64V200.36L276.55 222.5Z" fill="#42E8E0"/>
<path d="M276.55 266.78L238.2 244.64V200.36L276.55 222.5V266.78Z" fill="#D05A9E"/>
<path d="M314.9 244.64L276.55 266.78V222.5L314.9 200.36V244.64Z" fill="#985EA4"/>
<path d="M276.55 222.5L238.2 200.36L276.55 178.22L314.9 200.36L276.55 222.5Z" fill="#FF5985"/>
<path d="M276.55 222.5L238.2 200.36V202.28L276.55 224.42L314.9 202.28L313.24 201.32L276.55 222.5Z" fill="white"/>
<path d="M326.37 250.92L288.02 228.78V273.06L326.37 295.2L364.72 273.06V228.78L326.37 250.92Z" fill="#42E8E0"/>
<path d="M326.37 295.2L288.02 273.06V228.78L326.37 250.92V295.2Z" fill="#D05A9E"/>
<path d="M364.72 273.06L326.37 295.2V250.92L364.72 228.78V273.06Z" fill="#985EA4"/>
<path d="M326.37 250.92L288.02 228.78L326.37 206.64L364.72 228.78L326.37 250.92Z" fill="#FF5985"/>
<path d="M326.37 250.92L288.02 228.78V230.7L326.37 252.84L364.72 230.7L363.05 229.74L326.37 250.92Z" fill="white"/>
<path d="M376.18 279.35L337.83 257.2V301.49L376.18 323.63L414.53 301.49V257.2L376.18 279.35Z" fill="#42E8E0"/>
<path d="M376.18 323.63L337.83 301.49V257.2L376.18 279.35V323.63Z" fill="#D05A9E"/>
<path d="M414.53 301.49L376.18 323.63V279.35L414.53 257.2V301.49Z" fill="#985EA4"/>
<path d="M376.18 279.35L337.83 257.2L376.18 235.06L414.53 257.2L376.18 279.35Z" fill="#FF5985"/>
<path d="M376.18 279.35L337.83 257.2V259.13L376.18 281.27L414.53 259.13V257.2L376.18 279.35Z" fill="#FF5985"/>
<path d="M376.18 103.05L337.83 80.91V125.19L376.18 147.33L414.53 125.19V80.91L376.18 103.05Z" fill="#42E8E0"/>
<path d="M376.18 147.33L337.83 125.19V80.91L376.18 103.05V147.33Z" fill="#D05A9E"/>
<path d="M414.53 125.19L376.18 147.33V103.05L414.53 80.91V125.19Z" fill="#985EA4"/>
<path d="M376.18 103.05L337.83 80.91L376.18 58.77L414.53 80.91L376.18 103.05Z" fill="#FF5985"/>
<path d="M376.18 103.05L339.5 81.87L337.83 82.83L376.18 104.97L414.53 82.83L412.87 81.87L376.18 103.05Z" fill="white"/>
<path opacity="0.7" d="M376.18 272.13L350.02 257.03L376.18 241.93L402.34 257.03L376.18 272.13Z" fill="#E25481"/>
<path opacity="0.7" d="M326.37 243.71L300.21 228.61L326.37 213.5L352.53 228.61L326.37 243.71Z" fill="#E25481"/>
<path opacity="0.7" d="M426 241.79L399.83 226.69L426 211.58L452.16 226.69L426 241.79Z" fill="#E25481"/>
<path opacity="0.7" d="M475.9 211.79L449.75 196.69L475.9 181.59L502.07 196.69L475.9 211.79Z" fill="#E25481"/>
<path opacity="0.7" d="M276.55 215.29L250.39 200.19L276.55 185.08L302.71 200.19L276.55 215.29Z" fill="#E25481"/>
<path d="M426 131.47L387.65 109.33V153.61L426 175.75L464.35 153.61V109.33L426 131.47Z" fill="#42E8E0"/>
<path d="M426 175.75L387.65 153.61V109.33L426 131.47V175.75Z" fill="#D05A9E"/>
<path d="M464.35 153.61L426 175.75V131.47L464.35 109.33V153.61Z" fill="#985EA4"/>
<path d="M426 131.47L387.65 109.33L426 87.19L464.35 109.33L426 131.47Z" fill="#FF5985"/>
<path d="M426 131.47L389.31 110.29L387.65 111.25L426 133.39L464.35 111.25L462.68 110.29L426 131.47Z" fill="white"/>
<path d="M475.81 159.89L437.46 137.75V182.03L475.81 204.17L514.16 182.03V137.75L475.81 159.89Z" fill="#42E8E0"/>
<path d="M475.81 204.18L437.46 182.03V137.75L475.81 159.89V204.18Z" fill="#D05A9E"/>
<path d="M514.16 182.03L475.81 204.18V159.89L514.16 137.75V182.03Z" fill="#985EA4"/>
<path d="M475.81 159.89L437.46 137.75L475.81 115.61L514.16 137.75L475.81 159.89Z" fill="#FF5985"/>
<path d="M475.81 159.89L439.12 138.71L437.46 139.67L475.81 161.81L514.16 139.67V137.75L475.81 159.89Z" fill="white"/>
<path d="M326.37 133.39L288.02 111.25V155.53L326.37 177.67L364.72 155.53V111.25L326.37 133.39Z" fill="#42E8E0"/>
<path d="M326.37 177.67L288.02 155.53V111.25L326.37 133.39V177.67Z" fill="#D05A9E"/>
<path d="M364.72 155.53L326.37 177.67V133.39L364.72 111.25V155.53Z" fill="#985EA4"/>
<path d="M326.37 133.39L288.02 111.25L326.37 89.11L364.72 111.25L326.37 133.39Z" fill="#FF5985"/>
<path d="M326.37 133.39L289.68 112.21L288.02 113.17L326.37 135.31L364.72 113.17L363.05 112.21L326.37 133.39Z" fill="white"/>
<path d="M376.18 161.81L337.83 139.67V183.95L376.18 206.09L414.53 183.95V139.67L376.18 161.81Z" fill="#42E8E0"/>
<path d="M376.18 206.09L337.83 183.95V139.67L376.18 161.81V206.09Z" fill="#D05A9E"/>
<path d="M414.53 183.95L376.18 206.09V161.81L414.53 139.67V183.95Z" fill="#985EA4"/>
<path d="M376.18 161.81L337.83 139.67L376.18 117.53L414.53 139.67L376.18 161.81Z" fill="#FF5985"/>
<path d="M376.18 161.81L339.5 140.63L337.83 141.59L376.18 163.74L414.53 141.59L412.87 140.63L376.18 161.81Z" fill="white"/>
<path d="M426 190.24L387.65 168.09V212.38L426 234.52L464.35 212.38V168.09L426 190.24Z" fill="#42E8E0"/>
<path d="M426 234.52L387.65 212.38V168.09L426 190.24V234.52Z" fill="#D05A9E"/>
<path d="M464.35 212.38L426 234.52V190.24L464.35 168.09V212.38Z" fill="#985EA4"/>
<path d="M426 190.24L387.65 168.09L426 145.96L464.35 168.1L426 190.24Z" fill="#FF5985"/>
<path d="M426 190.24L389.31 169.06L387.65 170.02L426 192.16L464.35 170.02V168.09L426 190.24Z" fill="white"/>
<path d="M276.55 163.74L238.2 141.59V185.88L276.55 208.02L314.9 185.88V141.59L276.55 163.74Z" fill="#42E8E0"/>
<path d="M276.55 208.02L238.2 185.88V141.59L276.55 163.74V208.02Z" fill="#D05A9E"/>
<path d="M314.9 185.88L276.55 208.02V163.74L314.9 141.59V185.88Z" fill="#985EA4"/>
<path d="M276.55 163.74L238.2 141.59L276.55 119.45L314.9 141.59L276.55 163.74Z" fill="#FF5985"/>
<path d="M276.55 163.74L239.87 142.55L238.2 143.51L276.55 165.66L314.9 143.51L313.24 142.56L276.55 163.74Z" fill="white"/>
<path d="M326.37 192.16L288.02 170.02V214.3L326.37 236.44L364.72 214.3V170.02L326.37 192.16Z" fill="#42E8E0"/>
<path d="M326.37 236.44L288.02 214.3V170.02L326.37 192.16V236.44Z" fill="#D05A9E"/>
<path d="M364.72 214.3L326.37 236.44V192.16L364.72 170.02V214.3Z" fill="#985EA4"/>
<path d="M326.37 192.16L288.02 170.02L326.37 147.88L364.72 170.02L326.37 192.16Z" fill="#FF5985"/>
<path d="M326.37 192.16L288.02 170.02V171.94L326.37 194.08L364.72 171.94L363.05 170.98L326.37 192.16Z" fill="white"/>
<path d="M376.18 220.58L337.83 198.44V242.72L376.18 264.86L414.53 242.72V198.44L376.18 220.58Z" fill="#42E8E0"/>
<path d="M376.18 264.86L337.83 242.72V198.44L376.18 220.58V264.86Z" fill="#D05A9E"/>
<path d="M414.53 242.72L376.18 264.86V220.58L414.53 198.44V242.72Z" fill="#985EA4"/>
<path d="M376.18 220.58L337.83 198.44L376.18 176.3L414.53 198.44L376.18 220.58Z" fill="#FF5985"/>
<path d="M376.18 220.58L337.83 198.44V200.36L376.18 222.5L414.53 200.36V198.44L376.18 220.58Z" fill="white"/>
<path opacity="0.7" d="M475.9 153.29L449.75 138.19L475.9 123.08L502.07 138.19L475.9 153.29Z" fill="#E25481"/>
<path opacity="0.7" d="M276.55 156.78L250.39 141.68L276.55 126.58L302.71 141.68L276.55 156.78Z" fill="#E25481"/>
<path d="M376.18 44.28L337.83 22.14V66.42L376.18 88.56L414.53 66.42V22.14L376.18 44.28Z" fill="#42E8E0"/>
<path d="M376.18 88.56L337.83 66.42V22.14L376.18 44.28V88.56Z" fill="#D05A9E"/>
<path d="M414.53 66.42L376.18 88.56V44.28L414.53 22.14V66.42Z" fill="#985EA4"/>
<path d="M376.18 44.28L337.83 22.14L376.18 0L414.53 22.14L376.18 44.28Z" fill="#FF5985"/>
<path d="M376.18 44.28L337.83 22.14V24.06L376.18 46.2L414.53 24.06V22.14L376.18 44.28Z" fill="white"/>
<path d="M426 72.7L387.65 50.56V94.84L426 116.99L464.35 94.84V50.56L426 72.7Z" fill="#42E8E0"/>
<path d="M426 116.99L387.65 94.84V50.56L426 72.7V116.99Z" fill="#D05A9E"/>
<path d="M464.35 94.84L426 116.99V72.7L464.35 50.56V94.84Z" fill="#985EA4"/>
<path d="M426 72.7L387.65 50.56L426 28.42L464.35 50.56L426 72.7Z" fill="#FF5985"/>
<path d="M426 72.7L387.65 50.56V52.48L426 74.63L464.35 52.48V50.56L426 72.7Z" fill="white"/>
<path d="M475.81 101.13L437.46 78.99V123.27L475.81 145.41L514.16 123.27V78.99L475.81 101.13Z" fill="#42E8E0"/>
<path d="M475.81 145.41L437.46 123.27V78.99L475.81 101.13V145.41Z" fill="#D05A9E"/>
<path d="M514.16 123.27L475.81 145.41V101.13L514.16 78.99V123.27Z" fill="#985EA4"/>
<path d="M475.81 101.13L437.46 78.99L475.81 56.84L514.16 78.99L475.81 101.13Z" fill="#FF5985"/>
<path d="M475.81 101.13L437.46 78.99V80.91L475.81 103.05L514.16 80.91V78.99L475.81 101.13Z" fill="white"/>
<path d="M326.37 74.63L288.02 52.48V96.77L326.37 118.91L364.72 96.77V52.48L326.37 74.63Z" fill="#42E8E0"/>
<path d="M326.37 118.91L288.02 96.77V52.48L326.37 74.63V118.91Z" fill="#D05A9E"/>
<path d="M364.72 96.77L326.37 118.91V74.63L364.72 52.48V96.77Z" fill="#985EA4"/>
<path d="M326.37 74.63L288.02 52.48L326.37 30.34L364.72 52.48L326.37 74.63Z" fill="#FF5985"/>
<path d="M326.37 74.63L288.02 52.48V54.41L326.37 76.55L364.72 54.41V52.48L326.37 74.63Z" fill="white"/>
<path d="M276.55 104.97L238.2 82.83V127.11L276.55 149.25L314.9 127.11V82.83L276.55 104.97Z" fill="#42E8E0"/>
<path d="M276.55 149.25L238.2 127.11V82.83L276.55 104.97V149.25Z" fill="#D05A9E"/>
<path d="M314.9 127.11L276.55 149.25V104.97L314.9 82.83V127.11Z" fill="#985EA4"/>
<path d="M276.55 104.97L238.2 82.83L276.55 60.69L314.9 82.83L276.55 104.97Z" fill="#FF5985"/>
<path d="M276.55 104.97L238.2 82.83V84.75L276.55 106.89L314.9 84.75V82.83L276.55 104.97Z" fill="white"/>
<path opacity="0.3" d="M193 411.18C193 412.205 193.304 413.206 193.873 414.058C194.442 414.91 195.251 415.574 196.198 415.966C197.144 416.358 198.186 416.46 199.191 416.26C200.195 416.061 201.118 415.567 201.843 414.843C202.567 414.118 203.061 413.195 203.26 412.191C203.46 411.186 203.358 410.144 202.966 409.198C202.574 408.251 201.91 407.442 201.058 406.873C200.206 406.304 199.205 406 198.18 406C197.499 405.999 196.825 406.132 196.196 406.392C195.567 406.651 194.996 407.033 194.514 407.514C194.033 407.996 193.651 408.567 193.392 409.196C193.132 409.825 192.999 410.499 193 411.18Z" fill="#FF5985"/>
<path d="M198.17 413.43C199.413 413.43 200.42 412.423 200.42 411.18C200.42 409.937 199.413 408.93 198.17 408.93C196.927 408.93 195.92 409.937 195.92 411.18C195.92 412.423 196.927 413.43 198.17 413.43Z" fill="#FF5985"/>
<path opacity="0.3" d="M605.8 149.58C605.8 150.604 606.103 151.604 606.671 152.456C607.24 153.307 608.048 153.971 608.993 154.364C609.938 154.756 610.979 154.86 611.983 154.662C612.987 154.464 613.91 153.972 614.636 153.25C615.361 152.527 615.856 151.606 616.058 150.603C616.26 149.599 616.16 148.558 615.771 147.612C615.382 146.665 614.721 145.854 613.872 145.283C613.023 144.711 612.024 144.404 611 144.4C610.317 144.395 609.64 144.525 609.008 144.783C608.376 145.041 607.802 145.422 607.318 145.904C606.834 146.386 606.451 146.959 606.191 147.59C605.93 148.221 605.797 148.897 605.8 149.58Z" fill="#FF5985"/>
<path d="M608.73 149.58C608.73 150.025 608.862 150.461 609.11 150.831C609.358 151.201 609.71 151.49 610.121 151.66C610.533 151.83 610.986 151.874 611.423 151.786C611.859 151.698 612.26 151.483 612.575 151.167C612.889 150.852 613.102 150.45 613.188 150.013C613.274 149.576 613.228 149.123 613.056 148.712C612.884 148.301 612.594 147.95 612.223 147.704C611.851 147.458 611.415 147.328 610.97 147.33C610.675 147.33 610.383 147.388 610.11 147.501C609.838 147.615 609.591 147.781 609.383 147.99C609.174 148.199 609.01 148.447 608.898 148.72C608.786 148.993 608.729 149.285 608.73 149.58Z" fill="#FF5985"/>
<path opacity="0.3" d="M756.56 473.66C756.56 474.685 756.864 475.687 757.434 476.539C758.003 477.391 758.813 478.055 759.76 478.447C760.707 478.838 761.749 478.94 762.754 478.74C763.759 478.539 764.682 478.045 765.406 477.319C766.131 476.594 766.623 475.67 766.822 474.664C767.02 473.659 766.917 472.617 766.523 471.671C766.129 470.724 765.464 469.916 764.611 469.348C763.758 468.78 762.755 468.478 761.73 468.48C761.05 468.479 760.376 468.612 759.748 468.872C759.119 469.132 758.548 469.513 758.068 469.995C757.587 470.476 757.207 471.048 756.948 471.677C756.689 472.306 756.557 472.98 756.56 473.66Z" fill="#FF5985"/>
<path d="M761.73 475.91C762.973 475.91 763.98 474.903 763.98 473.66C763.98 472.417 762.973 471.41 761.73 471.41C760.487 471.41 759.48 472.417 759.48 473.66C759.48 474.903 760.487 475.91 761.73 475.91Z" fill="#FF5985"/>
<path opacity="0.3" d="M663.11 500.1C667.573 500.1 671.19 496.482 671.19 492.02C671.19 487.557 667.573 483.94 663.11 483.94C658.648 483.94 655.03 487.557 655.03 492.02C655.03 496.482 658.648 500.1 663.11 500.1Z" fill="#FF5985"/>
<path d="M659.6 492C659.598 492.695 659.802 493.374 660.187 493.953C660.571 494.531 661.119 494.983 661.76 495.25C662.401 495.517 663.107 495.588 663.789 495.454C664.47 495.319 665.097 494.986 665.589 494.495C666.08 494.005 666.416 493.38 666.552 492.698C666.688 492.017 666.619 491.311 666.354 490.669C666.089 490.027 665.639 489.478 665.061 489.092C664.484 488.706 663.805 488.5 663.11 488.5C662.181 488.5 661.29 488.868 660.632 489.525C659.974 490.181 659.603 491.071 659.6 492Z" fill="#FF5985"/>
<path opacity="0.3" d="M630.75 421.55C630.748 422.635 631.068 423.696 631.669 424.598C632.271 425.501 633.127 426.205 634.128 426.621C635.13 427.037 636.233 427.146 637.297 426.935C638.361 426.724 639.338 426.202 640.105 425.435C640.872 424.668 641.394 423.691 641.605 422.627C641.816 421.563 641.707 420.46 641.291 419.458C640.875 418.457 640.171 417.601 639.268 416.999C638.366 416.398 637.305 416.078 636.22 416.08C634.769 416.08 633.378 416.656 632.352 417.682C631.326 418.708 630.75 420.099 630.75 421.55Z" fill="#FF5985"/>
<path d="M633.85 421.55C633.848 422.022 633.986 422.483 634.247 422.876C634.508 423.269 634.879 423.575 635.315 423.757C635.75 423.938 636.229 423.986 636.692 423.895C637.155 423.803 637.58 423.576 637.913 423.243C638.246 422.909 638.473 422.484 638.565 422.022C638.656 421.559 638.608 421.08 638.427 420.645C638.246 420.209 637.939 419.838 637.546 419.577C637.153 419.316 636.692 419.178 636.22 419.18C635.592 419.18 634.989 419.43 634.544 419.874C634.1 420.319 633.85 420.921 633.85 421.55Z" fill="#FF5985"/>
<path opacity="0.3" d="M550.68 119.73C550.678 120.755 550.981 121.758 551.549 122.612C552.117 123.465 552.926 124.13 553.873 124.524C554.82 124.917 555.863 125.021 556.868 124.821C557.874 124.621 558.798 124.128 559.523 123.403C560.248 122.678 560.742 121.754 560.941 120.748C561.141 119.742 561.037 118.7 560.644 117.753C560.251 116.806 559.585 115.997 558.732 115.429C557.878 114.86 556.876 114.558 555.85 114.56C554.48 114.563 553.166 115.108 552.197 116.077C551.228 117.046 550.683 118.36 550.68 119.73Z" fill="#FF5985"/>
<path d="M553.61 119.73C553.608 120.176 553.738 120.612 553.985 120.984C554.231 121.355 554.583 121.645 554.994 121.817C555.406 121.988 555.859 122.034 556.296 121.947C556.734 121.861 557.136 121.646 557.451 121.331C557.766 121.016 557.981 120.614 558.067 120.176C558.154 119.739 558.108 119.286 557.937 118.874C557.765 118.463 557.475 118.112 557.104 117.865C556.732 117.619 556.296 117.488 555.85 117.49C555.256 117.49 554.686 117.726 554.266 118.146C553.846 118.566 553.61 119.136 553.61 119.73Z" fill="#FF5985"/>
<path opacity="0.3" d="M121 370.17C120.998 371.195 121.3 372.198 121.869 373.052C122.437 373.905 123.246 374.57 124.193 374.964C125.14 375.357 126.182 375.46 127.188 375.261C128.194 375.061 129.118 374.568 129.843 373.843C130.568 373.118 131.061 372.194 131.261 371.188C131.461 370.182 131.357 369.14 130.964 368.193C130.57 367.246 129.905 366.437 129.052 365.869C128.198 365.3 127.195 364.998 126.17 365C124.799 365 123.484 365.545 122.514 366.514C121.545 367.484 121 368.799 121 370.17Z" fill="#FF5985"/>
<path d="M123.93 370.17C123.928 370.616 124.059 371.052 124.305 371.424C124.552 371.795 124.903 372.085 125.315 372.257C125.726 372.428 126.179 372.474 126.617 372.387C127.054 372.301 127.456 372.086 127.771 371.771C128.086 371.456 128.301 371.054 128.387 370.616C128.474 370.179 128.429 369.726 128.257 369.314C128.085 368.903 127.796 368.551 127.424 368.305C127.052 368.059 126.616 367.928 126.17 367.93C125.576 367.93 125.006 368.166 124.586 368.586C124.166 369.006 123.93 369.576 123.93 370.17Z" fill="#FF5985"/>
</g>
<defs>
<linearGradient id="paint0_linear" x1="170.61" y1="336.31" x2="581.75" y2="336.31" gradientUnits="userSpaceOnUse">
<stop stop-color="#FF5985"/>
<stop offset="0.22" stop-color="#ED5A8A"/>
<stop offset="0.67" stop-color="#BF5C98"/>
<stop offset="1" stop-color="#985EA4"/>
</linearGradient>
<linearGradient id="paint1_linear" x1="637.04" y1="185.523" x2="713.74" y2="185.523" gradientUnits="userSpaceOnUse">
<stop stop-color="#FF5885"/>
<stop offset="0.27" stop-color="#FC5893"/>
<stop offset="0.66" stop-color="#F957A1"/>
<stop offset="1" stop-color="#F857A6"/>
</linearGradient>
<linearGradient id="paint2_linear" x1="17.9902" y1="330.513" x2="94.6902" y2="330.513" gradientUnits="userSpaceOnUse">
<stop stop-color="#FF5885"/>
<stop offset="0.27" stop-color="#FC5893"/>
<stop offset="0.66" stop-color="#F957A1"/>
<stop offset="1" stop-color="#F857A6"/>
</linearGradient>
<linearGradient id="paint3_linear" x1="334.08" y1="541.563" x2="410.78" y2="541.563" gradientUnits="userSpaceOnUse">
<stop stop-color="#FF5885"/>
<stop offset="0.27" stop-color="#FC5893"/>
<stop offset="0.66" stop-color="#F957A1"/>
<stop offset="1" stop-color="#F857A6"/>
</linearGradient>
<linearGradient id="paint4_linear" x1="656.22" y1="447.843" x2="732.91" y2="447.843" gradientUnits="userSpaceOnUse">
<stop stop-color="#FF5885"/>
<stop offset="0.27" stop-color="#FC5893"/>
<stop offset="0.66" stop-color="#F957A1"/>
<stop offset="1" stop-color="#F857A6"/>
</linearGradient>
<clipPath id="clip0">
<rect width="819.93" height="563.7" fill="white"/>
</clipPath>
</defs>
</svg>
