<svg width="32" height="32" viewBox="0 0 32 32" fill="none" xmlns="http://www.w3.org/2000/svg">
<rect width="32" height="32" rx="16" fill="black" fill-opacity="0.03"/>
<mask id="mask0" mask-type="alpha" maskUnits="userSpaceOnUse" x="8" y="8" width="16" height="16">
<path fill-rule="evenodd" clip-rule="evenodd" d="M23.3706 12.8859C23.5748 13.3694 23.7328 13.8764 23.8382 14.39C23.9454 14.9159 24 15.4577 24 15.9995C24 16.5432 23.9454 17.0851 23.8382 17.6119C23.7328 18.1255 23.5748 18.6315 23.3706 19.1141C23.1712 19.5882 22.9219 20.0473 22.633 20.4743C22.348 20.8976 22.0187 21.2946 21.6574 21.6577C21.2952 22.0189 20.8973 22.3463 20.473 22.6332C20.0459 22.922 19.5886 23.1703 19.1145 23.3707C18.6309 23.5758 18.1248 23.7319 17.6111 23.8363C17.0843 23.9454 16.5424 24 16.0005 24C15.4576 24 14.9157 23.9454 14.3889 23.8363C13.8752 23.7319 13.3691 23.5758 12.8855 23.3707C12.4114 23.1703 11.9541 22.922 11.5261 22.6332C11.1027 22.3463 10.7048 22.0189 10.3426 21.6577C9.9813 21.2946 9.65297 20.8976 9.36697 20.4743C9.07814 20.0473 8.82884 19.5882 8.62939 19.1141C8.4243 18.6315 8.26718 18.1255 8.16182 17.6119C8.05457 17.0851 8 16.5432 8 15.9995C8 15.4577 8.05457 14.9159 8.16182 14.39C8.26718 13.8764 8.4243 13.3694 8.62939 12.8859C8.82884 12.4118 9.07814 11.9546 9.36697 11.5275C9.65297 11.1042 9.9813 10.7054 10.3426 10.3442C10.7048 9.98201 11.1027 9.65371 11.5261 9.36775C11.9541 9.07802 12.4114 8.83062 12.8855 8.62931C13.3691 8.42613 13.8752 8.26809 14.3889 8.16368C14.9157 8.0555 15.4576 8 16.0005 8C16.5424 8 17.0843 8.0555 17.6111 8.16368C18.1248 8.26809 18.6309 8.42613 19.1145 8.62931C19.5886 8.83062 20.0459 9.07802 20.473 9.36775C20.8973 9.65371 21.2952 9.98201 21.6574 10.3442C22.0187 10.7054 22.348 11.1042 22.633 11.5275C22.9219 11.9546 23.1712 12.4118 23.3706 12.8859ZM20.5121 10.8744L20.5124 10.8738C19.3092 9.81363 17.7296 9.16833 16.0004 9.16833C15.4454 9.16833 14.9063 9.23605 14.3898 9.36116C14.4923 9.49662 15.7756 11.2011 16.9431 13.3468C19.5078 12.3863 20.4842 10.9163 20.5121 10.8744ZM14.3636 9.36681C14.3636 9.36775 14.3626 9.36869 14.3626 9.36869C14.3626 9.36869 14.3542 9.37057 14.3419 9.37245L14.3486 9.37091C14.3535 9.36982 14.3583 9.36877 14.3636 9.36681ZM15.6223 13.7579C14.4398 11.6564 13.1763 9.94344 13.085 9.82209C11.179 10.7214 9.75747 12.4757 9.31436 14.5923C9.49405 14.5951 12.3418 14.6299 15.6223 13.7579ZM9.16756 15.9995C9.16756 15.9511 9.16924 15.9031 9.17092 15.8552V15.8552V15.8552V15.8552V15.8552V15.8552C9.17175 15.8315 9.17258 15.8078 9.1732 15.7841C9.29456 15.7869 12.6701 15.8631 16.1877 14.8105C16.3834 15.1934 16.5706 15.5838 16.7418 15.9723C16.6515 15.9967 16.5622 16.024 16.4728 16.0541C12.7858 17.245 10.9155 20.5618 10.9155 20.5618C10.9155 20.5618 10.9184 20.5646 10.9184 20.5656C9.82987 19.3549 9.16756 17.7548 9.16756 15.9995ZM18.4878 16.7869C19.3844 19.2486 19.7485 21.2542 19.8181 21.6662C21.3516 20.6305 22.4419 18.989 22.7458 17.0851C22.6047 17.039 20.6939 16.4341 18.4878 16.7869ZM11.6474 21.2664C12.83 22.2447 14.3465 22.8326 16.0004 22.8326C16.9459 22.8326 17.8482 22.6388 18.6676 22.2908C18.566 21.6935 18.1699 19.6014 17.2084 17.1039C17.203 17.1056 17.1975 17.1071 17.1919 17.1087C17.182 17.1115 17.172 17.1144 17.1623 17.118C13.1103 18.53 11.8008 21.3859 11.8008 21.3859C11.8008 21.3859 11.7377 21.3398 11.6474 21.2664ZM22.8306 15.9318C22.7318 15.9102 20.4194 15.4125 18.0721 15.7079L18.0252 15.5954L18.0252 15.5953C17.9921 15.5158 17.9589 15.4359 17.9244 15.3561C17.7823 15.0212 17.629 14.6901 17.47 14.3646C20.1551 13.2684 21.2526 11.6953 21.2762 11.6615L21.2764 11.6611C22.2342 12.8247 22.8146 14.311 22.8306 15.9318Z" fill="white"/>
</mask>
<g mask="url(#mask0)">
<rect width="16" height="16" transform="translate(8 8)" fill="white"/>
<rect x="8" y="8" width="16" height="16" fill="#212529"/>
</g>
</svg>
