<svg width="16" height="16" viewBox="0 0 16 16" fill="none" xmlns="http://www.w3.org/2000/svg">
<mask id="mask0" mask-type="alpha" maskUnits="userSpaceOnUse" x="0" y="1" width="16" height="14">
<path fill-rule="evenodd" clip-rule="evenodd" d="M2.26564 4.18201H2.24447C1.18615 4.18201 0.5 3.48095 0.5 2.5923C0.5 1.68637 1.20643 1 2.28592 1C3.36453 1 4.02775 1.68464 4.04892 2.58971C4.04892 3.47836 3.36453 4.18201 2.26564 4.18201ZM15.5001 14.5H12.1849V9.75421C12.1849 8.51201 11.6663 7.66399 10.526 7.66399C9.65374 7.66399 9.16867 8.23625 8.9429 8.78776C8.86835 8.96206 8.8697 9.19667 8.87108 9.43849V9.43859C8.87127 9.47138 8.87146 9.50431 8.87146 9.53724V14.5H5.58712C5.58712 14.5 5.62946 6.0933 5.58712 5.32913H8.87146V6.76843C9.06549 6.13911 10.115 5.24096 11.7898 5.24096C13.8676 5.24096 15.5001 6.56009 15.5001 9.40065V14.5ZM3.80191 5.32913H0.878285V14.5H3.80191V5.32913Z" fill="white"/>
</mask>
<g mask="url(#mask0)">
<rect width="16" height="16" fill="white"/>
<rect width="16" height="16" fill="#212529"/>
</g>
</svg>
