<svg width="16" height="16" viewBox="0 0 16 16" fill="none" xmlns="http://www.w3.org/2000/svg">
<path fill-rule="evenodd" clip-rule="evenodd" d="M15.9512 3.47013C15.9481 3.46769 15.9457 3.46449 15.9418 3.46266L15.9363 3.45992L11.1098 1.05411C11.0772 1.0378 11.0429 1.02682 11.0082 1.01798C10.9647 1.00686 10.9202 1 10.8755 1C10.6907 1 10.5068 1.09251 10.4071 1.25377L7.62842 5.75539L11.1156 11.4044L15.966 3.54695C15.982 3.52073 15.9744 3.48842 15.9512 3.47013Z" fill="#212529"/>
<path fill-rule="evenodd" clip-rule="evenodd" d="M6.09766 4.72998V9.85421L10.6665 12.1315L6.09766 4.72998Z" fill="#212529"/>
<path fill-rule="evenodd" clip-rule="evenodd" d="M11.353 12.4737L15.1138 14.3482C15.6032 14.5922 16 14.4214 16 13.9669V4.9458L11.353 12.4737Z" fill="#212529"/>
<path fill-rule="evenodd" clip-rule="evenodd" d="M5.30464 3.47765L0.590747 1.12792C0.50559 1.08555 0.424561 1.06543 0.351176 1.06543C0.144782 1.06543 0 1.2247 0 1.49188V11.6379C0 11.9095 0.199362 12.2311 0.44306 12.3526L4.59495 14.422C4.70136 14.475 4.80272 14.5002 4.8943 14.5002C5.15237 14.5002 5.33338 14.3011 5.33338 13.9671V3.52383C5.33338 3.50432 5.32222 3.48633 5.30464 3.47765Z" fill="#212529"/>
</svg>
