<svg width="30" height="24" viewBox="0 0 30 24" fill="none" xmlns="http://www.w3.org/2000/svg">
<path d="M29.271 4.44183C29.2718 4.28513 29.2171 4.13321 29.1168 4.01312L25.924 0.233352C25.8612 0.160397 25.7835 0.101809 25.6962 0.0615507C25.609 0.0212922 25.5141 0.000302078 25.418 0L20.6558 0C20.5565 0.000605955 20.4585 0.0238865 20.3694 0.0680776C20.2804 0.112269 20.2025 0.176211 20.1417 0.255059L14.6111 7.20407L9.19961 0.382589V0.360882C9.14475 0.253186 9.06153 0.162614 8.95898 0.0989939C8.85643 0.0353743 8.73845 0.00113776 8.61787 0L3.85301 0C3.7573 0.000155806 3.66276 0.0210943 3.57588 0.0613762C3.489 0.101658 3.41186 0.160328 3.34974 0.233352L0.156934 4.01312C0.0557802 4.13295 0.000186009 4.28483 0 4.44183L0 23.3352C0 23.5108 0.0695573 23.6792 0.19337 23.8034C0.317183 23.9275 0.485109 23.9973 0.660207 23.9973H5.92022C6.09222 23.9984 6.25765 23.9311 6.3802 23.8101L9.08597 21.1862C9.14919 21.1244 9.19947 21.0506 9.23385 20.969C9.26823 20.8875 9.28603 20.7999 9.28619 20.7114V17.5611L11.0936 19.957C11.1505 20.0361 11.2242 20.1014 11.3094 20.1484C11.3945 20.1953 11.4891 20.2226 11.5861 20.2284H17.2276C17.3258 20.2279 17.4227 20.2056 17.5111 20.1628C17.5996 20.1201 17.6774 20.0582 17.739 19.9815L20.0037 17.1894L20.02 20.7168C20.0208 20.8048 20.0389 20.8918 20.0733 20.9728C20.1076 21.0538 20.1575 21.1273 20.2202 21.1889L22.7961 23.6961C22.9349 23.8584 23.1267 23.9661 23.3372 24H28.5973C28.6853 24.0018 28.7728 23.9859 28.8547 23.9533C28.9365 23.9207 29.011 23.872 29.0738 23.81C29.1366 23.7481 29.1864 23.6741 29.2203 23.5926C29.2541 23.5111 29.2714 23.4235 29.271 23.3352V4.44183ZM25.1122 1.32685L27.1848 3.76891H23.6917L21.9411 1.32685H25.1122ZM8.6314 1.7827L13.7724 8.26772L11.8783 10.6609L6.76442 4.4147L8.6314 1.7827ZM4.16147 1.32685H7.32992L5.582 3.76891H2.08885L4.16147 1.32685ZM7.94954 20.4319L6.57772 21.7696V13.9794L7.94954 15.8028V20.4319ZM6.45055 11.5998C6.36613 11.4897 6.24972 11.4087 6.1174 11.3679C5.98507 11.3271 5.84338 11.3284 5.71187 11.3719C5.58011 11.4158 5.46552 11.5003 5.38439 11.6133C5.30327 11.7263 5.25975 11.8621 5.26001 12.0014V22.6732H1.32312V5.10661H5.60906L11.3778 12.137C11.4402 12.2123 11.5184 12.2729 11.6067 12.3147C11.6951 12.3564 11.7915 12.3782 11.8891 12.3785C11.9874 12.3772 12.0842 12.3541 12.1726 12.311C12.261 12.2678 12.3388 12.2057 12.4005 12.1289L20.6261 1.76371L22.5201 4.42555L11.6186 18.4674L6.45055 11.5998ZM22.6852 21.7425L21.3323 20.4319L21.3079 15.5613L22.6797 13.8682L22.6852 21.7425ZM27.9452 22.6732H24.011V12.0014C24.0115 11.8642 23.9695 11.7302 23.8908 11.618C23.812 11.5057 23.7005 11.4208 23.5716 11.3749C23.4426 11.329 23.3026 11.3245 23.171 11.3618C23.0393 11.3992 22.9225 11.4767 22.8367 11.5835L16.911 18.9097H12.9633L23.6728 5.10661H27.9506L27.9452 22.6732Z" fill="#DF0070"/>
</svg>
