<svg width="456" height="328" viewBox="0 0 456 328" fill="none" xmlns="http://www.w3.org/2000/svg">
<path d="M456 69.4354C456.012 66.9858 455.161 64.611 453.597 62.7337L403.858 3.6478C402.88 2.50736 401.67 1.5915 400.311 0.962171C398.951 0.332843 397.472 0.00472214 395.975 0L321.788 0C320.24 0.00947239 318.714 0.373398 317.327 1.0642C315.939 1.755 314.726 2.75456 313.779 3.98713L227.621 112.615L143.317 5.98069V5.64136C142.462 3.95785 141.166 2.542 139.568 1.54749C137.97 0.552976 136.133 0.0177857 134.254 0L60.0244 0C58.5333 0.00243558 57.0605 0.32975 55.7071 0.959442C54.3536 1.58913 53.1518 2.50627 52.1841 3.6478L2.44481 62.7337C0.868975 64.607 0.00289775 66.9811 0 69.4354L0 364.78C0 367.525 1.0836 370.157 3.01243 372.098C4.94126 374.039 7.55731 375.129 10.2851 375.129H92.2285C94.908 375.147 97.4852 374.095 99.3943 372.203L141.546 331.186C142.531 330.22 143.314 329.066 143.85 327.791C144.386 326.517 144.663 325.147 144.666 323.763V274.518L172.823 311.972C173.709 313.207 174.857 314.229 176.184 314.963C177.511 315.696 178.983 316.123 180.495 316.213H268.382C269.911 316.206 271.42 315.856 272.798 315.189C274.176 314.521 275.389 313.552 276.348 312.353L311.629 268.707L311.882 323.848C311.895 325.224 312.177 326.584 312.712 327.851C313.248 329.117 314.025 330.265 315.002 331.229L355.13 370.421C357.293 372.959 360.28 374.642 363.561 375.172H445.504C446.876 375.2 448.239 374.952 449.515 374.442C450.79 373.932 451.95 373.17 452.928 372.202C453.906 371.233 454.682 370.078 455.21 368.803C455.737 367.529 456.006 366.161 456 364.78V69.4354ZM391.212 20.7416L423.501 58.9162H369.083L341.81 20.7416H391.212ZM134.465 27.8675L214.553 129.242L185.047 166.654L105.38 69.0113L134.465 27.8675ZM64.8297 20.7416H114.19L86.9595 58.9162H32.5413L64.8297 20.7416ZM123.842 319.394L102.471 340.306V218.529L123.842 247.032V319.394ZM100.49 181.33C99.1751 179.609 97.3616 178.343 95.3002 177.704C93.2389 177.066 91.0314 177.088 88.9828 177.767C86.9301 178.453 85.1449 179.774 83.8811 181.541C82.6173 183.308 81.9393 185.43 81.9434 187.607V354.43H20.6123V79.8274H87.381L177.249 189.728C178.222 190.905 179.44 191.852 180.816 192.505C182.193 193.157 183.694 193.498 185.216 193.503C186.747 193.482 188.255 193.122 189.632 192.447C191.009 191.773 192.221 190.801 193.182 189.601L321.324 27.5706L350.831 69.1809L181 288.685L100.49 181.33ZM353.402 339.882L332.326 319.394L331.947 243.257L353.318 216.79L353.402 339.882ZM435.345 354.43H374.056V187.607C374.064 185.462 373.41 183.368 372.184 181.614C370.957 179.859 369.22 178.532 367.211 177.815C365.202 177.097 363.022 177.026 360.971 177.61C358.92 178.194 357.1 179.405 355.763 181.075L263.45 295.599H201.95L368.787 79.8274H435.43L435.345 354.43Z" fill="#DF0070" fill-opacity="0.3"/>
</svg>
