<svg width="32" height="32" viewBox="0 0 32 32" fill="none" xmlns="http://www.w3.org/2000/svg">
<rect width="32" height="32" rx="16" fill="white" fill-opacity="0.3"/>
<mask id="mask0" mask-type="alpha" maskUnits="userSpaceOnUse" x="8" y="8" width="16" height="16">
<path d="M16.0005 8C11.5825 8 8 11.5816 8 16.0005C8 19.2754 9.97001 22.0902 12.7896 23.3273C12.767 22.7694 12.7858 22.0977 12.9279 21.49C13.0821 20.8408 13.9571 17.1313 13.9571 17.1313C13.9571 17.1313 13.7021 16.6205 13.7021 15.865C13.7021 14.6796 14.3898 13.7943 15.245 13.7943C15.9722 13.7943 16.3241 14.3409 16.3241 14.9957C16.3241 15.7267 15.8575 16.8208 15.6176 17.8341C15.4172 18.6836 16.0428 19.3751 16.8801 19.3751C18.3957 19.3751 19.4165 17.4286 19.4165 15.1218C19.4165 13.3691 18.2358 12.0567 16.088 12.0567C13.6617 12.0567 12.1498 13.8658 12.1498 15.8866C12.1498 16.5847 12.3549 17.0758 12.6767 17.4559C12.8253 17.6318 12.8451 17.7014 12.7914 17.9027C12.7538 18.0486 12.6654 18.4042 12.6287 18.5444C12.5751 18.7466 12.4114 18.82 12.2288 18.7448C11.1102 18.2885 10.59 17.0645 10.59 15.6881C10.59 13.4161 12.5064 10.6897 16.3072 10.6897C19.3619 10.6897 21.3724 12.9015 21.3724 15.2732C21.3724 18.4117 19.6282 20.7562 17.0551 20.7562C16.1924 20.7562 15.3795 20.2895 15.1011 19.7599C15.1011 19.7599 14.6363 21.6029 14.5385 21.9585C14.3691 22.5747 14.037 23.1919 13.7332 23.6717C14.4529 23.8843 15.213 24 16.0005 24C20.4184 24 24 20.4184 24 16.0005C24 11.5816 20.4184 8 16.0005 8Z" fill="white"/>
</mask>
<g mask="url(#mask0)">
<rect width="16" height="16" transform="translate(8 8)" fill="white"/>
<rect x="8" y="8" width="16" height="16" fill="white"/>
</g>
</svg>
