<svg width="98" height="99" viewBox="0 0 98 99" fill="none" xmlns="http://www.w3.org/2000/svg">
<path d="M49.3629 33.2417L53.3555 41.2197C53.5975 41.7033 53.9605 41.945 54.4444 42.0659L63.2765 43.3956C64.4864 43.5164 64.9704 45.0879 64.1234 45.934L57.7111 52.2197C57.3481 52.5824 57.2271 53.0659 57.2271 53.5494L58.8 62.3736C59.042 63.5824 57.7111 64.5494 56.6222 63.945L48.758 59.8351C48.2741 59.5934 47.7901 59.5934 47.3062 59.8351L39.442 63.945C38.3531 64.5494 37.0222 63.5824 37.2642 62.3736L38.837 53.5494C38.958 53.0659 38.716 52.5824 38.3531 52.2197L31.8197 45.934C30.9728 45.0879 31.4568 43.5164 32.6666 43.3956L41.4987 42.0659C41.9827 41.945 42.4666 41.7033 42.5876 41.2197L46.5802 33.2417C47.1852 32.1538 48.758 32.1538 49.3629 33.2417Z" stroke="white" stroke-width="1.32" stroke-miterlimit="10"/>
<path d="M48.7581 39.1648L51.1779 44C51.2988 44.2417 51.5408 44.4835 51.9038 44.4835L57.2272 45.2088C57.9532 45.3296 58.3161 46.2967 57.7112 46.7802L53.8396 50.5274C53.5976 50.7692 53.4766 51.011 53.5976 51.3736L54.5655 56.6923C54.6865 57.4176 53.9606 58.022 53.2346 57.6593L48.3951 55.1209C48.1532 55 47.7902 55 47.5482 55.1209L42.7087 57.6593C41.9828 58.022 41.2569 57.4176 41.3779 56.6923L42.3458 51.3736C42.3458 51.1318 42.3458 50.7692 42.1038 50.5274L38.2322 46.7802C37.6272 46.2967 37.9902 45.3296 38.7161 45.2088L44.0396 44.4835C44.2816 44.4835 44.6445 44.2417 44.7655 44L47.1853 39.1648C47.4272 38.4395 48.5161 38.4395 48.7581 39.1648Z" fill="#985EA4"/>
<path d="M22.8666 76.7581C17.7851 76.7581 13.7925 72.6482 13.7925 67.6922C13.7925 62.7361 17.9061 58.6262 22.8666 58.6262" fill="#985EA4"/>
<path d="M22.8666 76.7581C17.7851 76.7581 13.7925 72.6482 13.7925 67.6922C13.7925 62.7361 17.9061 58.6262 22.8666 58.6262" stroke="white" stroke-width="1.6501" stroke-miterlimit="10"/>
<path d="M19.479 51.6154C21.3499 51.6154 22.8666 50.1001 22.8666 48.2308C22.8666 46.3615 21.3499 44.8462 19.479 44.8462C17.608 44.8462 16.0913 46.3615 16.0913 48.2308C16.0913 50.1001 17.608 51.6154 19.479 51.6154Z" fill="#FF5985" stroke="white" stroke-width="1.32" stroke-miterlimit="10"/>
<path d="M22.8667 76.7582C22.8667 77.967 23.8346 79.0549 25.1655 79.0549H29.763C30.9729 79.0549 32.0618 78.0879 32.0618 76.7582V58.5054C32.0618 57.2967 31.0939 56.2087 29.763 56.2087H25.1655C23.9556 56.2087 22.8667 57.1758 22.8667 58.5054V76.7582Z" fill="#FF5985" stroke="white" stroke-width="1.6501" stroke-miterlimit="10"/>
<path d="M75.375 76.7581C80.4565 76.7581 84.4491 72.6482 84.4491 67.6922C84.4491 62.7361 80.3355 58.6262 75.375 58.6262" fill="#985EA4"/>
<path d="M75.375 76.7581C80.4565 76.7581 84.4491 72.6482 84.4491 67.6922C84.4491 62.7361 80.3355 58.6262 75.375 58.6262" stroke="white" stroke-width="1.6501" stroke-miterlimit="10"/>
<path d="M48.0322 67.5713H50.21" stroke="white" stroke-width="1.8833" stroke-miterlimit="10" stroke-linejoin="round"/>
<path d="M43.4346 67.5713H45.7333" stroke="white" stroke-width="1.8833" stroke-miterlimit="10" stroke-linejoin="round"/>
<path d="M52.5083 67.5713H54.8071" stroke="white" stroke-width="1.8833" stroke-miterlimit="10" stroke-linejoin="round"/>
<path d="M55.8962 83.5272C55.8962 84.736 54.9283 85.8239 53.5974 85.8239H46.7011C45.4912 85.8239 44.4023 84.8569 44.4023 83.5272V82.4393C44.4023 81.2305 45.3702 80.1426 46.7011 80.1426H53.5974C54.8073 80.1426 55.8962 81.1096 55.8962 82.4393V83.5272Z" stroke="white" stroke-width="1.8833" stroke-miterlimit="10" stroke-linejoin="round"/>
<path d="M53.7183 85.824H71.9874C73.9232 85.824 75.375 84.2526 75.375 82.4394V76.7581" stroke="white" stroke-width="1.8833" stroke-miterlimit="10" stroke-linejoin="round"/>
<path d="M18.3901 51.6152L16.0913 55.1207V61.89" stroke="white" stroke-width="1.8833" stroke-miterlimit="10" stroke-linejoin="round"/>
<path d="M78.7627 51.6154C80.6336 51.6154 82.1503 50.1001 82.1503 48.2308C82.1503 46.3615 80.6336 44.8462 78.7627 44.8462C76.8917 44.8462 75.375 46.3615 75.375 48.2308C75.375 50.1001 76.8917 51.6154 78.7627 51.6154Z" fill="#FF5985" stroke="white" stroke-width="1.32" stroke-miterlimit="10"/>
<path d="M75.3752 76.7582C75.3752 77.967 74.4073 79.0549 73.0765 79.0549H68.4789C67.2691 79.0549 66.1802 78.0879 66.1802 76.7582V58.5054C66.1802 57.2967 67.1481 56.2087 68.4789 56.2087H73.0765C74.2864 56.2087 75.3752 57.1758 75.3752 58.5054V76.7582Z" fill="#FF5985" stroke="white" stroke-width="1.6501" stroke-miterlimit="10"/>
<path d="M79.8516 51.6152L82.1503 55.1207V61.89" stroke="white" stroke-width="1.8833" stroke-miterlimit="10" stroke-linejoin="round"/>
<path d="M19.479 44.8461C19.479 28.5274 32.7876 15.2307 49.121 15.2307C65.4543 15.2307 78.763 28.5274 78.763 44.8461" stroke="white" stroke-width="1.8833" stroke-miterlimit="10" stroke-linejoin="round"/>
<path d="M65.4541 3.38462C66.3896 3.38462 67.1479 2.62694 67.1479 1.69231C67.1479 0.757672 66.3896 0 65.4541 0C64.5186 0 63.7603 0.757672 63.7603 1.69231C63.7603 2.62694 64.5186 3.38462 65.4541 3.38462Z" fill="#FF5985"/>
<path d="M72.1084 6.40659C73.0438 6.40659 73.8022 5.64892 73.8022 4.71428C73.8022 3.77964 73.0438 3.02197 72.1084 3.02197C71.1729 3.02197 70.4146 3.77964 70.4146 4.71428C70.4146 5.64892 71.1729 6.40659 72.1084 6.40659Z" fill="#FF5985"/>
<path d="M78.6416 10.5165C79.5771 10.5165 80.3354 9.75878 80.3354 8.82414C80.3354 7.88951 79.5771 7.13184 78.6416 7.13184C77.7061 7.13184 76.9478 7.88951 76.9478 8.82414C76.9478 9.75878 77.7061 10.5165 78.6416 10.5165Z" fill="#FF5985"/>
<path d="M84.0864 15.8351C85.0219 15.8351 85.7802 15.0774 85.7802 14.1427C85.7802 13.2081 85.0219 12.4504 84.0864 12.4504C83.1509 12.4504 82.3926 13.2081 82.3926 14.1427C82.3926 15.0774 83.1509 15.8351 84.0864 15.8351Z" fill="#FF5985"/>
<path d="M88.8047 21.7582C89.7401 21.7582 90.4985 21.0005 90.4985 20.0658C90.4985 19.1312 89.7401 18.3735 88.8047 18.3735C87.8692 18.3735 87.1108 19.1312 87.1108 20.0658C87.1108 21.0005 87.8692 21.7582 88.8047 21.7582Z" fill="#FF5985"/>
<path d="M92.5552 28.5274C93.4906 28.5274 94.249 27.7698 94.249 26.8351C94.249 25.9005 93.4906 25.1428 92.5552 25.1428C91.6197 25.1428 90.8613 25.9005 90.8613 26.8351C90.8613 27.7698 91.6197 28.5274 92.5552 28.5274Z" fill="#FF5985"/>
<path opacity="0.5" d="M94.9749 35.4176C95.7099 35.4176 96.3058 34.8223 96.3058 34.088C96.3058 33.3536 95.7099 32.7583 94.9749 32.7583C94.2399 32.7583 93.644 33.3536 93.644 34.088C93.644 34.8223 94.2399 35.4176 94.9749 35.4176Z" fill="#FF5985"/>
<path opacity="0.25" d="M96.6688 42.6703C97.4038 42.6703 97.9996 42.075 97.9996 41.3407C97.9996 40.6063 97.4038 40.011 96.6688 40.011C95.9337 40.011 95.3379 40.6063 95.3379 41.3407C95.3379 42.075 95.9337 42.6703 96.6688 42.6703Z" fill="#FF5985"/>
<path d="M36.5381 98.8792C37.4735 98.8792 38.2319 98.1216 38.2319 97.1869C38.2319 96.2523 37.4735 95.4946 36.5381 95.4946C35.6026 95.4946 34.8442 96.2523 34.8442 97.1869C34.8442 98.1216 35.6026 98.8792 36.5381 98.8792Z" fill="#FF5985"/>
<path d="M29.521 96.7035C30.4564 96.7035 31.2148 95.9458 31.2148 95.0112C31.2148 94.0765 30.4564 93.3188 29.521 93.3188C28.5855 93.3188 27.8271 94.0765 27.8271 95.0112C27.8271 95.9458 28.5855 96.7035 29.521 96.7035Z" fill="#FF5985"/>
<path d="M22.6245 93.1978C23.56 93.1978 24.3183 92.4402 24.3183 91.5055C24.3183 90.5709 23.56 89.8132 22.6245 89.8132C21.689 89.8132 20.9307 90.5709 20.9307 91.5055C20.9307 92.4402 21.689 93.1978 22.6245 93.1978Z" fill="#FF5985"/>
<path d="M16.6963 88.4835C17.6317 88.4835 18.3901 87.7258 18.3901 86.7912C18.3901 85.8565 17.6317 85.0989 16.6963 85.0989C15.7608 85.0989 15.0024 85.8565 15.0024 86.7912C15.0024 87.7258 15.7608 88.4835 16.6963 88.4835Z" fill="#FF5985"/>
<path d="M11.2519 83.044C12.1874 83.044 12.9458 82.2864 12.9458 81.3517C12.9458 80.4171 12.1874 79.6594 11.2519 79.6594C10.3165 79.6594 9.55811 80.4171 9.55811 81.3517C9.55811 82.2864 10.3165 83.044 11.2519 83.044Z" fill="#FF5985"/>
<path d="M6.89646 76.7584C7.83194 76.7584 8.59029 76.0007 8.59029 75.0661C8.59029 74.1314 7.83194 73.3738 6.89646 73.3738C5.96099 73.3738 5.20264 74.1314 5.20264 75.0661C5.20264 76.0007 5.96099 76.7584 6.89646 76.7584Z" fill="#FF5985"/>
<path opacity="0.5" d="M3.75079 69.5055C4.4858 69.5055 5.08165 68.9102 5.08165 68.1759C5.08165 67.4415 4.4858 66.8462 3.75079 66.8462C3.01577 66.8462 2.41992 67.4415 2.41992 68.1759C2.41992 68.9102 3.01577 69.5055 3.75079 69.5055Z" fill="#FF5985"/>
<path opacity="0.25" d="M1.33086 62.3737C2.06588 62.3737 2.66173 61.7784 2.66173 61.044C2.66173 60.3097 2.06588 59.7144 1.33086 59.7144C0.595848 59.7144 0 60.3097 0 61.044C0 61.7784 0.595848 62.3737 1.33086 62.3737Z" fill="#FF5985"/>
</svg>
