<svg width="116" height="69" viewBox="0 0 116 69" fill="none" xmlns="http://www.w3.org/2000/svg">
<g clip-path="url(#clip0)">
<path d="M0.899902 3.5999V54.0999C0.899902 55.5999 2.0999 56.7999 3.5999 56.7999H82.3999C83.8999 56.7999 85.0999 55.5999 85.0999 54.0999V3.5999C85.0999 2.0999 83.8999 0.899902 82.3999 0.899902H3.5999C2.0999 0.899902 0.899902 2.0999 0.899902 3.5999Z" fill="#FEFEFE" stroke="black" stroke-width="1.7981" stroke-miterlimit="10"/>
<path d="M22.2999 8.1999H12.2999C11.7999 8.1999 11.3999 7.7999 11.3999 7.2999C11.3999 6.7999 11.7999 6.3999 12.2999 6.3999H22.2999C22.7999 6.3999 23.1999 6.7999 23.1999 7.2999C23.0999 7.7999 22.6999 8.1999 22.2999 8.1999Z" fill="#FF5985"/>
<path d="M54.3001 8.1999H31.0001C30.5001 8.1999 30.1001 7.7999 30.1001 7.2999C30.1001 6.7999 30.5001 6.3999 31.0001 6.3999H54.3001C54.8001 6.3999 55.2001 6.7999 55.2001 7.2999C55.2001 7.7999 54.8001 8.1999 54.3001 8.1999Z" fill="#985EA4"/>
<path d="M69.8997 8.1999H58.5997C58.0997 8.1999 57.6997 7.7999 57.6997 7.2999C57.6997 6.7999 58.0997 6.3999 58.5997 6.3999H69.7997C70.2997 6.3999 70.6997 6.7999 70.6997 7.2999C70.7997 7.7999 70.2997 8.1999 69.8997 8.1999Z" fill="#FF5985"/>
<path d="M85.9998 8.1999H75.6998C75.1998 8.1999 74.7998 7.7999 74.7998 7.2999C74.7998 6.7999 75.1998 6.3999 75.6998 6.3999H85.9998C86.4998 6.3999 86.8998 6.7999 86.8998 7.2999C86.8998 7.7999 86.4998 8.1999 85.9998 8.1999Z" fill="#D05A9E"/>
<path d="M99.3 8.1999H93.9C93.4 8.1999 93 7.7999 93 7.2999C93 6.7999 93.4 6.3999 93.9 6.3999H99.3C99.8 6.3999 100.2 6.7999 100.2 7.2999C100.2 7.7999 99.8 8.1999 99.3 8.1999Z" fill="#FF5985"/>
<path d="M113 8.1999H103.6C103.1 8.1999 102.7 7.7999 102.7 7.2999C102.7 6.7999 103.1 6.3999 103.6 6.3999H113C113.5 6.3999 113.9 6.7999 113.9 7.2999C113.9 7.7999 113.5 8.1999 113 8.1999Z" fill="#985EA4"/>
<path d="M16.2999 12.5H12.2999C11.7999 12.5 11.3999 12.1 11.3999 11.6C11.3999 11.1 11.7999 10.7 12.2999 10.7H16.2999C16.7999 10.7 17.1999 11.1 17.1999 11.6C17.1999 12.1 16.7999 12.5 16.2999 12.5Z" fill="#FF5985"/>
<path d="M22.3 12.5H20.4C19.9 12.5 19.5 12.1 19.5 11.6C19.5 11.1 19.9 10.7 20.4 10.7H22.3C22.8 10.7 23.2 11.1 23.2 11.6C23.1 12.1 22.7 12.5 22.3 12.5Z" fill="#D05A9E"/>
<path d="M27.5998 12.5H25.6998C25.1998 12.5 24.7998 12.1 24.7998 11.6C24.7998 11.1 25.1998 10.7 25.6998 10.7H27.5998C28.0998 10.7 28.4998 11.1 28.4998 11.6C28.4998 12.1 28.0998 12.5 27.5998 12.5Z" fill="#FF5985"/>
<path d="M40.9001 12.5H31.0001C30.5001 12.5 30.1001 12.1 30.1001 11.6C30.1001 11.1 30.5001 10.7 31.0001 10.7H40.9001C41.4001 10.7 41.8001 11.1 41.8001 11.6C41.8001 12.1 41.4001 12.5 40.9001 12.5Z" fill="#FF5985"/>
<path d="M62.9001 12.5H53.0001C52.5001 12.5 52.1001 12.1 52.1001 11.6C52.1001 11.1 52.5001 10.7 53.0001 10.7H62.9001C63.4001 10.7 63.8001 11.1 63.8001 11.6C63.8001 12.1 63.4001 12.5 62.9001 12.5Z" fill="#FF5985"/>
<path d="M69.8998 12.5H66.6998C66.1998 12.5 65.7998 12.1 65.7998 11.6C65.7998 11.1 66.1998 10.7 66.6998 10.7H69.8998C70.3998 10.7 70.7998 11.1 70.7998 11.6C70.7998 12.1 70.2998 12.5 69.8998 12.5Z" fill="#D05A9E"/>
<path d="M89.2998 12.5H79.6998C79.1998 12.5 78.7998 12.1 78.7998 11.6C78.7998 11.1 79.1998 10.7 79.6998 10.7H89.2998C89.7998 10.7 90.1998 11.1 90.1998 11.6C90.1998 12.1 89.6998 12.5 89.2998 12.5Z" fill="#985EA4"/>
<path d="M27.3001 16.5998H17.5001C17.0001 16.5998 16.6001 16.1998 16.6001 15.6998C16.6001 15.1998 17.0001 14.7998 17.5001 14.7998H27.3001C27.8001 14.7998 28.2001 15.1998 28.2001 15.6998C28.2001 16.1998 27.8001 16.5998 27.3001 16.5998Z" fill="#FF5985"/>
<path d="M35.6001 16.5998H31.0001C30.5001 16.5998 30.1001 16.1998 30.1001 15.6998C30.1001 15.1998 30.5001 14.7998 31.0001 14.7998H35.6001C36.1001 14.7998 36.5001 15.1998 36.5001 15.6998C36.5001 16.1998 36.1001 16.5998 35.6001 16.5998Z" fill="#985EA4"/>
<path d="M39.5998 16.5999C39.0998 16.5999 38.7998 16.1999 38.7998 15.7999V15.6999C38.7998 15.1999 39.1998 14.8999 39.5998 14.8999C40.0998 14.8999 40.3998 15.2999 40.3998 15.6999V15.7999C40.3998 16.1999 40.0998 16.5999 39.5998 16.5999Z" fill="#D05A9E"/>
<path d="M53.3 16.5998H43.4C42.9 16.5998 42.5 16.1998 42.5 15.6998C42.5 15.1998 42.9 14.7998 43.4 14.7998H53.3C53.8 14.7998 54.2 15.1998 54.2 15.6998C54.2 16.1998 53.8 16.5998 53.3 16.5998Z" fill="#FF5985"/>
<path d="M61.4997 16.5998H57.0997C56.5997 16.5998 56.1997 16.1998 56.1997 15.6998C56.1997 15.1998 56.5997 14.7998 57.0997 14.7998H61.4997C61.9997 14.7998 62.3997 15.1998 62.3997 15.6998C62.3997 16.1998 61.9997 16.5998 61.4997 16.5998Z" fill="#985EA4"/>
<path d="M67.4001 16.5998H65.0001C64.5001 16.5998 64.1001 16.1998 64.1001 15.6998C64.1001 15.1998 64.5001 14.7998 65.0001 14.7998H67.3001C67.8001 14.7998 68.2001 15.1998 68.2001 15.6998C68.3001 16.1998 67.8001 16.5998 67.4001 16.5998Z" fill="#FF5985"/>
<path d="M84.3998 16.5998H74.6998C74.1998 16.5998 73.7998 16.1998 73.7998 15.6998C73.7998 15.1998 74.1998 14.7998 74.6998 14.7998H84.3998C84.8998 14.7998 85.2998 15.1998 85.2998 15.6998C85.2998 16.1998 84.8998 16.5998 84.3998 16.5998Z" fill="#FF5985"/>
<path d="M100.7 16.5998H95.2999C94.7999 16.5998 94.3999 16.1998 94.3999 15.6998C94.3999 15.1998 94.7999 14.7998 95.2999 14.7998H100.7C101.2 14.7998 101.6 15.1998 101.6 15.6998C101.6 16.1998 101.2 16.5998 100.7 16.5998Z" fill="#985EA4"/>
<path d="M114.4 16.5998H105C104.5 16.5998 104.1 16.1998 104.1 15.6998C104.1 15.1998 104.5 14.7998 105 14.7998H114.4C114.9 14.7998 115.3 15.1998 115.3 15.6998C115.3 16.1998 114.9 16.5998 114.4 16.5998Z" fill="#D05A9E"/>
<path d="M84.1998 53.3999H1.7998V56.0999H84.1998V53.3999Z" fill="black"/>
<path d="M44.312 62.8995V54.9995H41.612V62.8995H44.312Z" fill="black"/>
<path d="M34.8123 64.6079H51.1123V62.9079H34.8123V64.6079Z" fill="black"/>
<path d="M52.6001 35.6V64.2H99.6001V35.6C99.6001 34.2 98.4001 33 97.0001 33H55.2001C53.8001 33 52.6001 34.1 52.6001 35.6Z" fill="#FEFEFE" stroke="black" stroke-width="1.4422" stroke-miterlimit="10"/>
<path d="M45.3999 65.2001V66.8001C45.3999 67.4001 45.8999 67.9001 46.4999 67.9001H105.5C106.1 67.9001 106.6 67.4001 106.6 66.8001V65.2001C106.6 64.6001 106.1 64.1001 105.5 64.1001H46.4999C45.8999 64.1001 45.3999 64.6001 45.3999 65.2001Z" fill="#FEFEFE" stroke="black" stroke-width="1.4422" stroke-miterlimit="10"/>
<path d="M94.8999 40H57.3999V50.1H94.8999V40Z" fill="#FF5985"/>
<path d="M74.6999 53.1001H57.3999V61.7001H74.6999V53.1001Z" fill="#D05A9E"/>
<path d="M94.8 53H77.5V61.6H94.8V53Z" fill="#985EA4"/>
<path d="M84.7999 35.7H57.3999V37.2H84.7999V35.7Z" fill="#D05A9E"/>
<path d="M89.1997 35.7H87.6997V37.2H89.1997V35.7Z" fill="#D05A9E"/>
<path d="M92 35.7H90.5V37.2H92V35.7Z" fill="#D05A9E"/>
<path d="M94.8999 35.7H93.3999V37.2H94.8999V35.7Z" fill="#D05A9E"/>
</g>
<defs>
<clipPath id="clip0">
<rect width="115.3" height="68.6" fill="white"/>
</clipPath>
</defs>
</svg>
