<svg width="113" height="112" viewBox="0 0 113 112" fill="none" xmlns="http://www.w3.org/2000/svg">
<g clip-path="url(#clip0)">
<path d="M63.8 82.6001C63.8 84.6001 63.8 86.5001 63.8 88.5001C63.8 91.1001 64.5 93.4001 67.1 94.6001C70 95.9001 72.7 95.5001 75.1 93.5001C76.1 92.7001 76.9 91.6001 77.9 90.8001C82.7001 86.8001 88.4 88.2001 90.9 93.9001C91.2001 94.7001 91.5 95.6001 91.9 96.4001C93.2001 98.9001 95.2001 99.7001 97.8 98.7001C100.5 97.6001 103.2 97.0001 106.1 97.3001C109.7 97.6001 112.3 100.6 112.1 104.4C112 108.3 109.4 111.1 105.8 111.1C96.1001 111.2 86.4 111.1 76.7 111.1C53.5 111.1 30.3 111 7.10005 111.2C1.40005 111.2 -0.999955 105.5 0.500045 101.7C1.60005 99.0001 3.50005 97.5001 6.40005 97.3001C9.00005 97.1001 11.4 97.5001 13.8 98.5001C17.4 100 19.4 99.1001 20.9 95.4001C21.1 95.0001 21.2 94.6001 21.3 94.2001C23.6 88.3001 29.2 86.8001 34.2 90.7001C35.2 91.5001 36 92.6001 37 93.4001C39.4 95.5001 42.1 95.9001 45 94.8001C47.8 93.7001 48.5 91.3001 48.5 88.6001C48.6 86.6001 48.5 84.7001 48.5 82.7001C50.6 81.3001 61.5 81.3001 63.8 82.6001Z" fill="#FF5985"/>
<path d="M63.8002 82.6C58.7002 82.6 53.5002 82.6 48.4002 82.6C47.2002 82.6 46.0002 82.5 44.7002 82.5C42.1002 82.4 41.6002 81.7 42.7002 79.4C43.0002 78.7 43.4002 78.1 43.7002 77.4C43.1002 76.8 42.4002 77.1 41.8002 77.1C34.9002 77.1 28.1002 77.1 21.2002 77.1C18.6002 77.1 18.3002 76.7 18.8002 74.2C19.2002 72.2 19.6002 70.2 20.0002 68.2C20.7002 65.2999 22.2002 63.4 25.5002 62.7C33.7002 61.1 39.2002 56.2999 41.2002 48.0999C42.1002 44.5999 41.7002 40.7999 42.1002 37.2C43.2002 25.4 46.6002 14.2 51.6002 3.49995C52.6002 1.39995 54.2002 0.199951 56.6002 0.199951C59.0002 0.299951 60.5002 1.59995 61.5002 3.69995C67.0002 16.4 70.4002 29.7 70.4002 43.5C70.4002 52.1 76.9002 60.9 85.9002 62.4C89.7002 63 91.6002 65.1 92.2002 68.8C92.5002 70.6 92.9002 72.2999 93.3002 74.1C93.8002 76.5 93.5002 77 90.9002 77C84.1002 77 77.4002 77 70.6002 77C69.8002 77 69.0002 77 68.2002 77C68.2002 77.3 68.1002 77.4 68.2002 77.4C70.1002 82.1 69.9002 82.3 65.0002 82.4C64.6002 82.5 64.2002 82.5 63.8002 82.6Z" fill="black"/>
<path d="M97.7 95.3C96.1 95.1 95 94.2 95 92.5C94.9 90.6 96.1 89.5 97.8 89.5C99.4 89.5 100.6 90.6 100.6 92.3C100.7 94.1 99.6 95.1 97.7 95.3Z" fill="#985EA4"/>
<path d="M60.4 84.6C62.6 84.5 61.5 85.6 61.7 88.1C62 91.8 62.5 95.3 66.6 96.8C67.3 97 67.7 97.6 67.4 98.4C67.1 99.2 66.4 99.4 65.6 99.2C63.6 98.8 62.3 97.5 61.2 95.9C59.7 93.6 58.3 84.7 60.4 84.6Z" fill="#FCFEFD"/>
<path d="M83.2999 90.9C85.8999 91 88.7999 93.4 89.0999 95.8C89.1999 96.6 88.9999 97.3 88.1999 97.6C87.4999 97.8 86.8998 97.4 86.6999 96.7C86.0999 94.8 84.8999 93.7 82.7999 93.5C81.9999 93.4 81.2999 93 81.4999 92.1C81.6999 91.1 82.4999 90.8 83.2999 90.9Z" fill="#F8FEFC"/>
<path d="M32.2 92.3C32 93.2 31.4 93.5 30.6 93.4C28.7 93.1 27.3 93.7 26.2 95.2C25.7 95.9 25.1 96.5 24.2 95.8C23.3 95.1 23.7 94.4 24.1 93.6C25.3 91.4 28.4 90.1 30.8 90.8C31.6 91.1 32.1 91.4 32.2 92.3Z" fill="#F9FEFC"/>
<path d="M70.0999 99.1999C69.2999 99.1999 68.8999 98.6999 68.8999 97.9999C68.8999 97.3999 69.2999 96.8999 69.8999 96.8999C70.6999 96.7999 71.0999 97.3999 71.0999 98.0999C71.0999 98.6999 70.7999 99.0999 70.0999 99.1999Z" fill="#F2FDFA"/>
<path d="M8.1999 100.9C7.4999 100.8 6.8999 100.5 6.8999 99.7001C6.8999 99.0001 7.2999 98.6001 7.9999 98.6001C8.7999 98.5001 9.2999 98.9001 9.2999 99.7001C9.2999 100.4 8.7999 100.7 8.1999 100.9Z" fill="#F2FDFA"/>
<path d="M104.4 100.7C104.4 101.4 104 101.7 103.3 101.7C102.7 101.7 102.2 101.4 102.1 100.7C102.1 99.9001 102.6 99.5001 103.3 99.6001C104.1 99.6001 104.4 100 104.4 100.7Z" fill="#F1FDF9"/>
<path d="M68.0002 54.8998C68.0002 60.7999 68.0002 66.5998 68.0002 72.4998C68.0002 73.7998 67.7002 74.2999 66.3002 74.2999C59.4002 74.1999 52.6002 74.2999 45.7002 74.2999C44.7002 74.2999 44.0002 74.1998 44.1002 72.8998C44.4002 59.8998 43.4002 46.9998 45.1002 33.9998C45.8002 28.6998 47.1002 23.4998 48.6002 18.2998C49.0002 16.7998 49.7002 16.3998 51.2002 16.4998C54.5002 16.5998 57.7002 16.6998 61.0002 16.4998C63.2002 16.2998 63.7002 17.2998 64.2002 19.0998C67.3002 30.2998 68.3002 41.6998 68.1002 53.1998C68.0002 53.7998 68.0002 54.2999 68.0002 54.8998Z" fill="#FEFEFE"/>
<path d="M70.6 55.3999C74.8 60.8999 80 64.2999 86.7 65.3999C87.9 65.5999 88.8 66.3999 89.1 67.5999C89.6 69.6999 90.8 72.1999 90.2 73.8999C90 74.4999 86.6 74.1999 84.7 74.2999C80.5 74.3999 76.4 74.2999 72.2 74.2999C71.2 74.2999 70.5 74.2999 70.5 72.8999C70.6 67.0999 70.6 61.1999 70.6 55.3999Z" fill="#FEFEFE"/>
<path d="M41.6001 55.3999C41.6001 61.1999 41.6001 66.9999 41.6001 72.7999C41.6001 73.8999 41.3001 74.3999 40.1001 74.3999C34.4001 74.2999 28.7001 74.3999 23.0001 74.3999C22.0001 74.3999 21.4001 74.2999 21.8001 72.9999C22.0001 72.3999 22.1001 71.6999 22.2001 71.0999C22.5001 67.3999 24.2001 65.4999 28.2001 64.7999C33.8001 63.5999 38.0001 59.9999 41.6001 55.3999Z" fill="#FEFEFE"/>
<path d="M62.5999 13.8999C58.3999 13.8999 54.4999 13.8999 50.3999 13.8999C51.3999 10.3999 52.7999 7.19989 54.4999 4.19989C55.4999 2.29989 57.9999 2.59989 58.9999 4.59989C59.5999 5.69989 59.9999 6.99989 60.4999 8.29989C61.1999 9.99989 61.7999 11.7999 62.5999 13.8999Z" fill="#985EA4"/>
<path d="M45.7002 79.7999C46.3002 77.3999 47.7002 76.8999 49.8002 76.8999C54.0002 77.0999 58.3002 77.0999 62.5002 76.8999C64.6002 76.7999 65.6002 77.5999 66.1002 79.5999C65.8002 79.6999 65.6002 79.7999 65.4002 79.7999C58.9002 79.7999 52.4002 79.7999 45.7002 79.7999Z" fill="#F4F4F4"/>
<path d="M18.1001 29.0999V37.3999" stroke="white" stroke-width="1.9595" stroke-miterlimit="10"/>
<path d="M18.1001 30.0999C18.6524 30.0999 19.1001 29.6521 19.1001 29.0999C19.1001 28.5476 18.6524 28.0999 18.1001 28.0999C17.5478 28.0999 17.1001 28.5476 17.1001 29.0999C17.1001 29.6521 17.5478 30.0999 18.1001 30.0999Z" fill="white"/>
<path d="M18.1001 38.3999C18.6524 38.3999 19.1001 37.9522 19.1001 37.3999C19.1001 36.8476 18.6524 36.3999 18.1001 36.3999C17.5478 36.3999 17.1001 36.8476 17.1001 37.3999C17.1001 37.9522 17.5478 38.3999 18.1001 38.3999Z" fill="white"/>
<path d="M13.8999 33.2998H22.1999" stroke="white" stroke-width="1.9595" stroke-miterlimit="10"/>
<path d="M13.8999 34.2998C14.4522 34.2998 14.8999 33.8521 14.8999 33.2998C14.8999 32.7475 14.4522 32.2998 13.8999 32.2998C13.3476 32.2998 12.8999 32.7475 12.8999 33.2998C12.8999 33.8521 13.3476 34.2998 13.8999 34.2998Z" fill="white"/>
<path d="M22.1997 34.2998C22.752 34.2998 23.1997 33.8521 23.1997 33.2998C23.1997 32.7475 22.752 32.2998 22.1997 32.2998C21.6474 32.2998 21.1997 32.7475 21.1997 33.2998C21.1997 33.8521 21.6474 34.2998 22.1997 34.2998Z" fill="white"/>
<path d="M84.7002 2.09998V10.4" stroke="white" stroke-width="1.9595" stroke-miterlimit="10"/>
<path d="M84.7002 3.09998C85.2525 3.09998 85.7002 2.65226 85.7002 2.09998C85.7002 1.54769 85.2525 1.09998 84.7002 1.09998C84.1479 1.09998 83.7002 1.54769 83.7002 2.09998C83.7002 2.65226 84.1479 3.09998 84.7002 3.09998Z" fill="white"/>
<path d="M84.7002 11.4C85.2525 11.4 85.7002 10.9523 85.7002 10.4C85.7002 9.84774 85.2525 9.40002 84.7002 9.40002C84.1479 9.40002 83.7002 9.84774 83.7002 10.4C83.7002 10.9523 84.1479 11.4 84.7002 11.4Z" fill="white"/>
<path d="M80.5 6.19995H88.8" stroke="white" stroke-width="1.9595" stroke-miterlimit="10"/>
<path d="M80.5 7.19995C81.0523 7.19995 81.5 6.75224 81.5 6.19995C81.5 5.64767 81.0523 5.19995 80.5 5.19995C79.9477 5.19995 79.5 5.64767 79.5 6.19995C79.5 6.75224 79.9477 7.19995 80.5 7.19995Z" fill="white"/>
<path d="M88.7998 7.19995C89.3521 7.19995 89.7998 6.75224 89.7998 6.19995C89.7998 5.64767 89.3521 5.19995 88.7998 5.19995C88.2475 5.19995 87.7998 5.64767 87.7998 6.19995C87.7998 6.75224 88.2475 7.19995 88.7998 7.19995Z" fill="white"/>
<path d="M33.4002 16.7999C34.0629 16.7999 34.6002 16.2626 34.6002 15.5999C34.6002 14.9372 34.0629 14.3999 33.4002 14.3999C32.7375 14.3999 32.2002 14.9372 32.2002 15.5999C32.2002 16.2626 32.7375 16.7999 33.4002 16.7999Z" fill="#FF5985"/>
<path d="M79.9002 23.9C80.5629 23.9 81.1002 23.3627 81.1002 22.7C81.1002 22.0373 80.5629 21.5 79.9002 21.5C79.2375 21.5 78.7002 22.0373 78.7002 22.7C78.7002 23.3627 79.2375 23.9 79.9002 23.9Z" fill="#FF5985"/>
<path d="M56.2999 44.3999C59.5584 44.3999 62.1999 41.7583 62.1999 38.4999C62.1999 35.2414 59.5584 32.5999 56.2999 32.5999C53.0414 32.5999 50.3999 35.2414 50.3999 38.4999C50.3999 41.7583 53.0414 44.3999 56.2999 44.3999Z" fill="#FF5985"/>
<path d="M52.6998 38.4999C52.6998 38.3999 52.3998 36.7999 53.5998 35.6999C54.5998 34.6999 55.7998 34.7999 55.9998 34.7999" stroke="white" stroke-width="1.1595" stroke-miterlimit="10"/>
<path d="M52.7001 39.0999C53.0315 39.0999 53.3001 38.8313 53.3001 38.4999C53.3001 38.1685 53.0315 37.8999 52.7001 37.8999C52.3687 37.8999 52.1001 38.1685 52.1001 38.4999C52.1001 38.8313 52.3687 39.0999 52.7001 39.0999Z" fill="white"/>
<path d="M55.8998 35.4C56.2312 35.4 56.4998 35.1313 56.4998 34.7999C56.4998 34.4686 56.2312 34.2 55.8998 34.2C55.5684 34.2 55.2998 34.4686 55.2998 34.7999C55.2998 35.1313 55.5684 35.4 55.8998 35.4Z" fill="white"/>
<path d="M53.3998 40.9C53.7312 40.9 53.9998 40.6313 53.9998 40.2999C53.9998 39.9686 53.7312 39.7 53.3998 39.7C53.0684 39.7 52.7998 39.9686 52.7998 40.2999C52.7998 40.6313 53.0684 40.9 53.3998 40.9Z" fill="white"/>
<path d="M53.8001 54.2001C54.4628 54.2001 55.0001 53.6628 55.0001 53C55.0001 52.3373 54.4628 51.8 53.8001 51.8C53.1374 51.8 52.6001 52.3373 52.6001 53C52.6001 53.6628 53.1374 54.2001 53.8001 54.2001Z" fill="#FF5985"/>
<path d="M58.7 54.2001C59.3627 54.2001 59.9 53.6628 59.9 53C59.9 52.3373 59.3627 51.8 58.7 51.8C58.0373 51.8 57.5 52.3373 57.5 53C57.5 53.6628 58.0373 54.2001 58.7 54.2001Z" fill="#FF5985"/>
<path d="M53.8001 58.2001C54.4628 58.2001 55.0001 57.6628 55.0001 57C55.0001 56.3373 54.4628 55.8 53.8001 55.8C53.1374 55.8 52.6001 56.3373 52.6001 57C52.6001 57.6628 53.1374 58.2001 53.8001 58.2001Z" fill="#FF5985"/>
<path d="M58.7 58.2001C59.3627 58.2001 59.9 57.6628 59.9 57C59.9 56.3373 59.3627 55.8 58.7 55.8C58.0373 55.8 57.5 56.3373 57.5 57C57.5 57.6628 58.0373 58.2001 58.7 58.2001Z" fill="#FF5985"/>
<path d="M53.8001 62.2001C54.4628 62.2001 55.0001 61.6628 55.0001 61C55.0001 60.3373 54.4628 59.8 53.8001 59.8C53.1374 59.8 52.6001 60.3373 52.6001 61C52.6001 61.6628 53.1374 62.2001 53.8001 62.2001Z" fill="#FF5985"/>
<path d="M58.7 62.2001C59.3627 62.2001 59.9 61.6628 59.9 61C59.9 60.3373 59.3627 59.8 58.7 59.8C58.0373 59.8 57.5 60.3373 57.5 61C57.5 61.6628 58.0373 62.2001 58.7 62.2001Z" fill="#FF5985"/>
<path d="M53.8001 66.0999C54.4628 66.0999 55.0001 65.5627 55.0001 64.9C55.0001 64.2372 54.4628 63.7 53.8001 63.7C53.1374 63.7 52.6001 64.2372 52.6001 64.9C52.6001 65.5627 53.1374 66.0999 53.8001 66.0999Z" fill="#FF5985"/>
<path d="M58.7 66.0999C59.3627 66.0999 59.9 65.5627 59.9 64.9C59.9 64.2372 59.3627 63.7 58.7 63.7C58.0373 63.7 57.5 64.2372 57.5 64.9C57.5 65.5627 58.0373 66.0999 58.7 66.0999Z" fill="#FF5985"/>
</g>
<defs>
<clipPath id="clip0">
<rect width="112.1" height="111.1" fill="white"/>
</clipPath>
</defs>
</svg>
