<svg width="86" height="104" viewBox="0 0 86 104" fill="none" xmlns="http://www.w3.org/2000/svg">
<g clip-path="url(#clip0)">
<path d="M43.0519 73.9139C60.0272 73.9139 73.7884 60.071 73.7884 42.995C73.7884 25.9189 60.0272 12.076 43.0519 12.076C26.0766 12.076 12.3154 25.9189 12.3154 42.995C12.3154 60.071 26.0766 73.9139 43.0519 73.9139Z" fill="#FF5985"/>
<path d="M34.0481 70.4785C32.4957 66.2102 33.2202 62.6707 29.9085 57.7778C28.1492 55.1752 27.5282 55.6957 26.0794 53.1972C25.6654 52.4685 21.5258 45.5976 24.32 38.3103C24.8375 36.957 25.8724 34.4585 28.4596 32.6887C32.5992 29.8779 37.3598 31.3353 38.1877 31.6476C45.7424 34.042 47.3983 42.995 47.3983 46.014C47.3983 47.1592 47.0878 47.992 46.5704 48.7207C45.5355 50.0741 43.4657 50.6987 42.0168 50.0741C39.533 49.1371 39.3261 45.1812 39.3261 44.4525C39.1191 38.5185 44.5006 34.3544 45.3285 33.7297C46.9843 32.4805 49.2611 30.7107 52.5728 30.8148C56.7124 30.9189 59.4031 33.8338 60.231 34.6667C62.9217 37.8939 62.9217 41.7457 62.9217 44.2442C62.9217 49.5536 60.645 53.5095 59.7136 54.967C57.9542 57.986 57.2298 57.5696 55.6775 60.3804C54.0216 63.2953 53.9181 65.4815 52.9867 70.7908C51.6414 78.4945 51.0204 82.2422 49.7785 82.8669C46.2599 84.5325 36.9458 78.5986 34.0481 70.4785Z" stroke="#34495E" stroke-width="1.8342" stroke-miterlimit="10"/>
<path d="M57.644 89.3213C56.1951 91.1952 48.3299 102.647 43.4659 103.063C40.0507 103.375 29.4948 90.8829 28.0459 88.8008" fill="#FEFEFE"/>
<path d="M57.644 89.3213C56.1951 91.1952 48.3299 102.647 43.4659 103.063C40.0507 103.375 29.4948 90.8829 28.0459 88.8008" stroke="#212529" stroke-width="1.8342" stroke-miterlimit="10"/>
<path d="M59.0927 75.9959H27.1144C25.3551 75.9959 23.8027 74.5385 23.8027 72.6646C23.8027 70.8948 25.2516 69.3333 27.1144 69.3333H59.0927C60.8521 69.3333 62.4044 70.7907 62.4044 72.6646C62.3009 74.5385 60.8521 75.9959 59.0927 75.9959Z" fill="white" stroke="#212529" stroke-width="1.8606" stroke-miterlimit="10"/>
<path d="M59.0927 82.5545H27.1144C25.3551 82.5545 23.8027 81.097 23.8027 79.2232C23.8027 77.4534 25.2516 75.8918 27.1144 75.8918H59.0927C60.8521 75.8918 62.4044 77.3493 62.4044 79.2232C62.3009 81.097 60.8521 82.5545 59.0927 82.5545Z" fill="white" stroke="#212529" stroke-width="1.8606" stroke-miterlimit="10"/>
<path d="M59.0927 89.113H27.1144C25.3551 89.113 23.8027 87.6555 23.8027 85.7817C23.8027 84.0119 25.2516 82.4503 27.1144 82.4503H59.0927C60.8521 82.4503 62.4044 83.9078 62.4044 85.7817C62.3009 87.6555 60.8521 89.113 59.0927 89.113Z" fill="white" stroke="#212529" stroke-width="1.8606" stroke-miterlimit="10"/>
<path d="M57.8512 22.6946C61.8873 26.5465 65.5094 30.9189 67.0618 36.4364C67.5792 38.2062 70.27 37.4774 69.856 35.7077C68.2002 29.7737 64.2676 24.9849 59.921 20.7167C58.5756 19.3633 56.6093 21.4454 57.8512 22.6946Z" fill="white"/>
<path d="M68.3034 40.3923C68.7174 42.1621 68.6139 43.9319 68.0964 45.7016C67.579 47.4714 70.2697 48.2001 70.8907 46.4304C71.6151 44.2442 71.7186 41.8498 71.0976 39.6636C70.6837 37.7897 67.8895 38.5184 68.3034 40.3923Z" fill="white"/>
<path d="M29.4946 11.6597C28.6667 11.5556 28.3563 11.0351 28.0458 10.5145C27.3214 8.74477 26.5969 6.975 25.8725 5.30933C25.4585 4.37239 25.6655 3.74777 26.4934 3.33135C27.3214 3.01904 27.8388 3.43546 28.1493 4.16419C28.9772 6.03806 29.7016 7.91193 30.5295 9.78581C30.9435 10.931 30.4261 11.4515 29.4946 11.6597Z" fill="#985EA4"/>
<path d="M73.8918 72.4565C73.5813 73.6016 72.8569 74.3304 71.822 73.4975C70.1661 72.1442 68.6138 70.6867 67.1649 69.1252C66.6475 68.6046 66.6475 67.8759 67.1649 67.3554C67.5789 66.8349 68.3033 66.7308 68.8208 67.2513C70.3731 68.7087 71.9255 70.1662 73.4778 71.6237C73.5813 71.8319 73.6848 72.1442 73.8918 72.4565Z" fill="#FF5985"/>
<path d="M13.3504 74.018C12.212 73.7057 11.7981 72.8729 12.5225 71.936C13.8679 70.2703 15.4202 68.8128 16.8691 67.2513C17.283 66.8349 17.8005 66.7308 18.4214 67.1472C18.9389 67.5636 19.1459 68.1882 18.8354 68.6046C17.3865 70.5826 15.7307 72.3524 13.8679 73.9139C13.7644 73.9139 13.5574 73.9139 13.3504 74.018Z" fill="#FF5985"/>
<path d="M11.384 56.4244C11.384 57.3613 10.8665 57.6736 10.2456 57.8818C8.48624 58.6106 6.83041 59.4434 5.07108 60.1721C4.24316 60.5885 3.51874 60.4844 3.10478 59.5475C2.69082 58.5065 3.41525 58.09 4.13967 57.7777C5.79551 56.9449 7.55484 56.2162 9.31416 55.4874C10.3491 55.071 11.177 55.2792 11.384 56.4244Z" fill="#D05A9E"/>
<path d="M82.9988 26.7548C82.9988 27.4835 82.6883 27.8999 82.1709 28.2122C80.3081 29.0451 78.4453 29.7738 76.5824 30.6066C75.7545 30.9189 74.9266 30.7107 74.6161 29.8779C74.3057 29.0451 74.9266 28.5245 75.651 28.2122C77.4104 27.4835 79.2732 26.6507 81.0325 25.9219C81.9639 25.5055 82.6883 25.8178 82.9988 26.7548Z" fill="#FF5985"/>
<path d="M60.1279 4.89285C59.1965 6.76672 58.2651 8.8488 57.2302 10.9309C56.9197 11.4514 56.2988 11.6596 55.7813 11.2432C55.1604 10.9309 54.8499 10.3063 55.1604 9.68163C55.9883 7.80776 56.8162 5.93389 57.6441 4.06001C57.9546 3.33128 58.5755 3.12308 59.3 3.33128C59.8174 3.53949 60.1279 4.06001 60.1279 4.89285Z" fill="#D05A9E"/>
<path d="M67.8895 19.2592C66.9581 19.1551 66.3371 18.3223 66.8546 17.5935C68.4069 15.6155 70.1662 13.8458 72.236 12.3883C72.65 12.1801 73.1674 12.3883 73.4779 12.8047C73.7884 13.2212 73.9954 13.6376 73.5814 14.1581C72.0291 16.032 70.2697 17.6976 68.3034 19.1551C68.1999 19.2592 67.993 19.1551 67.8895 19.2592Z" fill="#985EA4"/>
<path d="M19.2492 17.9059C18.9387 19.2593 18.0073 19.5716 17.1794 18.8429C15.42 17.3854 13.8677 15.7198 12.3154 14.0541C11.9014 13.6377 11.9014 13.013 12.3154 12.5966C12.8328 12.0761 13.4537 11.8679 13.9712 12.3884C15.627 13.95 17.2829 15.5115 18.9387 17.0731C19.0422 17.2813 19.1457 17.5936 19.2492 17.9059Z" fill="#D05A9E"/>
<path d="M11.3841 29.1492C11.2806 30.3984 10.5562 30.8148 9.62476 30.5025C7.76195 29.7738 5.89913 28.941 3.93282 28.2122C3.2084 27.8999 3.00142 27.3794 3.2084 26.6507C3.41538 26.026 3.93282 25.6096 4.45027 25.8178C6.62356 26.6507 8.79684 27.5876 10.9701 28.5245C11.1771 28.6286 11.2806 29.0451 11.3841 29.1492Z" fill="#FF5985"/>
<path d="M41.603 4.47645C41.603 3.43541 41.603 2.39437 41.603 1.35333C41.603 0.520499 41.9135 -0.104126 42.8449 -0.104126C43.6728 -0.104126 44.0868 0.416395 44.0868 1.24923C44.0868 3.33131 44.0868 5.30929 44.0868 7.39137C44.0868 8.2242 43.6728 8.84883 42.8449 8.84883C42.017 8.84883 41.603 8.32831 41.603 7.49547C41.603 6.55854 41.603 5.5175 41.603 4.47645Z" fill="#FF5985"/>
<path d="M76.2723 55.3833C78.2386 56.3202 80.4119 57.049 82.2747 58.4023C82.6887 58.7146 82.6887 59.2352 82.3782 59.7557C81.9643 60.2762 81.4468 60.6926 80.7224 60.3803C78.9631 59.5475 77.2037 58.7146 75.4444 57.7777C74.8235 57.4654 74.72 56.9449 74.927 56.3202C75.0304 55.6956 75.4444 55.3833 76.2723 55.3833Z" fill="#985EA4"/>
<path d="M81.5499 44.3484C80.515 44.3484 79.4801 44.4525 78.5487 44.3484C77.8243 44.2443 77.4103 43.7237 77.5138 42.995C77.5138 42.3704 77.9277 41.954 78.5487 41.954C80.6185 41.954 82.7918 41.954 84.8616 41.954C85.586 41.954 85.9999 42.4745 85.9999 43.2032C85.9999 43.932 85.586 44.3484 84.8616 44.4525C83.7232 44.3484 82.5848 44.3484 81.5499 44.3484Z" fill="#D05A9E"/>
<path d="M4.34675 44.3484C3.41534 44.3484 2.48393 44.3484 1.55252 44.3484C0.724603 44.3484 0.103664 43.9319 0.103664 43.0991C0.000174642 42.2663 0.724603 41.8499 1.44903 41.8499C3.31185 41.8499 5.17466 41.8499 7.14097 41.8499C7.8654 41.8499 8.58983 42.1622 8.58983 43.0991C8.58983 44.1401 7.8654 44.4525 7.03748 44.4525C6.00258 44.3484 5.17466 44.3484 4.34675 44.3484Z" fill="#985EA4"/>
<path d="M50.0895 97.6496C49.572 98.3783 44.6045 102.751 42.6382 102.855C41.3963 102.959 37.3602 98.2742 36.8428 97.4414" fill="black"/>
</g>
<defs>
<clipPath id="clip0">
<rect width="86" height="104" fill="white"/>
</clipPath>
</defs>
</svg>
