<svg width="99" height="99" viewBox="0 0 99 99" fill="none" xmlns="http://www.w3.org/2000/svg">
<g clip-path="url(#clip0)">
<path d="M77.0596 89.4135C77.0596 89.3239 77.0596 89.2343 77.0596 89.1447H88.1191C88.9218 89.1447 89.6353 88.428 89.6353 87.6217V76.5122C94.2732 76.4226 97.9299 73.1972 97.9299 69.076C97.9299 65.0443 94.184 61.7294 89.6353 61.6398V50.6199C89.6353 49.8135 88.9218 49.0968 88.1191 49.0968H77.0596C76.9704 44.5276 73.6704 40.8542 69.7461 40.8542C65.7326 40.8542 62.5218 44.5276 62.4326 49.0968H51.3731C50.5704 49.0968 49.8569 49.8135 49.8569 50.6199V61.9981C54.4948 61.9981 58.3299 65.3131 58.3299 69.4343C58.3299 73.5556 54.584 76.8705 49.8569 76.8705V87.6217C49.8569 88.428 50.5704 89.1447 51.3731 89.1447H62.4326C62.4326 89.2343 62.4326 89.3239 62.4326 89.4135C62.4326 94.0723 65.7326 97.9248 69.8353 97.9248C73.7596 97.9248 77.0596 94.1619 77.0596 89.4135Z" fill="#FF5985"/>
<path d="M89.5461 22.0398C89.4569 22.0398 89.3677 22.0398 89.2785 22.0398V10.9303C89.2785 10.1239 88.565 9.4072 87.7623 9.4072H76.7029C76.6137 4.74838 73.4029 1.07507 69.3002 1.07507C65.2866 1.07507 61.9867 4.83797 61.8975 9.4072H50.9272C50.1245 9.4072 49.411 10.1239 49.411 10.9303V22.0398C44.8623 22.1294 41.2056 25.4443 41.2056 29.3864C41.2056 33.4181 44.8623 36.6434 49.411 36.733V47.8425C49.411 48.6488 50.1245 49.3656 50.9272 49.3656H62.2542C62.2542 44.7067 65.5542 40.8543 69.6569 40.8543C73.7596 40.8543 77.0596 44.6171 77.0596 49.3656H87.7623C88.565 49.3656 89.2785 48.6488 89.2785 47.8425V36.8226C89.3677 36.8226 89.4569 36.8226 89.5461 36.8226C94.1839 36.8226 98.0191 33.5076 98.0191 29.3864C98.0191 25.3547 94.1839 22.0398 89.5461 22.0398Z" fill="#FEFEFE" stroke="black" stroke-width="2.3529" stroke-miterlimit="10"/>
<path d="M84.195 15.1411C84.0166 15.1411 83.749 15.1411 83.4815 15.1411C82.5896 15.1411 81.7869 15.1411 80.895 15.1411C80.3598 15.1411 79.9139 14.9619 79.8247 14.4244C79.8247 13.7972 80.2707 13.618 80.8058 13.618C82.1436 13.618 83.4815 13.618 84.8193 13.618C85.4436 13.618 85.8896 13.9764 85.8896 14.6932C85.8896 15.8579 85.8896 17.1122 85.8896 18.2769C85.8896 18.8144 85.7112 19.2624 85.0869 19.352C84.3734 19.352 84.2842 18.8144 84.2842 18.2769C84.2842 17.5601 84.2842 16.8434 84.2842 16.1266C84.3734 15.7683 84.3734 15.4099 84.195 15.1411Z" fill="#D05A9E"/>
<path d="M77.5947 15.1411C78.038 15.1411 78.3974 14.7801 78.3974 14.3348C78.3974 13.8895 78.038 13.5284 77.5947 13.5284C77.1514 13.5284 76.792 13.8895 76.792 14.3348C76.792 14.7801 77.1514 15.1411 77.5947 15.1411Z" fill="#D05A9E"/>
<path d="M85.4435 55.9954C85.2651 55.9954 84.9976 55.9954 84.73 55.9954C83.8381 55.9954 83.0354 55.9954 82.1435 55.9954C81.6084 55.9954 81.1624 55.8162 81.0732 55.2786C81.0732 54.6515 81.5192 54.4723 82.0543 54.4723C83.3922 54.4723 84.73 54.4723 86.0678 54.4723C86.6922 54.4723 87.1381 54.8307 87.1381 55.5474C87.1381 56.7121 87.1381 57.9664 87.1381 59.1311C87.1381 59.6687 86.9597 60.1166 86.3354 60.2062C85.6219 60.2062 85.5327 59.6687 85.5327 59.1311C85.5327 58.4144 85.5327 57.6976 85.5327 56.9809C85.6219 56.5329 85.7111 56.2641 85.4435 55.9954Z" fill="#FBFEFD"/>
<path d="M78.8432 55.9955C79.2866 55.9955 79.6459 55.6345 79.6459 55.1891C79.6459 54.7438 79.2866 54.3828 78.8432 54.3828C78.3999 54.3828 78.0405 54.7438 78.0405 55.1891C78.0405 55.6345 78.3999 55.9955 78.8432 55.9955Z" fill="#FBFEFD"/>
<path d="M9.54329 76.9602C9.63247 76.9602 9.72166 76.9602 9.81085 76.9602V88.0697C9.81085 88.876 10.5244 89.5928 11.3271 89.5928H22.3865C22.4757 94.2516 25.6865 97.9249 29.7892 97.9249C33.8919 97.9249 37.1027 94.162 37.1919 89.5928H48.2514C49.0541 89.5928 49.7676 88.876 49.7676 88.0697V76.9602C54.3163 76.8706 57.973 73.5557 57.973 69.6136C57.973 65.5819 54.3163 62.3566 49.7676 62.267V51.0679C49.7676 50.2615 49.0541 49.5448 48.2514 49.5448H36.8352C36.8352 54.2036 33.5352 58.0561 29.4325 58.0561C25.3298 58.0561 22.0298 54.2932 22.0298 49.5448H11.3271C10.5244 49.5448 9.81085 50.2615 9.81085 51.0679V62.1774C9.72166 62.1774 9.63247 62.1774 9.54329 62.1774C4.90545 62.1774 1.07031 65.4923 1.07031 69.6136C1.07031 73.6453 4.81626 76.9602 9.54329 76.9602Z" fill="#FEFEFE" stroke="black" stroke-width="2.3529" stroke-miterlimit="10"/>
<path d="M14.8948 83.7692C15.0732 83.7692 15.3407 83.7692 15.6083 83.7692C16.5002 83.7692 17.3029 83.7692 18.1948 83.7692C18.7299 83.7692 19.1759 83.9484 19.2651 84.486C19.2651 85.1131 18.8191 85.2923 18.284 85.2923C16.9461 85.2923 15.6083 85.2923 14.2705 85.2923C13.6461 85.2923 13.2002 84.9339 13.2002 84.2172C13.2002 83.0525 13.2002 81.7982 13.2002 80.6335C13.2002 80.0959 13.3786 79.6479 14.0029 79.5583C14.7164 79.5583 14.8056 80.0959 14.8056 80.6335C14.8056 81.3502 14.8056 82.0669 14.8056 82.7837C14.7164 83.2317 14.6272 83.5004 14.8948 83.7692Z" fill="#985EA4"/>
<path d="M21.4052 85.382C21.8486 85.382 22.2079 85.0209 22.2079 84.5756C22.2079 84.1303 21.8486 83.7693 21.4052 83.7693C20.9619 83.7693 20.6025 84.1303 20.6025 84.5756C20.6025 85.0209 20.9619 85.382 21.4052 85.382Z" fill="#985EA4"/>
<path d="M40.0458 10.4823H33.9809C33.4458 10.4823 32.9106 10.0343 32.9106 9.40714C32.9106 8.86959 33.3566 8.33203 33.9809 8.33203H40.0458C40.5809 8.33203 41.116 8.78 41.116 9.40714C41.116 10.0343 40.5809 10.4823 40.0458 10.4823Z" fill="#FF5985"/>
<path d="M29.4325 10.4823H23.3676C22.8325 10.4823 22.2974 10.0343 22.2974 9.40714C22.2974 8.86959 22.7433 8.33203 23.3676 8.33203H29.4325C29.9676 8.33203 30.5028 8.78 30.5028 9.40714C30.5028 10.0343 30.0568 10.4823 29.4325 10.4823Z" fill="#FF5985"/>
<path d="M18.8189 10.4823H17.0351C16.5 10.4823 15.9648 10.0343 15.9648 9.40714C15.9648 8.86959 16.4108 8.33203 17.0351 8.33203H18.8189C19.354 8.33203 19.8892 8.78 19.8892 9.40714C19.8892 10.0343 19.4432 10.4823 18.8189 10.4823Z" fill="#FF5985"/>
<path d="M45.7541 10.4823H44.5947C44.0595 10.4823 43.5244 10.0343 43.5244 9.40714C43.5244 8.86959 43.9704 8.33203 44.5947 8.33203H45.7541C46.2893 8.33203 46.8244 8.78 46.8244 9.40714C46.8244 10.0343 46.3785 10.4823 45.7541 10.4823Z" fill="#FF5985"/>
<path d="M8.74072 40.7646V34.6723C8.74072 34.1347 9.18667 33.5972 9.81099 33.5972C10.3461 33.5972 10.8813 34.0451 10.8813 34.6723V40.7646C10.8813 41.3021 10.4353 41.8397 9.81099 41.8397C9.27586 41.8397 8.74072 41.3021 8.74072 40.7646Z" fill="#FF5985"/>
<path d="M8.74072 30.1031V24.0108C8.74072 23.4732 9.18667 22.9357 9.81099 22.9357C10.3461 22.9357 10.8813 23.3836 10.8813 24.0108V30.1031C10.8813 30.6406 10.4353 31.1782 9.81099 31.1782C9.27586 31.1782 8.74072 30.6406 8.74072 30.1031Z" fill="#FF5985"/>
<path d="M8.74072 19.4415V17.5601C8.74072 17.0225 9.18667 16.485 9.81099 16.485C10.3461 16.485 10.8813 16.9329 10.8813 17.5601V19.4415C10.8813 19.9791 10.4353 20.5167 9.81099 20.5167C9.27586 20.5167 8.74072 19.9791 8.74072 19.4415Z" fill="#FF5985"/>
<path d="M8.74072 46.4986V45.3339C8.74072 44.7963 9.18667 44.2588 9.81099 44.2588C10.3461 44.2588 10.8813 44.7068 10.8813 45.3339V46.4986C10.8813 47.0362 10.4353 47.5737 9.81099 47.5737C9.27586 47.5737 8.74072 47.1258 8.74072 46.4986Z" fill="#FF5985"/>
<path d="M12.5755 8.42163H9.81067C9.72148 8.42163 9.63229 8.42163 9.63229 8.42163C9.45391 8.42163 9.27554 8.60082 9.09716 8.69041C9.00797 8.78 9.00797 8.78 9.00797 8.86959C8.91878 9.04878 8.82959 9.22797 8.82959 9.49674V12.9013C8.82959 13.3492 9.09716 13.7972 9.63229 13.9764C10.3458 14.1556 10.9701 13.618 10.9701 12.9909V11.2886C10.9701 10.9302 11.3269 10.5719 11.6836 10.5719H12.7539C13.3782 10.5719 13.9134 9.94471 13.735 9.22797C13.4674 8.69041 13.0215 8.42163 12.5755 8.42163Z" fill="#FF5985"/>
</g>
<defs>
<clipPath id="clip0">
<rect width="99" height="99" fill="white"/>
</clipPath>
</defs>
</svg>
