<svg width="69" height="110" viewBox="0 0 69 110" fill="none" xmlns="http://www.w3.org/2000/svg">
<g clip-path="url(#clip0)">
<path d="M34.9363 41.2127C39.7481 41.2127 43.6489 39.9202 43.6489 38.3258C43.6489 36.7315 39.7481 35.439 34.9363 35.439C30.1244 35.439 26.2236 36.7315 26.2236 38.3258C26.2236 39.9202 30.1244 41.2127 34.9363 41.2127Z" stroke="white" stroke-width="1.6498" stroke-miterlimit="10"/>
<path d="M31.9315 69.4841C32.374 69.4841 32.7327 69.1276 32.7327 68.6877C32.7327 68.2479 32.374 67.8914 31.9315 67.8914C31.4891 67.8914 31.1304 68.2479 31.1304 68.6877C31.1304 69.1276 31.4891 69.4841 31.9315 69.4841Z" fill="white"/>
<path d="M31.1306 70.7782L28.0261 74.1628C27.7257 74.4615 27.225 74.4615 26.9245 74.1628C26.6241 73.8642 26.6241 73.3665 26.9245 73.0678L30.029 69.6832C30.3295 69.3846 30.8302 69.3846 31.1306 69.6832C31.4311 69.8823 31.4311 70.38 31.1306 70.7782Z" fill="white"/>
<path d="M26.2233 75.9548L25.322 76.8507C25.0216 77.1493 24.5209 77.1493 24.2204 76.8507C23.92 76.552 23.92 76.0543 24.2204 75.7557L25.1217 74.8597C25.4222 74.5611 25.9229 74.5611 26.2233 74.8597C26.5238 75.1584 26.5238 75.6561 26.2233 75.9548Z" fill="white"/>
<path d="M58.9712 83.819L43.5488 67.4932V38.0271" stroke="white" stroke-width="1.6498" stroke-miterlimit="10"/>
<path d="M58.9711 84.6153C59.4136 84.6153 59.7722 84.2588 59.7722 83.819C59.7722 83.3791 59.4136 83.0226 58.9711 83.0226C58.5286 83.0226 58.1699 83.3791 58.1699 83.819C58.1699 84.2588 58.5286 84.6153 58.9711 84.6153Z" fill="white"/>
<path d="M10.8013 83.819L26.2236 67.4932V38.0271" stroke="white" stroke-width="1.6498" stroke-miterlimit="10"/>
<path d="M10.8012 84.6153C11.2436 84.6153 11.6023 84.2588 11.6023 83.819C11.6023 83.3791 11.2436 83.0226 10.8012 83.0226C10.3587 83.0226 10 83.3791 10 83.819C10 84.2588 10.3587 84.6153 10.8012 84.6153Z" fill="white"/>
<path d="M29.1479 93.5746C33.5543 91.285 37.2597 89.6922 40.1639 88.4977C42.6675 87.5022 44.6704 86.7058 47.1741 86.1085C50.3787 85.3121 52.6821 85.2126 54.8852 85.3121C57.7895 85.5112 58.9912 86.3076 59.3918 86.5067C60.7938 87.4026 61.4948 88.5972 62.0957 89.6922C62.997 91.285 64.1987 93.3755 63.7982 94.7691C62.6966 98.4524 50.7793 98.7511 41.7662 97.1583C36.3584 96.3619 32.0522 94.8687 29.1479 93.5746Z" fill="#D05A9E"/>
<path d="M0.00573347 104.923C0.806895 109.602 49.7779 112.688 67.5036 106.615C68.4049 106.317 68.8054 105.52 68.9056 104.525C69.1059 102.733 64.2989 88.1991 60.9941 89.095C60.0928 89.3936 60.193 90.3891 58.9912 91.9819C56.4876 95.3665 52.1814 95.1674 50.6792 95.1674C42.267 95.466 38.7619 88.3982 26.7445 85.3122C25.4426 85.0135 23.7401 84.6154 21.4368 84.6154C16.2292 84.6154 12.3236 86.8054 11.0217 87.6018C9.41938 88.5973 7.51662 89.6923 5.9143 91.8823C4.91285 93.5746 -0.194557 103.33 0.00573347 104.923Z" fill="#FF5985"/>
<path d="M12.1176 93.0769C12.56 93.0769 12.9187 92.7203 12.9187 92.2805C12.9187 91.8407 12.56 91.4841 12.1176 91.4841C11.6751 91.4841 11.3164 91.8407 11.3164 92.2805C11.3164 92.7203 11.6751 93.0769 12.1176 93.0769Z" fill="white"/>
<path d="M11.8174 94.4706L8.21214 101.041C8.01185 101.439 7.51112 101.538 7.11054 101.339C6.70996 101.14 6.60982 100.643 6.81011 100.244L10.4153 93.6742C10.6156 93.276 11.1163 93.1765 11.5169 93.3755C11.9175 93.6742 12.0177 94.1719 11.8174 94.4706Z" fill="white"/>
<path d="M21.8283 26.3459C23.5829 22.129 21.5679 17.2931 17.3275 15.5446C13.0871 13.7961 8.22716 15.7971 6.4725 20.014C4.71784 24.2308 6.73291 29.0667 10.9733 30.8153C15.2137 32.5638 20.0736 30.5628 21.8283 26.3459Z" fill="#FF5985"/>
<path d="M9.01326 23.1945C9.01326 22.9954 8.61268 20.8054 10.215 19.3122C11.617 17.9185 13.3195 18.018 13.6199 18.018" stroke="white" stroke-width="1.6498" stroke-miterlimit="10"/>
<path d="M9.01308 23.991C9.45554 23.991 9.81424 23.6344 9.81424 23.1946C9.81424 22.7547 9.45554 22.3982 9.01308 22.3982C8.57061 22.3982 8.21191 22.7547 8.21191 23.1946C8.21191 23.6344 8.57061 23.991 9.01308 23.991Z" fill="white"/>
<path d="M13.62 18.8144C14.0625 18.8144 14.4212 18.4579 14.4212 18.0181C14.4212 17.5782 14.0625 17.2217 13.62 17.2217C13.1775 17.2217 12.8188 17.5782 12.8188 18.0181C12.8188 18.4579 13.1775 18.8144 13.62 18.8144Z" fill="white"/>
<path d="M10.1146 26.5792C10.5571 26.5792 10.9158 26.2227 10.9158 25.7828C10.9158 25.343 10.5571 24.9865 10.1146 24.9865C9.67217 24.9865 9.31348 25.343 9.31348 25.7828C9.31348 26.2227 9.67217 26.5792 10.1146 26.5792Z" fill="white"/>
<path d="M40.2584 12.7421C43.7982 12.7421 46.6677 9.88967 46.6677 6.37104C46.6677 2.85241 43.7982 0 40.2584 0C36.7187 0 33.8491 2.85241 33.8491 6.37104C33.8491 9.88967 36.7187 12.7421 40.2584 12.7421Z" fill="#D05A9E"/>
<path d="M36.1524 7.3665C36.1524 7.16741 35.7518 4.97736 37.3542 3.48415C38.7562 2.09048 40.4587 2.19003 40.7591 2.19003" stroke="white" stroke-width="1.6498" stroke-miterlimit="10"/>
<path d="M36.1522 8.16295C36.5947 8.16295 36.9534 7.8064 36.9534 7.36657C36.9534 6.92674 36.5947 6.57019 36.1522 6.57019C35.7098 6.57019 35.3511 6.92674 35.3511 7.36657C35.3511 7.8064 35.7098 8.16295 36.1522 8.16295Z" fill="white"/>
<path d="M40.7592 2.98644C41.2016 2.98644 41.5603 2.62989 41.5603 2.19006C41.5603 1.75023 41.2016 1.39368 40.7592 1.39368C40.3167 1.39368 39.958 1.75023 39.958 2.19006C39.958 2.62989 40.3167 2.98644 40.7592 2.98644Z" fill="white"/>
<path d="M52.1757 33.448C56.1026 33.448 59.286 30.2836 59.286 26.3801C59.286 22.4767 56.1026 19.3123 52.1757 19.3123C48.2488 19.3123 45.0654 22.4767 45.0654 26.3801C45.0654 30.2836 48.2488 33.448 52.1757 33.448Z" fill="#985EA4"/>
<path d="M47.669 26.9775C47.669 26.7784 47.2684 24.5883 48.8708 23.0951C50.2728 21.7014 51.9753 21.801 52.2757 21.801" stroke="white" stroke-width="1.6498" stroke-miterlimit="10"/>
<path d="M47.6693 27.7738C48.1118 27.7738 48.4705 27.4172 48.4705 26.9774C48.4705 26.5376 48.1118 26.181 47.6693 26.181C47.2269 26.181 46.8682 26.5376 46.8682 26.9774C46.8682 27.4172 47.2269 27.7738 47.6693 27.7738Z" fill="white"/>
<path d="M52.1757 22.5973C52.6181 22.5973 52.9768 22.2407 52.9768 21.8009C52.9768 21.3611 52.6181 21.0045 52.1757 21.0045C51.7332 21.0045 51.3745 21.3611 51.3745 21.8009C51.3745 22.2407 51.7332 22.5973 52.1757 22.5973Z" fill="white"/>
<path d="M48.6708 30.362C49.1133 30.362 49.472 30.0055 49.472 29.5657C49.472 29.1258 49.1133 28.7693 48.6708 28.7693C48.2283 28.7693 47.8696 29.1258 47.8696 29.5657C47.8696 30.0055 48.2283 30.362 48.6708 30.362Z" fill="white"/>
</g>
<defs>
<clipPath id="clip0">
<rect width="69" height="110" fill="white"/>
</clipPath>
</defs>
</svg>
