<svg width="32" height="32" viewBox="0 0 32 32" fill="none" xmlns="http://www.w3.org/2000/svg">
<rect width="32" height="32" rx="16" fill="black" fill-opacity="0.03"/>
<mask id="mask0" mask-type="alpha" maskUnits="userSpaceOnUse" x="8" y="9" width="16" height="14">
<path d="M24 11.0982C23.4121 11.3692 22.7791 11.5525 22.1152 11.6345C22.7932 11.2132 23.3135 10.5453 23.5586 9.74962C22.9238 10.1397 22.2222 10.4234 21.4728 10.5755C20.8755 9.91343 20.0218 9.5 19.0771 9.5C17.2655 9.5 15.7957 11.026 15.7957 12.9079C15.7957 13.1751 15.8239 13.4345 15.8803 13.6841C13.1521 13.5417 10.7338 12.1863 9.11381 10.1221C8.83113 10.6272 8.6696 11.2132 8.6696 11.8373C8.6696 13.0191 9.24905 14.0624 10.13 14.6738C9.59277 14.6572 9.08564 14.5022 8.64237 14.2486V14.2906C8.64237 15.9424 9.77402 17.3202 11.2766 17.6322C11.0015 17.7121 10.7113 17.7521 10.4117 17.7521C10.2004 17.7521 9.99378 17.7316 9.79374 17.6917C10.2117 19.0451 11.4231 20.0309 12.86 20.0572C11.7368 20.9718 10.3206 21.5169 8.78324 21.5169C8.5184 21.5169 8.25638 21.5013 8 21.4701C9.45284 22.4354 11.179 23 13.0319 23C19.0705 23 22.3715 17.8077 22.3715 13.3038C22.3715 13.1556 22.3687 13.0074 22.3631 12.8621C23.0045 12.3814 23.5614 11.7817 24 11.0982Z" fill="white"/>
</mask>
<g mask="url(#mask0)">
<rect width="16" height="16" transform="translate(8 8)" fill="white"/>
<rect x="8" y="8" width="16" height="16" fill="#212529"/>
</g>
</svg>
